<svg xmlns="http://www.w3.org/2000/svg" xmlns:xlink="http://www.w3.org/1999/xlink" contentStyleType="text/css" data-diagram-type="DESCRIPTION" height="1018.75px" preserveAspectRatio="none" style="width:1345px;height:1018px;background:#FFFFFF;" version="1.1" viewBox="0 0 1345 1018" width="1345.3125px" zoomAndPan="magnify"><?plantuml 1.2026.6?><defs/><g><g class="title" data-source-line="2"><text fill="#111827" font-family="'Malgun Gothic'" font-size="21.875" font-weight="700" lengthAdjust="spacing" textLength="586.6516" x="374.5068" y="39.4333">AS-IS 00 &#8212; &#49884;&#49828;&#53596; &#52968;&#53581;&#49828;&#53944;: &#49324;&#50857;&#51088;&#50640;&#44172; &#48372;&#51060;&#45716; &#51200;&#51109; &#44221;&#44228;</text></g><!--entity User--><g class="entity" data-qualified-name="User" data-source-line="5" id="ent0001"><ellipse cx="103.064" cy="288.4705" fill="#F1F1F1" rx="12.5" ry="12.5" style="stroke:#181818;stroke-width:0.7813;"/><path d="M103.064,300.9705 L103.064,343.158 M82.7515,313.4705 L123.3765,313.4705 M103.064,343.158 L82.7515,366.5955 M103.064,343.158 L123.3765,366.5955" fill="none" style="stroke:#181818;stroke-width:0.7813;"/><text fill="#111827" font-family="'Malgun Gothic'" font-size="21.875" lengthAdjust="spacing" textLength="117.0654" x="44.5313" y="392.7475">&#54788;&#51116; &#49324;&#50857;&#51088;</text></g><!--entity Other--><g class="entity" data-qualified-name="Other" data-source-line="6" id="ent0002"><ellipse cx="103.1128" cy="466.5955" fill="#F1F1F1" rx="12.5" ry="12.5" style="stroke:#181818;stroke-width:0.7813;"/><path d="M103.1128,479.0955 L103.1128,521.283 M82.8003,491.5955 L123.4253,491.5955 M103.1128,521.283 L82.8003,544.7205 M103.1128,521.283 L123.4253,544.7205" fill="none" style="stroke:#181818;stroke-width:0.7813;"/><text fill="#111827" font-family="'Malgun Gothic'" font-size="21.875" lengthAdjust="spacing" textLength="117.0654" x="9.375" y="570.8725">&#46041;&#51068; &#49324;&#50857;&#51088;</text><text fill="#111827" font-family="'Malgun Gothic'" font-size="21.875" lengthAdjust="spacing" textLength="187.4756" x="9.375" y="599.968">&#45796;&#47480; &#44592;&#44592;&#183;&#48652;&#46972;&#50864;&#51200;</text></g><!--entity System--><g class="entity" data-qualified-name="System" data-source-line="8" id="ent0003"><rect fill="#F1F1F1" height="89.4409" rx="6.25" ry="6.25" style="stroke:#181818;stroke-width:0.7813;" width="190.2924" x="405.4688" y="389.2517"/><text fill="#111827" font-family="'Malgun Gothic'" font-size="21.875" lengthAdjust="spacing" textLength="159.0424" x="421.0938" y="428.685">IPE Learning OS</text><text fill="#111827" font-family="'Malgun Gothic'" font-size="21.875" lengthAdjust="spacing" textLength="138.9404" x="421.0938" y="457.7805">&#45436;&#47532;&#51201; &#49884;&#49828;&#53596;</text></g><!--entity Local--><g class="entity" data-qualified-name="Local" data-source-line="9" id="ent0004"><path d="M923.4375,86.908 C923.4375,71.283 1063.9038,71.283 1063.9038,71.283 C1063.9038,71.283 1204.3701,71.283 1204.3701,86.908 L1204.3701,159.1614 C1204.3701,174.7864 1063.9038,174.7864 1063.9038,174.7864 C1063.9038,174.7864 923.4375,174.7864 923.4375,159.1614 L923.4375,86.908" fill="#F1F1F1" style="stroke:#181818;stroke-width:0.7813;"/><path d="M923.4375,86.908 C923.4375,102.533 1063.9038,102.533 1063.9038,102.533 C1063.9038,102.533 1204.3701,102.533 1204.3701,86.908" fill="none" style="stroke:#181818;stroke-width:0.7813;"/><text fill="#111827" font-family="'Malgun Gothic'" font-size="21.875" lengthAdjust="spacing" textLength="217.2867" x="939.0625" y="132.5912">&#48652;&#46972;&#50864;&#51200; localStorage</text><text fill="#111827" font-family="'Malgun Gothic'" font-size="21.875" lengthAdjust="spacing" textLength="249.6826" x="939.0625" y="161.6867">&#44592;&#44592;&#183;&#54532;&#47196;&#54596;&#183;origin&#48324; &#48516;&#47532;</text></g><!--entity Supabase--><g class="entity" data-qualified-name="Supabase" data-source-line="10" id="ent0005"><path d="M945.3662,396.222 C950.794,386.6053 956.3003,385.2177 963.9407,393.9866 C968.4542,387.5059 975.2653,387.9673 979.3466,394.4983 C984.5103,386.6336 992.244,385.8745 997.2756,394.6407 C1000.2375,384.8564 1008.4657,382.1668 1015.4723,390.6008 C1020.3803,383.333 1026.5017,384.0825 1031.3883,390.6255 C1035.9456,381.7585 1042.7538,381.9856 1048.0394,389.903 C1053.7773,382.3069 1060.299,381.5204 1065.8007,390.1613 C1071.7368,381.4775 1077.3217,383.7928 1082.5383,390.9229 C1087.9528,381.6874 1093.6259,382.7649 1099.8783,390.0431 C1106.385,382.7976 1113.2442,383.2212 1117.1477,392.7268 C1123.0495,384.3228 1130.2553,383.9237 1135.1503,393.7225 C1140.2286,385.6047 1147.0598,385.5915 1151.3488,394.4746 C1155.7333,386.4706 1164.8436,383.8847 1170.4575,393.111 C1176.6983,384.6907 1183.0406,384.8772 1188.4218,393.9917 C1202.0152,398.3503 1200.7138,408.1437 1192.6882,416.5847 C1201.2054,420.8289 1205.1749,427.3522 1196.3328,435.0269 C1204.9541,444.4655 1200.9417,450.9057 1190.5124,454.7112 C1199.392,461.8758 1199.3692,470.9257 1187.6918,475.2699 C1181.9971,485.0663 1175.0495,486.2347 1167.974,476.6767 C1163.4391,482.6034 1158.0668,483.9192 1153.4205,476.8011 C1149.5348,484.6315 1141.9642,486.3777 1136.7186,478.2219 C1131.0313,487.4146 1122.9616,486.9587 1118.0399,477.457 C1113.7991,486.7456 1107.8944,486.4604 1101.3518,479.8771 C1096.2002,488.4942 1089.658,488.3795 1084.4185,479.9644 C1081.2069,488.7139 1072.8352,489.4339 1066.9866,482.9899 C1060.6915,491.6519 1055.4965,491.5878 1049.913,482.3127 C1044.3004,490.4637 1036.0294,489.7291 1032.8784,479.9713 C1026.5635,488.6673 1016.6818,488.0777 1012.7672,477.4704 C1009.1135,485.6785 1002.3458,484.3809 997.9952,478.1852 C990.7808,487.2759 983.5997,487.5949 978.4079,476.2468 C975.1321,482.8621 968.7504,484.0249 964.0363,477.8649 C958.8461,484.7292 950.0259,484.4521 946.1856,476.2642 C936.4301,472.7108 932.6692,465.8822 940.5328,457.125 C928.6402,453.5637 925.6397,445.4619 932.9868,435.2605 C925.9498,426.2757 928.7926,415.4067 941.5772,414.706 C934.3376,407.5527 936.2081,400.0139 945.3662,396.222" fill="#F1F1F1" style="stroke:#181818;stroke-width:0.7813;"/><text fill="#111827" font-family="'Malgun Gothic'" font-size="21.875" lengthAdjust="spacing" textLength="219.487" x="954.6875" y="428.685">Supabase &#50896;&#44201; &#51200;&#51109;&#49548;</text><text fill="#111827" font-family="'Malgun Gothic'" font-size="21.875" lengthAdjust="spacing" textLength="206.8832" x="954.6875" y="457.7805">revision + projection</text></g><!--entity Backup--><g class="entity" data-qualified-name="Backup" data-source-line="11" id="ent0006"><path d="M970.3125,672.0642 L970.3125,719.9097 A6.25,6.25 0 0 0 976.5625,726.1597 L1151.5991,726.1597 A6.25,6.25 0 0 0 1157.8491,719.9097 L1157.8491,681.4392 L1142.2241,665.8142 L976.5625,665.8142 A6.25,6.25 0 0 0 970.3125,672.0642" fill="#F1F1F1" style="stroke:#181818;stroke-width:0.7813;"/><path d="M1142.2241,665.8142 L1142.2241,675.1892 A6.25,6.25 0 0 0 1148.4741,681.4392 L1157.8491,681.4392" fill="#F1F1F1" style="stroke:#181818;stroke-width:0.7813;"/><text fill="#111827" font-family="'Malgun Gothic'" font-size="21.875" lengthAdjust="spacing" textLength="156.2866" x="985.9375" y="705.2475">JSON &#48177;&#50629; &#54028;&#51068;</text></g><g class="entity" data-qualified-name="GMN12" data-source-line="20" id="ent0013"><path d="M804.6875,235.3455 L804.6875,319.5221 A6.25,6.25 0 0 0 810.9375,325.7721 L1316.9151,325.7721 A6.25,6.25 0 0 0 1323.1651,319.5221 L1323.1651,244.7205 L1307.5401,229.0955 L1070.3125,229.0955 L1064.0625,174.783 L1057.8125,229.0955 L810.9375,229.0955 A6.25,6.25 0 0 0 804.6875,235.3455" fill="#FFF8DC" style="stroke:#8B7355;stroke-width:0.7813;"/><path d="M1307.5401,229.0955 L1307.5401,241.5955 A3.125,3.125 0 0 0 1310.6651,244.7205 L1323.1651,244.7205 L1307.5401,229.0955" fill="#FFF8DC" style="stroke:#8B7355;stroke-width:0.7813;"/><text fill="#111827" font-family="'Malgun Gothic'" font-size="20.3125" lengthAdjust="spacing" textLength="485.6651" x="814.0625" y="259.0157">&#44033; &#49892;&#54665; &#51064;&#49828;&#53556;&#49828;&#45716; &#49436;&#47196; &#45796;&#47480; localStorage&#47484; &#44032;&#51652;&#45796;.</text><text fill="#111827" font-family="'Malgun Gothic'" font-size="20.3125" lengthAdjust="spacing" textLength="418.4692" x="814.0625" y="286.0329">&#49352;&#47196;&#44256;&#52840;&#51008; &#44057;&#51008; origin &#51200;&#51109;&#49548;&#47484; &#45796;&#49884; &#51069;&#51648;&#47564;,</text><text fill="#111827" font-family="'Malgun Gothic'" font-size="20.3125" lengthAdjust="spacing" textLength="408.8684" x="814.0625" y="313.0501">&#45796;&#47480; &#44592;&#44592;&#50752; &#51088;&#46041;&#51004;&#47196; &#54633;&#52432;&#51648;&#51648;&#45716; &#50506;&#45716;&#45796;. [S]</text></g><g class="entity" data-qualified-name="GMN15" data-source-line="26" id="ent0016"><path d="M839.0625,547.0642 L839.0625,604.2236 A6.25,6.25 0 0 0 845.3125,610.4736 L1282.547,610.4736 A6.25,6.25 0 0 0 1288.797,604.2236 L1288.797,556.4392 L1273.172,540.8142 L1070.3125,540.8142 L1064.0625,486.3298 L1057.8125,540.8142 L845.3125,540.8142 A6.25,6.25 0 0 0 839.0625,547.0642" fill="#FFF8DC" style="stroke:#8B7355;stroke-width:0.7813;"/><path d="M1273.172,540.8142 L1273.172,553.3142 A3.125,3.125 0 0 0 1276.297,556.4392 L1288.797,556.4392 L1273.172,540.8142" fill="#FFF8DC" style="stroke:#8B7355;stroke-width:0.7813;"/><text fill="#111827" font-family="'Malgun Gothic'" font-size="20.3125" lengthAdjust="spacing" textLength="325.0198" x="848.4375" y="570.7344">&#49324;&#50857;&#51088; &#44228;&#51221; &#45824;&#49888; &#44277;&#50976; syncKey&#50640;&#49436;</text><text fill="#111827" font-family="'Malgun Gothic'" font-size="20.3125" lengthAdjust="spacing" textLength="416.922" x="848.4375" y="597.7516">workspace ID&#50752; write hash&#47484; &#54028;&#49373;&#54620;&#45796;. [S][D]</text></g><g class="entity" data-qualified-name="GMN18" data-source-line="31" id="ent0019"><path d="M290.625,539.2517 L290.625,596.4111 A6.25,6.25 0 0 0 296.875,602.6611 L705.188,602.6611 A6.25,6.25 0 0 0 711.438,596.4111 L711.438,548.6267 L695.813,533.0017 L507.8125,533.0017 L501.5625,478.533 L495.3125,533.0017 L296.875,533.0017 A6.25,6.25 0 0 0 290.625,539.2517" fill="#FFF8DC" style="stroke:#8B7355;stroke-width:0.7813;"/><path d="M695.813,533.0017 L695.813,545.5017 A3.125,3.125 0 0 0 698.938,548.6267 L711.438,548.6267 L695.813,533.0017" fill="#FFF8DC" style="stroke:#8B7355;stroke-width:0.7813;"/><text fill="#111827" font-family="'Malgun Gothic'" font-size="20.3125" lengthAdjust="spacing" textLength="388.0005" x="300" y="562.9219">&#45236;&#48512; App&#183;Atlas&#183;Bridge&#183;Sync &#44396;&#49457;&#51008; 02&#50640;&#49436;,</text><text fill="#111827" font-family="'Malgun Gothic'" font-size="20.3125" lengthAdjust="spacing" textLength="360.0708" x="300" y="589.9391">&#49892;&#54665; &#45432;&#46300;&#50752; &#48373;&#49324;&#48376;&#51008; 01&#50640;&#49436; &#49444;&#47749;&#54620;&#45796;.</text></g><!--link User to System--><g class="link" data-entity-1="ent0001" data-entity-2="ent0003" data-link-type="dependency" data-source-line="13" id="lnk7"><path d="M103.125,398.7673 C103.125,413.9548 103.125,425.9705 103.125,425.9705 C103.125,425.9705 279.5469,425.9705 397.2188,425.9705" fill="none" id="User-to-System" style="stroke:#4B5563;stroke-width:1.5625;"/><polygon fill="#4B5563" points="405.0313,425.9705,390.9688,419.7205,397.2188,425.9705,390.9688,432.2205,405.0313,425.9705" style="stroke:#4B5563;stroke-width:1.5625;stroke-linejoin:miter;stroke-miterlimit:10;"/><text fill="#111827" font-family="'Malgun Gothic'" font-size="20.3125" lengthAdjust="spacing" textLength="175.8301" x="63.9063" y="449.6407">&#54617;&#49845;&#183;&#54200;&#51665;&#183;&#51200;&#51109;&#183;&#48373;&#44396;</text></g><!--link Other to System--><g class="link" data-entity-1="ent0002" data-entity-2="ent0003" data-link-type="dependency" data-source-line="14" id="lnk8"><path d="M197.3594,465.8142 C260.0625,465.8142 334.3594,465.8142 397.3438,465.8142" fill="none" id="Other-to-System" style="stroke:#4B5563;stroke-width:1.5625;"/><polygon fill="#4B5563" points="405.1563,465.8142,391.0938,459.5642,397.3438,465.8142,391.0938,472.0642,405.1563,465.8142" style="stroke:#4B5563;stroke-width:1.5625;stroke-linejoin:miter;stroke-miterlimit:10;"/><text fill="#111827" font-family="'Malgun Gothic'" font-size="20.3125" lengthAdjust="spacing" textLength="353.5645" x="302.8125" y="489.4844">&#44057;&#51008; &#54532;&#47196;&#44536;&#47016;&#51012; &#48324;&#46020; &#51064;&#49828;&#53556;&#49828;&#47196; &#49892;&#54665;</text></g><!--link System to Local--><g class="link" data-entity-1="ent0003" data-entity-2="ent0004" data-link-type="dependency" data-source-line="15" id="lnk9"><path d="M501.5625,381.4236 C501.5625,295.4392 501.5625,122.8455 501.5625,122.8455 C501.5625,122.8455 748.4063,122.8455 915.0313,122.8455" fill="none" id="System-Local" style="stroke:#4B5563;stroke-width:1.5625;"/><polygon fill="#4B5563" points="501.5625,389.2361,507.8125,375.1736,501.5625,381.4236,495.3125,375.1736,501.5625,389.2361" style="stroke:#4B5563;stroke-width:1.5625;stroke-linejoin:miter;stroke-miterlimit:10;"/><polygon fill="#4B5563" points="922.8438,122.8455,908.7813,116.5955,915.0313,122.8455,908.7813,129.0955,922.8438,122.8455" style="stroke:#4B5563;stroke-width:1.5625;stroke-linejoin:miter;stroke-miterlimit:10;"/><text fill="#111827" font-family="'Malgun Gothic'" font-size="20.3125" lengthAdjust="spacing" textLength="211.7737" x="366.5156" y="146.5157">&#51088;&#46041;&#183;&#49688;&#46041; &#47196;&#52972; &#51200;&#51109; [S]</text></g><!--link System to Supabase--><g class="link" data-entity-1="ent0003" data-entity-2="ent0005" data-link-type="dependency" data-source-line="16" id="lnk10"><path d="M604.1406,418.9392 C696.1094,418.9392 820.375,418.9392 923.2188,418.9392" fill="none" id="System-Supabase" style="stroke:#4B5563;stroke-width:1.5625;"/><polygon fill="#4B5563" points="596.3281,418.9392,610.3906,425.1892,604.1406,418.9392,610.3906,412.6892,596.3281,418.9392" style="stroke:#4B5563;stroke-width:1.5625;stroke-linejoin:miter;stroke-miterlimit:10;"/><polygon fill="#4B5563" points="931.0313,418.9392,916.9688,412.6892,923.2188,418.9392,916.9688,425.1892,931.0313,418.9392" style="stroke:#4B5563;stroke-width:1.5625;stroke-linejoin:miter;stroke-miterlimit:10;"/><text fill="#111827" font-family="'Malgun Gothic'" font-size="20.3125" lengthAdjust="spacing" textLength="197.0848" x="539.7369" y="386.3594">syncKey workspace&#50640;</text><text fill="#111827" font-family="'Malgun Gothic'" font-size="20.3125" lengthAdjust="spacing" textLength="249.2149" x="513.6719" y="413.3766">revision commit&#183;load [S][D]</text></g><!--link System to Backup--><g class="link" data-entity-1="ent0003" data-entity-2="ent0006" data-link-type="dependency" data-source-line="17" id="lnk11"><path d="M604.2969,448.6267 C677.375,448.6267 757.8125,448.6267 757.8125,448.6267 C757.8125,448.6267 757.8125,696.283 757.8125,696.283 C757.8125,696.283 872.2656,696.283 962.2813,696.283" fill="none" id="System-Backup" style="stroke:#4B5563;stroke-width:1.5625;"/><polygon fill="#4B5563" points="596.4844,448.6267,610.5469,454.8767,604.2969,448.6267,610.5469,442.3767,596.4844,448.6267" style="stroke:#4B5563;stroke-width:1.5625;stroke-linejoin:miter;stroke-miterlimit:10;"/><polygon fill="#4B5563" points="970.0938,696.283,956.0313,690.033,962.2813,696.283,956.0313,702.533,970.0938,696.283" style="stroke:#4B5563;stroke-width:1.5625;stroke-linejoin:miter;stroke-miterlimit:10;"/><text fill="#111827" font-family="'Malgun Gothic'" font-size="20.3125" lengthAdjust="spacing" textLength="324.8215" x="432.8125" y="621.6094">schema v3 &#45236;&#48372;&#45236;&#44592;&#183;&#44032;&#51256;&#50724;&#44592; [S][F]</text></g><g class="legend" data-source-line="35"><rect fill="#F8FAFC" height="196.4478" rx="6.25" ry="6.25" style="stroke:#94A3B8;stroke-width:1.5625;" width="236.7676" x="1080.1476" y="758.9722"/><text fill="#111827" font-family="'Malgun Gothic'" font-size="21.875" font-weight="700" lengthAdjust="spacing" textLength="43.75" x="1095.6505" y="793.718">&#54364;&#44592;</text><text fill="#111827" font-family="'Malgun Gothic'" font-size="21.875" font-weight="700" lengthAdjust="spacing" textLength="43.75" x="1154.7813" y="793.718">&#44540;&#44144;</text><text fill="#111827" font-family="'Malgun Gothic'" font-size="21.875" lengthAdjust="spacing" textLength="25.2075" x="1095.6505" y="822.8134">[S]</text><text fill="#111827" font-family="'Malgun Gothic'" font-size="21.875" lengthAdjust="spacing" textLength="95.1904" x="1154.7813" y="822.8134">&#51221;&#51201; &#53076;&#46300;</text><text fill="#111827" font-family="'Malgun Gothic'" font-size="21.875" lengthAdjust="spacing" textLength="29.0207" x="1095.6505" y="851.9089">[D]</text><text fill="#111827" font-family="'Malgun Gothic'" font-size="21.875" lengthAdjust="spacing" textLength="76.8295" x="1154.7813" y="851.9089">DB/RPC</text><text fill="#111827" font-family="'Malgun Gothic'" font-size="21.875" lengthAdjust="spacing" textLength="24.2355" x="1095.6505" y="881.0043">[F]</text><text fill="#111827" font-family="'Malgun Gothic'" font-size="21.875" lengthAdjust="spacing" textLength="95.1904" x="1154.7813" y="881.0043">&#49892;&#51228; &#48177;&#50629;</text><text fill="#111827" font-family="'Malgun Gothic'" font-size="21.875" lengthAdjust="spacing" textLength="26.6708" x="1095.6505" y="910.0998">[R]</text><text fill="#111827" font-family="'Malgun Gothic'" font-size="21.875" lengthAdjust="spacing" textLength="117.0654" x="1154.7813" y="910.0998">&#47088;&#53440;&#51076; &#51116;&#54788;</text><text fill="#111827" font-family="'Malgun Gothic'" font-size="21.875" lengthAdjust="spacing" textLength="19.2368" x="1095.6505" y="939.1953">[I]</text><text fill="#111827" font-family="'Malgun Gothic'" font-size="21.875" lengthAdjust="spacing" textLength="146.6309" x="1154.7813" y="939.1953">&#44540;&#44144; &#44592;&#48152; &#52628;&#47200;</text><line style="stroke:#111827;stroke-width:1.5625;" x1="1087.9601" x2="1309.1026" y1="769.9097" y2="769.9097"/><line style="stroke:#111827;stroke-width:1.5625;" x1="1087.9601" x2="1309.1026" y1="799.0051" y2="799.0051"/><line style="stroke:#111827;stroke-width:1.5625;" x1="1087.9601" x2="1309.1026" y1="828.1006" y2="828.1006"/><line style="stroke:#111827;stroke-width:1.5625;" x1="1087.9601" x2="1309.1026" y1="857.196" y2="857.196"/><line style="stroke:#111827;stroke-width:1.5625;" x1="1087.9601" x2="1309.1026" y1="886.2915" y2="886.2915"/><line style="stroke:#111827;stroke-width:1.5625;" x1="1087.9601" x2="1309.1026" y1="915.387" y2="915.387"/><line style="stroke:#111827;stroke-width:1.5625;" x1="1087.9601" x2="1309.1026" y1="944.4824" y2="944.4824"/><line style="stroke:#111827;stroke-width:1.5625;" x1="1087.9601" x2="1087.9601" y1="769.9097" y2="944.4824"/><line style="stroke:#111827;stroke-width:1.5625;" x1="1147.0909" x2="1147.0909" y1="769.9097" y2="944.4824"/><line style="stroke:#111827;stroke-width:1.5625;" x1="1309.1026" x2="1309.1026" y1="769.9097" y2="944.4824"/></g><g class="caption" data-source-line="44"><text fill="#111827" font-family="'Malgun Gothic'" font-size="21.875" lengthAdjust="spacing" textLength="1073.9471" x="130.859" y="1001.1032">&#54620; &#49324;&#50857;&#51088;&#44032; &#50668;&#47084; &#49892;&#54665; &#51064;&#49828;&#53556;&#49828;&#47484; &#49324;&#50857;&#54624; &#49688; &#51080;&#51648;&#47564;, &#47196;&#52972; &#51200;&#51109;&#51008; &#48516;&#47532;&#46104;&#44256; Supabase workspace&#47564; &#44277;&#50976;&#46108;&#45796;.</text></g><?plantuml-src TLHTRzja5BxthpZq5ZeAt5M0r58c5IOwBU9gdP3dk8cPOqUsiwaI5zdgJ5qQM2OQcWudywIKjYWNwTBMHajlybEuz7ly7pZ77qqZG8eSlpwVptEUytwW6OfUAwhmW-riw-gjQgsYIuxcw2gi51RN2x2q17_Nzm7tF6mEueO7-FuaRlpCXsQu3FXiYAzFiT_6WtRqhWLYV8wzSz6a2B-E_IE8tbr5OrVIrIq771CihLHseAXPgk9efY59ikAO5Yp4NHVxmrcw1P1j-DvMhTn1l3p4tcJci6c8lO4u2Y4AH_IR1Y9iYTu4Nu-eS1AzuPGfNE9Aib4YG0lhTx-6Ewfi6PfHWeq2fMXCn1z3z9_Ey2MXXMtRKIjIKNRaXx9DaJUJWsugibwWhkIIkcdazUDzLxprueux3Kn2gHbYx8AuTAb0alCEHqcARjQAi52eLTFC-3lHTfgHXSzRcuQbFjPieWO-XAfb_fZob7QL1KbR6gFvfh3n7OZH6Huq86wrY9t4QrLM7jMgaiJamUBYbnaOM8QuSuZD2-hqbn2FNqs3j2WnDxw8BePImjTyH3GYqkkGGek2KFHFi4UengvuwGBsGkRCFQSdsOd3GVpR2ocB_fmp9Q0f4GsC1aWbTxlq3-IDxuUvHEuN7im5NPEp3FQseNohRiCJqtfaLsL59PdTe4WnAnNDcGQwAHSvpVsr-Kmf5vn7AQiL6Hv_1kBPEMcKdidGeb4T_H2x0peb2Mu_a2J3T5HuQ3gEMG5pAniS41bFCuZpo5dhhiS4P8gygGznD04kSkoIyHPbmPrTvdBiurydp6r6SIgPcGuuZY98bbJi2e_huhZr4ONFYHuFwncpw4suWRXpYkCsUNC0zzLfqXzNJaXMZI8mk7z1l5OMp1OCQ6tHxu1erN7FfzC5Udu-41e3OIRtwy70-XgtyyJIA7DPjikCW6MvquixNju23-Z_kqYt3f8PNTPXfLgT1YkEBjlJODNIYYLr6XIeFf1QqJrZsfO-JJjXQhBPY4OeVlMu5z8reH7ZCF7y9FMaMGt4dusifnlDw6g93ya5HTb--WBYLnxBWjwYO1ATqHj_PnZq96gIU-DgdwhbbZMshAr-VE_kL_cdsuapJTBtycNDBFVO8jwCuXsQEMrJVqYNO6vSPsDMbfeGeoxWvRvuwvC3jPasAqcANENhWGRlpIP7UWCy68etm__Kwr5-YyOT7sWXgV9k9h3vnMJQqWjCjBkasDbYNa-TWZ9bY7P2w3y0?></g></svg>