<svg xmlns="http://www.w3.org/2000/svg" xmlns:xlink="http://www.w3.org/1999/xlink" contentStyleType="text/css" data-diagram-type="DESCRIPTION" height="1114.0625px" preserveAspectRatio="none" style="width:1867px;height:1114px;background:#FFFFFF;" version="1.1" viewBox="0 0 1867 1114" width="1867.1875px" zoomAndPan="magnify"><?plantuml 1.2026.6?><defs/><g><g class="title" data-source-line="2"><text fill="#111827" font-family="'Malgun Gothic'" font-size="21.875" font-weight="700" lengthAdjust="spacing" textLength="287.6648" x="784.6092" y="39.4333">AS-IS 00 &#8212; &#49884;&#49828;&#53596; &#52968;&#53581;&#49828;&#53944;</text></g><!--cluster System--><g class="cluster" data-qualified-name="System" data-source-line="7" id="ent0002"><rect fill="none" height="376.5625" rx="6.25" ry="6.25" style="stroke:#64748B;stroke-width:1.5625;" width="831.25" x="703.125" y="205.658"/><text fill="#111827" font-family="'Malgun Gothic'" font-size="21.875" font-weight="700" lengthAdjust="spacing" textLength="166.7862" x="1035.3569" y="232.5912">IPE Learning OS</text><text fill="#111827" font-family="'Malgun Gothic'" font-size="21.875" font-weight="700" lengthAdjust="spacing" textLength="226.4404" x="1005.5298" y="261.6867">&#48652;&#46972;&#50864;&#51200; &#50528;&#54540;&#47532;&#52992;&#51060;&#49496;</text></g><!--entity App--><g class="entity" data-qualified-name="System.App" data-source-line="8" id="ent0003"><rect fill="#F1F1F1" height="75.9705" rx="6.25" ry="6.25" style="stroke:#181818;stroke-width:0.7813;" width="206.0547" x="740.625" y="437.6892"/><rect fill="#F1F1F1" height="15.625" style="stroke:#181818;stroke-width:0.7813;" width="23.4375" x="915.4297" y="445.5017"/><rect fill="#F1F1F1" height="3.125" style="stroke:#181818;stroke-width:0.7813;" width="6.25" x="912.3047" y="448.6267"/><rect fill="#F1F1F1" height="3.125" style="stroke:#181818;stroke-width:0.7813;" width="6.25" x="912.3047" y="454.8767"/><text fill="#111827" font-family="'Malgun Gothic'" font-size="21.875" lengthAdjust="spacing" textLength="143.5547" x="764.0625" y="492.7475">&#54617;&#49845; &#51652;&#46020; App</text></g><!--entity Atlas--><g class="entity" data-qualified-name="System.Atlas" data-source-line="9" id="ent0004"><rect fill="#F1F1F1" height="75.9705" rx="6.25" ry="6.25" style="stroke:#181818;stroke-width:0.7813;" width="200.7248" x="743.75" y="306.4392"/><rect fill="#F1F1F1" height="15.625" style="stroke:#181818;stroke-width:0.7813;" width="23.4375" x="913.2248" y="314.2517"/><rect fill="#F1F1F1" height="3.125" style="stroke:#181818;stroke-width:0.7813;" width="6.25" x="910.0998" y="317.3767"/><rect fill="#F1F1F1" height="3.125" style="stroke:#181818;stroke-width:0.7813;" width="6.25" x="910.0998" y="323.6267"/><text fill="#111827" font-family="'Malgun Gothic'" font-size="21.875" lengthAdjust="spacing" textLength="138.2248" x="767.1875" y="361.4975">Concept Atlas</text></g><!--entity Bridge--><g class="entity" data-qualified-name="System.Bridge" data-source-line="10" id="ent0005"><rect fill="#F1F1F1" height="75.9705" rx="6.25" ry="6.25" style="stroke:#181818;stroke-width:0.7813;" width="126.4267" x="1281.25" y="437.6892"/><rect fill="#F1F1F1" height="15.625" style="stroke:#181818;stroke-width:0.7813;" width="23.4375" x="1376.4267" y="445.5017"/><rect fill="#F1F1F1" height="3.125" style="stroke:#181818;stroke-width:0.7813;" width="6.25" x="1373.3017" y="448.6267"/><rect fill="#F1F1F1" height="3.125" style="stroke:#181818;stroke-width:0.7813;" width="6.25" x="1373.3017" y="454.8767"/><text fill="#111827" font-family="'Malgun Gothic'" font-size="21.875" lengthAdjust="spacing" textLength="63.9267" x="1304.6875" y="492.7475">Bridge</text></g><!--entity Sync--><g class="entity" data-qualified-name="System.Sync" data-source-line="11" id="ent0006"><rect fill="#F1F1F1" height="75.9705" rx="6.25" ry="6.25" style="stroke:#181818;stroke-width:0.7813;" width="304.6951" x="1192.1875" y="306.4392"/><rect fill="#F1F1F1" height="15.625" style="stroke:#181818;stroke-width:0.7813;" width="23.4375" x="1465.6326" y="314.2517"/><rect fill="#F1F1F1" height="3.125" style="stroke:#181818;stroke-width:0.7813;" width="6.25" x="1462.5076" y="317.3767"/><rect fill="#F1F1F1" height="3.125" style="stroke:#181818;stroke-width:0.7813;" width="6.25" x="1462.5076" y="323.6267"/><text fill="#111827" font-family="'Malgun Gothic'" font-size="21.875" lengthAdjust="spacing" textLength="242.1951" x="1215.625" y="361.4975">&#53685;&#54633; &#51200;&#51109; UI/&#53076;&#46356;&#45348;&#51060;&#53552;</text></g><!--entity User--><g class="entity" data-qualified-name="User" data-source-line="5" id="ent0001"><ellipse cx="413.2813" cy="443.158" fill="#F1F1F1" rx="12.5" ry="12.5" style="stroke:#181818;stroke-width:0.7813;"/><path d="M413.2813,455.658 L413.2813,497.8455 M392.9688,468.158 L433.5938,468.158 M413.2813,497.8455 L392.9688,521.283 M413.2813,497.8455 L433.5938,521.283" fill="none" style="stroke:#181818;stroke-width:0.7813;"/><text fill="#111827" font-family="'Malgun Gothic'" font-size="21.875" lengthAdjust="spacing" textLength="65.625" x="380.4688" y="547.435">&#49324;&#50857;&#51088;</text></g><!--entity Hosting--><g class="entity" data-qualified-name="Hosting" data-source-line="14" id="ent0007"><path d="M345.5499,622.6954 C348.4966,613.0831 354.9805,611.6065 361.6297,619.2442 C366.1518,609.1259 374.016,606.8808 381.1594,616.6731 C383.4568,608.0284 389.324,606.485 396.3263,611.4172 C400.5756,603.5182 407.7853,602.3394 413.5087,609.7642 C421.2503,602.6222 428.1627,603.2381 433.3756,612.776 C441.2627,606.0859 446.0976,607.5646 449.6029,617.146 C454.0235,610.4357 461.9965,609.4432 465.928,617.6802 C473.3213,612.1175 480.2056,614.7389 482.715,623.4315 C497.1809,627.2511 498.0192,638.4085 488.3007,647.7769 C498.3946,656.9486 499.563,667.1706 485.3083,673.511 C482.5647,683.3653 474.3035,684.5637 468.4605,676.4109 C463.5112,684.7047 456.2335,686.8306 450.4379,677.265 C444.7366,686.4543 438.4682,687.8483 431.1984,678.9317 C425.3009,686.1168 419.905,687.7121 413.7108,679.2636 C409.3164,685.9079 402.9725,685.9331 399.0205,678.7922 C392.8497,688.2192 385.3252,686.7676 380.2137,677.7142 C374.8734,684.4337 368.1393,683.4301 364.5077,675.8389 C356.4017,684.3356 348.8826,681.5417 344.6254,671.6724 C334.0454,668.276 329.2132,658.0629 338.7115,649.3477 C327.4546,636.929 329.0726,627.9981 345.5499,622.6954" fill="#F1F1F1" style="stroke:#181818;stroke-width:0.7813;"/><text fill="#111827" font-family="'Malgun Gothic'" font-size="21.875" lengthAdjust="spacing" textLength="117.0654" x="354.6875" y="655.2475">&#51221;&#51201; &#54840;&#49828;&#54021;</text></g><!--entity Supabase--><g class="entity" data-qualified-name="Supabase" data-source-line="15" id="ent0008"><path d="M1237.5886,633.3917 C1241.5545,625.0542 1248.8593,623.5147 1254.9908,631.0115 C1261.4876,620.7677 1269.0516,621.44 1274.537,631.9634 C1278.1481,623.2739 1284.9065,621.7697 1290.676,629.8912 C1293.9524,617.8763 1301.5435,615.4463 1310.5087,624.5485 C1315.2725,615.9069 1321.3594,616.1982 1327.7601,622.6814 C1333.5544,614.3382 1339.6196,613.2046 1346.7211,621.1607 C1353.5389,613.0814 1360.8485,614.2913 1365.5916,623.434 C1372.2665,615.0679 1377.797,615.5412 1382.5299,625.2535 C1389.5876,616.0628 1399.2249,618.9567 1402.5946,629.0842 C1407.5075,621.2734 1416.4248,620.9261 1420.3296,630.1347 C1427.5702,621.8 1434.5602,622.2046 1439.9728,632.1041 C1446.0741,625.3974 1452.0585,627.3346 1455.5458,634.947 C1469.6278,636.2548 1475.2694,648.858 1467.171,660.3259 C1475.3881,671.2534 1469.4999,682.8672 1456.7716,684.9482 C1452.4066,694.5144 1444.0162,695.0686 1438.3447,686.2583 C1433.7546,695.9802 1424.8132,697.7214 1418.6282,687.8645 C1414.6386,697.3806 1406.0142,696.7769 1400.8283,689.1031 C1397.1361,697.656 1388.8753,697.8078 1384.3285,689.963 C1379.032,701.4173 1372.5506,702.4574 1364.2093,692.8749 C1357.4436,702.2734 1350.8625,702.0632 1344.8866,692.0872 C1339.5414,698.0272 1333.8652,698.1251 1329.6748,690.7662 C1322.4781,702.5155 1315.4344,700.0654 1308.2138,690.7907 C1303.093,697.0066 1296.5205,696.337 1292.7869,689.1893 C1285.4711,698.1284 1277.3895,696.9214 1271.9961,687.063 C1266.7679,695.9191 1260.9196,694.7803 1255.7085,687.0463 C1250.3142,696.6325 1241.7647,695.3726 1236.2561,687.1712 C1219.9208,683.1537 1213.2507,675.7107 1223.6275,659.5016 C1217.398,645.0687 1220.6994,635.4628 1237.5886,633.3917" fill="#F1F1F1" style="stroke:#181818;stroke-width:0.7813;"/><text fill="#111827" font-family="'Malgun Gothic'" font-size="21.875" lengthAdjust="spacing" textLength="199.0005" x="1245.3125" y="667.7475">Supabase REST/RPC</text></g><!--entity DB--><g class="entity" data-qualified-name="DB" data-source-line="16" id="ent0009"><path d="M1590.625,622.8455 C1590.625,607.2205 1709.6916,607.2205 1709.6916,607.2205 C1709.6916,607.2205 1828.7582,607.2205 1828.7582,622.8455 L1828.7582,695.0989 C1828.7582,710.7239 1709.6916,710.7239 1709.6916,710.7239 C1709.6916,710.7239 1590.625,710.7239 1590.625,695.0989 L1590.625,622.8455" fill="#F1F1F1" style="stroke:#181818;stroke-width:0.7813;"/><path d="M1590.625,622.8455 C1590.625,638.4705 1709.6916,638.4705 1709.6916,638.4705 C1709.6916,638.4705 1828.7582,638.4705 1828.7582,622.8455" fill="none" style="stroke:#181818;stroke-width:0.7813;"/><text fill="#111827" font-family="'Malgun Gothic'" font-size="21.875" lengthAdjust="spacing" textLength="114.5126" x="1606.25" y="668.5287">PostgreSQL</text><text fill="#111827" font-family="'Malgun Gothic'" font-size="21.875" lengthAdjust="spacing" textLength="206.8832" x="1606.25" y="697.6242">revision + projection</text></g><!--entity Backup--><g class="entity" data-qualified-name="Backup" data-source-line="17" id="ent0010"><path d="M1250.7813,758.0017 L1250.7813,805.8472 A6.25,6.25 0 0 0 1257.0313,812.0972 L1432.0679,812.0972 A6.25,6.25 0 0 0 1438.3179,805.8472 L1438.3179,767.3767 L1422.6929,751.7517 L1257.0313,751.7517 A6.25,6.25 0 0 0 1250.7813,758.0017" fill="#F1F1F1" style="stroke:#181818;stroke-width:0.7813;"/><path d="M1422.6929,751.7517 L1422.6929,761.1267 A6.25,6.25 0 0 0 1428.9429,767.3767 L1438.3179,767.3767" fill="#F1F1F1" style="stroke:#181818;stroke-width:0.7813;"/><text fill="#111827" font-family="'Malgun Gothic'" font-size="21.875" lengthAdjust="spacing" textLength="156.2866" x="1266.4063" y="791.185">JSON &#48177;&#50629; &#54028;&#51068;</text></g><!--entity GitHub--><g class="entity" data-qualified-name="GitHub" data-source-line="18" id="ent0011"><rect fill="#F1F1F1" height="60.3455" rx="6.25" ry="6.25" style="stroke:#181818;stroke-width:0.7813;" width="226.886" x="10.9375" y="615.8142"/><text fill="#111827" font-family="'Malgun Gothic'" font-size="21.875" lengthAdjust="spacing" textLength="195.636" x="26.5625" y="655.2475">GitHub &#51200;&#51109;&#49548;/&#48176;&#54252;</text></g><g class="entity" data-qualified-name="GMN19" data-source-line="29" id="ent0020"><path d="M589.0625,77.533 L589.0625,161.7096 A6.25,6.25 0 0 0 595.3125,167.9596 L1091.481,167.9596 A6.25,6.25 0 0 0 1097.731,161.7096 L1097.731,86.908 L1082.106,71.283 L595.3125,71.283 A6.25,6.25 0 0 0 589.0625,77.533" fill="#FFF8DC" style="stroke:#8B7355;stroke-width:0.7813;"/><path d="M1082.106,71.283 L1082.106,83.783 A3.125,3.125 0 0 0 1085.231,86.908 L1097.731,86.908 L1082.106,71.283" fill="#FFF8DC" style="stroke:#8B7355;stroke-width:1.5625;"/><text fill="#111827" font-family="'Malgun Gothic'" font-size="20.3125" lengthAdjust="spacing" textLength="423.4581" x="598.4375" y="101.2032">[S] App&#183;Atlas&#183;Bridge&#45716; &#48652;&#46972;&#50864;&#51200;&#50640;&#49436; &#49892;&#54665;&#46108;&#45796;.</text><text fill="#111827" font-family="'Malgun Gothic'" font-size="20.3125" lengthAdjust="spacing" textLength="475.856" x="598.4375" y="128.2204">[S] &#54788;&#51116; &#49324;&#50857;&#51088; &#44228;&#51221; &#45824;&#49888; &#44277;&#50976; syncKey&#47484; &#49324;&#50857;&#54620;&#45796;.</text><text fill="#111827" font-family="'Malgun Gothic'" font-size="20.3125" lengthAdjust="spacing" textLength="424.073" x="598.4375" y="155.2376">[F] &#44284;&#44144;&#50752; &#54788;&#51116;&#51032; &#50668;&#47084; JSON &#54805;&#49885;&#51060; &#51316;&#51116;&#54620;&#45796;.</text></g><!--link User to System--><g class="link" data-entity-1="ent0001" data-entity-2="ent0002" data-link-type="dependency" data-source-line="20" id="lnk12"><path d="M446.3438,533.783 C496.7422,533.783 596.0938,533.783 682.8457,533.783 C688.2677,533.783 693.6405,533.783 698.949,533.783 C700.2761,533.783 693.7868,533.783 695.1056,533.783" fill="none" id="User-to-System" style="stroke:#4B5563;stroke-width:1.5625;"/><polygon fill="#4B5563" points="702.9181,533.783,688.8556,527.533,695.1056,533.783,688.8556,540.033,702.9181,533.783" style="stroke:#4B5563;stroke-width:1.5625;stroke-linejoin:miter;stroke-miterlimit:10;"/><text fill="#111827" font-family="'Malgun Gothic'" font-size="20.3125" lengthAdjust="spacing" textLength="175.8301" x="486.0156" y="557.4532">&#54617;&#49845;&#183;&#54200;&#51665;&#183;&#51200;&#51109;&#183;&#48373;&#44396;</text></g><!--link GitHub to Hosting--><g class="link" data-entity-1="ent0011" data-entity-2="ent0007" data-link-type="dependency" data-source-line="21" id="lnk13"><path d="M237.6406,646.283 C268.7969,646.283 294.1719,646.283 323.2031,646.283" fill="none" id="GitHub-to-Hosting" style="stroke:#4B5563;stroke-width:1.5625;"/><polygon fill="#4B5563" points="331.0156,646.283,316.9531,640.033,323.2031,646.283,316.9531,652.533,331.0156,646.283" style="stroke:#4B5563;stroke-width:1.5625;stroke-linejoin:miter;stroke-miterlimit:10;"/><text fill="#111827" font-family="'Malgun Gothic'" font-size="20.3125" lengthAdjust="spacing" textLength="136.1572" x="146.8281" y="669.9532">&#51221;&#51201; &#54028;&#51068; &#48176;&#54252;</text></g><!--link Hosting to System--><g class="link" data-entity-1="ent0007" data-entity-2="ent0002" data-link-type="dependency" data-source-line="22" id="lnk14"><path d="M495.7656,614.2517 C620.7656,614.2517 843.75,614.2517 843.75,614.2517 C843.75,614.2517 843.75,605.1072 843.75,595.1052 C843.75,592.6047 843.75,590.0507 843.75,587.5725 C843.75,586.3334 843.75,585.1133 843.75,583.9283 C843.75,583.6321 843.75,583.338 843.75,583.0464 C843.75,582.9007 843.75,582.7555 843.75,582.6109 C843.75,582.5387 843.75,590.2791 843.75,590.2071" fill="none" id="Hosting-to-System" style="stroke:#4B5563;stroke-width:1.5625;"/><polygon fill="#4B5563" points="843.75,582.3946,837.5,596.4571,843.75,590.2071,850,596.4571,843.75,582.3946" style="stroke:#4B5563;stroke-width:1.5625;stroke-linejoin:miter;stroke-miterlimit:10;"/><text fill="#111827" font-family="'Malgun Gothic'" font-size="20.3125" lengthAdjust="spacing" textLength="242.5995" x="693.0313" y="637.9219">index.html / JS / SQL &#50504;&#45236;</text></g><!--link System to Supabase--><g class="link" data-entity-1="ent0002" data-entity-2="ent0008" data-link-type="dependency" data-source-line="23" id="lnk15"><path d="M1251.5625,582.3407 C1251.5625,582.4108 1251.5625,582.481 1251.5625,582.5515 C1251.5625,582.6925 1251.5625,582.8343 1251.5625,582.977 C1251.5625,583.2623 1251.5625,583.5508 1251.5625,583.8426 C1251.5625,584.4262 1251.5625,585.0225 1251.5625,585.6306 C1251.5625,595.3611 1251.5625,600.3142 1251.5625,612.4548" fill="none" id="System-to-Supabase" style="stroke:#4B5563;stroke-width:1.5625;"/><polygon fill="#4B5563" points="1251.5625,620.2673,1257.8125,606.2048,1251.5625,612.4548,1245.3125,606.2048,1251.5625,620.2673" style="stroke:#4B5563;stroke-width:1.5625;stroke-linejoin:miter;stroke-miterlimit:10;"/><text fill="#111827" font-family="'Malgun Gothic'" font-size="20.3125" lengthAdjust="spacing" textLength="261.0077" x="1074.9063" y="550.6875">anon key + syncKey &#54028;&#49373; ID</text><text fill="#111827" font-family="'Malgun Gothic'" font-size="20.3125" lengthAdjust="spacing" textLength="84.642" x="1163.0891" y="577.7047">RPC &#54840;&#52636;</text></g><!--link Supabase to DB--><g class="link" data-entity-1="ent0008" data-entity-2="ent0009" data-link-type="dependency" data-source-line="24" id="lnk16"><path d="M1467.5469,658.783 C1507.2656,658.783 1543.3906,658.783 1582.7969,658.783" fill="none" id="Supabase-to-DB" style="stroke:#4B5563;stroke-width:1.5625;"/><polygon fill="#4B5563" points="1590.6094,658.783,1576.5469,652.533,1582.7969,658.783,1576.5469,665.033,1590.6094,658.783" style="stroke:#4B5563;stroke-width:1.5625;stroke-linejoin:miter;stroke-miterlimit:10;"/><text fill="#111827" font-family="'Malgun Gothic'" font-size="20.3125" lengthAdjust="spacing" textLength="189.4279" x="1338.4531" y="682.4532">security definer &#54632;&#49688;</text></g><!--link System to Backup--><g class="link" data-entity-1="ent0002" data-entity-2="ent0010" data-link-type="dependency" data-source-line="25" id="lnk17"><path d="M896.875,582.2569 C896.875,582.6556 896.875,583.0628 896.875,583.4786 C896.875,585.1416 896.875,586.9401 896.875,588.8618 C896.875,592.7052 896.875,597.0414 896.875,601.7717 C896.875,620.6931 896.875,645.9216 896.875,671.1501 C896.875,721.6072 896.875,772.0642 896.875,772.0642 C896.875,772.0642 1111.6094,772.0642 1242.875,772.0642" fill="none" id="System-to-Backup" style="stroke:#4B5563;stroke-width:1.5625;"/><polygon fill="#4B5563" points="1250.6875,772.0642,1236.625,765.8142,1242.875,772.0642,1236.625,778.3142,1250.6875,772.0642" style="stroke:#4B5563;stroke-width:1.5625;stroke-linejoin:miter;stroke-miterlimit:10;"/><text fill="#111827" font-family="'Malgun Gothic'" font-size="20.3125" lengthAdjust="spacing" textLength="129.0161" x="948.1719" y="795.7344">&#48177;&#50629; &#45236;&#48372;&#45236;&#44592;</text></g><!--link Backup to System--><g class="link" data-entity-1="ent0010" data-entity-2="ent0002" data-link-type="dependency" data-source-line="26" id="lnk18"><path d="M1250.625,792.3767 C1106.0156,792.3767 845.3125,792.3767 845.3125,792.3767 C845.3125,792.3767 845.3125,738.4392 845.3125,683.658 C845.3125,656.2673 845.3125,628.6658 845.3125,607.49 C845.3125,602.196 845.3125,597.3037 845.3125,592.9167 C845.3125,590.7232 845.3125,588.656 845.3125,586.7281 C845.3125,585.7641 845.3125,584.835 845.3125,583.9423 C845.3125,583.496 845.3125,590.8713 845.3125,590.4434" fill="none" id="Backup-to-System" style="stroke:#4B5563;stroke-width:1.5625;"/><polygon fill="#4B5563" points="845.3125,582.6309,839.0625,596.6934,845.3125,590.4434,851.5625,596.6934,845.3125,582.6309" style="stroke:#4B5563;stroke-width:1.5625;stroke-linejoin:miter;stroke-miterlimit:10;"/><text fill="#111827" font-family="'Malgun Gothic'" font-size="20.3125" lengthAdjust="spacing" textLength="129.0161" x="807.0313" y="816.0469">&#48177;&#50629; &#44032;&#51256;&#50724;&#44592;</text></g><!--link System to GMN19--><g class="link" data-entity-1="ent0002" data-entity-2="ent0020" data-link-type="association" data-source-line="29" id="lnk21"><path d="M702.7886,569.7205 C702.5133,569.7205 702.2389,569.7205 701.9656,569.7205 C701.4189,569.7205 700.8765,569.7205 700.3382,569.7205 C699.2618,569.7205 698.2026,569.7205 697.1616,569.7205 C695.0797,569.7205 693.0711,569.7205 691.1453,569.7205 C675.7383,569.7205 665.625,569.7205 665.625,569.7205 C665.625,569.7205 665.625,284.6736 665.625,168.2986" fill="none" id="System-GMN19" style="stroke:#4B5563;stroke-width:1.5625;stroke-dasharray:10.9375,10.9375;"/></g><g class="legend" data-source-line="34"><rect fill="#F8FAFC" height="196.4478" rx="6.25" ry="6.25" style="stroke:#94A3B8;stroke-width:1.5625;" width="236.7676" x="1601.3657" y="855.3314"/><text fill="#111827" font-family="'Malgun Gothic'" font-size="21.875" font-weight="700" lengthAdjust="spacing" textLength="43.75" x="1616.8686" y="890.0772">&#54364;&#44592;</text><text fill="#111827" font-family="'Malgun Gothic'" font-size="21.875" font-weight="700" lengthAdjust="spacing" textLength="43.75" x="1675.9995" y="890.0772">&#44540;&#44144;</text><text fill="#111827" font-family="'Malgun Gothic'" font-size="21.875" lengthAdjust="spacing" textLength="25.2075" x="1616.8686" y="919.1727">[S]</text><text fill="#111827" font-family="'Malgun Gothic'" font-size="21.875" lengthAdjust="spacing" textLength="95.1904" x="1675.9995" y="919.1727">&#51221;&#51201; &#53076;&#46300;</text><text fill="#111827" font-family="'Malgun Gothic'" font-size="21.875" lengthAdjust="spacing" textLength="29.0207" x="1616.8686" y="948.2681">[D]</text><text fill="#111827" font-family="'Malgun Gothic'" font-size="21.875" lengthAdjust="spacing" textLength="76.8295" x="1675.9995" y="948.2681">DB/RPC</text><text fill="#111827" font-family="'Malgun Gothic'" font-size="21.875" lengthAdjust="spacing" textLength="24.2355" x="1616.8686" y="977.3636">[F]</text><text fill="#111827" font-family="'Malgun Gothic'" font-size="21.875" lengthAdjust="spacing" textLength="95.1904" x="1675.9995" y="977.3636">&#49892;&#51228; &#48177;&#50629;</text><text fill="#111827" font-family="'Malgun Gothic'" font-size="21.875" lengthAdjust="spacing" textLength="26.6708" x="1616.8686" y="1006.459">[R]</text><text fill="#111827" font-family="'Malgun Gothic'" font-size="21.875" lengthAdjust="spacing" textLength="117.0654" x="1675.9995" y="1006.459">&#47088;&#53440;&#51076; &#51116;&#54788;</text><text fill="#111827" font-family="'Malgun Gothic'" font-size="21.875" lengthAdjust="spacing" textLength="19.2368" x="1616.8686" y="1035.5545">[I]</text><text fill="#111827" font-family="'Malgun Gothic'" font-size="21.875" lengthAdjust="spacing" textLength="146.6309" x="1675.9995" y="1035.5545">&#44540;&#44144; &#44592;&#48152; &#52628;&#47200;</text><line style="stroke:#111827;stroke-width:1.5625;" x1="1609.1782" x2="1830.3207" y1="866.2689" y2="866.2689"/><line style="stroke:#111827;stroke-width:1.5625;" x1="1609.1782" x2="1830.3207" y1="895.3644" y2="895.3644"/><line style="stroke:#111827;stroke-width:1.5625;" x1="1609.1782" x2="1830.3207" y1="924.4598" y2="924.4598"/><line style="stroke:#111827;stroke-width:1.5625;" x1="1609.1782" x2="1830.3207" y1="953.5553" y2="953.5553"/><line style="stroke:#111827;stroke-width:1.5625;" x1="1609.1782" x2="1830.3207" y1="982.6508" y2="982.6508"/><line style="stroke:#111827;stroke-width:1.5625;" x1="1609.1782" x2="1830.3207" y1="1011.7462" y2="1011.7462"/><line style="stroke:#111827;stroke-width:1.5625;" x1="1609.1782" x2="1830.3207" y1="1040.8417" y2="1040.8417"/><line style="stroke:#111827;stroke-width:1.5625;" x1="1609.1782" x2="1609.1782" y1="866.2689" y2="1040.8417"/><line style="stroke:#111827;stroke-width:1.5625;" x1="1668.309" x2="1668.309" y1="866.2689" y2="1040.8417"/><line style="stroke:#111827;stroke-width:1.5625;" x1="1830.3207" x2="1830.3207" y1="866.2689" y2="1040.8417"/></g><g class="caption" data-source-line="43"><text fill="#111827" font-family="'Malgun Gothic'" font-size="21.875" lengthAdjust="spacing" textLength="599.6292" x="628.627" y="1097.4625">&#44592;&#51456; commit f15e1bd9802c98c43bc6f8c72e18572b9619db1f</text></g><?plantuml-src NLHRRnD757wVNt7groeNfmKIf5PAC1HJLD9iUMfGjTuTcotshhKxhXerbLom4OtT4bIxCSWEYsGAI7vOb1XRgllYdz97pzd_q3DxYPA-xCxCzvtRD-VCHvPjb6icX-yyiLVcozLQfSo49SeSDhMbl0Qhg_1llGFOwkF1C6ps0Vz-6pP_Kvk3AIlpeW3XW6kLxWimBPSRmd9indH3E2vayE48Nxp3uyCCw1xSzRZBcEBeTeaYPFBRr-4srrtRiajmHzkrvRGj1pDy4Q1V1-pwOQSj_nhXh8w3Ksps8Y_QdYTu1NvY08PJgJesjmLamkvpF1W3lcd8fmtOh5OZBlqlqguvji6h0ZP5MVTYYbfT96svbbdY4Hel_nVgyJZilWDA4OzVmzty2lxJaPsER0mfox0H95dQ1lkPCQFir4mImk-Y_mk4lQbIhjsCE3STJr3bAKUhLVM2xd7OkQvzixApVIrsb9moKnSndDackvBBjQzlxzek_y7oI7Bu6AgkytsiVsIOss95IwbyIxlp5SZWFHur8MotSJ2BIzED1xNg-UlumX8tQuMaC7pSNf5143uTHUmOOqpT8ImjVPvUmrM8bPzFmj-d-ERPV1ARpoVoPBmOZrZYL9aazP9DAaUK3SHXM0fVy6xP9lzn-Rweb645RcdqeRAfDPx8XwSiOKK6gNXNGRT9ZWTyZoJnw1Q-f9KAz6W0-TokJRf6r_2Xpyvib8FS5fbwtAYvbjW3anSjcoeDks_nIUzye5WsuYQAKXxov9I-Ysd04l121Gbl4TJHds9lg7ZCTWI7WYE4Km6dc92fpRxLxgccdK-YjfnFulwJ1nquFnfuT8WD6iNMCFppLtdObwtXSc8SzXfuF8ApmOF5IOFK1jckOykdtHZxVggBV3rBc67tpCcDUyIQBTu7-BoUkCD13_1e95-E86gciDV5re2w7V3LAU6fDRTDK9KnUXXAQXEz2-Hq_pC8d_MfShLQJ9Hts5VdKSxxQJ-eGVgZdo8vXUIsr2IaHpSYSck8VZ_LDK5s529V1k4Zwhu6gAHwZHJCAp09Iqd8WChvq96lV29Gcd6oDAjwLKsFek2mhaQ-OWaePY_nRC7SM5zTCpRMZKy_AHYNY-l6bJMUNRzqPQsmSJcxOHQonVy0?></g></svg>