<svg xmlns="http://www.w3.org/2000/svg" xmlns:xlink="http://www.w3.org/1999/xlink" contentStyleType="text/css" data-diagram-type="DESCRIPTION" height="2287.5px" preserveAspectRatio="none" style="width:2537px;height:2287px;background:#FFFFFF;" version="1.1" viewBox="0 0 2537 2287" width="2537.5px" zoomAndPan="magnify"><?plantuml 1.2026.6?><defs/><g><g class="title" data-source-line="2"><text fill="#111827" font-family="'Malgun Gothic'" font-size="21.875" font-weight="700" lengthAdjust="spacing" textLength="486.9751" x="1020.4465" y="39.4333">AS-IS 01 &#183; &#48176;&#52824; UML: &#49892;&#54665; &#45432;&#46300;&#50752; &#45936;&#51060;&#53552; &#48373;&#49324;&#48376;</text></g><!--cluster Device--><g class="cluster" data-qualified-name="Device" data-source-line="6" id="ent0001"><polygon fill="none" points="45.3125,360.3455,60.9375,344.7205,1971.0938,344.7205,1971.0938,1790.033,1955.4688,1805.658,45.3125,1805.658,45.3125,360.3455" style="stroke:#64748B;stroke-width:1.5625;stroke-linejoin:miter;stroke-miterlimit:10;"/><line style="stroke:#64748B;stroke-width:1.5625;" x1="1955.4688" x2="1971.0938" y1="360.3455" y2="344.7205"/><line style="stroke:#64748B;stroke-width:1.5625;" x1="45.3125" x2="1955.4688" y1="360.3455" y2="360.3455"/><line style="stroke:#64748B;stroke-width:1.5625;" x1="1955.4688" x2="1955.4688" y1="360.3455" y2="1805.658"/><text fill="#111827" font-family="'Malgun Gothic'" font-size="21.875" font-weight="700" lengthAdjust="spacing" textLength="349.8505" x="827.0279" y="388.8412">&#49324;&#50857;&#51088; &#44592;&#44592; / &#46041;&#51068; &#48652;&#46972;&#50864;&#51200; origin</text></g><!--cluster TabA--><g class="cluster" data-qualified-name="Device.TabA" data-source-line="7" id="ent0002"><polygon fill="none" points="95.3125,1257.2205,110.9375,1241.5955,1098.4375,1241.5955,1098.4375,1740.033,1082.8125,1755.658,95.3125,1755.658,95.3125,1257.2205" style="stroke:#64748B;stroke-width:1.5625;stroke-linejoin:miter;stroke-miterlimit:10;"/><line style="stroke:#64748B;stroke-width:1.5625;" x1="1082.8125" x2="1098.4375" y1="1257.2205" y2="1241.5955"/><line style="stroke:#64748B;stroke-width:1.5625;" x1="95.3125" x2="1082.8125" y1="1257.2205" y2="1257.2205"/><line style="stroke:#64748B;stroke-width:1.5625;" x1="1082.8125" x2="1082.8125" y1="1257.2205" y2="1755.658"/><text fill="#111827" font-family="'Malgun Gothic'" font-size="21.875" font-weight="700" lengthAdjust="spacing" textLength="44.957" x="568.1465" y="1285.7162">&#53485; A</text></g><!--cluster TabB--><g class="cluster" data-qualified-name="Device.TabB" data-source-line="14" id="ent0007"><polygon fill="none" points="818.75,943.158,834.375,927.533,1123.4375,927.533,1123.4375,1163.4705,1107.8125,1179.0955,818.75,1179.0955,818.75,943.158" style="stroke:#64748B;stroke-width:1.5625;stroke-linejoin:miter;stroke-miterlimit:10;"/><line style="stroke:#64748B;stroke-width:1.5625;" x1="1107.8125" x2="1123.4375" y1="943.158" y2="927.533"/><line style="stroke:#64748B;stroke-width:1.5625;" x1="818.75" x2="1107.8125" y1="943.158" y2="943.158"/><line style="stroke:#64748B;stroke-width:1.5625;" x1="1107.8125" x2="1107.8125" y1="943.158" y2="1179.0955"/><text fill="#111827" font-family="'Malgun Gothic'" font-size="21.875" font-weight="700" lengthAdjust="spacing" textLength="110.6033" x="909.5421" y="971.6537">&#53485; B (&#44032;&#45733;)</text></g><!--cluster SB--><g class="cluster" data-qualified-name="SB" data-source-line="22" id="ent0011"><path d="M1594.3325,1866.6653 C1606.5119,1835.6592 1631.0223,1833.5535 1652.0622,1857.3277 C1671.1618,1827.0806 1699.1376,1824.0166 1717.7648,1857.8123 C1735.8185,1831.9607 1756.1481,1832.5052 1775.9965,1855.6807 C1794.5322,1819.9003 1818.4906,1828.3011 1839.6469,1852.9189 C1858.2482,1823.0573 1880.1891,1826.7403 1899.4338,1852.2239 C1915.8333,1821.1165 1947.8779,1825.5863 1964.6102,1851.8458 C1985.5565,1820.5438 2006.5228,1823.0098 2024.8318,1854.38 C2049.3282,1828.6633 2070.7263,1825.0447 2091.838,1858.2302 C2111.2936,1831.9181 2131.6682,1830.0884 2151.9984,1857.2462 C2166.9312,1827.6045 2184.5836,1832.997 2204.1334,1852.3314 C2228.1064,1826.8001 2249.6231,1824.7337 2265.5247,1860.4251 C2284.9319,1828.2211 2314.2375,1827.1874 2332.6855,1861.3951 C2345.9543,1825.7877 2378.5751,1824.908 2398.0216,1855.2774 C2424.6048,1831.1021 2443.2728,1837.5204 2460.1563,1866.5955 C2464.145,1866.2825 2465.9253,1868.7102 2463.9627,1872.3405 C2501.4544,1896.6395 2495.693,1920.8965 2462.3753,1943.6185 C2499.6217,1962.2195 2500.3328,1989.6723 2474.0901,2018.2404 C2515.368,2050.1535 2503.9363,2076.5394 2464.7713,2099.1924 C2501.8019,2133.989 2497.3103,2159.6352 2449.2188,2177.533 C2450.2129,2176.9574 2450.7021,2177.4677 2450.868,2178.4245 C2436.5248,2213.1195 2409.9192,2217.6591 2387.842,2185.7422 C2373.5998,2212.2724 2353.9317,2215.5854 2336.6095,2188.6962 C2315.2218,2217.7355 2294.7694,2215.7421 2273.4776,2188.5885 C2260.609,2226.0827 2226.7719,2227.3998 2205.5036,2196.9979 C2186.3884,2228.2087 2166.1759,2228.8615 2143.7192,2200.4614 C2125.5751,2222.9977 2103.7542,2219.3689 2089.1816,2196.1997 C2069.0615,2231.0421 2046.2332,2223.1971 2025.7418,2196.5831 C2004.7956,2223.9229 1977.217,2224.3356 1957.7414,2194.8242 C1938.2688,2221.8489 1916.5493,2219.5703 1899.3392,2192.3867 C1881.529,2224.5478 1856.7258,2221.5308 1838.4236,2192.8795 C1821.4508,2222.29 1793.3175,2223.6142 1777.2292,2191.9927 C1757.5588,2222.3558 1737.4675,2217.7569 1717.6775,2192.1198 C1695.6675,2223.542 1676.5775,2215.7833 1656.5083,2190.0429 C1620.218,2220.9506 1592.531,2208.8456 1578.125,2166.5955 C1584.1252,2163.7664 1587.8387,2164.4073 1589.0393,2171.747 C1556.4692,2149.9207 1550.6305,2124.2214 1586.3343,2099.8273 C1551.9199,2083.3546 1541.9788,2046.492 1581.0506,2024.8414 C1547.9072,2001.5961 1543.5373,1971.4736 1578.3064,1945.8684 C1544.353,1912.1652 1543.1003,1879.8325 1589.0625,1855.658 C1596.3764,1856.6942 1597.5519,1860.586 1594.3325,1866.6653" fill="none" style="stroke:#64748B;stroke-width:1.5625;"/><text fill="#111827" font-family="'Malgun Gothic'" font-size="21.875" font-weight="700" lengthAdjust="spacing" textLength="98.9822" x="1969.6495" y="1887.2787">Supabase</text></g><!--entity LS--><g class="entity" data-qualified-name="Device.LS" data-source-line="18" id="ent0009"><path d="M1486.7188,598.6267 C1486.7188,583.0017 1716.2285,583.0017 1716.2285,583.0017 C1716.2285,583.0017 1945.7382,583.0017 1945.7382,598.6267 L1945.7382,816.3574 C1945.7382,831.9824 1716.2285,831.9824 1716.2285,831.9824 C1716.2285,831.9824 1486.7188,831.9824 1486.7188,816.3574 L1486.7188,598.6267" fill="#F1F1F1" style="stroke:#181818;stroke-width:0.7813;"/><path d="M1486.7188,598.6267 C1486.7188,614.2517 1716.2285,614.2517 1716.2285,614.2517 C1716.2285,614.2517 1945.7382,614.2517 1945.7382,598.6267" fill="none" style="stroke:#181818;stroke-width:0.7813;"/><text fill="#111827" font-family="'Malgun Gothic'" font-size="21.875" lengthAdjust="spacing" textLength="122.0963" x="1502.3438" y="644.31">localStorage</text><text fill="#111827" font-family="'Malgun Gothic'" font-size="21.875" lengthAdjust="spacing" textLength="350" x="1502.3438" y="673.4055">&#9472;&#9472;&#9472;&#9472;&#9472;&#9472;&#9472;&#9472;&#9472;&#9472;&#9472;&#9472;&#9472;&#9472;&#9472;&#9472;</text><text fill="#111827" font-family="'Malgun Gothic'" font-size="21.875" lengthAdjust="spacing" textLength="182.4768" x="1502.3438" y="702.5009">ipe-learning-os-v4</text><text fill="#111827" font-family="'Malgun Gothic'" font-size="21.875" lengthAdjust="spacing" textLength="217.0944" x="1502.3438" y="731.5964">concept-atlas-v3-feed</text><text fill="#111827" font-family="'Malgun Gothic'" font-size="21.875" lengthAdjust="spacing" textLength="189.3021" x="1502.3438" y="760.6918">ipe-atlas-bridge-v1</text><text fill="#111827" font-family="'Malgun Gothic'" font-size="21.875" lengthAdjust="spacing" textLength="232.9453" x="1502.3438" y="789.7873">ipe-normalized-sync-v2</text><text fill="#111827" font-family="'Malgun Gothic'" font-size="21.875" lengthAdjust="spacing" textLength="427.7695" x="1502.3438" y="818.8828">PREIMPORT &#183; PREPULL &#183; PENDING_IMPORT</text></g><!--entity Backup--><g class="entity" data-qualified-name="Device.Backup" data-source-line="19" id="ent0010"><path d="M877.3438,695.5017 L877.3438,743.3472 A6.25,6.25 0 0 0 883.5938,749.5972 L1058.6304,749.5972 A6.25,6.25 0 0 0 1064.8804,743.3472 L1064.8804,704.8767 L1049.2554,689.2517 L883.5938,689.2517 A6.25,6.25 0 0 0 877.3438,695.5017" fill="#F1F1F1" style="stroke:#181818;stroke-width:0.7813;"/><path d="M1049.2554,689.2517 L1049.2554,698.6267 A6.25,6.25 0 0 0 1055.5054,704.8767 L1064.8804,704.8767" fill="#F1F1F1" style="stroke:#181818;stroke-width:0.7813;"/><text fill="#111827" font-family="'Malgun Gothic'" font-size="21.875" lengthAdjust="spacing" textLength="156.2866" x="892.9688" y="728.685">&#49688;&#46041; JSON &#48177;&#50629;</text></g><!--entity ParentA--><g class="entity" data-qualified-name="Device.TabA.ParentA" data-source-line="8" id="ent0003"><rect fill="#F1F1F1" height="105.0659" rx="6.25" ry="6.25" style="stroke:#181818;stroke-width:0.7813;" width="179.5654" x="881.25" y="1378.3142"/><rect fill="#F1F1F1" height="15.625" style="stroke:#181818;stroke-width:0.7813;" width="23.4375" x="1029.5654" y="1386.1267"/><rect fill="#F1F1F1" height="3.125" style="stroke:#181818;stroke-width:0.7813;" width="6.25" x="1026.4404" y="1389.2517"/><rect fill="#F1F1F1" height="3.125" style="stroke:#181818;stroke-width:0.7813;" width="6.25" x="1026.4404" y="1395.5017"/><text fill="#111827" font-family="'Malgun Gothic'" font-size="21.875" lengthAdjust="spacing" textLength="111.853" x="904.6875" y="1433.3725">Parent App</text><text fill="#111827" font-family="'Malgun Gothic'" font-size="21.875" lengthAdjust="spacing" textLength="117.0654" x="904.6875" y="1462.468">&#47700;&#47784;&#47532; &#49345;&#53468;</text></g><!--entity SyncA--><g class="entity" data-qualified-name="Device.TabA.SyncA" data-source-line="9" id="ent0004"><rect fill="#F1F1F1" height="105.0659" rx="6.25" ry="6.25" style="stroke:#181818;stroke-width:0.7813;" width="231.0699" x="138.2813" y="1583.0017"/><rect fill="#F1F1F1" height="15.625" style="stroke:#181818;stroke-width:0.7813;" width="23.4375" x="338.1012" y="1590.8142"/><rect fill="#F1F1F1" height="3.125" style="stroke:#181818;stroke-width:0.7813;" width="6.25" x="334.9762" y="1593.9392"/><rect fill="#F1F1F1" height="3.125" style="stroke:#181818;stroke-width:0.7813;" width="6.25" x="334.9762" y="1600.1892"/><text fill="#111827" font-family="'Malgun Gothic'" font-size="21.875" lengthAdjust="spacing" textLength="168.5699" x="161.7188" y="1638.06">Sync coordinator</text><text fill="#111827" font-family="'Malgun Gothic'" font-size="21.875" lengthAdjust="spacing" textLength="158.8608" x="161.7188" y="1667.1555">&#53440;&#51060;&#47672; &#183; inFlight</text></g><!--entity StudyA--><g class="entity" data-qualified-name="Device.TabA.StudyA" data-source-line="10" id="ent0005"><polygon fill="#F1F1F1" points="136.7188,1467.3767,152.3438,1451.7517,371.0571,1451.7517,371.0571,1512.0972,355.4321,1527.7222,136.7188,1527.7222,136.7188,1467.3767" style="stroke:#181818;stroke-width:0.7813;stroke-linejoin:miter;stroke-miterlimit:10;"/><line style="stroke:#181818;stroke-width:0.7813;" x1="355.4321" x2="371.0571" y1="1467.3767" y2="1451.7517"/><line style="stroke:#181818;stroke-width:0.7813;" x1="136.7188" x2="355.4321" y1="1467.3767" y2="1467.3767"/><line style="stroke:#181818;stroke-width:0.7813;" x1="355.4321" x2="355.4321" y1="1467.3767" y2="1527.7222"/><text fill="#111827" font-family="'Malgun Gothic'" font-size="21.875" lengthAdjust="spacing" textLength="171.8384" x="160.1563" y="1506.81">studyAtlas iframe</text></g><!--entity GlobalA--><g class="entity" data-qualified-name="Device.TabA.GlobalA" data-source-line="11" id="ent0006"><polygon fill="#F1F1F1" points="132.8125,1336.1267,148.4375,1320.5017,375.0977,1320.5017,375.0977,1380.8472,359.4727,1396.4722,132.8125,1396.4722,132.8125,1336.1267" style="stroke:#181818;stroke-width:0.7813;stroke-linejoin:miter;stroke-miterlimit:10;"/><line style="stroke:#181818;stroke-width:0.7813;" x1="359.4727" x2="375.0977" y1="1336.1267" y2="1320.5017"/><line style="stroke:#181818;stroke-width:0.7813;" x1="132.8125" x2="359.4727" y1="1336.1267" y2="1336.1267"/><line style="stroke:#181818;stroke-width:0.7813;" x1="359.4727" x2="359.4727" y1="1336.1267" y2="1396.4722"/><text fill="#111827" font-family="'Malgun Gothic'" font-size="21.875" lengthAdjust="spacing" textLength="179.7852" x="156.25" y="1375.56">globalAtlas iframe</text></g><!--entity TabBState--><g class="entity" data-qualified-name="Device.TabB.TabBState" data-source-line="15" id="ent0008"><rect fill="#F1F1F1" height="105.0659" rx="6.25" ry="6.25" style="stroke:#181818;stroke-width:0.7813;" width="229.1794" x="856.25" y="1006.4392"/><rect fill="#F1F1F1" height="15.625" style="stroke:#181818;stroke-width:0.7813;" width="23.4375" x="1054.1794" y="1014.2517"/><rect fill="#F1F1F1" height="3.125" style="stroke:#181818;stroke-width:0.7813;" width="6.25" x="1051.0544" y="1017.3767"/><rect fill="#F1F1F1" height="3.125" style="stroke:#181818;stroke-width:0.7813;" width="6.25" x="1051.0544" y="1023.6267"/><text fill="#111827" font-family="'Malgun Gothic'" font-size="21.875" lengthAdjust="spacing" textLength="166.3696" x="879.6875" y="1061.4975">&#48324;&#46020; Parent &#49345;&#53468;</text><text fill="#111827" font-family="'Malgun Gothic'" font-size="21.875" lengthAdjust="spacing" textLength="166.6794" x="879.6875" y="1090.593">&#48324;&#46020; coordinator</text></g><!--entity RPC--><g class="entity" data-qualified-name="SB.RPC" data-source-line="23" id="ent0012"><rect fill="#F1F1F1" height="105.0659" rx="6.25" ry="6.25" style="stroke:#181818;stroke-width:0.7813;" width="200.5646" x="1616.4063" y="2059.5642"/><rect fill="#F1F1F1" height="15.625" style="stroke:#181818;stroke-width:0.7813;" width="23.4375" x="1785.7208" y="2067.3767"/><rect fill="#F1F1F1" height="3.125" style="stroke:#181818;stroke-width:0.7813;" width="6.25" x="1782.5958" y="2070.5017"/><rect fill="#F1F1F1" height="3.125" style="stroke:#181818;stroke-width:0.7813;" width="6.25" x="1782.5958" y="2076.7517"/><text fill="#111827" font-family="'Malgun Gothic'" font-size="21.875" lengthAdjust="spacing" textLength="95.607" x="1639.8438" y="2114.6225">REST RPC</text><text fill="#111827" font-family="'Malgun Gothic'" font-size="21.875" lengthAdjust="spacing" textLength="138.0646" x="1639.8438" y="2143.718">commit &#183; load</text></g><!--entity Revisions--><g class="entity" data-qualified-name="SB.Revisions" data-source-line="24" id="ent0013"><path d="M2227.3438,2075.9705 C2227.3438,2060.3455 2337.2833,2060.3455 2337.2833,2060.3455 C2337.2833,2060.3455 2447.2229,2060.3455 2447.2229,2075.9705 L2447.2229,2148.2239 C2447.2229,2163.8489 2337.2833,2163.8489 2337.2833,2163.8489 C2337.2833,2163.8489 2227.3438,2163.8489 2227.3438,2148.2239 L2227.3438,2075.9705" fill="#F1F1F1" style="stroke:#181818;stroke-width:0.7813;"/><path d="M2227.3438,2075.9705 C2227.3438,2091.5955 2337.2833,2091.5955 2337.2833,2091.5955 C2337.2833,2091.5955 2447.2229,2091.5955 2447.2229,2075.9705" fill="none" style="stroke:#181818;stroke-width:0.7813;"/><text fill="#111827" font-family="'Malgun Gothic'" font-size="21.875" lengthAdjust="spacing" textLength="125.1083" x="2242.9688" y="2121.6537">ipe_revisions</text><text fill="#111827" font-family="'Malgun Gothic'" font-size="21.875" lengthAdjust="spacing" textLength="188.6292" x="2242.9688" y="2150.7492">&#51204;&#52404; JSON revision</text></g><!--entity Projection--><g class="entity" data-qualified-name="SB.Projection" data-source-line="25" id="ent0014"><path d="M2232.8125,1918.158 C2232.8125,1902.533 2337.4969,1902.533 2337.4969,1902.533 C2337.4969,1902.533 2442.1814,1902.533 2442.1814,1918.158 L2442.1814,1990.4114 C2442.1814,2006.0364 2337.4969,2006.0364 2337.4969,2006.0364 C2337.4969,2006.0364 2232.8125,2006.0364 2232.8125,1990.4114 L2232.8125,1918.158" fill="#F1F1F1" style="stroke:#181818;stroke-width:0.7813;"/><path d="M2232.8125,1918.158 C2232.8125,1933.783 2337.4969,1933.783 2337.4969,1933.783 C2337.4969,1933.783 2442.1814,1933.783 2442.1814,1918.158" fill="none" style="stroke:#181818;stroke-width:0.7813;"/><text fill="#111827" font-family="'Malgun Gothic'" font-size="21.875" lengthAdjust="spacing" textLength="178.1189" x="2248.4375" y="1963.8412">current projection</text><text fill="#111827" font-family="'Malgun Gothic'" font-size="21.875" lengthAdjust="spacing" textLength="138.9404" x="2248.4375" y="1992.9367">&#51221;&#44508;&#54868; &#53580;&#51060;&#48660;</text></g><!--entity LegacyDB--><g class="entity" data-qualified-name="SB.LegacyDB" data-source-line="26" id="ent0015"><path d="M1590.625,1916.5955 C1590.625,1900.9705 1716.3193,1900.9705 1716.3193,1900.9705 C1716.3193,1900.9705 1842.0135,1900.9705 1842.0135,1916.5955 L1842.0135,1988.8489 C1842.0135,2004.4739 1716.3193,2004.4739 1716.3193,2004.4739 C1716.3193,2004.4739 1590.625,2004.4739 1590.625,1988.8489 L1590.625,1916.5955" fill="#F1F1F1" style="stroke:#181818;stroke-width:0.7813;"/><path d="M1590.625,1916.5955 C1590.625,1932.2205 1716.3193,1932.2205 1716.3193,1932.2205 C1716.3193,1932.2205 1842.0135,1932.2205 1842.0135,1916.5955" fill="none" style="stroke:#181818;stroke-width:0.7813;"/><text fill="#111827" font-family="'Malgun Gothic'" font-size="21.875" lengthAdjust="spacing" textLength="62.7518" x="1606.25" y="1962.2787">legacy</text><text fill="#111827" font-family="'Malgun Gothic'" font-size="21.875" lengthAdjust="spacing" textLength="220.1385" x="1606.25" y="1991.3742">learning_os_snapshots</text></g><g class="entity" data-qualified-name="GMN28" data-source-line="44" id="ent0029"><path d="M58.5938,229.0955 L58.5938,313.2721 A6.25,6.25 0 0 0 64.8438,319.5221 L443.1641,319.5221 A6.25,6.25 0 0 0 449.4141,313.2721 L449.4141,238.4705 L433.7891,222.8455 L64.8438,222.8455 A6.25,6.25 0 0 0 58.5938,229.0955" fill="#FFF8DC" style="stroke:#8B7355;stroke-width:0.7813;"/><path d="M433.7891,222.8455 L433.7891,235.3455 A3.125,3.125 0 0 0 436.9141,238.4705 L449.4141,238.4705 L433.7891,222.8455" fill="#FFF8DC" style="stroke:#8B7355;stroke-width:1.5625;"/><text fill="#111827" font-family="'Malgun Gothic'" font-size="20.3125" lengthAdjust="spacing" textLength="114.2677" x="67.9688" y="252.7657">&#44208;&#54632; 1 [S][R]</text><text fill="#111827" font-family="'Malgun Gothic'" font-size="20.3125" lengthAdjust="spacing" textLength="279.0092" x="67.9688" y="279.7829">&#46160; iframe&#51060; &#44277;&#53685; revision &#50630;&#51060;</text><text fill="#111827" font-family="'Malgun Gothic'" font-size="20.3125" lengthAdjust="spacing" textLength="358.0078" x="67.9688" y="306.8001">&#49436;&#47196; &#45796;&#47480; &#52572;&#49888;&#49457;&#51032; &#47700;&#47784;&#47532;&#47484; &#48372;&#50976;&#54620;&#45796;.</text></g><g class="entity" data-qualified-name="GMN31" data-source-line="50" id="ent0032"><path d="M786.7188,229.0955 L786.7188,313.2721 A6.25,6.25 0 0 0 792.9688,319.5221 L1149.7467,319.5221 A6.25,6.25 0 0 0 1155.9967,313.2721 L1155.9967,238.4705 L1140.3717,222.8455 L792.9688,222.8455 A6.25,6.25 0 0 0 786.7188,229.0955" fill="#FFF8DC" style="stroke:#8B7355;stroke-width:0.7813;"/><path d="M1140.3717,222.8455 L1140.3717,235.3455 A3.125,3.125 0 0 0 1143.4967,238.4705 L1155.9967,238.4705 L1140.3717,222.8455" fill="#FFF8DC" style="stroke:#8B7355;stroke-width:1.5625;"/><text fill="#111827" font-family="'Malgun Gothic'" font-size="20.3125" lengthAdjust="spacing" textLength="113.3949" x="796.0938" y="252.7657">&#52628;&#44032; &#50948;&#54744; [I]</text><text fill="#111827" font-family="'Malgun Gothic'" font-size="20.3125" lengthAdjust="spacing" textLength="236.113" x="796.0938" y="279.7829">&#45796;&#51473; &#53485; writer&#47484; &#51312;&#51221;&#54616;&#45716;</text><text fill="#111827" font-family="'Malgun Gothic'" font-size="20.3125" lengthAdjust="spacing" textLength="336.4655" x="796.0938" y="306.8001">BroadcastChannel/Web Lock&#51060; &#50630;&#45796;.</text></g><g class="entity" data-qualified-name="GMN34" data-source-line="56" id="ent0035"><path d="M1490.625,77.533 L1490.625,161.7096 A6.25,6.25 0 0 0 1496.875,167.9596 L1936.3907,167.9596 A6.25,6.25 0 0 0 1942.6407,161.7096 L1942.6407,86.908 L1927.0157,71.283 L1496.875,71.283 A6.25,6.25 0 0 0 1490.625,77.533" fill="#FFF8DC" style="stroke:#8B7355;stroke-width:0.7813;"/><path d="M1927.0157,71.283 L1927.0157,83.783 A3.125,3.125 0 0 0 1930.1407,86.908 L1942.6407,86.908 L1927.0157,71.283" fill="#FFF8DC" style="stroke:#8B7355;stroke-width:1.5625;"/><text fill="#111827" font-family="'Malgun Gothic'" font-size="20.3125" lengthAdjust="spacing" textLength="144.1811" x="1500" y="101.2032">&#44208;&#54632; 2 &#183; 3 [S][R]</text><text fill="#111827" font-family="'Malgun Gothic'" font-size="20.3125" lengthAdjust="spacing" textLength="373.0835" x="1500" y="128.2204">pending&#51060; &#49892;&#45936;&#51060;&#53552;&#48372;&#45796; &#50864;&#49440;&#54624; &#49688; &#51080;&#44256;,</text><text fill="#111827" font-family="'Malgun Gothic'" font-size="20.3125" lengthAdjust="spacing" textLength="419.2032" x="1500" y="155.2376">sync meta&#44032; workspace&#48324;&#47196; &#48516;&#47532;&#46104;&#51648; &#50506;&#45716;&#45796;.</text></g><g class="entity" data-qualified-name="GMN37" data-source-line="62" id="ent0038"><path d="M1521.0938,229.0955 L1521.0938,313.2721 A6.25,6.25 0 0 0 1527.3438,319.5221 L1905.6641,319.5221 A6.25,6.25 0 0 0 1911.9141,313.2721 L1911.9141,238.4705 L1896.2891,222.8455 L1527.3438,222.8455 A6.25,6.25 0 0 0 1521.0938,229.0955" fill="#FFF8DC" style="stroke:#8B7355;stroke-width:0.7813;"/><path d="M1896.2891,222.8455 L1896.2891,235.3455 A3.125,3.125 0 0 0 1899.4141,238.4705 L1911.9141,238.4705 L1896.2891,222.8455" fill="#FFF8DC" style="stroke:#8B7355;stroke-width:1.5625;"/><text fill="#111827" font-family="'Malgun Gothic'" font-size="20.3125" lengthAdjust="spacing" textLength="100.6897" x="1530.4688" y="252.7657">&#44208;&#54632; 10 [S]</text><text fill="#111827" font-family="'Malgun Gothic'" font-size="20.3125" lengthAdjust="spacing" textLength="325.8629" x="1530.4688" y="279.7829">normalized install &#49457;&#44277; &#50668;&#48512;&#50640; &#46384;&#46972;</text><text fill="#111827" font-family="'Malgun Gothic'" font-size="20.3125" lengthAdjust="spacing" textLength="358.0078" x="1530.4688" y="306.8001">&#44396;&#48260;&#51204; &#51200;&#51109; &#54632;&#49688;&#44032; &#47088;&#53440;&#51076;&#50640; &#44368;&#52404;&#46108;&#45796;.</text></g><!--link StudyA to ParentA--><g class="link" data-entity-1="ent0005" data-entity-2="ent0003" data-link-type="dependency" data-source-line="29" id="lnk16"><path d="M371.4844,1484.0486 C514.7813,1476.6423 739.8438,1465.033 739.8438,1465.033 C739.8438,1465.033 808.3673,1454.7828 873.0079,1445.1109" fill="none" id="StudyA-to-ParentA" style="stroke:#4B5563;stroke-width:1.5625;"/><polygon fill="#4B5563" points="880.7344,1443.9548,865.9018,1439.8546,873.0079,1445.1109,867.7516,1452.217,880.7344,1443.9548" style="stroke:#4B5563;stroke-width:1.5625;stroke-linejoin:miter;stroke-miterlimit:10;"/><text fill="#111827" font-family="'Malgun Gothic'" font-size="20.3125" lengthAdjust="spacing" textLength="241.6374" x="497.6563" y="1459.0157">postMessage snapshot [S]</text></g><!--link GlobalA to ParentA--><g class="link" data-entity-1="ent0006" data-entity-2="ent0003" data-link-type="dependency" data-source-line="30" id="lnk17"><path d="M375.3906,1370.8611 C518.2031,1385.2361 745.6017,1408.1264 873.0392,1420.9389" fill="none" id="GlobalA-to-ParentA" style="stroke:#4B5563;stroke-width:1.5625;"/><polygon fill="#4B5563" points="880.8125,1421.7205,867.4458,1414.0951,873.0392,1420.9389,866.1953,1426.5324,880.8125,1421.7205" style="stroke:#4B5563;stroke-width:1.5625;stroke-linejoin:miter;stroke-miterlimit:10;"/><text fill="#111827" font-family="'Malgun Gothic'" font-size="20.3125" lengthAdjust="spacing" textLength="241.6374" x="497.6563" y="1379.3282">postMessage snapshot [S]</text></g><!--link StudyA to LS--><g class="link" data-entity-1="ent0005" data-entity-2="ent0009" data-link-type="dependency" data-source-line="31" id="lnk18"><path d="M368.7344,1451.6736 C411.1406,1437.3142 449.2188,1424.408 449.2188,1424.408 C449.2188,1424.408 496.0938,729.0955 496.0938,729.0955 C496.0938,729.0955 786.7188,661.908 786.7188,661.908 C786.7188,661.908 1155.4688,661.908 1155.4688,661.908 C1155.4688,661.908 1324.0568,675.5583 1478.7286,688.0896" fill="none" id="StudyA-to-LS" style="stroke:#4B5563;stroke-width:1.5625;"/><polygon fill="#4B5563" points="1486.5156,688.7205,1473.0038,681.3553,1478.7286,688.0896,1471.9943,693.8144,1486.5156,688.7205" style="stroke:#4B5563;stroke-width:1.5625;stroke-linejoin:miter;stroke-miterlimit:10;"/><text fill="#111827" font-family="'Malgun Gothic'" font-size="20.3125" lengthAdjust="spacing" textLength="170.8115" x="885.9375" y="655.8907">Atlas &#51649;&#51217; &#51200;&#51109; [S]</text></g><!--link GlobalA to LS--><g class="link" data-entity-1="ent0006" data-entity-2="ent0009" data-link-type="dependency" data-source-line="32" id="lnk19"><path d="M267.0781,1320.5017 C315.1406,1161.9392 496.0938,565.033 496.0938,565.033 C496.0938,565.033 786.7188,536.908 786.7188,536.908 C786.7188,536.908 1155.4688,536.908 1155.4688,536.908 C1155.4688,536.908 1439.8438,565.033 1439.8438,565.033 C1439.8438,565.033 1451.7488,571.1771 1479.5613,585.5678" fill="none" id="GlobalA-to-LS" style="stroke:#4B5563;stroke-width:1.5625;"/><polygon fill="#4B5563" points="1486.5,589.158,1476.8825,577.1446,1479.5613,585.5678,1471.1382,588.2466,1486.5,589.158" style="stroke:#4B5563;stroke-width:1.5625;stroke-linejoin:miter;stroke-miterlimit:10;"/><text fill="#111827" font-family="'Malgun Gothic'" font-size="20.3125" lengthAdjust="spacing" textLength="170.8115" x="885.9375" y="530.8907">Atlas &#51649;&#51217; &#51200;&#51109; [S]</text></g><!--link ParentA to LS--><g class="link" data-entity-1="ent0003" data-entity-2="ent0009" data-link-type="dependency" data-source-line="33" id="lnk20"><path d="M1032.7813,1378.1736 C1158.9531,1268.033 1439.8438,1022.8455 1439.8438,1022.8455 C1439.8438,1022.8455 1524.4613,925.7199 1601.4144,837.4074" fill="none" id="ParentA-to-LS" style="stroke:#4B5563;stroke-width:1.5625;"/><polygon fill="#4B5563" points="1606.5469,831.5173,1592.5964,838.0135,1601.4144,837.4074,1602.0205,846.2254,1606.5469,831.5173" style="stroke:#4B5563;stroke-width:1.5625;stroke-linejoin:miter;stroke-miterlimit:10;"/><text fill="#111827" font-family="'Malgun Gothic'" font-size="20.3125" lengthAdjust="spacing" textLength="194.1689" x="1224.2188" y="1016.8282">App &#183; Bridge &#51200;&#51109; [S]</text></g><!--link SyncA to LS--><g class="link" data-entity-1="ent0004" data-entity-2="ent0009" data-link-type="dependency" data-source-line="34" id="lnk21"><path d="M369.8594,1588.2986 C411.7969,1571.0486 449.2188,1555.658 449.2188,1555.658 C449.2188,1555.658 496.0938,1343.158 496.0938,1343.158 C496.0938,1343.158 786.7188,980.658 786.7188,980.658 C786.7188,980.658 1202.3438,843.158 1202.3438,843.158 C1202.3438,843.158 1342.1049,806.0827 1478.7767,769.8327" fill="none" id="SyncA-to-LS" style="stroke:#4B5563;stroke-width:1.5625;"/><polygon fill="#4B5563" points="1486.3281,767.8298,1471.1333,765.3939,1478.7767,769.8327,1474.3379,777.4761,1486.3281,767.8298" style="stroke:#4B5563;stroke-width:1.5625;stroke-linejoin:miter;stroke-miterlimit:10;"/><text fill="#111827" font-family="'Malgun Gothic'" font-size="20.3125" lengthAdjust="spacing" textLength="318.2556" x="812.5" y="854.3282">collect &#183; apply &#183; meta &#183; pending [S]</text></g><!--link TabBState to LS--><g class="link" data-entity-1="ent0008" data-entity-2="ent0009" data-link-type="dependency" data-source-line="35" id="lnk22"><path d="M1086.3594,1021.8611 C1123.5313,1009.783 1155.4688,999.408 1155.4688,999.408 C1155.4688,999.408 1439.8438,879.0955 1439.8438,879.0955 C1439.8438,879.0955 1466.0775,862.6881 1509.0931,835.8131" fill="none" id="TabBState-to-LS" style="stroke:#4B5563;stroke-width:1.5625;"/><polygon fill="#4B5563" points="1515.7188,831.6736,1500.4809,833.8242,1509.0931,835.8131,1507.1042,844.4253,1515.7188,831.6736" style="stroke:#4B5563;stroke-width:1.5625;stroke-linejoin:miter;stroke-miterlimit:10;"/><text fill="#111827" font-family="'Malgun Gothic'" font-size="20.3125" lengthAdjust="spacing" textLength="173.8564" x="1234.375" y="873.0782">&#46041;&#51068; origin &#44277;&#50976; [I]</text></g><!--link SyncA to RPC--><g class="link" data-entity-1="ent0004" data-entity-2="ent0012" data-link-type="dependency" data-source-line="37" id="lnk23"><path d="M369.8594,1669.4705 C411.7969,1681.9861 449.2188,1693.158 449.2188,1693.158 C449.2188,1693.158 1310.786,1978.2196 1608.6454,2076.7665" fill="none" id="SyncA-to-RPC" style="stroke:#4B5563;stroke-width:1.5625;"/><polygon fill="#4B5563" points="1616.0625,2079.2205,1604.6749,2068.8697,1608.6454,2076.7665,1600.7486,2080.737,1616.0625,2079.2205" style="stroke:#4B5563;stroke-width:1.5625;stroke-linejoin:miter;stroke-miterlimit:10;"/><text fill="#111827" font-family="'Malgun Gothic'" font-size="20.3125" lengthAdjust="spacing" textLength="158.7509" x="892.1875" y="1802.7657">commit &#183; load [S]</text></g><!--link RPC to Revisions--><g class="link" data-entity-1="ent0012" data-entity-2="ent0013" data-link-type="dependency" data-source-line="38" id="lnk24"><path d="M1816.5781,2111.908 C1928.6875,2111.908 2103.3438,2111.908 2219.4688,2111.908" fill="none" id="RPC-to-Revisions" style="stroke:#4B5563;stroke-width:1.5625;"/><polygon fill="#4B5563" points="2227.2813,2111.908,2213.2188,2105.658,2219.4688,2111.908,2213.2188,2118.158,2227.2813,2111.908" style="stroke:#4B5563;stroke-width:1.5625;stroke-linejoin:miter;stroke-miterlimit:10;"/><text fill="#111827" font-family="'Malgun Gothic'" font-size="20.3125" lengthAdjust="spacing" textLength="181.6917" x="1997.6563" y="2105.8907">revision append [D]</text></g><!--link RPC to Projection--><g class="link" data-entity-1="ent0012" data-entity-2="ent0014" data-link-type="dependency" data-source-line="39" id="lnk25"><path d="M1816.5781,2086.7205 C1930.3906,2057.658 2109.1492,2012.0131 2224.9617,1982.4349" fill="none" id="RPC-to-Projection" style="stroke:#4B5563;stroke-width:1.5625;"/><polygon fill="#4B5563" points="2232.5313,1980.5017,2217.3595,1977.9259,2224.9617,1982.4349,2220.4527,1990.0372,2232.5313,1980.5017" style="stroke:#4B5563;stroke-width:1.5625;stroke-linejoin:miter;stroke-miterlimit:10;"/><text fill="#111827" font-family="'Malgun Gothic'" font-size="20.3125" lengthAdjust="spacing" textLength="142.7925" x="2017.1875" y="1991.8282">&#51204;&#52404; &#51116;&#44396;&#52629; [D]</text></g><!--link ParentA to LegacyDB--><g class="link" data-entity-1="ent0003" data-entity-2="ent0015" data-link-type="dependency" data-source-line="40" id="lnk26"><path d="M1011.0938,1483.4861 C1076.4844,1573.3298 1202.3438,1746.283 1202.3438,1746.283 C1202.3438,1746.283 1439.8438,1816.5955 1439.8438,1816.5955 C1439.8438,1816.5955 1525.6838,1859.0243 1603.4807,1897.4775" fill="none" id="ParentA-to-LegacyDB" style="stroke:#4B5563;stroke-width:1.5625;stroke-dasharray:10.9375,10.9375;"/><polygon fill="#4B5563" points="1610.4844,1900.9392,1600.6472,1889.1051,1603.4807,1897.4775,1595.1084,1900.311,1610.4844,1900.9392" style="stroke:#4B5563;stroke-width:1.5625;stroke-linejoin:miter;stroke-miterlimit:10;"/><text fill="#111827" font-family="'Malgun Gothic'" font-size="20.3125" lengthAdjust="spacing" textLength="234.7839" x="1203.9063" y="1740.2657">&#44396;&#48260;&#51204; &#54632;&#49688; &#44221;&#47196; &#51092;&#51316; [S]</text></g><!--link SyncA to Backup--><g class="link" data-entity-1="ent0004" data-entity-2="ent0010" data-link-type="dependency" data-source-line="41" id="lnk27"><path d="M369.8594,1588.2986 C411.7969,1571.0486 449.2188,1555.658 449.2188,1555.658 C449.2188,1555.658 496.0938,821.283 496.0938,821.283 C496.0938,821.283 731.7049,770.7336 869.4862,741.1867" fill="none" id="SyncA-to-Backup" style="stroke:#4B5563;stroke-width:1.5625;"/><polygon fill="#4B5563" points="877.125,739.5486,862.0646,736.3862,869.4862,741.1867,864.6856,748.6083,877.125,739.5486" style="stroke:#4B5563;stroke-width:1.5625;stroke-linejoin:miter;stroke-miterlimit:10;"/><text fill="#111827" font-family="'Malgun Gothic'" font-size="20.3125" lengthAdjust="spacing" textLength="169.5618" x="533.5938" y="765.2657">export &#183; import [S]</text></g><!--link TabA to GMN28--><g class="link" data-entity-1="ent0002" data-entity-2="ent0029" data-link-type="association" data-source-line="44" id="lnk30"><path d="M94.5444,1721.7597 C93.0254,1721.5558 91.5219,1721.3539 90.0353,1721.1542 C87.0621,1720.755 84.1565,1720.3648 81.3309,1719.9854 C75.6796,1719.2265 70.3481,1718.5106 65.4346,1717.8508 C45.7803,1715.2117 32.8125,1713.4705 32.8125,1713.4705 C32.8125,1713.4705 9.375,1686.1267 9.375,1686.1267 C9.375,1686.1267 9.375,1322.0642 9.375,1322.0642 C9.375,1322.0642 194.5156,526.5173 242.6094,319.8611" fill="none" id="TabA-GMN28" style="stroke:#4B5563;stroke-width:1.5625;stroke-dasharray:10.9375,10.9375;"/></g><!--link TabB to GMN31--><g class="link" data-entity-1="ent0007" data-entity-2="ent0032" data-link-type="association" data-source-line="50" id="lnk33"><path d="M818.5592,1142.0346 C818.2922,1141.9916 818.0264,1141.9488 817.7619,1141.9062 C817.2327,1141.821 816.7085,1141.7366 816.1893,1141.653 C815.151,1141.4858 814.1328,1141.3219 813.136,1141.1614 C797.1875,1138.5935 786.7188,1136.908 786.7188,1136.908 C786.7188,1136.908 617.9688,1109.5642 617.9688,1109.5642 C617.9688,1109.5642 617.9688,412.6892 617.9688,412.6892 C617.9688,412.6892 747.8438,360.6892 850.0625,319.7517" fill="none" id="TabB-GMN31" style="stroke:#4B5563;stroke-width:1.5625;stroke-dasharray:10.9375,10.9375;"/></g><!--link LS to GMN34--><g class="link" data-entity-1="ent0009" data-entity-2="ent0035" data-link-type="association" data-source-line="56" id="lnk36"><path d="M1589.7031,582.7673 C1474.0625,469.1892 1321.0938,318.9392 1321.0938,318.9392 C1321.0938,318.9392 1321.0938,222.0642 1321.0938,222.0642 C1321.0938,222.0642 1427,194.6423 1529.1719,168.1892" fill="none" id="LS-GMN34" style="stroke:#4B5563;stroke-width:1.5625;stroke-dasharray:10.9375,10.9375;"/></g><!--link LegacyDB to GMN37--><g class="link" data-entity-1="ent0015" data-entity-2="ent0038" data-link-type="association" data-source-line="62" id="lnk39"><path d="M1599.4063,1900.9705 C1482.8281,1849.5955 1321.0938,1778.3142 1321.0938,1778.3142 C1321.0938,1778.3142 1321.0938,412.6892 1321.0938,412.6892 C1321.0938,412.6892 1466.4844,360.6892 1580.9219,319.7517" fill="none" id="LegacyDB-GMN37" style="stroke:#4B5563;stroke-width:1.5625;stroke-dasharray:10.9375,10.9375;"/></g><g class="caption" data-source-line="67"><text fill="#111827" font-family="'Malgun Gothic'" font-size="21.875" lengthAdjust="spacing" textLength="1128.154" x="699.857" y="2270.4754">&#46041;&#51068;&#54620; &#45436;&#47532; &#45936;&#51060;&#53552;&#44032; iframe memory, parent memory, localStorage, pending, backup, server revision&#50640; &#48373;&#51228;&#46108;&#45796;.</text></g><?plantuml-src bLRVJnj747xtNp7bgPKm2KcVyX091nfH0K6Og0yOeVLvCLVEkwUxDQbRLNAAYL985L3jOY93ZGGDgQXaViQLw4l_b3vwr_z3PtTzje4gRILBTxVxpUnyCz_C-YENELu-Gs4X50MF3ldvd1SJhl0eZ2JZuqcuEmn_lWVPQAZVg_1qSk81g8s3za_VWrnhoXzhQgS8yeU6sZrlbneWpoxKTyVoh1dpwA80mI5miqi2Ccv07U5o5WkNNUQJWEJ0SnaL1P-2pxs2_eZ56CT01j23UlDExMr2gzd07zm1-Nf7xLw1RBwIkrVgJKFLYy3HjSi6W8GmIbTSXy8tCG3hehtw6uoOhLcI7Z4R00xF-PnH9c1WcWJwEUBxAIRVbUMlH_ANOr2hpzkhDMDc0ICtxP85vk0t3p8k8u87ATPUBI9tUTJKMNBPPvxcQrneh7LWOmf5FbCO4HvkkOkO06fHPhKFblLucdYtS8_jCWA_ZLsZcO2FMusYN3_y9EARkCrNdfNawrA7LOSdChUhVNowBfA221eTbY62f4c81thS8LuIWIHBK-olSl5__LBCzMdSeoHWBil6UHXV-JJ57CuSweiuqPJZA_VZYvHcBDGkfGCtawNnbM6xo7YG8vxxDSt4GqnnVELUYatFZ8rFJZ-PcTLLm8_ffnCJvdLiQdHywl62tJJi9fB8QD7rjD1ULb5Oy7dooHGA_4Hjhnb4WZZBUJ-6r1sFvpDOzRnl-Dk2sVJs9NTcB3aBCzEFD9LSpXNwO8-JZ87Z-hKC8eE50EKQOZE4AQRg9NLwRaE8bgrTXBbcxUG3Kq4_u5_QXj8kAgttjVPE6TfhhxGMcsKhuIxcUWbfbZY558lAiC33XP0HFrpY8hGPCeZHXCw0bIV4um-Zbe07sB2XcAHXY2A0o1JcalEnZaZ_AxpF-KGIWLRqwkrpLTy2R76rTtZBxGU1qPazeE_hQYICWlgHfZbxE8Tx7kPAOudlUmNzagE2wATF6NP7rfXrMwDdsXbDTXf12mTWhGvpu_EnlZDG1EQGVdKOVth30A9g8ooIWOu4ZuQvqHwkLrC4ThIZzevR5yVgicAGKGg6XXvs2ubOHCZJ4bf0ktA4keVMwHzoluR6PRL_VYCbjW7GYdxbyy14xERCcyRXb4R-QIu4pm5VD1CM5TOwRQ1h6DQOkPbvN95Rcvq9XghKcMc_kEYnKzilS1bXgbJJaSYD0tdO17LHKnjrLJfHkrNeZcPvYCF_x1nJswxK43aKqvdHWVnJE0djzRACOn5KhTJUhffwW3v27Mo1dfhF0bVGGBjL-tYRLDgLgbml8oOHO6qS4ef7IuGnwjtvWgPXWZlBcWF6_E73pN3fPEAUpjlzNZewEZ9-a6jqPo8jz0dwKYiXkphewgYzbwsp-Y1QwH5dfAZPFEF1SkWJX-h9hNDsMTB9sQogjqYrieuK_YM-gBLxzRfhYgflb6YiuZKM2k9vM9aJh1goFfQNHRMz2RBSmFjN6tVbrEafgoeTe_oveU_4lP8sQ5rieaJbvisQESGt8hRDWpN5VnDN-WhkfaMxik91zZaU50R1jxTNzDb_5mr6sHs4j17l88GqMA51LsycV6pEUgqJpTy0?></g></svg>