<svg xmlns="http://www.w3.org/2000/svg" xmlns:xlink="http://www.w3.org/1999/xlink" contentStyleType="text/css" data-diagram-type="DESCRIPTION" height="1654.6875px" preserveAspectRatio="none" style="width:2204px;height:1654px;background:#FFFFFF;" version="1.1" viewBox="0 0 2204 1654" width="2204.6875px" zoomAndPan="magnify"><?plantuml 1.2026.6?><defs/><g><g class="title" data-source-line="2"><text fill="#111827" font-family="'Malgun Gothic'" font-size="21.875" font-weight="700" lengthAdjust="spacing" textLength="486.9751" x="854.0684" y="39.4333">AS-IS 02 &#183; &#52980;&#54252;&#45324;&#53944; UML: &#51200;&#51109; &#52293;&#51076;&#44284; &#54632;&#49688; &#44368;&#52404;</text></g><!--cluster UI / ???--><g class="cluster" data-qualified-name="UI . ..." data-source-line="6" id="ent0001"><rect fill="none" height="187.5" rx="6.25" ry="6.25" style="stroke:#64748B;stroke-width:1.5625;" width="1612.5" x="10.9375" y="107.2205"/><text fill="#111827" font-family="'Malgun Gothic'" font-size="21.875" font-weight="700" lengthAdjust="spacing" textLength="113.3804" x="760.4973" y="134.1537">UI / &#54200;&#51665;&#44592;</text></g><!--cluster ?? persistence ??--><g class="cluster" data-qualified-name=".. persistence .." data-source-line="19" id="ent0011"><rect fill="none" height="673.4375" rx="6.25" ry="6.25" style="stroke:#64748B;stroke-width:1.5625;" width="604.6875" x="246.875" y="374.408"/><text fill="#111827" font-family="'Malgun Gothic'" font-size="21.875" font-weight="700" lengthAdjust="spacing" textLength="219.8608" x="439.2883" y="401.3412">&#54788;&#51116; persistence &#44228;&#52789;</text></g><!--cluster ?? ???--><g class="cluster" data-qualified-name=".. ..." data-source-line="32" id="ent0021"><rect fill="none" height="329.6875" rx="6.25" ry="6.25" style="stroke:#64748B;stroke-width:1.5625;" width="714.0625" x="606.25" y="1127.533"/><text fill="#111827" font-family="'Malgun Gothic'" font-size="21.875" font-weight="700" lengthAdjust="spacing" textLength="117.0654" x="904.7485" y="1154.4662">&#51200;&#51109; &#50612;&#45841;&#53552;</text></g><!--entity AppUI--><g class="entity" data-qualified-name="UI . ....AppUI" data-source-line="7" id="ent0002"><rect fill="#F1F1F1" height="105.0659" rx="6.25" ry="6.25" style="stroke:#181818;stroke-width:0.7813;" width="319.7769" x="652.3438" y="165.033"/><rect fill="#F1F1F1" height="15.625" style="stroke:#181818;stroke-width:0.7813;" width="23.4375" x="940.8707" y="172.8455"/><rect fill="#F1F1F1" height="3.125" style="stroke:#181818;stroke-width:0.7813;" width="6.25" x="937.7457" y="175.9705"/><rect fill="#F1F1F1" height="3.125" style="stroke:#181818;stroke-width:0.7813;" width="6.25" x="937.7457" y="182.2205"/><text fill="#111827" font-family="'Malgun Gothic'" font-size="21.875" lengthAdjust="spacing" textLength="69.6411" x="675.7813" y="220.0912">App UI</text><text fill="#111827" font-family="'Malgun Gothic'" font-size="21.875" lengthAdjust="spacing" textLength="257.2769" x="675.7813" y="249.1867">progress &#183; notes &#183; settings</text></g><!--entity Study--><g class="entity" data-qualified-name="UI . ....Study" data-source-line="8" id="ent0003"><rect fill="#F1F1F1" height="105.0659" rx="6.25" ry="6.25" style="stroke:#181818;stroke-width:0.7813;" width="244.4321" x="1028.125" y="165.033"/><rect fill="#F1F1F1" height="15.625" style="stroke:#181818;stroke-width:0.7813;" width="23.4375" x="1241.3071" y="172.8455"/><rect fill="#F1F1F1" height="3.125" style="stroke:#181818;stroke-width:0.7813;" width="6.25" x="1238.1821" y="175.9705"/><rect fill="#F1F1F1" height="3.125" style="stroke:#181818;stroke-width:0.7813;" width="6.25" x="1238.1821" y="182.2205"/><text fill="#111827" font-family="'Malgun Gothic'" font-size="21.875" lengthAdjust="spacing" textLength="181.9321" x="1051.5625" y="220.0912">Study Atlas iframe</text><text fill="#111827" font-family="'Malgun Gothic'" font-size="21.875" lengthAdjust="spacing" textLength="76.8188" x="1051.5625" y="249.1867">[&#44208;&#54632; 1]</text></g><!--entity Global--><g class="entity" data-qualified-name="UI . ....Global" data-source-line="9" id="ent0004"><rect fill="#F1F1F1" height="105.0659" rx="6.25" ry="6.25" style="stroke:#181818;stroke-width:0.7813;" width="252.1545" x="346.0938" y="165.033"/><rect fill="#F1F1F1" height="15.625" style="stroke:#181818;stroke-width:0.7813;" width="23.4375" x="566.9983" y="172.8455"/><rect fill="#F1F1F1" height="3.125" style="stroke:#181818;stroke-width:0.7813;" width="6.25" x="563.8733" y="175.9705"/><rect fill="#F1F1F1" height="3.125" style="stroke:#181818;stroke-width:0.7813;" width="6.25" x="563.8733" y="182.2205"/><text fill="#111827" font-family="'Malgun Gothic'" font-size="21.875" lengthAdjust="spacing" textLength="189.6545" x="369.5313" y="220.0912">Global Atlas iframe</text><text fill="#111827" font-family="'Malgun Gothic'" font-size="21.875" lengthAdjust="spacing" textLength="76.8188" x="369.5313" y="249.1867">[&#44208;&#54632; 1]</text></g><!--entity Bridge--><g class="entity" data-qualified-name="UI . ....Bridge" data-source-line="10" id="ent0005"><rect fill="#F1F1F1" height="105.0659" rx="6.25" ry="6.25" style="stroke:#181818;stroke-width:0.7813;" width="270.9961" x="1327.3438" y="165.033"/><rect fill="#F1F1F1" height="15.625" style="stroke:#181818;stroke-width:0.7813;" width="23.4375" x="1567.0898" y="172.8455"/><rect fill="#F1F1F1" height="3.125" style="stroke:#181818;stroke-width:0.7813;" width="6.25" x="1563.9648" y="175.9705"/><rect fill="#F1F1F1" height="3.125" style="stroke:#181818;stroke-width:0.7813;" width="6.25" x="1563.9648" y="182.2205"/><text fill="#111827" font-family="'Malgun Gothic'" font-size="21.875" lengthAdjust="spacing" textLength="208.4961" x="1350.7813" y="220.0912">Bridge helpers/cache</text><text fill="#111827" font-family="'Malgun Gothic'" font-size="21.875" lengthAdjust="spacing" textLength="121.0815" x="1350.7813" y="249.1867">[&#44208;&#54632; 7 &#183; 11]</text></g><!--entity Topbar--><g class="entity" data-qualified-name="UI . ....Topbar" data-source-line="11" id="ent0006"><rect fill="#F1F1F1" height="75.9705" rx="6.25" ry="6.25" style="stroke:#181818;stroke-width:0.7813;" width="254.1199" x="36.7188" y="179.0955"/><rect fill="#F1F1F1" height="15.625" style="stroke:#181818;stroke-width:0.7813;" width="23.4375" x="259.5886" y="186.908"/><rect fill="#F1F1F1" height="3.125" style="stroke:#181818;stroke-width:0.7813;" width="6.25" x="256.4636" y="190.033"/><rect fill="#F1F1F1" height="3.125" style="stroke:#181818;stroke-width:0.7813;" width="6.25" x="256.4636" y="196.283"/><text fill="#111827" font-family="'Malgun Gothic'" font-size="21.875" lengthAdjust="spacing" textLength="191.6199" x="60.1563" y="234.1537">Topbar Save Status</text></g><!--entity BaseSave--><g class="entity" data-qualified-name=".. persistence ...BaseSave" data-source-line="20" id="ent0012"><rect fill="#F1F1F1" height="105.0659" rx="6.25" ry="6.25" style="stroke:#181818;stroke-width:0.7813;" width="190.3748" x="635.9375" y="432.2205"/><rect fill="#F1F1F1" height="15.625" style="stroke:#181818;stroke-width:0.7813;" width="23.4375" x="795.0623" y="440.033"/><rect fill="#F1F1F1" height="3.125" style="stroke:#181818;stroke-width:0.7813;" width="6.25" x="791.9373" y="443.158"/><rect fill="#F1F1F1" height="3.125" style="stroke:#181818;stroke-width:0.7813;" width="6.25" x="791.9373" y="449.408"/><text fill="#111827" font-family="'Malgun Gothic'" font-size="21.875" lengthAdjust="spacing" textLength="93.6844" x="659.375" y="487.2787">Base App</text><text fill="#111827" font-family="'Malgun Gothic'" font-size="21.875" lengthAdjust="spacing" textLength="127.8748" x="659.375" y="516.3742">save &#183; saveUI</text></g><!--entity V17--><g class="entity" data-qualified-name=".. persistence ...V17" data-source-line="21" id="ent0013"><rect fill="#F1F1F1" height="105.0659" rx="6.25" ry="6.25" style="stroke:#181818;stroke-width:0.7813;" width="219.1605" x="362.5" y="432.2205"/><rect fill="#F1F1F1" height="15.625" style="stroke:#181818;stroke-width:0.7813;" width="23.4375" x="550.4105" y="440.033"/><rect fill="#F1F1F1" height="3.125" style="stroke:#181818;stroke-width:0.7813;" width="6.25" x="547.2855" y="443.158"/><rect fill="#F1F1F1" height="3.125" style="stroke:#181818;stroke-width:0.7813;" width="6.25" x="547.2855" y="449.408"/><text fill="#111827" font-family="'Malgun Gothic'" font-size="21.875" lengthAdjust="spacing" textLength="34.7565" x="385.9375" y="487.2787">v17</text><text fill="#111827" font-family="'Malgun Gothic'" font-size="21.875" lengthAdjust="spacing" textLength="156.6605" x="385.9375" y="516.3742">flush &#183; snapshot</text></g><!--entity NS--><g class="entity" data-qualified-name=".. persistence ...NS" data-source-line="22" id="ent0014"><rect fill="#F1F1F1" height="134.1614" rx="6.25" ry="6.25" style="stroke:#181818;stroke-width:0.7813;" width="395.4422" x="408.5938" y="660.3455"/><rect fill="#F1F1F1" height="15.625" style="stroke:#181818;stroke-width:0.7813;" width="23.4375" x="772.7859" y="668.158"/><rect fill="#F1F1F1" height="3.125" style="stroke:#181818;stroke-width:0.7813;" width="6.25" x="769.6609" y="671.283"/><rect fill="#F1F1F1" height="3.125" style="stroke:#181818;stroke-width:0.7813;" width="6.25" x="769.6609" y="677.533"/><text fill="#111827" font-family="'Malgun Gothic'" font-size="21.875" lengthAdjust="spacing" textLength="167.2775" x="432.0313" y="715.4037">Normalized Sync</text><text fill="#111827" font-family="'Malgun Gothic'" font-size="21.875" lengthAdjust="spacing" textLength="332.9422" x="432.0313" y="744.4992">install &#183; collect &#183; validate &#183; commit</text><text fill="#111827" font-family="'Malgun Gothic'" font-size="21.875" lengthAdjust="spacing" textLength="314.3677" x="432.0313" y="773.5947">[&#44208;&#54632; 2 &#183; 3 &#183; 4 &#183; 5 &#183; 6 &#183; 8 &#183; 9 &#183; 12]</text></g><!--entity Backup--><g class="entity" data-qualified-name=".. persistence ...Backup" data-source-line="23" id="ent0015"><rect fill="#F1F1F1" height="105.0659" rx="6.25" ry="6.25" style="stroke:#181818;stroke-width:0.7813;" width="212.207" x="614.0625" y="918.158"/><rect fill="#F1F1F1" height="15.625" style="stroke:#181818;stroke-width:0.7813;" width="23.4375" x="795.0195" y="925.9705"/><rect fill="#F1F1F1" height="3.125" style="stroke:#181818;stroke-width:0.7813;" width="6.25" x="791.8945" y="929.0955"/><rect fill="#F1F1F1" height="3.125" style="stroke:#181818;stroke-width:0.7813;" width="6.25" x="791.8945" y="935.3455"/><text fill="#111827" font-family="'Malgun Gothic'" font-size="21.875" lengthAdjust="spacing" textLength="71.3287" x="637.5" y="973.2162">Backup</text><text fill="#111827" font-family="'Malgun Gothic'" font-size="21.875" lengthAdjust="spacing" textLength="149.707" x="637.5" y="1002.3117">export &#183; import</text></g><!--entity Legacy--><g class="entity" data-qualified-name=".. persistence ...Legacy" data-source-line="24" id="ent0016"><rect fill="#F1F1F1" height="105.0659" rx="6.25" ry="6.25" style="stroke:#181818;stroke-width:0.7813;" width="285.2341" x="272.6563" y="918.158"/><rect fill="#F1F1F1" height="15.625" style="stroke:#181818;stroke-width:0.7813;" width="23.4375" x="526.6403" y="925.9705"/><rect fill="#F1F1F1" height="3.125" style="stroke:#181818;stroke-width:0.7813;" width="6.25" x="523.5153" y="929.0955"/><rect fill="#F1F1F1" height="3.125" style="stroke:#181818;stroke-width:0.7813;" width="6.25" x="523.5153" y="935.3455"/><text fill="#111827" font-family="'Malgun Gothic'" font-size="21.875" lengthAdjust="spacing" textLength="222.7341" x="296.0938" y="973.2162">Legacy v13~v17 cloud</text><text fill="#111827" font-family="'Malgun Gothic'" font-size="21.875" lengthAdjust="spacing" textLength="88.8672" x="296.0938" y="1002.3117">[&#44208;&#54632; 10]</text></g><!--entity LS--><g class="entity" data-qualified-name=".. ....LS" data-source-line="33" id="ent0022"><path d="M1142.1875,1201.7517 C1142.1875,1186.1267 1218.8606,1186.1267 1218.8606,1186.1267 C1218.8606,1186.1267 1295.5338,1186.1267 1295.5338,1201.7517 L1295.5338,1244.9097 C1295.5338,1260.5347 1218.8606,1260.5347 1218.8606,1260.5347 C1218.8606,1260.5347 1142.1875,1260.5347 1142.1875,1244.9097 L1142.1875,1201.7517" fill="#F1F1F1" style="stroke:#181818;stroke-width:0.7813;"/><path d="M1142.1875,1201.7517 C1142.1875,1217.3767 1218.8606,1217.3767 1218.8606,1217.3767 C1218.8606,1217.3767 1295.5338,1217.3767 1295.5338,1201.7517" fill="none" style="stroke:#181818;stroke-width:0.7813;"/><text fill="#111827" font-family="'Malgun Gothic'" font-size="21.875" lengthAdjust="spacing" textLength="122.0963" x="1157.8125" y="1247.435">localStorage</text></g><!--entity Client--><g class="entity" data-qualified-name=".. ....Client" data-source-line="34" id="ent0023"><rect fill="#F1F1F1" height="75.9705" rx="6.25" ry="6.25" style="stroke:#181818;stroke-width:0.7813;" width="265.3244" x="821.875" y="1185.3455"/><rect fill="#F1F1F1" height="15.625" style="stroke:#181818;stroke-width:0.7813;" width="23.4375" x="1055.9494" y="1193.158"/><rect fill="#F1F1F1" height="3.125" style="stroke:#181818;stroke-width:0.7813;" width="6.25" x="1052.8244" y="1196.283"/><rect fill="#F1F1F1" height="3.125" style="stroke:#181818;stroke-width:0.7813;" width="6.25" x="1052.8244" y="1202.533"/><text fill="#111827" font-family="'Malgun Gothic'" font-size="21.875" lengthAdjust="spacing" textLength="202.8244" x="845.3125" y="1240.4037">Supabase RPC client</text></g><!--entity DB--><g class="entity" data-qualified-name=".. ....DB" data-source-line="35" id="ent0024"><path d="M1057.8125,1372.8455 C1057.8125,1357.2205 1176.8791,1357.2205 1176.8791,1357.2205 C1176.8791,1357.2205 1295.9457,1357.2205 1295.9457,1372.8455 L1295.9457,1416.0034 C1295.9457,1431.6284 1176.8791,1431.6284 1176.8791,1431.6284 C1176.8791,1431.6284 1057.8125,1431.6284 1057.8125,1416.0034 L1057.8125,1372.8455" fill="#F1F1F1" style="stroke:#181818;stroke-width:0.7813;"/><path d="M1057.8125,1372.8455 C1057.8125,1388.4705 1176.8791,1388.4705 1176.8791,1388.4705 C1176.8791,1388.4705 1295.9457,1388.4705 1295.9457,1372.8455" fill="none" style="stroke:#181818;stroke-width:0.7813;"/><text fill="#111827" font-family="'Malgun Gothic'" font-size="21.875" lengthAdjust="spacing" textLength="206.8832" x="1073.4375" y="1418.5287">revision + projection</text></g><!--entity File--><g class="entity" data-qualified-name=".. ....File" data-source-line="36" id="ent0025"><path d="M838.2813,1370.5017 L838.2813,1418.3472 A6.25,6.25 0 0 0 844.5313,1424.5972 L996.08,1424.5972 A6.25,6.25 0 0 0 1002.33,1418.3472 L1002.33,1379.8767 L986.705,1364.2517 L844.5313,1364.2517 A6.25,6.25 0 0 0 838.2813,1370.5017" fill="#F1F1F1" style="stroke:#181818;stroke-width:0.7813;"/><path d="M986.705,1364.2517 L986.705,1373.6267 A6.25,6.25 0 0 0 992.955,1379.8767 L1002.33,1379.8767" fill="#F1F1F1" style="stroke:#181818;stroke-width:0.7813;"/><text fill="#111827" font-family="'Malgun Gothic'" font-size="21.875" lengthAdjust="spacing" textLength="132.7988" x="853.9063" y="1403.685">JSON backup</text></g><!--entity LegacyDB--><g class="entity" data-qualified-name=".. ....LegacyDB" data-source-line="37" id="ent0026"><path d="M632.0313,1372.8455 C632.0313,1357.2205 707.4493,1357.2205 707.4493,1357.2205 C707.4493,1357.2205 782.8674,1357.2205 782.8674,1372.8455 L782.8674,1416.0034 C782.8674,1431.6284 707.4493,1431.6284 707.4493,1431.6284 C707.4493,1431.6284 632.0313,1431.6284 632.0313,1416.0034 L632.0313,1372.8455" fill="#F1F1F1" style="stroke:#181818;stroke-width:0.7813;"/><path d="M632.0313,1372.8455 C632.0313,1388.4705 707.4493,1388.4705 707.4493,1388.4705 C707.4493,1388.4705 782.8674,1388.4705 782.8674,1372.8455" fill="none" style="stroke:#181818;stroke-width:0.7813;"/><text fill="#111827" font-family="'Malgun Gothic'" font-size="21.875" lengthAdjust="spacing" textLength="119.5862" x="647.6563" y="1418.5287">legacy table</text></g><!--link AppUI to Study--><!--link Study to Global--><!--link Global to Bridge--><!--link Bridge to Topbar--><!--link BaseSave to V17--><!--link V17 to NS--><!--link NS to V17--><g class="link" data-entity-1="ent0014" data-entity-2="ent0013" data-link-type="dependency" data-source-line="56" id="lnk41"><path d="M551.1719,659.8767 C530.7656,635.3923 512.5,613.4705 512.5,613.4705 C512.5,613.4705 501.8425,580.0542 490.5457,544.6323" fill="none" id="NS-to-V17" style="stroke:#4B5563;stroke-width:1.5625;"/><polygon fill="#4B5563" points="488.1719,537.1892,486.4902,552.4859,490.5457,544.6323,498.3992,548.6878,488.1719,537.1892" style="stroke:#4B5563;stroke-width:1.5625;stroke-linejoin:miter;stroke-miterlimit:10;"/><text fill="#111827" font-family="'Malgun Gothic'" font-size="20.3125" lengthAdjust="spacing" textLength="136.5143" x="514.0625" y="607.4532">flushAllStores()</text></g><!--link NS to Backup--><!--link NS to Backup--><g class="link" data-entity-1="ent0014" data-entity-2="ent0015" data-link-type="dependency" data-source-line="55" id="lnk40"><path d="M599.8281,795.1892 C597.4375,819.6736 595.3125,841.5955 595.3125,841.5955 C595.3125,841.5955 595.3125,871.283 595.3125,871.283 C595.3125,871.283 618.485,889.3785 648.735,913.0191" fill="none" id="NS-to-Backup-1" style="stroke:#4B5563;stroke-width:1.5625;stroke-dasharray:10.9375,10.9375;"/><polygon fill="#4B5563" points="654.8906,917.8298,647.659,904.246,648.735,913.0191,639.9619,914.0951,654.8906,917.8298" style="stroke:#4B5563;stroke-width:1.5625;stroke-linejoin:miter;stroke-miterlimit:10;"/><text fill="#111827" font-family="'Malgun Gothic'" font-size="20.3125" lengthAdjust="spacing" textLength="206.646" x="596.875" y="865.2657">export/import &#44368;&#52404; [S]</text></g><!--link Backup to Legacy--><!--link LS to Client--><!--link Client to DB--><!--link Client to DB--><g class="link" data-entity-1="ent0023" data-entity-2="ent0024" data-link-type="dependency" data-source-line="60" id="lnk45"><path d="M1021.1875,1262.0486 C1062.8438,1290.2517 1107.9866,1323.8252 1140.5335,1351.8565" fill="none" id="Client-to-DB-1" style="stroke:#4B5563;stroke-width:1.5625;"/><polygon fill="#4B5563" points="1146.4531,1356.9548,1139.8764,1343.0421,1140.5335,1351.8565,1131.7191,1352.5135,1146.4531,1356.9548" style="stroke:#4B5563;stroke-width:1.5625;stroke-linejoin:miter;stroke-miterlimit:10;"/></g><!--link DB to File--><!--link File to LegacyDB--><!--link AppUI to BaseSave--><g class="link" data-entity-1="ent0002" data-entity-2="ent0012" data-link-type="dependency" data-source-line="45" id="lnk31"><path d="M796.8281,269.8455 C782.5,316.4705 763.6732,377.6287 749.2982,424.3318" fill="none" id="AppUI-to-BaseSave" style="stroke:#4B5563;stroke-width:1.5625;"/><polygon fill="#4B5563" points="747,431.7986,757.1103,420.1969,749.2982,424.3318,745.1634,416.5197,747,431.7986" style="stroke:#4B5563;stroke-width:1.5625;stroke-linejoin:miter;stroke-miterlimit:10;"/><text fill="#111827" font-family="'Malgun Gothic'" font-size="20.3125" lengthAdjust="spacing" textLength="52.507" x="779.6875" y="343.3907">save()</text></g><!--link BaseSave to LS--><g class="link" data-entity-1="ent0012" data-entity-2="ent0022" data-link-type="dependency" data-source-line="46" id="lnk32"><path d="M807.7031,536.9548 C843.3906,560.6892 878.125,583.783 878.125,583.783 C878.125,583.783 1379.6875,918.158 1379.6875,918.158 C1379.6875,918.158 1379.6875,1060.3455 1379.6875,1060.3455 C1379.6875,1060.3455 1307.8231,1132.5576 1260.3856,1180.2295" fill="none" id="BaseSave-to-LS" style="stroke:#4B5563;stroke-width:1.5625;"/><polygon fill="#4B5563" points="1254.875,1185.7673,1269.2244,1180.2077,1260.3856,1180.2295,1260.3639,1171.3907,1254.875,1185.7673" style="stroke:#4B5563;stroke-width:1.5625;stroke-linejoin:miter;stroke-miterlimit:10;"/><text fill="#111827" font-family="'Malgun Gothic'" font-size="20.3125" lengthAdjust="spacing" textLength="89.1449" x="1307.8125" y="865.2657">App state</text></g><!--link Study to LS--><g class="link" data-entity-1="ent0003" data-entity-2="ent0022" data-link-type="dependency" data-source-line="47" id="lnk33"><path d="M1236.3906,269.783 C1269.7344,289.408 1300,307.2205 1300,307.2205 C1300,307.2205 1606.25,319.7205 1606.25,319.7205 C1606.25,319.7205 1817.1875,483.0017 1817.1875,483.0017 C1817.1875,483.0017 1817.1875,483.0017 1817.1875,972.0642 C1817.1875,972.0642 1606.25,1102.533 1606.25,1102.533 C1606.25,1102.533 1416.2467,1161.1365 1303.2311,1195.9959" fill="none" id="Study-to-LS" style="stroke:#4B5563;stroke-width:1.5625;"/><polygon fill="#4B5563" points="1295.7656,1198.2986,1311.0456,1200.1261,1303.2311,1195.9959,1307.3613,1188.1814,1295.7656,1198.2986" style="stroke:#4B5563;stroke-width:1.5625;stroke-linejoin:miter;stroke-miterlimit:10;"/><text fill="#111827" font-family="'Malgun Gothic'" font-size="20.3125" lengthAdjust="spacing" textLength="140.2634" x="1818.75" y="736.3594">Atlas &#51649;&#51217; &#51200;&#51109;</text></g><!--link Global to LS--><g class="link" data-entity-1="ent0004" data-entity-2="ent0022" data-link-type="dependency" data-source-line="48" id="lnk34"><path d="M560.0625,269.783 C594.0938,289.408 625,307.2205 625,307.2205 C625,307.2205 1129.6875,319.7205 1129.6875,319.7205 C1129.6875,319.7205 1565.625,483.0017 1565.625,483.0017 C1565.625,483.0017 1565.625,483.0017 1565.625,972.0642 C1565.625,972.0642 1392.1875,1102.533 1392.1875,1102.533 C1392.1875,1102.533 1328.7455,1146.2562 1277.683,1181.4437" fill="none" id="Global-to-LS" style="stroke:#4B5563;stroke-width:1.5625;"/><polygon fill="#4B5563" points="1271.25,1185.8767,1286.3758,1183.0437,1277.683,1181.4437,1279.283,1172.7509,1271.25,1185.8767" style="stroke:#4B5563;stroke-width:1.5625;stroke-linejoin:miter;stroke-miterlimit:10;"/><text fill="#111827" font-family="'Malgun Gothic'" font-size="20.3125" lengthAdjust="spacing" textLength="140.2634" x="1567.1875" y="736.3594">Atlas &#51649;&#51217; &#51200;&#51109;</text></g><!--link Study to V17--><g class="link" data-entity-1="ent0003" data-entity-2="ent0013" data-link-type="dependency" data-source-line="49" id="lnk35"><path d="M1063.6094,269.783 C1030.2656,289.408 1000,307.2205 1000,307.2205 C1000,307.2205 845.3125,349.408 845.3125,349.408 C845.3125,349.408 609.375,361.908 609.375,361.908 C609.375,361.908 573.2224,393.7446 535.6443,426.8384" fill="none" id="Study-to-V17" style="stroke:#4B5563;stroke-width:1.5625;"/><polygon fill="#4B5563" points="529.7813,432.0017,544.4654,427.3981,535.6443,426.8384,536.204,418.0173,529.7813,432.0017" style="stroke:#4B5563;stroke-width:1.5625;stroke-linejoin:miter;stroke-miterlimit:10;"/><text fill="#111827" font-family="'Malgun Gothic'" font-size="20.3125" lengthAdjust="spacing" textLength="167.0326" x="950" y="343.3907">saved/export &#51025;&#45813;</text></g><!--link Global to V17--><g class="link" data-entity-1="ent0004" data-entity-2="ent0013" data-link-type="dependency" data-source-line="50" id="lnk36"><path d="M471.875,269.8455 C471.875,316.4705 471.875,377.283 471.875,423.9861" fill="none" id="Global-to-V17" style="stroke:#4B5563;stroke-width:1.5625;"/><polygon fill="#4B5563" points="471.875,431.7986,478.125,417.7361,471.875,423.9861,465.625,417.7361,471.875,431.7986" style="stroke:#4B5563;stroke-width:1.5625;stroke-linejoin:miter;stroke-miterlimit:10;"/><text fill="#111827" font-family="'Malgun Gothic'" font-size="20.3125" lengthAdjust="spacing" textLength="167.0326" x="473.4375" y="343.3907">saved/export &#51025;&#45813;</text></g><!--link Bridge to LS--><g class="link" data-entity-1="ent0005" data-entity-2="ent0022" data-link-type="dependency" data-source-line="51" id="lnk37"><path d="M1579.3906,269.8455 C1755.5625,346.5798 2068.75,483.0017 2068.75,483.0017 C2068.75,483.0017 2068.75,483.0017 2068.75,972.0642 C2068.75,972.0642 1857.8125,1060.3455 1857.8125,1060.3455 C1857.8125,1060.3455 1473.3863,1157.632 1303.4019,1200.6476" fill="none" id="Bridge-to-LS" style="stroke:#4B5563;stroke-width:1.5625;"/><polygon fill="#4B5563" points="1295.8281,1202.5642,1310.9942,1205.1734,1303.4019,1200.6476,1307.9276,1193.0553,1295.8281,1202.5642" style="stroke:#4B5563;stroke-width:1.5625;stroke-linejoin:miter;stroke-miterlimit:10;"/><text fill="#111827" font-family="'Malgun Gothic'" font-size="20.3125" lengthAdjust="spacing" textLength="110.7368" x="2070.3125" y="736.3594">Bridge state</text></g><!--link NS to BaseSave--><g class="link" data-entity-1="ent0014" data-entity-2="ent0012" data-link-type="dependency" data-source-line="53" id="lnk38"><path d="M640.5625,660.1267 C660.8125,621.283 682.4209,579.8049 701.124,543.9143" fill="none" id="NS-to-BaseSave" style="stroke:#4B5563;stroke-width:1.5625;stroke-dasharray:10.9375,10.9375;"/><polygon fill="#4B5563" points="704.7344,536.9861,692.6931,546.5686,701.124,543.9143,703.7782,552.3452,704.7344,536.9861" style="stroke:#4B5563;stroke-width:1.5625;stroke-linejoin:miter;stroke-miterlimit:10;"/><text fill="#111827" font-family="'Malgun Gothic'" font-size="20.3125" lengthAdjust="spacing" textLength="184.2506" x="681.25" y="607.4532">runtime wrapper [S]</text></g><!--link NS to Legacy--><g class="link" data-entity-1="ent0014" data-entity-2="ent0016" data-link-type="dependency" data-source-line="54" id="lnk39"><path d="M487.5,794.8611 C443.0469,819.4861 403.125,841.5955 403.125,841.5955 C403.125,841.5955 403.125,871.283 403.125,871.283 C403.125,871.283 405.0739,886.4395 408.0896,910.0801" fill="none" id="NS-to-Legacy" style="stroke:#4B5563;stroke-width:1.5625;stroke-dasharray:10.9375,10.9375;"/><polygon fill="#4B5563" points="409.0781,917.8298,413.4985,903.0895,408.0896,910.0801,401.099,904.6712,409.0781,917.8298" style="stroke:#4B5563;stroke-width:1.5625;stroke-linejoin:miter;stroke-miterlimit:10;"/><text fill="#111827" font-family="'Malgun Gothic'" font-size="20.3125" lengthAdjust="spacing" textLength="176.8219" x="404.6875" y="865.2657">cloud &#54632;&#49688; &#44368;&#52404; [S]</text></g><!--link NS to LS--><g class="link" data-entity-1="ent0014" data-entity-2="ent0022" data-link-type="dependency" data-source-line="57" id="lnk42"><path d="M763.3594,794.8611 C822.1719,819.4861 875,841.5955 875,841.5955 C875,841.5955 1043.75,918.158 1043.75,918.158 C1043.75,918.158 1184.375,1072.8455 1184.375,1072.8455 C1184.375,1072.8455 1198.4962,1134.1698 1208.6681,1178.3261" fill="none" id="NS-to-LS" style="stroke:#4B5563;stroke-width:1.5625;"/><polygon fill="#4B5563" points="1210.4219,1185.9392,1213.3556,1170.8326,1208.6681,1178.3261,1201.1746,1173.6386,1210.4219,1185.9392" style="stroke:#4B5563;stroke-width:1.5625;stroke-linejoin:miter;stroke-miterlimit:10;"/><text fill="#111827" font-family="'Malgun Gothic'" font-size="20.3125" lengthAdjust="spacing" textLength="192.9688" x="1173.4375" y="979.3282">collect &#183; apply &#183; meta</text></g><!--link NS to Client--><g class="link" data-entity-1="ent0014" data-entity-2="ent0023" data-link-type="dependency" data-source-line="58" id="lnk43"><path d="M737.7813,794.8611 C787.0156,819.4861 831.25,841.5955 831.25,841.5955 C831.25,841.5955 909.1514,1081.7268 940.2139,1177.4612" fill="none" id="NS-to-Client" style="stroke:#4B5563;stroke-width:1.5625;"/><polygon fill="#4B5563" points="942.625,1184.8923,944.2298,1169.5874,940.2139,1177.4612,932.34,1173.4452,942.625,1184.8923" style="stroke:#4B5563;stroke-width:1.5625;stroke-linejoin:miter;stroke-miterlimit:10;"/><text fill="#111827" font-family="'Malgun Gothic'" font-size="20.3125" lengthAdjust="spacing" textLength="128.2028" x="901.5625" y="979.3282">commit &#183; load</text></g><!--link NS to Topbar--><g class="link" data-entity-1="ent0014" data-entity-2="ent0006" data-link-type="dependency" data-source-line="59" id="lnk44"><path d="M456.5625,660.1111 C332.5625,605.5486 176.5625,536.908 176.5625,536.908 C176.5625,536.908 169.1193,347.7144 165.8225,263.8394" fill="none" id="NS-to-Topbar" style="stroke:#4B5563;stroke-width:1.5625;"/><polygon fill="#4B5563" points="165.5156,256.033,159.8228,270.3301,165.8225,263.8394,172.3131,269.8391,165.5156,256.033" style="stroke:#4B5563;stroke-width:1.5625;stroke-linejoin:miter;stroke-miterlimit:10;"/><text fill="#111827" font-family="'Malgun Gothic'" font-size="20.3125" lengthAdjust="spacing" textLength="156.4697" x="178.125" y="493.3907">&#49688;&#46041; &#49345;&#53468; &#47928;&#51088;&#50676;</text></g><!--link Backup to File--><g class="link" data-entity-1="ent0015" data-entity-2="ent0025" data-link-type="dependency" data-source-line="61" id="lnk46"><path d="M735.5041,1030.7838 C757.0354,1113.9869 795.3125,1261.908 795.3125,1261.908 C795.3125,1261.908 850.3622,1319.7036 887.1904,1358.3755" fill="none" id="Backup-File" style="stroke:#4B5563;stroke-width:1.5625;"/><polygon fill="#4B5563" points="733.5469,1023.2205,731.0192,1038.4003,735.5041,1030.7838,743.1206,1035.2687,733.5469,1023.2205" style="stroke:#4B5563;stroke-width:1.5625;stroke-linejoin:miter;stroke-miterlimit:10;"/><polygon fill="#4B5563" points="892.5781,1364.033,887.4061,1349.5393,887.1904,1358.3755,878.3542,1358.1597,892.5781,1364.033" style="stroke:#4B5563;stroke-width:1.5625;stroke-linejoin:miter;stroke-miterlimit:10;"/></g><!--link Backup to LS--><g class="link" data-entity-1="ent0015" data-entity-2="ent0022" data-link-type="dependency" data-source-line="62" id="lnk47"><path d="M805.7969,1022.908 C838.7969,1042.533 868.75,1060.3455 868.75,1060.3455 C868.75,1060.3455 1021.875,1102.533 1021.875,1102.533 C1021.875,1102.533 1115.625,1115.033 1115.625,1115.033 C1115.625,1115.033 1148.5005,1149.1577 1178.4223,1180.2046" fill="none" id="Backup-to-LS" style="stroke:#4B5563;stroke-width:1.5625;"/><polygon fill="#4B5563" points="1183.8438,1185.8298,1178.5854,1171.3673,1178.4223,1180.2046,1169.585,1180.0415,1183.8438,1185.8298" style="stroke:#4B5563;stroke-width:1.5625;stroke-linejoin:miter;stroke-miterlimit:10;"/><text fill="#111827" font-family="'Malgun Gothic'" font-size="20.3125" lengthAdjust="spacing" textLength="154.496" x="1023.4375" y="1096.5157">apply + pending</text></g><!--link Legacy to LegacyDB--><g class="link" data-entity-1="ent0016" data-entity-2="ent0026" data-link-type="dependency" data-source-line="63" id="lnk48"><path d="M450.875,1022.8611 C510.6719,1109.0486 626.1407,1275.4419 678.2344,1350.5357" fill="none" id="Legacy-to-LegacyDB" style="stroke:#4B5563;stroke-width:1.5625;"/><polygon fill="#4B5563" points="682.6875,1356.9548,679.8073,1341.8379,678.2344,1350.5357,669.5367,1348.9628,682.6875,1356.9548" style="stroke:#4B5563;stroke-width:1.5625;stroke-linejoin:miter;stroke-miterlimit:10;"/></g><g class="legend" data-source-line="65"><rect fill="#F8FAFC" height="102.9114" rx="6.25" ry="6.25" style="stroke:#94A3B8;stroke-width:1.5625;" width="534.7717" x="830.1701" y="1488.4705"/><text fill="#111827" font-family="'Malgun Gothic'" font-size="21.875" lengthAdjust="spacing" textLength="295.3766" x="837.9826" y="1520.0912">&#49892;&#49440; = &#51221;&#49345; &#54840;&#52636;/&#45936;&#51060;&#53552; &#51060;&#46041;</text><text fill="#111827" font-family="'Malgun Gothic'" font-size="21.875" lengthAdjust="spacing" textLength="242.9642" x="837.9826" y="1549.1867">&#51216;&#49440; = &#47088;&#53440;&#51076; &#54632;&#49688; &#44368;&#52404;</text><text fill="#111827" font-family="'Malgun Gothic'" font-size="21.875" lengthAdjust="spacing" textLength="519.1467" x="837.9826" y="1578.2822">&#44208;&#54632; &#48264;&#54840;&#51032; &#44540;&#44144;&#50752; &#51116;&#54788; &#44221;&#47196;&#45716; traceability.md &#52280;&#51312;</text></g><g class="caption" data-source-line="71"><text fill="#111827" font-family="'Malgun Gothic'" font-size="21.875" lengthAdjust="spacing" textLength="780.6534" x="707.2292" y="1637.0651">&#45800;&#51068; UI &#50500;&#47000;&#50640;&#49436; Base, v17, Legacy, Normalized &#45348; &#44228;&#52789;&#51032; &#51200;&#51109; &#52293;&#51076;&#51060; &#44217;&#52828;&#45796;.</text></g><?plantuml-src VLRVRnj547w_lsBm4uWaRbfAm0Aaf1N8LGY88xma4LhVRU8bUpzqjmwu2DGgHegQGXE9q5HAJ2e5jGzvS5E7kYAyyEVurly3ip_EySLjNzPxDz_SVZFppQpVOg776pw5RrFHv7GgRWJS4Knm2hFkPDM5ArVXlnSW_-aE7fnahVk3UprO_7o-0lBeZcp_1VBPBxBTwZy_Xy7UKxcr3_sp7NdQTKGKWuYW5WaH1U2pX7g2HQ6JhhCm9Wa9WBEGYcPC8OvuKpquJaoyTR96eRHOXJ8CVkl99xlzNgS4Fpe0NXJ4KKX30QNPE8R5wd8O9z5QGjDKCGmZGVKcfKAmS2qj0Ka1aOlLehCh6duJPWL7Crj59dGvNEgVTf0_JAzeBmqfUdt6enhXRtOpcABVNC9yZAXEUKoJjEmHhpxYEAC8Jrjt0oswVnt5DPA0IpOeiYAYOS8ohnt4wW1XSgdEV9-6AmbRgul9JuOHc637p4EcDgmnm92BvJy6i0n-6YdQOBybsoUWucIfeA57eV-y9NjdO_MR8obLp9V3L0McYeQ_YrMJ1ZIgU8ik6zCpo-4gRwHr3Gz9dDOZeHs-cPufOXUY922StQO-kCtGMmvPc0h2kVBq8ivHYcgxWHYV26fU1m4J5uNHeh-cblVKSbqjxwlb0xLygCjsrPHjmRqSdBVUmD3e3t6Kw8DOe7OsE6KiEipJDU8rOMFwsiyO9NWyQlWZshfYZZ4eLV8yGUD5CPd0TToaMIwuhwXqpiXinW7suD5Avxt_HpUxlpjesGR5N9AQgco9HnxXheWIH1lobtBaDc83_UhB6nWmmvSQTqDl2zzAw0PBSNB0ku3j_fqP8nfySmw1gmmdLUcM-yK2r7G0slGflYqoCZd6Hqv7qecVGDZyAz8oP68sum1z-isvSOCzM_syBfdeY-cqhQjhO2jQqOtmzZlEHOsLaui6DVDGnO8wjgU71ZsIv9ExycZNJcKdR-itOIu-emHZJlRBLhNoS3VRFXlzpkj1-OZ83xFFXgo3cfkQAeIOD4B10WhV9oJ6OG5BxagEigrGCKrGl596SLQh5J1CogR3BW4lMEkvCSkr96cAwRLMJNTa8Y0VtbIRW0gIWwm0AdP6A3EFY9-RxOJ62t5hFtlm2EJctS7c0MGdFTdUaG-xJYuWendB_AF9N2bvs-Lq30SKEmrzlCOScvB9KV4uA6SqsziLnIQtZsNh23x6skuX0HZiz-JV1-Niruuyx6A3OgcwI4uXZtOCClkpCzX48RGkNTm0Tl1afrlgCuTeUN7UVzQHZ-u0pdUSyeZuDtjyaDtx7KH2F4fgZ3FHd0fya9sUVDnna9oXw3WUYLN7GhRzL1wUuxKDSg-LjVVbGoHoe7KnWRDlPiA6Dm4Zupjh7TixHF4e_EN0Y937I_do8Di-dleV?></g></svg>