<svg xmlns="http://www.w3.org/2000/svg" xmlns:xlink="http://www.w3.org/1999/xlink" contentStyleType="text/css" data-diagram-type="CLASS" height="1701.5625px" preserveAspectRatio="none" style="width:2815px;height:1701px;background:#FFFFFF;" version="1.1" viewBox="0 0 2815 1701" width="2815.625px" zoomAndPan="magnify"><?plantuml 1.2026.6?><defs/><g><g class="title" data-source-line="2"><text fill="#111827" font-family="'Malgun Gothic'" font-size="21.875" font-weight="700" lengthAdjust="spacing" textLength="373.8297" x="1215.6116" y="39.4333">AS-IS 03 &#183; &#46020;&#47700;&#51064; &#53364;&#47000;&#49828;&#50752; &#51200;&#51109; &#51228;&#50557;</text></g><!--class Payload--><g class="entity" data-qualified-name="Payload" data-source-line="5" id="ent0001"><rect fill="#F1F1F1" height="191.3818" rx="6.25" ry="6.25" style="stroke:#181818;stroke-width:0.7813;" width="217.1844" x="117.9688" y="779.0955"/><ellipse cx="181.6862" cy="804.0955" fill="#ADD1B2" rx="17.1875" ry="17.1875" style="stroke:#181818;stroke-width:1.5625;"/><path d="M186.0075,797.6501 Q186.2517,797.3083 186.5446,797.1375 Q186.8376,796.9666 187.1794,796.9666 Q187.7654,796.9666 188.1316,797.3816 Q188.4978,797.7722 188.4978,798.7244 L188.4978,800.9949 Q188.4978,801.947 188.1316,802.3621 Q187.7654,802.7771 187.1794,802.7771 Q186.6423,802.7771 186.3249,802.4597 Q186.0075,802.1667 185.8366,801.3611 Q185.7634,800.7996 185.4704,800.5066 Q184.9577,799.9207 184.0056,799.5789 Q183.0534,799.2371 182.0769,799.2371 Q180.8806,799.2371 179.8796,799.7498 Q178.903,800.2625 178.1218,801.4343 Q177.365,802.6062 177.365,804.2175 L177.365,805.9265 Q177.365,807.8552 178.7566,809.1492 Q180.1482,810.4187 182.6384,810.4187 Q184.1032,810.4187 185.1286,810.0281 Q185.739,809.7839 186.3982,809.1003 Q186.8132,808.6853 187.0329,808.5632 Q187.2771,808.4412 187.5945,808.4412 Q188.1071,808.4412 188.4978,808.8562 Q188.9128,809.2468 188.9128,809.7839 Q188.9128,810.321 188.3757,810.9558 Q187.5945,811.8591 186.3493,812.3718 Q184.6648,813.0798 182.6384,813.0798 Q180.2702,813.0798 178.3904,812.1033 Q176.8523,811.322 175.778,809.6619 Q174.7038,807.9773 174.7038,805.9753 L174.7038,804.1687 Q174.7038,802.0935 175.656,800.3113 Q176.6325,798.5046 178.3415,797.5525 Q180.0505,796.5759 181.9792,796.5759 Q183.1267,796.5759 184.1277,796.8445 Q185.153,797.0886 186.0075,797.6501 Z " fill="#111827"/><text fill="#111827" font-family="'Malgun Gothic'" font-size="21.875" lengthAdjust="spacing" textLength="77.6733" x="212.5124" y="813.356">Payload</text><line style="stroke:#181818;stroke-width:0.7813;" x1="119.5313" x2="333.5907" y1="829.0955" y2="829.0955"/><text fill="#111827" font-family="'Malgun Gothic'" font-size="21.875" lengthAdjust="spacing" textLength="102.9236" x="127.3438" y="859.1537">version : 2</text><text fill="#111827" font-family="'Malgun Gothic'" font-size="21.875" lengthAdjust="spacing" textLength="148.5321" x="127.3438" y="888.2492">app : AppState</text><text fill="#111827" font-family="'Malgun Gothic'" font-size="21.875" lengthAdjust="spacing" textLength="163.5284" x="127.3438" y="917.3447">atlas : AtlasState</text><text fill="#111827" font-family="'Malgun Gothic'" font-size="21.875" lengthAdjust="spacing" textLength="198.4344" x="127.3438" y="946.4401">bridge : BridgeState</text><line style="stroke:#181818;stroke-width:0.7813;" x1="119.5313" x2="333.5907" y1="957.9773" y2="957.9773"/></g><!--class AppState--><g class="entity" data-qualified-name="AppState" data-source-line="12" id="ent0002"><rect fill="#F1F1F1" height="191.3818" rx="6.25" ry="6.25" style="stroke:#181818;stroke-width:0.7813;" width="360.5148" x="537.5" y="533.783"/><ellipse cx="665.7593" cy="558.783" fill="#ADD1B2" rx="17.1875" ry="17.1875" style="stroke:#181818;stroke-width:1.5625;"/><path d="M670.0806,552.3376 Q670.3247,551.9958 670.6177,551.825 Q670.9106,551.6541 671.2524,551.6541 Q671.8384,551.6541 672.2046,552.0691 Q672.5708,552.4597 672.5708,553.4119 L672.5708,555.6824 Q672.5708,556.6345 672.2046,557.0496 Q671.8384,557.4646 671.2524,557.4646 Q670.7153,557.4646 670.3979,557.1472 Q670.0806,556.8542 669.9097,556.0486 Q669.8364,555.4871 669.5435,555.1941 Q669.0308,554.6082 668.0786,554.2664 Q667.1265,553.9246 666.1499,553.9246 Q664.9536,553.9246 663.9526,554.4373 Q662.9761,554.95 662.1948,556.1218 Q661.438,557.2937 661.438,558.905 L661.438,560.614 Q661.438,562.5427 662.8296,563.8367 Q664.2212,565.1062 666.7114,565.1062 Q668.1763,565.1062 669.2017,564.7156 Q669.812,564.4714 670.4712,563.7878 Q670.8862,563.3728 671.106,563.2507 Q671.3501,563.1287 671.6675,563.1287 Q672.1802,563.1287 672.5708,563.5437 Q672.9858,563.9343 672.9858,564.4714 Q672.9858,565.0085 672.4487,565.6433 Q671.6675,566.5466 670.4224,567.0593 Q668.7378,567.7673 666.7114,567.7673 Q664.3433,567.7673 662.4634,566.7908 Q660.9253,566.0095 659.8511,564.3494 Q658.7769,562.6648 658.7769,560.6628 L658.7769,558.8562 Q658.7769,556.781 659.729,554.9988 Q660.7056,553.1921 662.4146,552.24 Q664.1235,551.2634 666.0522,551.2634 Q667.1997,551.2634 668.2007,551.532 Q669.2261,551.7761 670.0806,552.3376 Z " fill="#111827"/><text fill="#111827" font-family="'Malgun Gothic'" font-size="21.875" lengthAdjust="spacing" textLength="90.715" x="697.7905" y="568.0435">AppState</text><line style="stroke:#181818;stroke-width:0.7813;" x1="539.0625" x2="896.4523" y1="583.783" y2="583.783"/><text fill="#111827" font-family="'Malgun Gothic'" font-size="21.875" lengthAdjust="spacing" textLength="102.9236" x="546.875" y="613.8412">version : 4</text><text fill="#111827" font-family="'Malgun Gothic'" font-size="21.875" lengthAdjust="spacing" textLength="341.7648" x="546.875" y="642.9367">progress : Map&lt;ItemId, Progress&gt;</text><text fill="#111827" font-family="'Malgun Gothic'" font-size="21.875" lengthAdjust="spacing" textLength="284.1721" x="546.875" y="672.0322">notes : Map&lt;ItemId, String&gt;</text><text fill="#111827" font-family="'Malgun Gothic'" font-size="21.875" lengthAdjust="spacing" textLength="162.1292" x="546.875" y="701.1276">settings : Object</text><line style="stroke:#181818;stroke-width:0.7813;" x1="539.0625" x2="896.4523" y1="712.6648" y2="712.6648"/></g><!--class AtlasState--><g class="entity" data-qualified-name="AtlasState" data-source-line="19" id="ent0003"><rect fill="#F1F1F1" height="191.3818" rx="6.25" ry="6.25" style="stroke:#181818;stroke-width:0.7813;" width="245.4254" x="595.3125" y="779.0955"/><ellipse cx="662.4955" cy="804.0955" fill="#ADD1B2" rx="17.1875" ry="17.1875" style="stroke:#181818;stroke-width:1.5625;"/><path d="M666.8168,797.6501 Q667.0609,797.3083 667.3539,797.1375 Q667.6469,796.9666 667.9887,796.9666 Q668.5746,796.9666 668.9408,797.3816 Q669.307,797.7722 669.307,798.7244 L669.307,800.9949 Q669.307,801.947 668.9408,802.3621 Q668.5746,802.7771 667.9887,802.7771 Q667.4516,802.7771 667.1342,802.4597 Q666.8168,802.1667 666.6459,801.3611 Q666.5726,800.7996 666.2797,800.5066 Q665.767,799.9207 664.8148,799.5789 Q663.8627,799.2371 662.8861,799.2371 Q661.6898,799.2371 660.6889,799.7498 Q659.7123,800.2625 658.931,801.4343 Q658.1742,802.6062 658.1742,804.2175 L658.1742,805.9265 Q658.1742,807.8552 659.5658,809.1492 Q660.9574,810.4187 663.4476,810.4187 Q664.9125,810.4187 665.9379,810.0281 Q666.5482,809.7839 667.2074,809.1003 Q667.6225,808.6853 667.8422,808.5632 Q668.0863,808.4412 668.4037,808.4412 Q668.9164,808.4412 669.307,808.8562 Q669.7221,809.2468 669.7221,809.7839 Q669.7221,810.321 669.185,810.9558 Q668.4037,811.8591 667.1586,812.3718 Q665.474,813.0798 663.4476,813.0798 Q661.0795,813.0798 659.1996,812.1033 Q657.6615,811.322 656.5873,809.6619 Q655.5131,807.9773 655.5131,805.9753 L655.5131,804.1687 Q655.5131,802.0935 656.4652,800.3113 Q657.4418,798.5046 659.1508,797.5525 Q660.8598,796.5759 662.7885,796.5759 Q663.9359,796.5759 664.9369,796.8445 Q665.9623,797.0886 666.8168,797.6501 Z " fill="#111827"/><text fill="#111827" font-family="'Malgun Gothic'" font-size="21.875" lengthAdjust="spacing" textLength="98.2132" x="694.0917" y="813.356">AtlasState</text><line style="stroke:#181818;stroke-width:0.7813;" x1="596.875" x2="839.1754" y1="829.0955" y2="829.0955"/><text fill="#111827" font-family="'Malgun Gothic'" font-size="21.875" lengthAdjust="spacing" textLength="213.4415" x="604.6875" y="859.1537">concepts : Concept[*]</text><text fill="#111827" font-family="'Malgun Gothic'" font-size="21.875" lengthAdjust="spacing" textLength="170.2148" x="604.6875" y="888.2492">frames : Frame[*]</text><text fill="#111827" font-family="'Malgun Gothic'" font-size="21.875" lengthAdjust="spacing" textLength="226.6754" x="604.6875" y="917.3447">objects : AtlasObject[*]</text><text fill="#111827" font-family="'Malgun Gothic'" font-size="21.875" lengthAdjust="spacing" textLength="194.2795" x="604.6875" y="946.4401">keywords : String[*]</text><line style="stroke:#181818;stroke-width:0.7813;" x1="596.875" x2="839.1754" y1="957.9773" y2="957.9773"/></g><!--class BridgeState--><g class="entity" data-qualified-name="BridgeState" data-source-line="26" id="ent0004"><rect fill="#F1F1F1" height="162.2864" rx="6.25" ry="6.25" style="stroke:#181818;stroke-width:0.7813;" width="345.0806" x="545.3125" y="1129.0955"/><ellipse cx="654.2282" cy="1154.0955" fill="#ADD1B2" rx="17.1875" ry="17.1875" style="stroke:#181818;stroke-width:1.5625;"/><path d="M658.5495,1147.6501 Q658.7936,1147.3083 659.0866,1147.1375 Q659.3796,1146.9666 659.7214,1146.9666 Q660.3073,1146.9666 660.6735,1147.3816 Q661.0397,1147.7722 661.0397,1148.7244 L661.0397,1150.9949 Q661.0397,1151.947 660.6735,1152.3621 Q660.3073,1152.7771 659.7214,1152.7771 Q659.1843,1152.7771 658.8669,1152.4597 Q658.5495,1152.1667 658.3786,1151.3611 Q658.3054,1150.7996 658.0124,1150.5066 Q657.4997,1149.9207 656.5475,1149.5789 Q655.5954,1149.2371 654.6188,1149.2371 Q653.4225,1149.2371 652.4216,1149.7498 Q651.445,1150.2625 650.6638,1151.4343 Q649.9069,1152.6062 649.9069,1154.2175 L649.9069,1155.9265 Q649.9069,1157.8552 651.2985,1159.1492 Q652.6901,1160.4187 655.1804,1160.4187 Q656.6452,1160.4187 657.6706,1160.0281 Q658.2809,1159.7839 658.9401,1159.1003 Q659.3552,1158.6853 659.5749,1158.5632 Q659.819,1158.4412 660.1364,1158.4412 Q660.6491,1158.4412 661.0397,1158.8562 Q661.4548,1159.2468 661.4548,1159.7839 Q661.4548,1160.321 660.9177,1160.9558 Q660.1364,1161.8591 658.8913,1162.3718 Q657.2067,1163.0798 655.1804,1163.0798 Q652.8122,1163.0798 650.9323,1162.1033 Q649.3942,1161.322 648.32,1159.6619 Q647.2458,1157.9773 647.2458,1155.9753 L647.2458,1154.1687 Q647.2458,1152.0935 648.1979,1150.3113 Q649.1745,1148.5046 650.8835,1147.5525 Q652.5925,1146.5759 654.5212,1146.5759 Q655.6686,1146.5759 656.6696,1146.8445 Q657.695,1147.0886 658.5495,1147.6501 Z " fill="#111827"/><text fill="#111827" font-family="'Malgun Gothic'" font-size="21.875" lengthAdjust="spacing" textLength="113.9679" x="686.2595" y="1163.356">BridgeState</text><line style="stroke:#181818;stroke-width:0.7813;" x1="546.875" x2="888.8306" y1="1179.0955" y2="1179.0955"/><text fill="#111827" font-family="'Malgun Gothic'" font-size="21.875" lengthAdjust="spacing" textLength="264.711" x="554.6875" y="1209.1537">links : StudyConceptLink[*]</text><text fill="#111827" font-family="'Malgun Gothic'" font-size="21.875" lengthAdjust="spacing" textLength="326.3306" x="554.6875" y="1238.2492">orphanedLinks : OrphanedLink[*]</text><text fill="#111827" font-family="'Malgun Gothic'" font-size="21.875" lengthAdjust="spacing" textLength="235.3165" x="554.6875" y="1267.3447">catalog : CatalogItem[*]</text><line style="stroke:#181818;stroke-width:0.7813;" x1="546.875" x2="888.8306" y1="1278.8818" y2="1278.8818"/></g><!--class Concept--><g class="entity" data-qualified-name="Concept" data-source-line="32" id="ent0005"><rect fill="#F1F1F1" height="365.9546" rx="6.25" ry="6.25" style="stroke:#181818;stroke-width:0.7813;" width="365.1184" x="1524.2188" y="629.0955"/><ellipse cx="1658.9561" cy="654.0955" fill="#ADD1B2" rx="17.1875" ry="17.1875" style="stroke:#181818;stroke-width:1.5625;"/><path d="M1663.2774,647.6501 Q1663.5216,647.3083 1663.8145,647.1375 Q1664.1075,646.9666 1664.4493,646.9666 Q1665.0352,646.9666 1665.4015,647.3816 Q1665.7677,647.7722 1665.7677,648.7244 L1665.7677,650.9949 Q1665.7677,651.947 1665.4015,652.3621 Q1665.0352,652.7771 1664.4493,652.7771 Q1663.9122,652.7771 1663.5948,652.4597 Q1663.2774,652.1667 1663.1065,651.3611 Q1663.0333,650.7996 1662.7403,650.5066 Q1662.2276,649.9207 1661.2755,649.5789 Q1660.3233,649.2371 1659.3468,649.2371 Q1658.1505,649.2371 1657.1495,649.7498 Q1656.1729,650.2625 1655.3917,651.4343 Q1654.6349,652.6062 1654.6349,654.2175 L1654.6349,655.9265 Q1654.6349,657.8552 1656.0265,659.1492 Q1657.4181,660.4187 1659.9083,660.4187 Q1661.3731,660.4187 1662.3985,660.0281 Q1663.0089,659.7839 1663.6681,659.1003 Q1664.0831,658.6853 1664.3028,658.5632 Q1664.547,658.4412 1664.8643,658.4412 Q1665.377,658.4412 1665.7677,658.8562 Q1666.1827,659.2468 1666.1827,659.7839 Q1666.1827,660.321 1665.6456,660.9558 Q1664.8643,661.8591 1663.6192,662.3718 Q1661.9347,663.0798 1659.9083,663.0798 Q1657.5401,663.0798 1655.6602,662.1033 Q1654.1222,661.322 1653.0479,659.6619 Q1651.9737,657.9773 1651.9737,655.9753 L1651.9737,654.1687 Q1651.9737,652.0935 1652.9259,650.3113 Q1653.9024,648.5046 1655.6114,647.5525 Q1657.3204,646.5759 1659.2491,646.5759 Q1660.3966,646.5759 1661.3976,646.8445 Q1662.4229,647.0886 1663.2774,647.6501 Z " fill="#111827"/><text fill="#111827" font-family="'Malgun Gothic'" font-size="21.875" lengthAdjust="spacing" textLength="82.3624" x="1690.9874" y="663.356">Concept</text><line style="stroke:#181818;stroke-width:0.7813;" x1="1525.7813" x2="1887.7747" y1="679.0955" y2="679.0955"/><text fill="#111827" font-family="'Malgun Gothic'" font-size="21.875" lengthAdjust="spacing" textLength="97.0703" x="1533.5938" y="709.1537">id : String</text><text fill="#111827" font-family="'Malgun Gothic'" font-size="21.875" lengthAdjust="spacing" textLength="116.0721" x="1533.5938" y="738.2492">title : String</text><text fill="#111827" font-family="'Malgun Gothic'" font-size="21.875" lengthAdjust="spacing" textLength="346.3684" x="1533.5938" y="767.3447">conceptRole : core|support|general</text><text fill="#111827" font-family="'Malgun Gothic'" font-size="21.875" lengthAdjust="spacing" textLength="213.591" x="1533.5938" y="796.4401">importance : Number</text><text fill="#111827" font-family="'Malgun Gothic'" font-size="21.875" lengthAdjust="spacing" textLength="270.5429" x="1533.5938" y="825.5356">primaryParent : ConceptId?</text><text fill="#111827" font-family="'Malgun Gothic'" font-size="21.875" lengthAdjust="spacing" textLength="217.8421" x="1533.5938" y="854.631">parents : ConceptId[*]</text><text fill="#111827" font-family="'Malgun Gothic'" font-size="21.875" lengthAdjust="spacing" textLength="212.8433" x="1533.5938" y="883.7265">related : ConceptId[*]</text><text fill="#111827" font-family="'Malgun Gothic'" font-size="21.875" lengthAdjust="spacing" textLength="217.009" x="1533.5938" y="912.822">sections : SectionMap</text><text fill="#111827" font-family="'Malgun Gothic'" font-size="21.875" lengthAdjust="spacing" textLength="220.0638" x="1533.5938" y="941.9174">createdAt : DateTime?</text><text fill="#111827" font-family="'Malgun Gothic'" font-size="21.875" lengthAdjust="spacing" textLength="229.2389" x="1533.5938" y="971.0129">updatedAt : DateTime?</text><line style="stroke:#181818;stroke-width:0.7813;" x1="1525.7813" x2="1887.7747" y1="982.55" y2="982.55"/></g><!--class ConceptLine--><g class="entity" data-qualified-name="ConceptLine" data-source-line="45" id="ent0006"><rect fill="#F1F1F1" height="162.2864" rx="6.25" ry="6.25" style="stroke:#181818;stroke-width:0.7813;" width="213.0295" x="2040.625" y="730.658"/><ellipse cx="2082.2565" cy="755.658" fill="#ADD1B2" rx="17.1875" ry="17.1875" style="stroke:#181818;stroke-width:1.5625;"/><path d="M2086.5778,749.2126 Q2086.822,748.8708 2087.1149,748.7 Q2087.4079,748.5291 2087.7497,748.5291 Q2088.3356,748.5291 2088.7019,748.9441 Q2089.0681,749.3347 2089.0681,750.2869 L2089.0681,752.5574 Q2089.0681,753.5095 2088.7019,753.9246 Q2088.3356,754.3396 2087.7497,754.3396 Q2087.2126,754.3396 2086.8952,754.0222 Q2086.5778,753.7292 2086.4069,752.9236 Q2086.3337,752.3621 2086.0407,752.0691 Q2085.528,751.4832 2084.5759,751.1414 Q2083.6237,750.7996 2082.6472,750.7996 Q2081.4509,750.7996 2080.4499,751.3123 Q2079.4733,751.825 2078.6921,752.9968 Q2077.9353,754.1687 2077.9353,755.78 L2077.9353,757.489 Q2077.9353,759.4177 2079.3269,760.7117 Q2080.7185,761.9812 2083.2087,761.9812 Q2084.6735,761.9812 2085.6989,761.5906 Q2086.3093,761.3464 2086.9685,760.6628 Q2087.3835,760.2478 2087.6032,760.1257 Q2087.8474,760.0037 2088.1647,760.0037 Q2088.6774,760.0037 2089.0681,760.4187 Q2089.4831,760.8093 2089.4831,761.3464 Q2089.4831,761.8835 2088.946,762.5183 Q2088.1647,763.4216 2086.9196,763.9343 Q2085.2351,764.6423 2083.2087,764.6423 Q2080.8405,764.6423 2078.9606,763.6658 Q2077.4226,762.8845 2076.3483,761.2244 Q2075.2741,759.5398 2075.2741,757.5378 L2075.2741,755.7312 Q2075.2741,753.656 2076.2263,751.8738 Q2077.2028,750.0671 2078.9118,749.115 Q2080.6208,748.1384 2082.5495,748.1384 Q2083.697,748.1384 2084.698,748.407 Q2085.7233,748.6511 2086.5778,749.2126 Z " fill="#111827"/><text fill="#111827" font-family="'Malgun Gothic'" font-size="21.875" lengthAdjust="spacing" textLength="122.5983" x="2108.1747" y="764.9185">ConceptLine</text><line style="stroke:#181818;stroke-width:0.7813;" x1="2042.1875" x2="2252.092" y1="780.658" y2="780.658"/><text fill="#111827" font-family="'Malgun Gothic'" font-size="21.875" lengthAdjust="spacing" textLength="97.0703" x="2050" y="810.7162">id : String</text><text fill="#111827" font-family="'Malgun Gothic'" font-size="21.875" lengthAdjust="spacing" textLength="115.4739" x="2050" y="839.8117">text : String</text><text fill="#111827" font-family="'Malgun Gothic'" font-size="21.875" lengthAdjust="spacing" textLength="194.2795" x="2050" y="868.9072">keywords : String[*]</text><line style="stroke:#181818;stroke-width:0.7813;" x1="2042.1875" x2="2252.092" y1="880.4443" y2="880.4443"/></g><!--class Frame--><g class="entity" data-qualified-name="Frame" data-source-line="51" id="ent0007"><rect fill="#F1F1F1" height="220.4773" rx="6.25" ry="6.25" style="stroke:#181818;stroke-width:0.7813;" width="237.3505" x="1064.0625" y="489.2517"/><ellipse cx="1145.6131" cy="514.2517" fill="#ADD1B2" rx="17.1875" ry="17.1875" style="stroke:#181818;stroke-width:1.5625;"/><path d="M1149.9344,507.8064 Q1150.1785,507.4646 1150.4715,507.2937 Q1150.7645,507.1228 1151.1063,507.1228 Q1151.6922,507.1228 1152.0584,507.5378 Q1152.4246,507.9285 1152.4246,508.8806 L1152.4246,511.1511 Q1152.4246,512.1033 1152.0584,512.5183 Q1151.6922,512.9333 1151.1063,512.9333 Q1150.5692,512.9333 1150.2518,512.616 Q1149.9344,512.323 1149.7635,511.5173 Q1149.6902,510.9558 1149.3973,510.6628 Q1148.8846,510.0769 1147.9324,509.7351 Q1146.9803,509.3933 1146.0037,509.3933 Q1144.8074,509.3933 1143.8065,509.906 Q1142.8299,510.4187 1142.0486,511.5906 Q1141.2918,512.7625 1141.2918,514.3738 L1141.2918,516.0828 Q1141.2918,518.0115 1142.6834,519.3054 Q1144.075,520.575 1146.5652,520.575 Q1148.0301,520.575 1149.0555,520.1843 Q1149.6658,519.9402 1150.325,519.2566 Q1150.7401,518.8416 1150.9598,518.7195 Q1151.2039,518.5974 1151.5213,518.5974 Q1152.034,518.5974 1152.4246,519.0125 Q1152.8397,519.4031 1152.8397,519.9402 Q1152.8397,520.4773 1152.3026,521.1121 Q1151.5213,522.0154 1150.2762,522.5281 Q1148.5916,523.2361 1146.5652,523.2361 Q1144.1971,523.2361 1142.3172,522.2595 Q1140.7791,521.4783 1139.7049,519.8181 Q1138.6307,518.1335 1138.6307,516.1316 L1138.6307,514.325 Q1138.6307,512.2498 1139.5828,510.4675 Q1140.5594,508.6609 1142.2684,507.7087 Q1143.9774,506.7322 1145.9061,506.7322 Q1147.0535,506.7322 1148.0545,507.0007 Q1149.0799,507.2449 1149.9344,507.8064 Z " fill="#111827"/><text fill="#111827" font-family="'Malgun Gothic'" font-size="21.875" lengthAdjust="spacing" textLength="60.968" x="1177.6443" y="523.5123">Frame</text><line style="stroke:#181818;stroke-width:0.7813;" x1="1065.625" x2="1299.8505" y1="539.2517" y2="539.2517"/><text fill="#111827" font-family="'Malgun Gothic'" font-size="21.875" lengthAdjust="spacing" textLength="97.0703" x="1073.4375" y="569.31">id : String</text><text fill="#111827" font-family="'Malgun Gothic'" font-size="21.875" lengthAdjust="spacing" textLength="121.6797" x="1073.4375" y="598.4055">type : String</text><text fill="#111827" font-family="'Malgun Gothic'" font-size="21.875" lengthAdjust="spacing" textLength="218.6005" x="1073.4375" y="627.5009">anchorId : ConceptId?</text><text fill="#111827" font-family="'Malgun Gothic'" font-size="21.875" lengthAdjust="spacing" textLength="209.3185" x="1073.4375" y="656.5964">members : EntityId[*]</text><text fill="#111827" font-family="'Malgun Gothic'" font-size="21.875" lengthAdjust="spacing" textLength="146.759" x="1073.4375" y="685.6918">config : Object</text><line style="stroke:#181818;stroke-width:0.7813;" x1="1065.625" x2="1299.8505" y1="697.229" y2="697.229"/></g><!--class AtlasObject--><g class="entity" data-qualified-name="AtlasObject" data-source-line="59" id="ent0008"><rect fill="#F1F1F1" height="133.1909" rx="6.25" ry="6.25" style="stroke:#181818;stroke-width:0.7813;" width="182.2678" x="1615.625" y="376.7517"/><ellipse cx="1647.6435" cy="401.7517" fill="#ADD1B2" rx="17.1875" ry="17.1875" style="stroke:#181818;stroke-width:1.5625;"/><path d="M1651.9648,395.3064 Q1652.2089,394.9646 1652.5019,394.7937 Q1652.7949,394.6228 1653.1367,394.6228 Q1653.7226,394.6228 1654.0888,395.0378 Q1654.455,395.4285 1654.455,396.3806 L1654.455,398.6511 Q1654.455,399.6033 1654.0888,400.0183 Q1653.7226,400.4333 1653.1367,400.4333 Q1652.5996,400.4333 1652.2822,400.116 Q1651.9648,399.823 1651.7939,399.0173 Q1651.7207,398.4558 1651.4277,398.1628 Q1650.915,397.5769 1649.9628,397.2351 Q1649.0107,396.8933 1648.0341,396.8933 Q1646.8378,396.8933 1645.8369,397.406 Q1644.8603,397.9187 1644.0791,399.0906 Q1643.3222,400.2625 1643.3222,401.8738 L1643.3222,403.5828 Q1643.3222,405.5115 1644.7138,406.8054 Q1646.1054,408.075 1648.5957,408.075 Q1650.0605,408.075 1651.0859,407.6843 Q1651.6962,407.4402 1652.3554,406.7566 Q1652.7705,406.3416 1652.9902,406.2195 Q1653.2343,406.0974 1653.5517,406.0974 Q1654.0644,406.0974 1654.455,406.5125 Q1654.8701,406.9031 1654.8701,407.4402 Q1654.8701,407.9773 1654.333,408.6121 Q1653.5517,409.5154 1652.3066,410.0281 Q1650.622,410.7361 1648.5957,410.7361 Q1646.2275,410.7361 1644.3476,409.7595 Q1642.8095,408.9783 1641.7353,407.3181 Q1640.6611,405.6335 1640.6611,403.6316 L1640.6611,401.825 Q1640.6611,399.7498 1641.6132,397.9675 Q1642.5898,396.1609 1644.2988,395.2087 Q1646.0078,394.2322 1647.9365,394.2322 Q1649.0839,394.2322 1650.0849,394.5007 Q1651.1103,394.7449 1651.9648,395.3064 Z " fill="#111827"/><text fill="#111827" font-family="'Malgun Gothic'" font-size="21.875" lengthAdjust="spacing" textLength="113.1989" x="1671.4254" y="411.0123">AtlasObject</text><line style="stroke:#181818;stroke-width:0.7813;" x1="1617.1875" x2="1796.3303" y1="426.7517" y2="426.7517"/><text fill="#111827" font-family="'Malgun Gothic'" font-size="21.875" lengthAdjust="spacing" textLength="107.132" x="1625" y="456.81">id : String?</text><text fill="#111827" font-family="'Malgun Gothic'" font-size="21.875" lengthAdjust="spacing" textLength="163.5178" x="1625" y="485.9055">payload : Object</text><line style="stroke:#181818;stroke-width:0.7813;" x1="1617.1875" x2="1796.3303" y1="497.4426" y2="497.4426"/></g><!--class CatalogItem--><g class="entity" data-qualified-name="CatalogItem" data-source-line="64" id="ent0009"><rect fill="#F1F1F1" height="191.3818" rx="6.25" ry="6.25" style="stroke:#181818;stroke-width:0.7813;" width="170.2377" x="1621.875" y="1454.0955"/><ellipse cx="1645.3125" cy="1479.0955" fill="#ADD1B2" rx="17.1875" ry="17.1875" style="stroke:#181818;stroke-width:1.5625;"/><path d="M1649.6338,1472.6501 Q1649.8779,1472.3083 1650.1709,1472.1375 Q1650.4639,1471.9666 1650.8057,1471.9666 Q1651.3916,1471.9666 1651.7578,1472.3816 Q1652.124,1472.7722 1652.124,1473.7244 L1652.124,1475.9949 Q1652.124,1476.947 1651.7578,1477.3621 Q1651.3916,1477.7771 1650.8057,1477.7771 Q1650.2686,1477.7771 1649.9512,1477.4597 Q1649.6338,1477.1667 1649.4629,1476.3611 Q1649.3896,1475.7996 1649.0967,1475.5066 Q1648.584,1474.9207 1647.6318,1474.5789 Q1646.6797,1474.2371 1645.7031,1474.2371 Q1644.5068,1474.2371 1643.5059,1474.7498 Q1642.5293,1475.2625 1641.748,1476.4343 Q1640.9912,1477.6062 1640.9912,1479.2175 L1640.9912,1480.9265 Q1640.9912,1482.8552 1642.3828,1484.1492 Q1643.7744,1485.4187 1646.2646,1485.4187 Q1647.7295,1485.4187 1648.7549,1485.0281 Q1649.3652,1484.7839 1650.0244,1484.1003 Q1650.4395,1483.6853 1650.6592,1483.5632 Q1650.9033,1483.4412 1651.2207,1483.4412 Q1651.7334,1483.4412 1652.124,1483.8562 Q1652.5391,1484.2468 1652.5391,1484.7839 Q1652.5391,1485.321 1652.002,1485.9558 Q1651.2207,1486.8591 1649.9756,1487.3718 Q1648.291,1488.0798 1646.2646,1488.0798 Q1643.8965,1488.0798 1642.0166,1487.1033 Q1640.4785,1486.322 1639.4043,1484.6619 Q1638.3301,1482.9773 1638.3301,1480.9753 L1638.3301,1479.1687 Q1638.3301,1477.0935 1639.2822,1475.3113 Q1640.2588,1473.5046 1641.9678,1472.5525 Q1643.6768,1471.5759 1645.6055,1471.5759 Q1646.7529,1471.5759 1647.7539,1471.8445 Q1648.7793,1472.0886 1649.6338,1472.6501 Z " fill="#111827"/><text fill="#111827" font-family="'Malgun Gothic'" font-size="21.875" lengthAdjust="spacing" textLength="120.2377" x="1667.1875" y="1488.356">CatalogItem</text><line style="stroke:#181818;stroke-width:0.7813;" x1="1623.4375" x2="1790.5502" y1="1504.0955" y2="1504.0955"/><text fill="#111827" font-family="'Malgun Gothic'" font-size="21.875" lengthAdjust="spacing" textLength="97.0703" x="1631.25" y="1534.1537">id : String</text><text fill="#111827" font-family="'Malgun Gothic'" font-size="21.875" lengthAdjust="spacing" textLength="148.7457" x="1631.25" y="1563.2492">subject : String</text><text fill="#111827" font-family="'Malgun Gothic'" font-size="21.875" lengthAdjust="spacing" textLength="148.7137" x="1631.25" y="1592.3447">section : String</text><text fill="#111827" font-family="'Malgun Gothic'" font-size="21.875" lengthAdjust="spacing" textLength="133.493" x="1631.25" y="1621.4401">name : String</text><line style="stroke:#181818;stroke-width:0.7813;" x1="1623.4375" x2="1790.5502" y1="1632.9773" y2="1632.9773"/></g><!--class StudyConceptLink--><g class="entity" data-qualified-name="StudyConceptLink" data-source-line="71" id="ent0010"><rect fill="#F1F1F1" height="162.2864" rx="6.25" ry="6.25" style="stroke:#181818;stroke-width:0.7813;" width="238.2477" x="1064.0625" y="1304.0955"/><ellipse cx="1092.1252" cy="1329.0955" fill="#ADD1B2" rx="17.1875" ry="17.1875" style="stroke:#181818;stroke-width:1.5625;"/><path d="M1096.4465,1322.6501 Q1096.6907,1322.3083 1096.9836,1322.1375 Q1097.2766,1321.9666 1097.6184,1321.9666 Q1098.2043,1321.9666 1098.5706,1322.3816 Q1098.9368,1322.7722 1098.9368,1323.7244 L1098.9368,1325.9949 Q1098.9368,1326.947 1098.5706,1327.3621 Q1098.2043,1327.7771 1097.6184,1327.7771 Q1097.0813,1327.7771 1096.7639,1327.4597 Q1096.4465,1327.1667 1096.2756,1326.3611 Q1096.2024,1325.7996 1095.9094,1325.5066 Q1095.3967,1324.9207 1094.4446,1324.5789 Q1093.4924,1324.2371 1092.5159,1324.2371 Q1091.3196,1324.2371 1090.3186,1324.7498 Q1089.342,1325.2625 1088.5608,1326.4343 Q1087.804,1327.6062 1087.804,1329.2175 L1087.804,1330.9265 Q1087.804,1332.8552 1089.1956,1334.1492 Q1090.5872,1335.4187 1093.0774,1335.4187 Q1094.5422,1335.4187 1095.5676,1335.0281 Q1096.178,1334.7839 1096.8372,1334.1003 Q1097.2522,1333.6853 1097.4719,1333.5632 Q1097.7161,1333.4412 1098.0334,1333.4412 Q1098.5461,1333.4412 1098.9368,1333.8562 Q1099.3518,1334.2468 1099.3518,1334.7839 Q1099.3518,1335.321 1098.8147,1335.9558 Q1098.0334,1336.8591 1096.7883,1337.3718 Q1095.1038,1338.0798 1093.0774,1338.0798 Q1090.7092,1338.0798 1088.8293,1337.1033 Q1087.2913,1336.322 1086.217,1334.6619 Q1085.1428,1332.9773 1085.1428,1330.9753 L1085.1428,1329.1687 Q1085.1428,1327.0935 1086.095,1325.3113 Q1087.0715,1323.5046 1088.7805,1322.5525 Q1090.4895,1321.5759 1092.4182,1321.5759 Q1093.5657,1321.5759 1094.5667,1321.8445 Q1095.592,1322.0886 1096.4465,1322.6501 Z " fill="#111827"/><text fill="#111827" font-family="'Malgun Gothic'" font-size="21.875" lengthAdjust="spacing" textLength="177.9694" x="1115.0281" y="1338.356">StudyConceptLink</text><line style="stroke:#181818;stroke-width:0.7813;" x1="1065.625" x2="1300.7477" y1="1354.0955" y2="1354.0955"/><text fill="#111827" font-family="'Malgun Gothic'" font-size="21.875" lengthAdjust="spacing" textLength="146.5988" x="1073.4375" y="1384.1537">itemId : ItemId</text><text fill="#111827" font-family="'Malgun Gothic'" font-size="21.875" lengthAdjust="spacing" textLength="219.4977" x="1073.4375" y="1413.2492">conceptId : ConceptId</text><text fill="#111827" font-family="'Malgun Gothic'" font-size="21.875" lengthAdjust="spacing" textLength="116.4459" x="1073.4375" y="1442.3447">role : String</text><line style="stroke:#181818;stroke-width:0.7813;" x1="1065.625" x2="1300.7477" y1="1453.8818" y2="1453.8818"/></g><!--class OrphanedLink--><g class="entity" data-qualified-name="OrphanedLink" data-source-line="77" id="ent0011"><rect fill="#F1F1F1" height="220.4773" rx="6.25" ry="6.25" style="stroke:#181818;stroke-width:0.7813;" width="313.8382" x="1025.7813" y="1028.3142"/><ellipse cx="1106.5895" cy="1053.3142" fill="#ADD1B2" rx="17.1875" ry="17.1875" style="stroke:#181818;stroke-width:1.5625;"/><path d="M1110.9108,1046.8689 Q1111.1549,1046.5271 1111.4479,1046.3562 Q1111.7409,1046.1853 1112.0827,1046.1853 Q1112.6686,1046.1853 1113.0348,1046.6003 Q1113.401,1046.991 1113.401,1047.9431 L1113.401,1050.2136 Q1113.401,1051.1658 1113.0348,1051.5808 Q1112.6686,1051.9958 1112.0827,1051.9958 Q1111.5456,1051.9958 1111.2282,1051.6785 Q1110.9108,1051.3855 1110.7399,1050.5798 Q1110.6667,1050.0183 1110.3737,1049.7253 Q1109.861,1049.1394 1108.9088,1048.7976 Q1107.9567,1048.4558 1106.9801,1048.4558 Q1105.7838,1048.4558 1104.7829,1048.9685 Q1103.8063,1049.4812 1103.0251,1050.6531 Q1102.2682,1051.825 1102.2682,1053.4363 L1102.2682,1055.1453 Q1102.2682,1057.074 1103.6598,1058.3679 Q1105.0514,1059.6375 1107.5417,1059.6375 Q1109.0065,1059.6375 1110.0319,1059.2468 Q1110.6422,1059.0027 1111.3014,1058.3191 Q1111.7165,1057.9041 1111.9362,1057.782 Q1112.1803,1057.6599 1112.4977,1057.6599 Q1113.0104,1057.6599 1113.401,1058.075 Q1113.8161,1058.4656 1113.8161,1059.0027 Q1113.8161,1059.5398 1113.279,1060.1746 Q1112.4977,1061.0779 1111.2526,1061.5906 Q1109.568,1062.2986 1107.5417,1062.2986 Q1105.1735,1062.2986 1103.2936,1061.322 Q1101.7555,1060.5408 1100.6813,1058.8806 Q1099.6071,1057.196 1099.6071,1055.1941 L1099.6071,1053.3875 Q1099.6071,1051.3123 1100.5592,1049.53 Q1101.5358,1047.7234 1103.2448,1046.7712 Q1104.9538,1045.7947 1106.8825,1045.7947 Q1108.0299,1045.7947 1109.0309,1046.0632 Q1110.0563,1046.3074 1110.9108,1046.8689 Z " fill="#111827"/><text fill="#111827" font-family="'Malgun Gothic'" font-size="21.875" lengthAdjust="spacing" textLength="138.9404" x="1138.6208" y="1062.5748">OrphanedLink</text><line style="stroke:#181818;stroke-width:0.7813;" x1="1027.3438" x2="1338.0569" y1="1078.3142" y2="1078.3142"/><text fill="#111827" font-family="'Malgun Gothic'" font-size="21.875" lengthAdjust="spacing" textLength="146.5988" x="1035.1563" y="1108.3725">itemId : ItemId</text><text fill="#111827" font-family="'Malgun Gothic'" font-size="21.875" lengthAdjust="spacing" textLength="295.0882" x="1035.1563" y="1137.468">conceptId : MissingConceptId</text><text fill="#111827" font-family="'Malgun Gothic'" font-size="21.875" lengthAdjust="spacing" textLength="116.4459" x="1035.1563" y="1166.5634">role : String</text><text fill="#111827" font-family="'Malgun Gothic'" font-size="21.875" lengthAdjust="spacing" textLength="144.5587" x="1035.1563" y="1195.6589">reason : String</text><text fill="#111827" font-family="'Malgun Gothic'" font-size="21.875" lengthAdjust="spacing" textLength="229.5166" x="1035.1563" y="1224.7543">archivedAt : DateTime?</text><line style="stroke:#181818;stroke-width:0.7813;" x1="1027.3438" x2="1338.0569" y1="1236.2915" y2="1236.2915"/></g><!--class Workspace--><g class="entity" data-qualified-name="Workspace" data-source-line="85" id="ent0012"><rect fill="#F1F1F1" height="162.2864" rx="6.25" ry="6.25" style="stroke:#181818;stroke-width:0.7813;" width="239.9353" x="597.6563" y="116.5955"/><ellipse cx="657.6054" cy="141.5955" fill="#ADD1B2" rx="17.1875" ry="17.1875" style="stroke:#181818;stroke-width:1.5625;"/><path d="M661.9267,135.1501 Q662.1709,134.8083 662.4638,134.6375 Q662.7568,134.4666 663.0986,134.4666 Q663.6845,134.4666 664.0508,134.8816 Q664.417,135.2722 664.417,136.2244 L664.417,138.4949 Q664.417,139.447 664.0508,139.8621 Q663.6845,140.2771 663.0986,140.2771 Q662.5615,140.2771 662.2441,139.9597 Q661.9267,139.6667 661.7558,138.8611 Q661.6826,138.2996 661.3896,138.0066 Q660.8769,137.4207 659.9248,137.0789 Q658.9726,136.7371 657.9961,136.7371 Q656.7998,136.7371 655.7988,137.2498 Q654.8222,137.7625 654.041,138.9343 Q653.2841,140.1062 653.2841,141.7175 L653.2841,143.4265 Q653.2841,145.3552 654.6758,146.6492 Q656.0674,147.9187 658.5576,147.9187 Q660.0224,147.9187 661.0478,147.5281 Q661.6582,147.2839 662.3174,146.6003 Q662.7324,146.1853 662.9521,146.0632 Q663.1963,145.9412 663.5136,145.9412 Q664.0263,145.9412 664.417,146.3562 Q664.832,146.7468 664.832,147.2839 Q664.832,147.821 664.2949,148.4558 Q663.5136,149.3591 662.2685,149.8718 Q660.584,150.5798 658.5576,150.5798 Q656.1894,150.5798 654.3095,149.6033 Q652.7715,148.822 651.6972,147.1619 Q650.623,145.4773 650.623,143.4753 L650.623,141.6687 Q650.623,139.5935 651.5752,137.8113 Q652.5517,136.0046 654.2607,135.0525 Q655.9697,134.0759 657.8984,134.0759 Q659.0459,134.0759 660.0468,134.3445 Q661.0722,134.5886 661.9267,135.1501 Z " fill="#111827"/><text fill="#111827" font-family="'Malgun Gothic'" font-size="21.875" lengthAdjust="spacing" textLength="108.7982" x="687.5941" y="150.856">Workspace</text><line style="stroke:#181818;stroke-width:0.7813;" x1="599.2188" x2="836.0291" y1="166.5955" y2="166.5955"/><text fill="#111827" font-family="'Malgun Gothic'" font-size="21.875" lengthAdjust="spacing" textLength="140.831" x="607.0313" y="196.6537">syncId : String</text><text fill="#111827" font-family="'Malgun Gothic'" font-size="21.875" lengthAdjust="spacing" textLength="176.3458" x="607.0313" y="225.7492">writeHash : String</text><text fill="#111827" font-family="'Malgun Gothic'" font-size="21.875" lengthAdjust="spacing" textLength="221.1853" x="607.0313" y="254.8447">headRevision : Integer</text><line style="stroke:#181818;stroke-width:0.7813;" x1="599.2188" x2="836.0291" y1="266.3818" y2="266.3818"/></g><!--class Revision--><g class="entity" data-qualified-name="Revision" data-source-line="91" id="ent0013"><rect fill="#F1F1F1" height="249.5728" rx="6.25" ry="6.25" style="stroke:#181818;stroke-width:0.7813;" width="224.9496" x="1070.3125" y="72.8455"/><ellipse cx="1135.7123" cy="97.8455" fill="#ADD1B2" rx="17.1875" ry="17.1875" style="stroke:#181818;stroke-width:1.5625;"/><path d="M1140.0336,91.4001 Q1140.2777,91.0583 1140.5707,90.8875 Q1140.8636,90.7166 1141.2054,90.7166 Q1141.7914,90.7166 1142.1576,91.1316 Q1142.5238,91.5222 1142.5238,92.4744 L1142.5238,94.7449 Q1142.5238,95.697 1142.1576,96.1121 Q1141.7914,96.5271 1141.2054,96.5271 Q1140.6683,96.5271 1140.351,96.2097 Q1140.0336,95.9167 1139.8627,95.1111 Q1139.7894,94.5496 1139.4965,94.2566 Q1138.9838,93.6707 1138.0316,93.3289 Q1137.0795,92.9871 1136.1029,92.9871 Q1134.9066,92.9871 1133.9056,93.4998 Q1132.9291,94.0125 1132.1478,95.1843 Q1131.391,96.3562 1131.391,97.9675 L1131.391,99.6765 Q1131.391,101.6052 1132.7826,102.8992 Q1134.1742,104.1687 1136.6644,104.1687 Q1138.1293,104.1687 1139.1547,103.7781 Q1139.765,103.5339 1140.4242,102.8503 Q1140.8392,102.4353 1141.059,102.3132 Q1141.3031,102.1912 1141.6205,102.1912 Q1142.1332,102.1912 1142.5238,102.6062 Q1142.9388,102.9968 1142.9388,103.5339 Q1142.9388,104.071 1142.4017,104.7058 Q1141.6205,105.6091 1140.3754,106.1218 Q1138.6908,106.8298 1136.6644,106.8298 Q1134.2963,106.8298 1132.4164,105.8533 Q1130.8783,105.072 1129.8041,103.4119 Q1128.7299,101.7273 1128.7299,99.7253 L1128.7299,97.9187 Q1128.7299,95.8435 1129.682,94.0613 Q1130.6586,92.2546 1132.3676,91.3025 Q1134.0765,90.3259 1136.0052,90.3259 Q1137.1527,90.3259 1138.1537,90.5945 Q1139.1791,90.8386 1140.0336,91.4001 Z " fill="#111827"/><text fill="#111827" font-family="'Malgun Gothic'" font-size="21.875" lengthAdjust="spacing" textLength="81.7001" x="1166.9122" y="107.106">Revision</text><line style="stroke:#181818;stroke-width:0.7813;" x1="1071.875" x2="1293.6996" y1="122.8455" y2="122.8455"/><text fill="#111827" font-family="'Malgun Gothic'" font-size="21.875" lengthAdjust="spacing" textLength="166.6687" x="1079.6875" y="152.9037">revision : Integer</text><text fill="#111827" font-family="'Malgun Gothic'" font-size="21.875" lengthAdjust="spacing" textLength="187.3154" x="1079.6875" y="181.9992">operationId : UUID</text><text fill="#111827" font-family="'Malgun Gothic'" font-size="21.875" lengthAdjust="spacing" textLength="206.1996" x="1079.6875" y="211.0947">payloadHash : String</text><text fill="#111827" font-family="'Malgun Gothic'" font-size="21.875" lengthAdjust="spacing" textLength="161.264" x="1079.6875" y="240.1901">appState : JSON</text><text fill="#111827" font-family="'Malgun Gothic'" font-size="21.875" lengthAdjust="spacing" textLength="168.7622" x="1079.6875" y="269.2856">atlasState : JSON</text><text fill="#111827" font-family="'Malgun Gothic'" font-size="21.875" lengthAdjust="spacing" textLength="187.9135" x="1079.6875" y="298.381">bridgeState : JSON</text><line style="stroke:#181818;stroke-width:0.7813;" x1="1071.875" x2="1293.6996" y1="309.9182" y2="309.9182"/></g><!--class SyncMeta--><g class="entity" data-qualified-name="SyncMeta" data-source-line="100" id="ent0014"><rect fill="#F1F1F1" height="220.4773" rx="6.25" ry="6.25" style="stroke:#181818;stroke-width:0.7813;" width="269.2123" x="92.1875" y="87.6892"/><ellipse cx="171.9917" cy="112.6892" fill="#ADD1B2" rx="17.1875" ry="17.1875" style="stroke:#181818;stroke-width:1.5625;"/><path d="M176.313,106.2439 Q176.5572,105.9021 176.8501,105.7312 Q177.1431,105.5603 177.4849,105.5603 Q178.0708,105.5603 178.437,105.9753 Q178.8033,106.366 178.8033,107.3181 L178.8033,109.5886 Q178.8033,110.5408 178.437,110.9558 Q178.0708,111.3708 177.4849,111.3708 Q176.9478,111.3708 176.6304,111.0535 Q176.313,110.7605 176.1421,109.9548 Q176.0689,109.3933 175.7759,109.1003 Q175.2632,108.5144 174.3111,108.1726 Q173.3589,107.8308 172.3824,107.8308 Q171.1861,107.8308 170.1851,108.3435 Q169.2085,108.8562 168.4273,110.0281 Q167.6704,111.2 167.6704,112.8113 L167.6704,114.5203 Q167.6704,116.449 169.062,117.7429 Q170.4536,119.0125 172.9439,119.0125 Q174.4087,119.0125 175.4341,118.6218 Q176.0445,118.3777 176.7036,117.6941 Q177.1187,117.2791 177.3384,117.157 Q177.5826,117.0349 177.8999,117.0349 Q178.4126,117.0349 178.8033,117.45 Q179.2183,117.8406 179.2183,118.3777 Q179.2183,118.9148 178.6812,119.5496 Q177.8999,120.4529 176.6548,120.9656 Q174.9702,121.6736 172.9439,121.6736 Q170.5757,121.6736 168.6958,120.697 Q167.1577,119.9158 166.0835,118.2556 Q165.0093,116.571 165.0093,114.5691 L165.0093,112.7625 Q165.0093,110.6873 165.9615,108.905 Q166.938,107.0984 168.647,106.1462 Q170.356,105.1697 172.2847,105.1697 Q173.4322,105.1697 174.4331,105.4382 Q175.4585,105.6824 176.313,106.2439 Z " fill="#111827"/><text fill="#111827" font-family="'Malgun Gothic'" font-size="21.875" lengthAdjust="spacing" textLength="96.3226" x="204.023" y="121.9498">SyncMeta</text><line style="stroke:#181818;stroke-width:0.7813;" x1="93.75" x2="359.8373" y1="137.6892" y2="137.6892"/><text fill="#111827" font-family="'Malgun Gothic'" font-size="21.875" lengthAdjust="spacing" textLength="231.2897" x="101.5625" y="167.7475">serverRevision : Integer</text><text fill="#111827" font-family="'Malgun Gothic'" font-size="21.875" lengthAdjust="spacing" textLength="239.3219" x="101.5625" y="196.843">lastPayloadHash : String</text><text fill="#111827" font-family="'Malgun Gothic'" font-size="21.875" lengthAdjust="spacing" textLength="144.8578" x="101.5625" y="225.9384">dirty : Boolean</text><text fill="#111827" font-family="'Malgun Gothic'" font-size="21.875" lengthAdjust="spacing" textLength="197.5906" x="101.5625" y="255.0339">generation : Integer</text><text fill="#111827" font-family="'Malgun Gothic'" font-size="21.875" lengthAdjust="spacing" textLength="250.4623" x="101.5625" y="284.1293">restorePending : Boolean</text><line style="stroke:#181818;stroke-width:0.7813;" x1="93.75" x2="359.8373" y1="295.6665" y2="295.6665"/></g><g class="entity" data-qualified-name="GMN33" data-source-line="128" id="ent0034"><path d="M2346.875,783.0017 L2346.875,805.658 L2253.5313,811.908 L2346.875,818.158 L2346.875,840.1611 A6.25,6.25 0 0 0 2353.125,846.4111 L2786.3029,846.4111 A6.25,6.25 0 0 0 2792.5529,840.1611 L2792.5529,792.3767 L2776.9279,776.7517 L2353.125,776.7517 A6.25,6.25 0 0 0 2346.875,783.0017" fill="#FFF8DC" style="stroke:#8B7355;stroke-width:0.7813;"/><path d="M2776.9279,776.7517 L2776.9279,789.2517 A3.125,3.125 0 0 0 2780.0529,792.3767 L2792.5529,792.3767 L2776.9279,776.7517" fill="#FFF8DC" style="stroke:#8B7355;stroke-width:0.7813;"/><text fill="#111827" font-family="'Malgun Gothic'" font-size="20.3125" lengthAdjust="spacing" textLength="281.6772" x="2356.25" y="806.6719">[D] SQL PK&#45716; (sync_id, line_id).</text><text fill="#111827" font-family="'Malgun Gothic'" font-size="20.3125" lengthAdjust="spacing" textLength="412.8654" x="2356.25" y="833.6891">line ID&#45716; workspace &#51204;&#52404;&#50640;&#49436; &#50976;&#51068;&#54644;&#50556; &#54620;&#45796;.</text></g><g class="entity" data-qualified-name="GMN36" data-source-line="133" id="ent0037"><path d="M1467.1875,1308.783 L1467.1875,1361.3923 L1301.7656,1367.6423 L1467.1875,1373.8923 L1467.1875,1392.9596 A6.25,6.25 0 0 0 1473.4375,1399.2096 L1940.744,1399.2096 A6.25,6.25 0 0 0 1946.994,1392.9596 L1946.994,1318.158 L1931.369,1302.533 L1473.4375,1302.533 A6.25,6.25 0 0 0 1467.1875,1308.783" fill="#FFF8DC" style="stroke:#8B7355;stroke-width:0.7813;"/><path d="M1931.369,1302.533 L1931.369,1315.033 A3.125,3.125 0 0 0 1934.494,1318.158 L1946.994,1318.158 L1931.369,1302.533" fill="#FFF8DC" style="stroke:#8B7355;stroke-width:0.7813;"/><text fill="#111827" font-family="'Malgun Gothic'" font-size="20.3125" lengthAdjust="spacing" textLength="104.2305" x="1476.5625" y="1332.4532">&#44208;&#54632; 11 [D]</text><text fill="#111827" font-family="'Malgun Gothic'" font-size="20.3125" lengthAdjust="spacing" textLength="343.0809" x="1476.5625" y="1359.4704">DB PK = (sync_id,item_id,concept_id).</text><text fill="#111827" font-family="'Malgun Gothic'" font-size="20.3125" lengthAdjust="spacing" textLength="446.994" x="1476.5625" y="1386.4876">&#44057;&#51008; pair&#51032; &#45796;&#51473; role&#51008; projection&#50640;&#49436; &#52629;&#50557;&#46108;&#45796;.</text></g><g class="entity" data-qualified-name="GMN39" data-source-line="139" id="ent0040"><path d="M1510.9375,1056.4392 L1510.9375,1167.6331 A6.25,6.25 0 0 0 1517.1875,1173.8831 L1896.5195,1173.8831 A6.25,6.25 0 0 0 1902.7695,1167.6331 L1902.7695,1065.8142 L1887.1445,1050.1892 L1714.0625,1050.1892 L1707.8125,995.0642 L1701.5625,1050.1892 L1517.1875,1050.1892 A6.25,6.25 0 0 0 1510.9375,1056.4392" fill="#FFF8DC" style="stroke:#8B7355;stroke-width:0.7813;"/><path d="M1887.1445,1050.1892 L1887.1445,1062.6892 A3.125,3.125 0 0 0 1890.2695,1065.8142 L1902.7695,1065.8142 L1887.1445,1050.1892" fill="#FFF8DC" style="stroke:#8B7355;stroke-width:0.7813;"/><text fill="#111827" font-family="'Malgun Gothic'" font-size="20.3125" lengthAdjust="spacing" textLength="174.7887" x="1520.3125" y="1080.1094">projection &#49552;&#49892; [D]</text><text fill="#111827" font-family="'Malgun Gothic'" font-size="20.3125" lengthAdjust="spacing" textLength="281.1417" x="1520.3125" y="1107.1266">primaryParent, &#44288;&#44228; &#48176;&#50676; &#49692;&#49436;,</text><text fill="#111827" font-family="'Malgun Gothic'" font-size="20.3125" lengthAdjust="spacing" textLength="359.0195" x="1520.3125" y="1134.1438">&#51076;&#51032; &#54869;&#51109; &#54596;&#46300;&#45716; normalized table&#50640;&#49436;</text><text fill="#111827" font-family="'Malgun Gothic'" font-size="20.3125" lengthAdjust="spacing" textLength="221.8506" x="1520.3125" y="1161.161">&#50756;&#51204;&#55176; &#54364;&#54788;&#46104;&#51648; &#50506;&#45716;&#45796;.</text></g><g class="entity" data-qualified-name="GMN42" data-source-line="146" id="ent0043"><path d="M992.1875,771.283 L992.1875,855.4596 A6.25,6.25 0 0 0 998.4375,861.7096 L1367.5636,861.7096 A6.25,6.25 0 0 0 1373.8136,855.4596 L1373.8136,780.658 L1358.1886,765.033 L1189.0625,765.033 L1182.8125,709.5798 L1176.5625,765.033 L998.4375,765.033 A6.25,6.25 0 0 0 992.1875,771.283" fill="#FFF8DC" style="stroke:#8B7355;stroke-width:0.7813;"/><path d="M1358.1886,765.033 L1358.1886,777.533 A3.125,3.125 0 0 0 1361.3136,780.658 L1373.8136,780.658 L1358.1886,765.033" fill="#FFF8DC" style="stroke:#8B7355;stroke-width:0.7813;"/><text fill="#111827" font-family="'Malgun Gothic'" font-size="20.3125" lengthAdjust="spacing" textLength="289.5325" x="1001.5625" y="794.9532">[D] anchor FK&#45716; delete set null.</text><text fill="#111827" font-family="'Malgun Gothic'" font-size="20.3125" lengthAdjust="spacing" textLength="348.8136" x="1001.5625" y="821.9704">member&#51032; &#45796;&#54805; &#52280;&#51312;&#45716; entity FK &#45824;&#49888;</text><text fill="#111827" font-family="'Malgun Gothic'" font-size="20.3125" lengthAdjust="spacing" textLength="210.3752" x="1001.5625" y="848.9876">RPC assert&#50640; &#51032;&#51316;&#54620;&#45796;.</text></g><g class="entity" data-qualified-name="GMN45" data-source-line="152" id="ent0046"><path d="M9.375,369.7205 L9.375,453.8971 A6.25,6.25 0 0 0 15.625,460.1471 L437.3573,460.1471 A6.25,6.25 0 0 0 443.6073,453.8971 L443.6073,379.0955 L427.9823,363.4705 L232.8125,363.4705 L226.5625,308.0173 L220.3125,363.4705 L15.625,363.4705 A6.25,6.25 0 0 0 9.375,369.7205" fill="#FFF8DC" style="stroke:#8B7355;stroke-width:0.7813;"/><path d="M427.9823,363.4705 L427.9823,375.9705 A3.125,3.125 0 0 0 431.1073,379.0955 L443.6073,379.0955 L427.9823,363.4705" fill="#FFF8DC" style="stroke:#8B7355;stroke-width:0.7813;"/><text fill="#111827" font-family="'Malgun Gothic'" font-size="20.3125" lengthAdjust="spacing" textLength="89.502" x="18.75" y="393.3907">&#44208;&#54632; 3 [S]</text><text fill="#111827" font-family="'Malgun Gothic'" font-size="20.3125" lengthAdjust="spacing" textLength="401.4198" x="18.75" y="420.4079">META_KEY &#54616;&#45208;&#50640; revision/hash&#44032; &#51200;&#51109;&#46104;&#50612;</text><text fill="#111827" font-family="'Malgun Gothic'" font-size="20.3125" lengthAdjust="spacing" textLength="394.7945" x="18.75" y="447.4251">workspace &#48320;&#44221; &#46244; &#51060;&#51204; &#44050;&#51060; &#45224;&#51012; &#49688; &#51080;&#45796;.</text></g><!--reverse link Payload to AppState--><g class="link" data-entity-1="ent0001" data-entity-2="ent0002" data-link-type="composition" data-source-line="108" id="lnk15"><path codeLine="108" d="M354.1406,826.7517 C457.9063,826.7517 579.6875,826.7517 579.6875,826.7517 C579.6875,826.7517 579.6875,775.0017 579.6875,724.4548" fill="none" id="Payload-backto-AppState" style="stroke:#4B5563;stroke-width:1.5625;"/><polygon fill="#4B5563" points="335.3906,826.7517,344.7656,833.0017,354.1406,826.7517,344.7656,820.5017,335.3906,826.7517" style="stroke:#4B5563;stroke-width:1.5625;stroke-linejoin:miter;stroke-miterlimit:10;"/><text fill="#111827" font-family="'Malgun Gothic'" font-size="20.3125" lengthAdjust="spacing" textLength="11.1877" x="347.9057" y="845.0831">1</text><text fill="#111827" font-family="'Malgun Gothic'" font-size="20.3125" lengthAdjust="spacing" textLength="11.1877" x="551.2715" y="759.7847">1</text></g><!--reverse link Payload to AtlasState--><g class="link" data-entity-1="ent0001" data-entity-2="ent0003" data-link-type="composition" data-source-line="109" id="lnk16"><path codeLine="109" d="M354.375,874.408 C431.1406,874.408 515.25,874.408 594.9531,874.408" fill="none" id="Payload-backto-AtlasState" style="stroke:#4B5563;stroke-width:1.5625;"/><polygon fill="#4B5563" points="335.625,874.408,345,880.658,354.375,874.408,345,868.158,335.625,874.408" style="stroke:#4B5563;stroke-width:1.5625;stroke-linejoin:miter;stroke-miterlimit:10;"/><text fill="#111827" font-family="'Malgun Gothic'" font-size="20.3125" lengthAdjust="spacing" textLength="11.1877" x="347.4491" y="897.8697">1</text><text fill="#111827" font-family="'Malgun Gothic'" font-size="20.3125" lengthAdjust="spacing" textLength="11.1877" x="571.776" y="897.7671">1</text></g><!--reverse link Payload to BridgeState--><g class="link" data-entity-1="ent0001" data-entity-2="ent0004" data-link-type="composition" data-source-line="110" id="lnk17"><path codeLine="110" d="M353.9219,922.0642 C452.0625,922.0642 562.5,922.0642 562.5,922.0642 C562.5,922.0642 562.5,1043.283 562.5,1128.5017" fill="none" id="Payload-backto-BridgeState" style="stroke:#4B5563;stroke-width:1.5625;"/><polygon fill="#4B5563" points="335.1719,922.0642,344.5469,928.3142,353.9219,922.0642,344.5469,915.8142,335.1719,922.0642" style="stroke:#4B5563;stroke-width:1.5625;stroke-linejoin:miter;stroke-miterlimit:10;"/><text fill="#111827" font-family="'Malgun Gothic'" font-size="20.3125" lengthAdjust="spacing" textLength="11.1877" x="347.663" y="950.8204">1</text><text fill="#111827" font-family="'Malgun Gothic'" font-size="20.3125" lengthAdjust="spacing" textLength="11.1877" x="530.9733" y="1111.9018">1</text></g><!--reverse link AtlasState to Concept--><g class="link" data-entity-1="ent0003" data-entity-2="ent0005" data-link-type="composition" data-source-line="111" id="lnk18"><path codeLine="111" d="M859.4844,915.8142 C1030.9844,915.8142 1324.8125,915.8142 1523.8906,915.8142" fill="none" id="AtlasState-backto-Concept" style="stroke:#4B5563;stroke-width:1.5625;"/><polygon fill="#4B5563" points="840.7344,915.8142,850.1094,922.0642,859.4844,915.8142,850.1094,909.5642,840.7344,915.8142" style="stroke:#4B5563;stroke-width:1.5625;stroke-linejoin:miter;stroke-miterlimit:10;"/><text fill="#111827" font-family="'Malgun Gothic'" font-size="20.3125" lengthAdjust="spacing" textLength="11.1877" x="853.3642" y="943.2903">1</text><text fill="#111827" font-family="'Malgun Gothic'" font-size="20.3125" lengthAdjust="spacing" textLength="28.7033" x="1483.1671" y="945.4332">0..*</text></g><!--reverse link Concept to ConceptLine--><g class="link" data-entity-1="ent0005" data-entity-2="ent0006" data-link-type="composition" data-source-line="112" id="lnk19"><path codeLine="112" d="M1909.125,811.908 C1960.2813,811.908 1995.3906,811.908 2040.4844,811.908" fill="none" id="Concept-backto-ConceptLine" style="stroke:#4B5563;stroke-width:1.5625;"/><polygon fill="#4B5563" points="1890.375,811.908,1899.75,818.158,1909.125,811.908,1899.75,805.658,1890.375,811.908" style="stroke:#4B5563;stroke-width:1.5625;stroke-linejoin:miter;stroke-miterlimit:10;"/><text fill="#111827" font-family="'Malgun Gothic'" font-size="20.3125" lengthAdjust="spacing" textLength="11.1877" x="1901.9038" y="834.8288">1</text><text fill="#111827" font-family="'Malgun Gothic'" font-size="20.3125" lengthAdjust="spacing" textLength="28.7033" x="1999.1875" y="835.5048">0..*</text></g><!--reverse link AtlasState to Frame--><g class="link" data-entity-1="ent0003" data-entity-2="ent0007" data-link-type="composition" data-source-line="113" id="lnk20"><path codeLine="113" d="M859.625,834.2986 C919.8906,834.2986 960.9375,834.2986 960.9375,834.2986 C960.9375,834.2986 960.9375,621.6736 960.9375,621.6736 C960.9375,621.6736 1010.9219,621.6736 1063.4375,621.6736" fill="none" id="AtlasState-backto-Frame" style="stroke:#4B5563;stroke-width:1.5625;"/><polygon fill="#4B5563" points="840.875,834.2986,850.25,840.5486,859.625,834.2986,850.25,828.0486,840.875,834.2986" style="stroke:#4B5563;stroke-width:1.5625;stroke-linejoin:miter;stroke-miterlimit:10;"/><text fill="#111827" font-family="'Malgun Gothic'" font-size="20.3125" lengthAdjust="spacing" textLength="11.1877" x="853.1173" y="853.8348">1</text><text fill="#111827" font-family="'Malgun Gothic'" font-size="20.3125" lengthAdjust="spacing" textLength="28.7033" x="1023.0448" y="647.0716">0..*</text></g><!--reverse link AtlasState to AtlasObject--><g class="link" data-entity-1="ent0003" data-entity-2="ent0008" data-link-type="composition" data-source-line="114" id="lnk21"><path codeLine="114" d="M859.875,806.7048 C906.4531,806.7048 929.6875,806.7048 929.6875,806.7048 C929.6875,806.7048 929.6875,474.7986 929.6875,474.7986 C929.6875,474.7986 1410.0938,474.7986 1615.5781,474.7986" fill="none" id="AtlasState-backto-AtlasObject" style="stroke:#4B5563;stroke-width:1.5625;"/><polygon fill="#4B5563" points="841.125,806.7048,850.5,812.9548,859.875,806.7048,850.5,800.4548,841.125,806.7048" style="stroke:#4B5563;stroke-width:1.5625;stroke-linejoin:miter;stroke-miterlimit:10;"/><text fill="#111827" font-family="'Malgun Gothic'" font-size="20.3125" lengthAdjust="spacing" textLength="11.1877" x="853.3911" y="823.611">1</text><text fill="#111827" font-family="'Malgun Gothic'" font-size="20.3125" lengthAdjust="spacing" textLength="28.7033" x="1574.6618" y="472.586">0..*</text></g><!--reverse link BridgeState to StudyConceptLink--><g class="link" data-entity-1="ent0004" data-entity-2="ent0010" data-link-type="composition" data-source-line="115" id="lnk22"><path codeLine="115" d="M909.8125,1270.1111 C1041.9688,1270.1111 1182.8125,1270.1111 1182.8125,1270.1111 C1182.8125,1270.1111 1182.8125,1284.9861 1182.8125,1304.0642" fill="none" id="BridgeState-backto-StudyConceptLink" style="stroke:#4B5563;stroke-width:1.5625;"/><polygon fill="#4B5563" points="891.0625,1270.1111,900.4375,1276.3611,909.8125,1270.1111,900.4375,1263.8611,891.0625,1270.1111" style="stroke:#4B5563;stroke-width:1.5625;stroke-linejoin:miter;stroke-miterlimit:10;"/><text fill="#111827" font-family="'Malgun Gothic'" font-size="20.3125" lengthAdjust="spacing" textLength="11.1877" x="903.0759" y="1297.1491">1</text><text fill="#111827" font-family="'Malgun Gothic'" font-size="20.3125" lengthAdjust="spacing" textLength="28.7033" x="1152.7865" y="1286.9475">0..*</text></g><!--reverse link BridgeState to OrphanedLink--><g class="link" data-entity-1="ent0004" data-entity-2="ent0011" data-link-type="composition" data-source-line="116" id="lnk23"><path codeLine="116" d="M909.8125,1188.8611 C953.9531,1188.8611 982.4063,1188.8611 1025.6875,1188.8611" fill="none" id="BridgeState-backto-OrphanedLink" style="stroke:#4B5563;stroke-width:1.5625;"/><polygon fill="#4B5563" points="891.0625,1188.8611,900.4375,1195.1111,909.8125,1188.8611,900.4375,1182.6111,891.0625,1188.8611" style="stroke:#4B5563;stroke-width:1.5625;stroke-linejoin:miter;stroke-miterlimit:10;"/><text fill="#111827" font-family="'Malgun Gothic'" font-size="20.3125" lengthAdjust="spacing" textLength="11.1877" x="903.0759" y="1210.4401">1</text><text fill="#111827" font-family="'Malgun Gothic'" font-size="20.3125" lengthAdjust="spacing" textLength="28.7033" x="984.4867" y="1215.8548">0..*</text></g><!--reverse link BridgeState to CatalogItem--><g class="link" data-entity-1="ent0004" data-entity-2="ent0009" data-link-type="composition" data-source-line="117" id="lnk24"><path codeLine="117" d="M718.75,1310.4861 C718.75,1412.5798 718.75,1555.658 718.75,1555.658 C718.75,1555.658 1381.4063,1555.658 1621.4844,1555.658" fill="none" id="BridgeState-backto-CatalogItem" style="stroke:#4B5563;stroke-width:1.5625;"/><polygon fill="#4B5563" points="718.75,1291.7361,712.5,1301.1111,718.75,1310.4861,725,1301.1111,718.75,1291.7361" style="stroke:#4B5563;stroke-width:1.5625;stroke-linejoin:miter;stroke-miterlimit:10;"/><text fill="#111827" font-family="'Malgun Gothic'" font-size="20.3125" lengthAdjust="spacing" textLength="11.1877" x="707.2428" y="1326.0164">1</text><text fill="#111827" font-family="'Malgun Gothic'" font-size="20.3125" lengthAdjust="spacing" textLength="28.7033" x="1580.6388" y="1580.2487">0..*</text></g><!--link StudyConceptLink to CatalogItem--><g class="link" data-entity-1="ent0010" data-entity-2="ent0009" data-link-type="dependency" data-source-line="118" id="lnk25"><path codeLine="118" d="M1301.7656,1460.3455 C1399.1875,1460.3455 1526.8594,1460.3455 1613.7969,1460.3455" fill="none" id="StudyConceptLink-to-CatalogItem" style="stroke:#4B5563;stroke-width:1.5625;"/><polygon fill="#4B5563" points="1621.6094,1460.3455,1607.5469,1454.0955,1613.7969,1460.3455,1607.5469,1466.5955,1621.6094,1460.3455" style="stroke:#4B5563;stroke-width:1.5625;stroke-linejoin:miter;stroke-miterlimit:10;"/><text fill="#111827" font-family="'Malgun Gothic'" font-size="20.3125" lengthAdjust="spacing" textLength="89.006" x="1372.625" y="1484.0157">itemId [S]</text><text fill="#111827" font-family="'Malgun Gothic'" font-size="20.3125" lengthAdjust="spacing" textLength="28.7033" x="1314.851" y="1491.1762">0..*</text><text fill="#111827" font-family="'Malgun Gothic'" font-size="20.3125" lengthAdjust="spacing" textLength="11.1877" x="1597.9132" y="1471.7752">1</text></g><!--link StudyConceptLink to Concept--><g class="link" data-entity-1="ent0010" data-entity-2="ent0005" data-link-type="dependency" data-source-line="119" id="lnk26"><path codeLine="119" d="M1301.9531,1335.8611 C1332.9531,1335.8611 1357.8125,1335.8611 1357.8125,1335.8611 C1357.8125,1335.8611 1357.8125,978.0486 1357.8125,978.0486 C1357.8125,978.0486 1431.6094,978.0486 1515.9219,978.0486" fill="none" id="StudyConceptLink-to-Concept" style="stroke:#4B5563;stroke-width:1.5625;"/><polygon fill="#4B5563" points="1523.7344,978.0486,1509.6719,971.7986,1515.9219,978.0486,1509.6719,984.2986,1523.7344,978.0486" style="stroke:#4B5563;stroke-width:1.5625;stroke-linejoin:miter;stroke-miterlimit:10;"/><text fill="#111827" font-family="'Malgun Gothic'" font-size="20.3125" lengthAdjust="spacing" textLength="148.3963" x="1359.375" y="1125.5938">conceptId [S][D]</text><text fill="#111827" font-family="'Malgun Gothic'" font-size="20.3125" lengthAdjust="spacing" textLength="28.7033" x="1314.641" y="1354.55">0..*</text><text fill="#111827" font-family="'Malgun Gothic'" font-size="20.3125" lengthAdjust="spacing" textLength="11.1877" x="1500.7283" y="983.3903">1</text></g><!--link Concept to Concept--><g class="link" data-entity-1="ent0005" data-entity-2="ent0005" data-link-type="dependency" data-source-line="120" id="lnk27"><path codeLine="120" d="M1524.1875,986.3923 C1520.6875,986.3923 1518.75,986.3923 1518.75,986.3923 C1518.75,986.3923 1518.75,1011.5173 1518.75,1011.5173 C1518.75,1011.5173 1896.875,1011.5173 1896.875,1011.5173 C1896.875,1011.5173 1896.875,943.9392 1896.875,943.9392 C1896.875,943.9392 1902.25,943.9392 1897.9375,943.9392" fill="none" id="Concept-to-Concept" style="stroke:#4B5563;stroke-width:1.5625;"/><polygon fill="#4B5563" points="1890.125,943.9392,1904.1875,950.1892,1897.9375,943.9392,1904.1875,937.6892,1890.125,943.9392" style="stroke:#4B5563;stroke-width:1.5625;stroke-linejoin:miter;stroke-miterlimit:10;"/><text fill="#111827" font-family="'Malgun Gothic'" font-size="20.3125" lengthAdjust="spacing" textLength="141.9991" x="1739.0781" y="1031.6719">parent &#183; related</text><text fill="#111827" font-family="'Malgun Gothic'" font-size="20.3125" lengthAdjust="spacing" textLength="28.7033" x="1482.8693" y="1021.1197">0..*</text><text fill="#111827" font-family="'Malgun Gothic'" font-size="20.3125" lengthAdjust="spacing" textLength="28.7033" x="1901.5545" y="974.4514">0..*</text></g><!--link Frame to Concept--><g class="link" data-entity-1="ent0007" data-entity-2="ent0005" data-link-type="dependency" data-source-line="121" id="lnk28"><path codeLine="121" d="M1301.7656,655.9236 C1367.3125,655.9236 1442.2969,655.9236 1515.9219,655.9236" fill="none" id="Frame-to-Concept" style="stroke:#4B5563;stroke-width:1.5625;"/><polygon fill="#4B5563" points="1523.7344,655.9236,1509.6719,649.6736,1515.9219,655.9236,1509.6719,662.1736,1523.7344,655.9236" style="stroke:#4B5563;stroke-width:1.5625;stroke-linejoin:miter;stroke-miterlimit:10;"/><text fill="#111827" font-family="'Malgun Gothic'" font-size="20.3125" lengthAdjust="spacing" textLength="80.7243" x="1331.5" y="679.5938">anchorId</text><text fill="#111827" font-family="'Malgun Gothic'" font-size="20.3125" lengthAdjust="spacing" textLength="28.7033" x="1314.0616" y="684.479">0..*</text><text fill="#111827" font-family="'Malgun Gothic'" font-size="20.3125" lengthAdjust="spacing" textLength="31.2622" x="1480.3784" y="669.3391">0..1</text></g><!--link Frame to Concept--><g class="link" data-entity-1="ent0007" data-entity-2="ent0005" data-link-type="dependency" data-source-line="122" id="lnk29"><path codeLine="122" d="M1301.7656,682.7361 C1367.3125,682.7361 1442.2969,682.7361 1515.9219,682.7361" fill="none" id="Frame-to-Concept-1" style="stroke:#4B5563;stroke-width:1.5625;"/><polygon fill="#4B5563" points="1523.7344,682.7361,1509.6719,676.4861,1515.9219,682.7361,1509.6719,688.9861,1523.7344,682.7361" style="stroke:#4B5563;stroke-width:1.5625;stroke-linejoin:miter;stroke-miterlimit:10;"/><text fill="#111827" font-family="'Malgun Gothic'" font-size="20.3125" lengthAdjust="spacing" textLength="76.8661" x="1414.3125" y="706.4063">member</text><text fill="#111827" font-family="'Malgun Gothic'" font-size="20.3125" lengthAdjust="spacing" textLength="28.7033" x="1314.0616" y="713.7633">0..*</text><text fill="#111827" font-family="'Malgun Gothic'" font-size="20.3125" lengthAdjust="spacing" textLength="28.7033" x="1483.0008" y="697.4235">0..*</text></g><!--link Frame to AtlasObject--><g class="link" data-entity-1="ent0007" data-entity-2="ent0008" data-link-type="dependency" data-source-line="123" id="lnk30"><path codeLine="123" d="M1301.7656,499.408 C1396.9219,499.408 1520.5781,499.408 1607.6563,499.408" fill="none" id="Frame-to-AtlasObject" style="stroke:#4B5563;stroke-width:1.5625;"/><polygon fill="#4B5563" points="1615.4688,499.408,1601.4063,493.158,1607.6563,499.408,1601.4063,505.658,1615.4688,499.408" style="stroke:#4B5563;stroke-width:1.5625;stroke-linejoin:miter;stroke-miterlimit:10;"/><text fill="#111827" font-family="'Malgun Gothic'" font-size="20.3125" lengthAdjust="spacing" textLength="76.8661" x="1380.5" y="523.0782">member</text><text fill="#111827" font-family="'Malgun Gothic'" font-size="20.3125" lengthAdjust="spacing" textLength="28.7033" x="1314.0616" y="513.5346">0..*</text><text fill="#111827" font-family="'Malgun Gothic'" font-size="20.3125" lengthAdjust="spacing" textLength="28.7033" x="1574.5391" y="529.9944">0..*</text></g><!--reverse link Workspace to Revision--><g class="link" data-entity-1="ent0012" data-entity-2="ent0013" data-link-type="composition" data-source-line="124" id="lnk31"><path codeLine="124" d="M857.0313,197.8455 C928.5937,197.8455 1000.0313,197.8455 1070.1875,197.8455" fill="none" id="Workspace-backto-Revision" style="stroke:#4B5563;stroke-width:1.5625;"/><polygon fill="#4B5563" points="838.2813,197.8455,847.6563,204.0955,857.0313,197.8455,847.6563,191.5955,838.2813,197.8455" style="stroke:#4B5563;stroke-width:1.5625;stroke-linejoin:miter;stroke-miterlimit:10;"/><text fill="#111827" font-family="'Malgun Gothic'" font-size="20.3125" lengthAdjust="spacing" textLength="11.1877" x="849.92" y="221.2083">1</text><text fill="#111827" font-family="'Malgun Gothic'" font-size="20.3125" lengthAdjust="spacing" textLength="28.7033" x="1029.0303" y="221.3683">0..*</text></g><!--link SyncMeta to Workspace--><g class="link" data-entity-1="ent0014" data-entity-2="ent0012" data-link-type="dependency" data-source-line="125" id="lnk32"><path codeLine="125" d="M361.4844,197.8455 C435.3594,197.8455 518.3281,197.8455 589.7813,197.8455" fill="none" id="SyncMeta-to-Workspace" style="stroke:#4B5563;stroke-width:1.5625;stroke-dasharray:10.9375,10.9375;"/><polygon fill="#4B5563" points="597.5938,197.8455,583.5313,191.5955,589.7813,197.8455,583.5313,204.0955,597.5938,197.8455" style="stroke:#4B5563;stroke-width:1.5625;stroke-linejoin:miter;stroke-miterlimit:10;"/></g><g class="caption" data-source-line="157"><text fill="#111827" font-family="'Malgun Gothic'" font-size="21.875" lengthAdjust="spacing" textLength="755.7449" x="1024.654" y="1684.9106">revision JSON&#44284; normalized projection&#51008; &#54788;&#51116; &#46041;&#51068;&#54620; &#54364;&#54788;&#47141;&#51012; &#44054;&#51648; &#50506;&#45716;&#45796;.</text></g><?plantuml-src ZLTFJnj75B_lftZbr4RWXYOdr5AHG5Gt45oSgAeGGeDti3UiTrUpOwYRL78Zgq9GgIID4oCPH2IYfb8F5bXj3kJIZ-CTVuU-cTbTZnT3U_Bic_TlVk-lFtAyabkpAQo7lExIN52hkXPtk4jXhZYLByBDM_3Ftn3zsep-U2cEtiFWfrvqt1Pxf-Am0UAa8OxVuaz7j3vOBjtam7rWJhd2mNOOBN77zoohv98mX0AfkpwnuOa5i4rPY5Sm0v_X5ma2FCq5GP4JJYM1euGaoT-4kC4SkqoHUaSTDFd7H7iYdL5_6xy2vfSP3QN29H9ydkUqchSdeH2JPv75ypdDtXSvSxool0qfvtYK3CiRZ_5LXjdKGsMuv7ib6d39ULSVLs-i8NsJaQeoS4yUDCrNgj9dQitwQelMTtncopljXIIdDettAwEkusrfrffTZyqk8Yqsmu8AyQYz67Cj6z-QeqGuSVsoz5cV908Z5cEboffZfrxXbquLWn0ZiE8hSibdz6bO2mAVyQTbwb56NAcZAWa4EP7dGQswGPcAarCbh5uWZ7fyY63U_b9UAcfeahNtZBe8X7tv8jJffv3HHuokz91HAJ0dJSpZwQ5JfT92BR37qBCO86nq70xqUsv-Nnz1bGNZjDI34J0HeOhFydOMZ2gLa4db2nv6e9uy6S7VTCfNfQacPirgS7LfNXOqCcACls5DgpH96cgJvCd7fj-fwcowQlsg-91RL-4meKP1a77ttN5QpVJ-7ngNd314-QiLomGZuUY322jLdEshK-LRdss50Idf48TrhvGVWMs7eLDVaR1Y4YkKs2jqsuaRLzxZj8nbaIfDxvuedounOgK7M5uIV6NjqQFy_32qMMiaQPSpy7Ln-K7ISpEq3QFJnCHX-F1PIvGJ_KRAiEUkZFCAcNbXl1Cu8dXTDdGV8ISUKdIBu5aTsAOvTf82zMoKD2JGcsIiJ4nFm8sfAVMRZfAnbyEXCkxQd2v6TqzPRkPoDoQIJBIIpZZ-MZQBQvIeDd3DlL6rbjdqCspPGhgErooFw_YCkhSk5MhCCpKrgyJC7Z6JrDjgSUs_1MFmPeoIHBdL-RKXheR42BGef4U2N4_Y6M3flfgH6J6KTDJnh2FgTPEzaj5igIdpiF8pU2QbOQLbaylD3Xk5PSaD9DwS_CsH_050GA3upI8KxaTxB-5ZsL3M7TnGSF1JF7oIqqi0XVoyPDX9dH0dJN7M4wyFHBC3edCYZYu6hPveNS2WrOdsJtCMLfHQVh8ENCefWFvPTz1w1zFJqX_ydh-33i4NGtzavELl7Cp4itxtK1mrC5eE4qTjGBFYzBdgiehC_CTwP2Hk_jN2PJ8w6ElVXi-vNpKGqkjTh074pmTY_pJsRsITc8H-hz4_RqBKxOhNFH2x7JGsYMpYk2dT6Xosv2exQ3MZtpeIHSzdLU8wF-1gmSa6EglSamA7JSHrSBmBW-UTGRiP7RJ5xxWBj_PGx7gdTS7hWEfCX7igfZPrANBYeWbUpNLpwOoF4HkqMo2wxyMRhkIcQkYZA4I_DCJ-2NAl5Eu2TcNAEFe9A2NUzAw8yT2T91U7mRsbwXPWQU7XtFhzXUyGZtRqh2rr9YFdqmfsyNutMVxbwr_rv51BiouwR_JFFa3quXGTwI5Mc08ly0JHitVYg8dOjn7rtOnl9HAe6AQZJOwR_lc56GWZMJ1r47jn_2V-DpbKUTr9ud7oLbhfTr-DXkLV?></g></svg>