<svg xmlns="http://www.w3.org/2000/svg" xmlns:xlink="http://www.w3.org/1999/xlink" contentStyleType="text/css" data-diagram-type="STATE" height="1664.0625px" preserveAspectRatio="none" style="width:4068px;height:1664px;background:#FFFFFF;" version="1.1" viewBox="0 0 4068 1664" width="4068.75px" zoomAndPan="magnify"><?plantuml 1.2026.6?><defs/><g><g class="title" data-source-line="2"><text fill="#111827" font-family="'Malgun Gothic'" font-size="21.875" font-weight="700" lengthAdjust="spacing" textLength="512.001" x="1773.0736" y="39.4333">AS-IS 04 &#183; &#46041;&#44592;&#54868; &#49345;&#53468; &#47672;&#49888;: &#54788;&#51116; &#44221;&#47196;&#50752; &#45572;&#46973; &#51204;&#51060;</text></g><g class="entity" data-qualified-name="UNCONFIGURED" data-source-line="6" id="ent0001"><rect fill="#F8FAFC" height="78.125" rx="6.25" ry="6.25" style="stroke:#475569;stroke-width:0.7813;" width="198.7732" x="3846.875" y="247.2862"/><line style="stroke:#475569;stroke-width:0.7813;" x1="3846.875" x2="4045.6482" y1="292.0067" y2="292.0067"/><text fill="#111827" font-family="'Malgun Gothic'" font-size="21.875" lengthAdjust="spacing" textLength="167.5232" x="3862.5" y="278.907">UNCONFIGURED</text></g><g class="entity" data-qualified-name="STARTUP" data-source-line="7" id="ent0002"><rect fill="#F8FAFC" height="78.125" rx="6.25" ry="6.25" style="stroke:#475569;stroke-width:0.7813;" width="122.0718" x="225" y="711.3487"/><line style="stroke:#475569;stroke-width:0.7813;" x1="225" x2="347.0718" y1="756.0692" y2="756.0692"/><text fill="#111827" font-family="'Malgun Gothic'" font-size="21.875" lengthAdjust="spacing" textLength="90.8218" x="240.625" y="742.9695">STARTUP</text></g><g class="entity" data-qualified-name="EMPTY_REMOTE" data-source-line="8" id="ent0003"><rect fill="#F8FAFC" height="78.125" rx="6.25" ry="6.25" style="stroke:#475569;stroke-width:0.7813;" width="193.0374" x="695.3125" y="711.3487"/><line style="stroke:#475569;stroke-width:0.7813;" x1="695.3125" x2="888.3499" y1="756.0692" y2="756.0692"/><text fill="#111827" font-family="'Malgun Gothic'" font-size="21.875" lengthAdjust="spacing" textLength="161.7874" x="710.9375" y="742.9695">EMPTY_REMOTE</text></g><g class="entity" data-qualified-name="SYNCED" data-source-line="9" id="ent0004"><rect fill="#F8FAFC" height="78.125" rx="6.25" ry="6.25" style="stroke:#475569;stroke-width:0.7813;" width="113.0783" x="3328.125" y="1119.1612"/><line style="stroke:#475569;stroke-width:0.7813;" x1="3328.125" x2="3441.2033" y1="1163.8817" y2="1163.8817"/><text fill="#111827" font-family="'Malgun Gothic'" font-size="21.875" lengthAdjust="spacing" textLength="81.8283" x="3343.75" y="1150.782">SYNCED</text></g><g class="entity" data-qualified-name="DIRTY" data-source-line="10" id="ent0005"><rect fill="#F8FAFC" height="78.125" rx="6.25" ry="6.25" style="stroke:#475569;stroke-width:0.7813;" width="90.1886" x="3571.875" y="339.4737"/><line style="stroke:#475569;stroke-width:0.7813;" x1="3571.875" x2="3662.0636" y1="384.1942" y2="384.1942"/><text fill="#111827" font-family="'Malgun Gothic'" font-size="21.875" lengthAdjust="spacing" textLength="58.9386" x="3587.5" y="371.0945">DIRTY</text></g><g class="entity" data-qualified-name="QUEUED" data-source-line="11" id="ent0006"><rect fill="#F8FAFC" height="78.125" rx="6.25" ry="6.25" style="stroke:#475569;stroke-width:0.7813;" width="117.2226" x="1521.0938" y="933.2237"/><line style="stroke:#475569;stroke-width:0.7813;" x1="1521.0938" x2="1638.3163" y1="977.9442" y2="977.9442"/><text fill="#111827" font-family="'Malgun Gothic'" font-size="21.875" lengthAdjust="spacing" textLength="85.9726" x="1536.7188" y="964.8445">QUEUED</text></g><g class="entity" data-qualified-name="SENDING" data-source-line="12" id="ent0007"><rect fill="#F8FAFC" height="78.125" rx="6.25" ry="6.25" style="stroke:#475569;stroke-width:0.7813;" width="124.8596" x="2175" y="872.2862"/><line style="stroke:#475569;stroke-width:0.7813;" x1="2175" x2="2299.8596" y1="917.0067" y2="917.0067"/><text fill="#111827" font-family="'Malgun Gothic'" font-size="21.875" lengthAdjust="spacing" textLength="93.6096" x="2190.625" y="903.907">SENDING</text></g><g class="entity" data-qualified-name="OFFLINE" data-source-line="13" id="ent0008"><rect fill="#F8FAFC" height="78.125" rx="6.25" ry="6.25" style="stroke:#475569;stroke-width:0.7813;" width="114.4348" x="2775.7813" y="933.2237"/><line style="stroke:#475569;stroke-width:0.7813;" x1="2775.7813" x2="2890.2161" y1="977.9442" y2="977.9442"/><text fill="#111827" font-family="'Malgun Gothic'" font-size="21.875" lengthAdjust="spacing" textLength="83.1848" x="2791.4063" y="964.8445">OFFLINE</text></g><g class="entity" data-qualified-name="FAILED" data-source-line="14" id="ent0009"><rect fill="#F8FAFC" height="78.125" rx="6.25" ry="6.25" style="stroke:#475569;stroke-width:0.7813;" width="99.9619" x="2782.8125" y="759.7862"/><line style="stroke:#475569;stroke-width:0.7813;" x1="2782.8125" x2="2882.7744" y1="804.5067" y2="804.5067"/><text fill="#111827" font-family="'Malgun Gothic'" font-size="21.875" lengthAdjust="spacing" textLength="68.7119" x="2798.4375" y="791.407">FAILED</text></g><g class="entity" data-qualified-name="BLOCKED" data-source-line="15" id="ent0010"><rect fill="#F8FAFC" height="78.125" rx="6.25" ry="6.25" style="stroke:#475569;stroke-width:0.7813;" width="125.2335" x="2770.3125" y="626.9737"/><line style="stroke:#475569;stroke-width:0.7813;" x1="2770.3125" x2="2895.546" y1="671.6942" y2="671.6942"/><text fill="#111827" font-family="'Malgun Gothic'" font-size="21.875" lengthAdjust="spacing" textLength="93.9835" x="2785.9375" y="658.5945">BLOCKED</text></g><g class="entity" data-qualified-name="CONFLICT" data-source-line="16" id="ent0011"><rect fill="#F8FAFC" height="78.125" rx="6.25" ry="6.25" style="stroke:#475569;stroke-width:0.7813;" width="131.6635" x="2767.1875" y="1234.7862"/><line style="stroke:#475569;stroke-width:0.7813;" x1="2767.1875" x2="2898.851" y1="1279.5067" y2="1279.5067"/><text fill="#111827" font-family="'Malgun Gothic'" font-size="21.875" lengthAdjust="spacing" textLength="100.4135" x="2782.8125" y="1266.407">CONFLICT</text></g><g class="entity" data-qualified-name="RESTORE_PENDING" data-source-line="17" id="ent0012"><rect fill="#F8FAFC" height="78.125" rx="6.25" ry="6.25" style="stroke:#475569;stroke-width:0.7813;" width="224.5575" x="1467.1875" y="353.5362"/><line style="stroke:#475569;stroke-width:0.7813;" x1="1467.1875" x2="1691.745" y1="398.2567" y2="398.2567"/><text fill="#111827" font-family="'Malgun Gothic'" font-size="21.875" lengthAdjust="spacing" textLength="193.3075" x="1482.8125" y="385.157">RESTORE_PENDING</text></g><g class="start_entity" data-qualified-name=".start." data-source-line="19" id="ent0013"><ellipse cx="25" cy="425.4112" fill="#222222" rx="15.625" ry="15.625" style="stroke:#222222;stroke-width:1.5625;"/></g><g class="entity" data-qualified-name="GMN42" data-source-line="52" id="ent0043"><path d="M609.375,851.1925 L609.375,908.3519 A6.25,6.25 0 0 0 615.625,914.6019 L969.1994,914.6019 A6.25,6.25 0 0 0 975.4494,908.3519 L975.4494,860.5675 L959.8244,844.9425 L615.625,844.9425 A6.25,6.25 0 0 0 609.375,851.1925" fill="#FFF8DC" style="stroke:#8B7355;stroke-width:0.7813;"/><path d="M959.8244,844.9425 L959.8244,857.4425 A3.125,3.125 0 0 0 962.9494,860.5675 L975.4494,860.5675 L959.8244,844.9425" fill="#FFF8DC" style="stroke:#8B7355;stroke-width:1.5625;"/><text fill="#111827" font-family="'Malgun Gothic'" font-size="20.3125" lengthAdjust="spacing" textLength="286.3884" x="618.75" y="874.8627">EMPTY_REMOTE&#45716; &#54364;&#49884;&#47564; &#54616;&#44256;</text><text fill="#111827" font-family="'Malgun Gothic'" font-size="20.3125" lengthAdjust="spacing" textLength="333.2619" x="618.75" y="901.8799">&#49892;&#51228; commit timer&#47484; &#47564;&#46308;&#51648; &#50506;&#45716;&#45796;.</text></g><g class="entity" data-qualified-name="GMN45" data-source-line="57" id="ent0046"><path d="M2620.3125,1374.63 L2620.3125,1404.7722 A6.25,6.25 0 0 0 2626.5625,1411.0222 L3039.4775,1411.0222 A6.25,6.25 0 0 0 3045.7275,1404.7722 L3045.7275,1384.005 L3030.1025,1368.38 L2626.5625,1368.38 A6.25,6.25 0 0 0 2620.3125,1374.63" fill="#FFF8DC" style="stroke:#8B7355;stroke-width:0.7813;"/><path d="M3030.1025,1368.38 L3030.1025,1380.88 A3.125,3.125 0 0 0 3033.2275,1384.005 L3045.7275,1384.005 L3030.1025,1368.38" fill="#FFF8DC" style="stroke:#8B7355;stroke-width:1.5625;"/><text fill="#111827" font-family="'Malgun Gothic'" font-size="20.3125" lengthAdjust="spacing" textLength="392.6025" x="2629.6875" y="1398.3002">&#49324;&#50857;&#51088; &#49440;&#53469; &#44032;&#45733;&#54620; &#52649;&#46028; &#54644;&#44208; &#51204;&#51060;&#44032; &#50630;&#45796;.</text></g><g class="entity" data-qualified-name="GMN48" data-source-line="61" id="ent0049"><path d="M1314.0625,493.38 L1314.0625,523.5222 A6.25,6.25 0 0 0 1320.3125,529.7722 L1839.0945,529.7722 A6.25,6.25 0 0 0 1845.3445,523.5222 L1845.3445,502.755 L1829.7195,487.13 L1320.3125,487.13 A6.25,6.25 0 0 0 1314.0625,493.38" fill="#FFF8DC" style="stroke:#8B7355;stroke-width:0.7813;"/><path d="M1829.7195,487.13 L1829.7195,499.63 A3.125,3.125 0 0 0 1832.8445,502.755 L1845.3445,502.755 L1829.7195,487.13" fill="#FFF8DC" style="stroke:#8B7355;stroke-width:1.5625;"/><text fill="#111827" font-family="'Malgun Gothic'" font-size="20.3125" lengthAdjust="spacing" textLength="498.4695" x="1323.4375" y="517.0502">iframe ACK &#51333;&#49549;&#51060;&#47728; checkpoint rollback &#51204;&#51060;&#44032; &#50630;&#45796;.</text></g><!--link *start* to STARTUP--><g class="link" data-entity-1="ent0013" data-entity-2="ent0002" data-link-type="dependency" data-source-line="19" id="lnk14"><path d="M35.7344,436.9737 C70.4531,480.7393 189.8792,631.2905 248.5042,705.1968" fill="none" id="*start*-to-STARTUP" style="stroke:#4B5563;stroke-width:1.5625;"/><polygon fill="#4B5563" points="253.3594,711.3175,249.5167,696.4161,248.5042,705.1968,239.7236,704.1844,253.3594,711.3175" style="stroke:#4B5563;stroke-width:1.5625;stroke-linejoin:miter;stroke-miterlimit:10;"/><text fill="#111827" font-family="'Malgun Gothic'" font-size="20.3125" lengthAdjust="spacing" textLength="88.3911" x="89.0625" y="497.5189">&#49444;&#51221; &#51080;&#51020;</text></g><!--link *start* to UNCONFIGURED--><g class="link" data-entity-1="ent0013" data-entity-2="ent0001" data-link-type="dependency" data-source-line="20" id="lnk15"><path d="M35.7344,413.8956 C81.6719,356.2862 284.375,101.9737 284.375,101.9737 C284.375,101.9737 284.375,101.9737 3618.75,101.9737 C3618.75,101.9737 3773.0135,189.2817 3868.6385,243.4067" fill="none" id="*start*-to-UNCONFIGURED" style="stroke:#4B5563;stroke-width:1.5625;"/><polygon fill="#4B5563" points="3875.4375,247.255,3866.278,234.8889,3868.6385,243.4067,3860.1207,245.7672,3875.4375,247.255" style="stroke:#4B5563;stroke-width:1.5625;stroke-linejoin:miter;stroke-miterlimit:10;"/><text fill="#111827" font-family="'Malgun Gothic'" font-size="20.3125" lengthAdjust="spacing" textLength="88.3911" x="2193.75" y="95.9564">&#49444;&#51221; &#50630;&#51020;</text></g><!--link STARTUP to RESTORE_PENDING--><g class="link" data-entity-1="ent0002" data-entity-2="ent0012" data-link-type="dependency" data-source-line="22" id="lnk16"><path d="M313.2188,711.0675 C344.6719,662.9893 393.75,587.9112 393.75,587.9112 C393.75,587.9112 1164.1666,460.87 1458.9948,412.245" fill="none" id="STARTUP-to-RESTORE_PENDING" style="stroke:#4B5563;stroke-width:1.5625;"/><polygon fill="#4B5563" points="1466.7031,410.9737,1451.811,407.0954,1458.9948,412.245,1453.8451,419.4288,1466.7031,410.9737" style="stroke:#4B5563;stroke-width:1.5625;stroke-linejoin:miter;stroke-miterlimit:10;"/><text fill="#111827" font-family="'Malgun Gothic'" font-size="20.3125" lengthAdjust="spacing" textLength="139.4798" x="722.6563" y="486.5814">restorePending</text></g><!--link STARTUP to SYNCED--><g class="link" data-entity-1="ent0002" data-entity-2="ent0004" data-link-type="dependency" data-source-line="23" id="lnk17"><path d="M298.6719,790.1612 C325.9531,887.2393 393.75,1128.5362 393.75,1128.5362 C393.75,1128.5362 609.375,1369.1612 609.375,1369.1612 C609.375,1369.1612 790.625,1494.1612 790.625,1494.1612 C790.625,1494.1612 790.625,1494.1612 2834.375,1494.1612 C2834.375,1494.1612 3045.3125,1437.9112 3045.3125,1437.9112 C3045.3125,1437.9112 3236.1252,1279.7868 3329.1564,1202.693" fill="none" id="STARTUP-to-SYNCED" style="stroke:#4B5563;stroke-width:1.5625;"/><polygon fill="#4B5563" points="3335.1719,1197.7081,3320.3561,1201.8686,3329.1564,1202.693,3328.332,1211.4933,3335.1719,1197.7081" style="stroke:#4B5563;stroke-width:1.5625;stroke-linejoin:miter;stroke-miterlimit:10;"/><text fill="#111827" font-family="'Malgun Gothic'" font-size="20.3125" lengthAdjust="spacing" textLength="90.6326" x="1949.2188" y="1488.1439">hash &#51068;&#52824;</text></g><!--link STARTUP to QUEUED--><g class="link" data-entity-1="ent0002" data-entity-2="ent0006" data-link-type="dependency" data-source-line="24" id="lnk18"><path d="M344.2969,789.5675 C436.7031,853.2706 609.375,972.2862 609.375,972.2862 C609.375,972.2862 1304.0625,972.2862 1512.6094,972.2862" fill="none" id="STARTUP-to-QUEUED" style="stroke:#4B5563;stroke-width:1.5625;"/><polygon fill="#4B5563" points="1520.4219,972.2862,1506.3594,966.0362,1512.6094,972.2862,1506.3594,978.5362,1520.4219,972.2862" style="stroke:#4B5563;stroke-width:1.5625;stroke-linejoin:miter;stroke-miterlimit:10;"/><text fill="#111827" font-family="'Malgun Gothic'" font-size="20.3125" lengthAdjust="spacing" textLength="186.0458" x="699.2188" y="966.2689">dirty &#183; same revision</text></g><!--link STARTUP to CONFLICT--><g class="link" data-entity-1="ent0002" data-entity-2="ent0011" data-link-type="dependency" data-source-line="25" id="lnk19"><path d="M308.4844,789.9268 C339.4531,848.2081 393.75,950.4112 393.75,950.4112 C393.75,950.4112 790.625,1356.6612 790.625,1356.6612 C790.625,1356.6612 790.625,1356.6612 2239.0625,1356.6612 C2239.0625,1356.6612 2605.5284,1305.4153 2759.0128,1283.9466" fill="none" id="STARTUP-to-CONFLICT" style="stroke:#4B5563;stroke-width:1.5625;"/><polygon fill="#4B5563" points="2766.75,1282.8643,2751.9573,1278.6226,2759.0128,1283.9466,2753.6889,1291.0021,2766.75,1282.8643" style="stroke:#4B5563;stroke-width:1.5625;stroke-linejoin:miter;stroke-miterlimit:10;"/><text fill="#111827" font-family="'Malgun Gothic'" font-size="20.3125" lengthAdjust="spacing" textLength="110.9451" x="1524.2188" y="1350.6439">hash &#48520;&#51068;&#52824;</text></g><!--link STARTUP to EMPTY_REMOTE--><g class="link" data-entity-1="ent0002" data-entity-2="ent0003" data-link-type="dependency" data-source-line="26" id="lnk20"><path d="M347.1875,750.4112 C433.0938,750.4112 584.6563,750.4112 687.1094,750.4112" fill="none" id="STARTUP-to-EMPTY_REMOTE" style="stroke:#4B5563;stroke-width:1.5625;"/><polygon fill="#4B5563" points="694.9219,750.4112,680.8594,744.1612,687.1094,750.4112,680.8594,756.6612,694.9219,750.4112" style="stroke:#4B5563;stroke-width:1.5625;stroke-linejoin:miter;stroke-miterlimit:10;"/><text fill="#111827" font-family="'Malgun Gothic'" font-size="20.3125" lengthAdjust="spacing" textLength="166.2888" x="395.3125" y="744.3939">remote head &#50630;&#51020;</text></g><!--link STARTUP to FAILED--><g class="link" data-entity-1="ent0002" data-entity-2="ent0009" data-link-type="dependency" data-source-line="27" id="lnk21"><path d="M347.4531,726.5987 C371.5625,717.0362 393.75,708.2237 393.75,708.2237 C393.75,708.2237 790.625,628.5362 790.625,628.5362 C790.625,628.5362 790.625,628.5362 1996.0938,628.5362 C1996.0938,628.5362 2573.4375,683.2237 2573.4375,683.2237 C2573.4375,683.2237 2620.3125,733.2237 2620.3125,733.2237 C2620.3125,733.2237 2712.556,761.918 2774.8685,781.3086" fill="none" id="STARTUP-to-FAILED" style="stroke:#4B5563;stroke-width:1.5625;"/><polygon fill="#4B5563" points="2782.3281,783.63,2770.7578,773.4839,2774.8685,781.3086,2767.0437,785.4193,2782.3281,783.63" style="stroke:#4B5563;stroke-width:1.5625;stroke-linejoin:miter;stroke-miterlimit:10;"/><text fill="#111827" font-family="'Malgun Gothic'" font-size="20.3125" lengthAdjust="spacing" textLength="84.642" x="1537.5" y="622.5189">RPC &#50724;&#47448;</text></g><!--link UNCONFIGURED to DIRTY--><g class="link" data-entity-1="ent0001" data-entity-2="ent0005" data-link-type="dependency" data-source-line="29" id="lnk22"><path d="M3846.8438,311.6612 C3782.2344,328.4112 3709.375,347.2862 3709.375,347.2862 C3709.375,347.2862 3693.3866,352.8046 3670.3866,360.7264" fill="none" id="UNCONFIGURED-to-DIRTY" style="stroke:#4B5563;stroke-width:1.5625;"/><polygon fill="#4B5563" points="3663,363.2706,3678.3313,364.6004,3670.3866,360.7264,3674.2606,352.7818,3663,363.2706" style="stroke:#4B5563;stroke-width:1.5625;stroke-linejoin:miter;stroke-miterlimit:10;"/><text fill="#111827" font-family="'Malgun Gothic'" font-size="20.3125" lengthAdjust="spacing" textLength="35.1006" x="3737.5" y="319.3939">edit</text></g><!--link DIRTY to UNCONFIGURED--><g class="link" data-entity-1="ent0005" data-entity-2="ent0001" data-link-type="dependency" data-source-line="32" id="lnk25"><path d="M3663,383.88 C3686,386.6456 3709.375,389.4737 3709.375,389.4737 C3709.375,389.4737 3800,389.4737 3800,389.4737 C3800,389.4737 3842.2809,359.3081 3883.1246,330.1674" fill="none" id="DIRTY-to-UNCONFIGURED" style="stroke:#4B5563;stroke-width:1.5625;"/><polygon fill="#4B5563" points="3889.4844,325.63,3874.4068,328.7096,3883.1246,330.1674,3881.6668,338.8852,3889.4844,325.63" style="stroke:#4B5563;stroke-width:1.5625;stroke-linejoin:miter;stroke-miterlimit:10;"/><text fill="#111827" font-family="'Malgun Gothic'" font-size="20.3125" lengthAdjust="spacing" textLength="88.3911" x="3710.9375" y="383.4564">&#49444;&#51221; &#50630;&#51020;</text></g><!--link SYNCED to DIRTY--><g class="link" data-entity-1="ent0004" data-entity-2="ent0005" data-link-type="dependency" data-source-line="30" id="lnk23"><path d="M3397.4844,1119.0206 C3436.7344,985.7706 3562.5582,558.671 3601.8395,425.3116" fill="none" id="SYNCED-to-DIRTY" style="stroke:#4B5563;stroke-width:1.5625;"/><polygon fill="#4B5563" points="3604.0469,417.8175,3594.0782,429.541,3601.8395,425.3116,3606.0688,433.0729,3604.0469,417.8175" style="stroke:#4B5563;stroke-width:1.5625;stroke-linejoin:miter;stroke-miterlimit:10;"/><text fill="#111827" font-family="'Malgun Gothic'" font-size="20.3125" lengthAdjust="spacing" textLength="35.1006" x="3489.0625" y="691.2689">edit</text></g><!--link DIRTY to QUEUED--><g class="link" data-entity-1="ent0005" data-entity-2="ent0006" data-link-type="dependency" data-source-line="31" id="lnk24"><path d="M3571.3438,405.3487 C3504.5938,445.755 3385.9375,517.5987 3385.9375,517.5987 C2474.2188,517.5987 2474.2188,517.5987 2474.2188,517.5987 C2474.2188,517.5987 1842.5246,839.2573 1645.4309,939.6011" fill="none" id="DIRTY-to-QUEUED" style="stroke:#4B5563;stroke-width:1.5625;"/><polygon fill="#4B5563" points="1638.4687,943.1456,1653.8362,942.3351,1645.4309,939.6011,1648.165,931.1957,1638.4687,943.1456" style="stroke:#4B5563;stroke-width:1.5625;stroke-linejoin:miter;stroke-miterlimit:10;"/><text fill="#111827" font-family="'Malgun Gothic'" font-size="20.3125" lengthAdjust="spacing" textLength="91.4261" x="2787.5" y="511.5814">debounce</text></g><!--link QUEUED to SENDING--><g class="link" data-entity-1="ent0006" data-entity-2="ent0007" data-link-type="dependency" data-source-line="33" id="lnk26"><path d="M1639,976.0518 C1728.9219,981.9268 1892.1875,992.5987 1892.1875,992.5987 C1892.1875,992.5987 2096.875,992.5987 2096.875,992.5987 C2096.875,992.5987 2130.8326,972.7587 2168.192,950.9306" fill="none" id="QUEUED-to-SENDING" style="stroke:#4B5563;stroke-width:1.5625;"/><polygon fill="#4B5563" points="2174.9375,946.9893,2159.6426,948.6872,2168.192,950.9306,2165.9486,959.48,2174.9375,946.9893" style="stroke:#4B5563;stroke-width:1.5625;stroke-linejoin:miter;stroke-miterlimit:10;"/><text fill="#111827" font-family="'Malgun Gothic'" font-size="20.3125" lengthAdjust="spacing" textLength="155.0415" x="1917.1875" y="986.5814">timer &#183; &#51648;&#44552; &#51200;&#51109;</text></g><!--link SENDING to QUEUED--><g class="link" data-entity-1="ent0007" data-entity-2="ent0006" data-link-type="dependency" data-source-line="39" id="lnk32"><path d="M2174.9844,917.0206 C2049.0625,928.7393 1769.4977,954.7656 1646.5602,966.2031" fill="none" id="SENDING-to-QUEUED" style="stroke:#4B5563;stroke-width:1.5625;"/><polygon fill="#4B5563" points="1638.7813,966.9268,1653.3623,971.8473,1646.5602,966.2031,1652.2043,959.401,1638.7813,966.9268" style="stroke:#4B5563;stroke-width:1.5625;stroke-linejoin:miter;stroke-miterlimit:10;"/><text fill="#111827" font-family="'Malgun Gothic'" font-size="20.3125" lengthAdjust="spacing" textLength="202.0439" x="1893.75" y="917.8314">&#51204;&#49569; &#51473; &#49352; generation</text></g><!--link SENDING to SYNCED--><g class="link" data-entity-1="ent0007" data-entity-2="ent0004" data-link-type="dependency" data-source-line="34" id="lnk27"><path d="M2277.7969,950.5206 C2318.9531,992.13 2378.125,1051.9737 2378.125,1051.9737 C2378.125,1051.9737 3110.6527,1129.449 3320.3089,1151.6209" fill="none" id="SENDING-to-SYNCED" style="stroke:#4B5563;stroke-width:1.5625;"/><polygon fill="#4B5563" points="3328.0781,1152.4425,3314.7509,1144.7482,3320.3089,1151.6209,3313.4363,1157.1789,3328.0781,1152.4425" style="stroke:#4B5563;stroke-width:1.5625;stroke-linejoin:miter;stroke-miterlimit:10;"/><text fill="#111827" font-family="'Malgun Gothic'" font-size="20.3125" lengthAdjust="spacing" textLength="147.4144" x="2759.375" y="1070.9564">commit + verify</text></g><!--link SENDING to OFFLINE--><g class="link" data-entity-1="ent0007" data-entity-2="ent0008" data-link-type="dependency" data-source-line="35" id="lnk28"><path d="M2281.5469,950.4893 C2322.4375,988.1612 2378.125,1039.4737 2378.125,1039.4737 C2378.125,1039.4737 2573.4375,1039.4737 2573.4375,1039.4737 C2573.4375,1039.4737 2691.9245,1008.6006 2767.7526,988.8349" fill="none" id="SENDING-to-OFFLINE" style="stroke:#4B5563;stroke-width:1.5625;"/><polygon fill="#4B5563" points="2775.3125,986.8643,2760.1282,984.3635,2767.7526,988.8349,2763.2812,996.4593,2775.3125,986.8643" style="stroke:#4B5563;stroke-width:1.5625;stroke-linejoin:miter;stroke-miterlimit:10;"/><text fill="#111827" font-family="'Malgun Gothic'" font-size="20.3125" lengthAdjust="spacing" textLength="121.9643" x="2414.8438" y="1033.4564">network &#49892;&#54056;</text></g><!--link OFFLINE to SENDING--><g class="link" data-entity-1="ent0008" data-entity-2="ent0007" data-link-type="dependency" data-source-line="40" id="lnk33"><path d="M2775.6875,969.2237 C2654.6875,962.5518 2378.125,947.2862 2378.125,947.2862 C2378.125,947.2862 2344.9858,938.7256 2307.6264,929.0694" fill="none" id="OFFLINE-to-SENDING" style="stroke:#4B5563;stroke-width:1.5625;"/><polygon fill="#4B5563" points="2300.0625,927.1143,2312.1135,936.6846,2307.6264,929.0694,2315.2416,924.5823,2300.0625,927.1143" style="stroke:#4B5563;stroke-width:1.5625;stroke-linejoin:miter;stroke-miterlimit:10;"/><text fill="#111827" font-family="'Malgun Gothic'" font-size="20.3125" lengthAdjust="spacing" textLength="56.5239" x="2447.6563" y="941.2689">online</text></g><!--link SENDING to FAILED--><g class="link" data-entity-1="ent0007" data-entity-2="ent0009" data-link-type="dependency" data-source-line="36" id="lnk29"><path d="M2298.0313,872.255 C2335.9375,847.13 2378.125,819.1612 2378.125,819.1612 C2378.125,819.1612 2658.0547,806.6045 2774.9453,801.3701" fill="none" id="SENDING-to-FAILED" style="stroke:#4B5563;stroke-width:1.5625;"/><polygon fill="#4B5563" points="2782.75,801.0206,2768.422,795.4059,2774.9453,801.3701,2768.9812,807.8934,2782.75,801.0206" style="stroke:#4B5563;stroke-width:1.5625;stroke-linejoin:miter;stroke-miterlimit:10;"/><text fill="#111827" font-family="'Malgun Gothic'" font-size="20.3125" lengthAdjust="spacing" textLength="163.8687" x="2394.5313" y="803.7689">HTTP &#183; verify &#49892;&#54056;</text></g><!--link FAILED to SENDING--><g class="link" data-entity-1="ent0009" data-entity-2="ent0007" data-link-type="dependency" data-source-line="41" id="lnk34"><path d="M2782.75,810.5987 C2708.0781,828.7081 2573.4375,861.3487 2573.4375,861.3487 C2573.4375,861.3487 2404.6484,886.5837 2308.1172,901.0212" fill="none" id="FAILED-to-SENDING" style="stroke:#4B5563;stroke-width:1.5625;"/><polygon fill="#4B5563" points="2300.3906,902.1768,2315.2229,906.278,2308.1172,901.0212,2313.3739,893.9155,2300.3906,902.1768" style="stroke:#4B5563;stroke-width:1.5625;stroke-linejoin:miter;stroke-miterlimit:10;"/><text fill="#111827" font-family="'Malgun Gothic'" font-size="20.3125" lengthAdjust="spacing" textLength="129.2839" x="2411.7188" y="855.3314">transient retry</text></g><!--link SENDING to BLOCKED--><g class="link" data-entity-1="ent0007" data-entity-2="ent0010" data-link-type="dependency" data-source-line="37" id="lnk30"><path d="M2277.0625,872.0675 C2318.2344,829.505 2378.125,767.5987 2378.125,767.5987 C2378.125,767.5987 2638.8297,709.1665 2762.5172,681.4478" fill="none" id="SENDING-to-BLOCKED" style="stroke:#4B5563;stroke-width:1.5625;"/><polygon fill="#4B5563" points="2770.1406,679.7393,2755.0517,676.7158,2762.5172,681.4478,2757.7852,688.9133,2770.1406,679.7393" style="stroke:#4B5563;stroke-width:1.5625;stroke-linejoin:miter;stroke-miterlimit:10;"/><text fill="#111827" font-family="'Malgun Gothic'" font-size="20.3125" lengthAdjust="spacing" textLength="193.2861" x="2379.6875" y="719.3939">client validation &#49892;&#54056;</text></g><!--link SENDING to CONFLICT--><g class="link" data-entity-1="ent0007" data-entity-2="ent0011" data-link-type="dependency" data-source-line="38" id="lnk31"><path d="M2258.4063,950.8956 C2296.6094,1029.0206 2378.125,1195.7237 2378.125,1195.7237 C2378.125,1195.7237 2634.0041,1239.8499 2759.1135,1261.4124" fill="none" id="SENDING-to-CONFLICT" style="stroke:#4B5563;stroke-width:1.5625;"/><polygon fill="#4B5563" points="2766.8125,1262.7393,2754.0158,1254.1917,2759.1135,1261.4124,2751.8928,1266.5101,2766.8125,1262.7393" style="stroke:#4B5563;stroke-width:1.5625;stroke-linejoin:miter;stroke-miterlimit:10;"/><text fill="#111827" font-family="'Malgun Gothic'" font-size="20.3125" lengthAdjust="spacing" textLength="118.4235" x="2417.1875" y="1189.7064">revision &#52649;&#46028;</text></g><!--link RESTORE_PENDING to SENDING--><g class="link" data-entity-1="ent0012" data-entity-2="ent0007" data-link-type="dependency" data-source-line="42" id="lnk35"><path d="M1692.4688,420.8956 C1764.6406,439.255 1845.3125,459.7862 1845.3125,459.7862 C1845.3125,459.7862 2101.8108,756.2995 2196.842,866.1589" fill="none" id="RESTORE_PENDING-to-SENDING" style="stroke:#4B5563;stroke-width:1.5625;"/><polygon fill="#4B5563" points="2201.9531,872.0675,2197.48,857.3431,2196.842,866.1589,2188.0262,865.5209,2201.9531,872.0675" style="stroke:#4B5563;stroke-width:1.5625;stroke-linejoin:miter;stroke-miterlimit:10;"/><text fill="#111827" font-family="'Malgun Gothic'" font-size="20.3125" lengthAdjust="spacing" textLength="88.3911" x="1950.7813" y="508.4564">&#51648;&#44552; &#51200;&#51109;</text></g><!--link RESTORE_PENDING to DIRTY--><g class="link" data-entity-1="ent0012" data-entity-2="ent0005" data-link-type="dependency" data-source-line="43" id="lnk36"><path d="M1692.3125,390.2081 C1879.0937,386.2081 2235.9375,378.5362 2235.9375,378.5362 C2235.9375,378.5362 2235.9375,378.5362 3385.9375,378.5362 C3385.9375,378.5362 3496.7813,378.5362 3563.5313,378.5362" fill="none" id="RESTORE_PENDING-to-DIRTY" style="stroke:#4B5563;stroke-width:1.5625;"/><polygon fill="#4B5563" points="3571.3438,378.5362,3557.2813,372.2862,3563.5313,378.5362,3557.2813,384.7862,3571.3438,378.5362" style="stroke:#4B5563;stroke-width:1.5625;stroke-linejoin:miter;stroke-miterlimit:10;"/><text fill="#111827" font-family="'Malgun Gothic'" font-size="20.3125" lengthAdjust="spacing" textLength="35.1006" x="2815.625" y="372.5189">edit</text></g><!--link RESTORE_PENDING to DIRTY--><g class="link" data-entity-1="ent0012" data-entity-2="ent0005" data-link-type="dependency" data-source-line="48" id="lnk40"><path d="M1692.3125,366.63 C1879.0937,322.9425 2235.9375,239.4737 2235.9375,239.4737 C2235.9375,239.4737 2235.9375,239.4737 3385.9375,239.4737 C3385.9375,239.4737 3497.9104,307.2718 3564.6604,347.678" fill="none" id="RESTORE_PENDING-to-DIRTY-1" style="stroke:#FF0000;stroke-width:1.5625;stroke-dasharray:10.9375,10.9375;"/><polygon fill="#FF0000" points="3571.3438,351.7237,3562.5502,339.0948,3564.6604,347.678,3556.0771,349.7882,3571.3438,351.7237" style="stroke:#FF0000;stroke-width:1.5625;stroke-linejoin:miter;stroke-miterlimit:10;"/><text fill="#111827" font-family="'Malgun Gothic'" font-size="20.3125" lengthAdjust="spacing" textLength="210.6033" x="2728.125" y="233.4564">&#45572;&#46973; 2 &#183; no-frame &#50756;&#47308;</text></g><!--link EMPTY_REMOTE to QUEUED--><g class="link" data-entity-1="ent0003" data-entity-2="ent0006" data-link-type="dependency" data-source-line="45" id="lnk37"><path d="M889.1406,777.3956 C1053.8906,823.9893 1379.3575,916.0661 1513.0918,953.8942" fill="none" id="EMPTY_REMOTE-to-QUEUED" style="stroke:#FF0000;stroke-width:1.5625;stroke-dasharray:10.9375,10.9375;"/><polygon fill="#FF0000" points="1520.6094,956.0206,1508.7789,946.179,1513.0918,953.8942,1505.3767,958.2071,1520.6094,956.0206" style="stroke:#FF0000;stroke-width:1.5625;stroke-linejoin:miter;stroke-miterlimit:10;"/><text fill="#111827" font-family="'Malgun Gothic'" font-size="20.3125" lengthAdjust="spacing" textLength="243.6211" x="1023.4375" y="808.4564">&#45572;&#46973; 6 &#183; bootstrap commit</text></g><!--link CONFLICT to SYNCED--><g class="link" data-entity-1="ent0011" data-entity-2="ent0004" data-link-type="dependency" data-source-line="46" id="lnk38"><path d="M2898.875,1262.5675 C3022.625,1240.9425 3281.25,1195.7237 3281.25,1195.7237 C3281.25,1195.7237 3296.6091,1190.0562 3320.5466,1181.2124" fill="none" id="CONFLICT-to-SYNCED" style="stroke:#FF0000;stroke-width:1.5625;stroke-dasharray:10.9375,10.9375;"/><polygon fill="#FF0000" points="3327.875,1178.505,3312.518,1177.5157,3320.5466,1181.2124,3316.8499,1189.2411,3327.875,1178.505" style="stroke:#FF0000;stroke-width:1.5625;stroke-linejoin:miter;stroke-miterlimit:10;"/><text fill="#111827" font-family="'Malgun Gothic'" font-size="20.3125" lengthAdjust="spacing" textLength="186.3831" x="3093.75" y="1189.7064">&#45572;&#46973; 5 &#183; &#49436;&#48260;&#48376; &#49688;&#50857;</text></g><!--link CONFLICT to QUEUED--><g class="link" data-entity-1="ent0011" data-entity-2="ent0006" data-link-type="dependency" data-source-line="47" id="lnk39"><path d="M2766.8125,1268.9581 C2641.7031,1259.4737 2378.125,1239.4737 2378.125,1239.4737 C2378.125,1239.4737 1828.6885,1055.2542 1645.9697,993.9886" fill="none" id="CONFLICT-to-QUEUED" style="stroke:#FF0000;stroke-width:1.5625;stroke-dasharray:10.9375,10.9375;"/><polygon fill="#FF0000" points="1638.5625,991.505,1649.9086,1001.9013,1645.9697,993.9886,1653.8824,990.0498,1638.5625,991.505" style="stroke:#FF0000;stroke-width:1.5625;stroke-linejoin:miter;stroke-miterlimit:10;"/><text fill="#111827" font-family="'Malgun Gothic'" font-size="20.3125" lengthAdjust="spacing" textLength="185.9268" x="2145.3125" y="1155.3314">&#45572;&#46973; 5 &#183; &#47196;&#52972; rebase</text></g><!--link QUEUED to QUEUED--><g class="link" data-entity-1="ent0006" data-entity-2="ent0006" data-link-type="dependency" data-source-line="49" id="lnk41"><path d="M1521.0781,943.9737 C1483.2031,913.3331 1502.75,878.5362 1579.6875,878.5362 C1656.625,878.5362 1682.2457,908.4194 1644.3707,939.0601" fill="none" id="QUEUED-to-QUEUED" style="stroke:#FF0000;stroke-width:1.5625;stroke-dasharray:10.9375,10.9375;"/><polygon fill="#FF0000" points="1638.2969,943.9737,1653.1606,939.9882,1644.3707,939.0601,1645.2988,930.2701,1638.2969,943.9737" style="stroke:#FF0000;stroke-width:1.5625;stroke-linejoin:miter;stroke-miterlimit:10;"/><text fill="#111827" font-family="'Malgun Gothic'" font-size="20.3125" lengthAdjust="spacing" textLength="303.2097" x="1428.125" y="864.7064">&#45572;&#46973; 4 &#183; 12 &#183; &#46041;&#51068; operation &#51116;&#44060;</text></g><!--link EMPTY_REMOTE to GMN42--><g class="link" data-entity-1="ent0003" data-entity-2="ent0043" data-link-type="association" data-source-line="52" id="lnk44"><path d="M792.1875,789.6456 C792.1875,792.1143 792.1875,793.6456 792.1875,793.6456 C792.1875,793.6456 792.1875,836.8643 792.1875,836.8643 C792.1875,836.8643 792.1875,840.0987 792.1875,844.8018" fill="none" id="EMPTY_REMOTE-GMN42" style="stroke:#4B5563;stroke-width:1.5625;stroke-dasharray:10.9375,10.9375;"/></g><!--link CONFLICT to GMN45--><g class="link" data-entity-1="ent0011" data-entity-2="ent0046" data-link-type="association" data-source-line="57" id="lnk47"><path d="M2832.8125,1313.3487 C2832.8125,1319.2706 2832.8125,1350.9268 2832.8125,1350.9268 C2832.8125,1350.9268 2832.8125,1359.1143 2832.8125,1367.9425" fill="none" id="CONFLICT-GMN45" style="stroke:#4B5563;stroke-width:1.5625;stroke-dasharray:10.9375,10.9375;"/></g><!--link RESTORE_PENDING to GMN48--><g class="link" data-entity-1="ent0012" data-entity-2="ent0049" data-link-type="association" data-source-line="61" id="lnk50"><path d="M1579.6875,432.0987 C1579.6875,438.0206 1579.6875,469.6768 1579.6875,469.6768 C1579.6875,469.6768 1579.6875,477.8643 1579.6875,486.6925" fill="none" id="RESTORE_PENDING-GMN48" style="stroke:#4B5563;stroke-width:1.5625;stroke-dasharray:10.9375,10.9375;"/></g><g class="legend" data-source-line="64"><rect fill="#F8FAFC" height="73.8159" rx="6.25" ry="6.25" style="stroke:#94A3B8;stroke-width:1.5625;" width="405.22" x="1826.4641" y="1527.4284"/><text fill="#111827" font-family="'Malgun Gothic'" font-size="21.875" lengthAdjust="spacing" textLength="272.5296" x="1834.2766" y="1559.0492">&#44160;&#51221; &#49892;&#49440; = &#54788;&#51116; &#53076;&#46300; &#44221;&#47196;</text><text fill="#111827" font-family="'Malgun Gothic'" font-size="21.875" lengthAdjust="spacing" textLength="389.595" x="1834.2766" y="1588.1447">&#48744;&#44036; &#51216;&#49440; = &#44208;&#54632;&#51004;&#47196; &#54869;&#51064;&#46108; &#45572;&#46973; &#51204;&#51060;</text></g><g class="caption" data-source-line="69"><text fill="#111827" font-family="'Malgun Gothic'" font-size="21.875" lengthAdjust="spacing" textLength="811.2015" x="1623.4734" y="1646.9276">UI &#49345;&#53468; &#47928;&#51088;&#50676;&#51008; &#50668;&#47084; &#54632;&#49688;&#44032; &#51649;&#51217; &#49444;&#51221;&#54616;&#47728; &#50689;&#49549; operation&#50640;&#49436; &#44228;&#49328;&#46104;&#51648; &#50506;&#45716;&#45796;.</text></g><?plantuml-src XLNFJnj75BxFN_6gtjewQgEsXqYjH8r9hH3RDVO1HH5QsmDUiTwrTWSgtqpO8Wke0WeMThMcJci4I3vOW597XKl_7C_uV-YRzUpYDOZSzkryyxttllTZFjFDeh5Heh3Yi9f1drGtAWPXEZCep2t5aalmzRVmtp_0txP7my6uVGHYUskyxG4_7ugzxZCOjrnnqeVHvIr_xubs7NZ3vPrR45rNTAw9GLSPC0jiVQtCeAJRjCXqooJEkcvMDLkhWA6RbDMg5AgMKPC68GxJ68LyAfvEBIIVvxE9UVLhAJUNpUKpoagypEIMLxA9b-bS8W0if-8XUZwPpIshxr_oYVmTJI8rdqmzLrPwOM4ncGeO5kQIYo7mfyLq_4LeoN0Ma_6SChE9fLmwcrZ9A3RowelN48lz64G9pq2uFT5jWZXfYCv-U3wTs1JeU4U2I71R8cTS8DYc3hDicg5cIJVN8k19xeWfQquPHET6V6n501CD481bO3LPLKUhKAJSr1rPasbia6j0npyq7c2She0VNCL2OSfKAmNfJACdqY8kcuc3QFNuQOkGY1WIvLSDGRIaCw9oklT_OaIJeWLhmopIgRD7XLONVUL2UPbUeRPKHfpLHyC6Td5Td9oI012HkMXLAZg3Bs6JslfgBG9IFOKeREvVBNiTn5vll7yU0OLw_9pBPQJJ2T53KDM8qgkXKvF1fcRe9KsEqaFmgUe5rGNnuOA_tO_0GktaiEwy1z4xnF5km1ergUsJao2Hg4oMwG-gIc16Gbip7Jz6cpAxHcPxE8gEwlmGDb9t4kcusAlFRLhwgeGDIaklfnDII-XxgMh1ifY3KLLLnKYephtxOMtL_U_yLd0zVkdogo68HalySV78_Ld__dsv5__jene5pQ7tKvpb2F9L54ybXMd5LcqvgwBjyh_lUlTJ_ltL_SrJjS1nWC6ggihYKkgF1XuXfXpPWiMOLG5hDRfK8MBotICO7tfYp-Dd-p1kjaPNNOHW_uck5uo3Fq7yz0OGmz_riBuWchjubU_rdX1SMo0TtdCRxbRaUzD7bSN90IhV7MztO3IeyztJSTDJFOokhqUN0_N4uAaSwSVfPtSrW3uHT2x-0iHVlucTtv6ANmoWMAR5zQgbo_wr3AEW5TSVTMJGDMbCN27lwBBkBnaKnUt23y7xA6wF-3jFFPC8un_FHmCNcGycCCndt3mNtWqUmxZT59qXF_1c7bDqD757I56h-bNC9yC7kJz4pSJnjUZ8EFlyppv8oaRB3_niItGFrGh4qibKHMiByxvh2N6CmM2CLwvuC-07hMZj_WS0?></g></svg>