<svg xmlns="http://www.w3.org/2000/svg" xmlns:xlink="http://www.w3.org/1999/xlink" contentStyleType="text/css" data-diagram-type="SEQUENCE" height="2239.0625px" preserveAspectRatio="none" style="width:1915px;height:2239px;background:#FFFFFF;" version="1.1" viewBox="0 0 1915 2239" width="1915.625px" zoomAndPan="magnify"><?plantuml 1.2026.6?><defs/><g><g class="title" data-source-line="2"><text fill="#111827" font-family="'Malgun Gothic'" font-size="21.875" font-weight="700" lengthAdjust="spacing" textLength="461.853" x="721.9452" y="47.2458">AS-IS 05 &#8212; UML &#49884;&#53248;&#49828;: &#51221;&#49345; &#51088;&#46041;/&#49688;&#46041; &#51200;&#51109;</text></g><rect fill="none" height="174.2249" rx="6.25" ry="6.25" style="stroke:#64748B;stroke-width:2.3438;" width="965.2046" x="15.625" y="588.3911"/><g class="participant-lifeline" data-entity-uid="part1" data-qualified-name="User" data-source-line="4" id="part1-lifeline"><g><title>User</title><rect fill="#000000" fill-opacity="0.00000" height="1881.8726" width="12.5" x="51.8295" y="192.5659"/><line style="stroke:#64748B;stroke-width:0.7813;stroke-dasharray:7.8125,7.8125;" x1="57.8125" x2="57.8125" y1="192.5659" y2="2074.4385"/></g></g><g class="participant-lifeline" data-entity-uid="part2" data-qualified-name="Editor" data-source-line="5" id="part2-lifeline"><g><title>App . Atlas . Bridge</title><rect fill="#000000" fill-opacity="0.00000" height="1881.8726" width="12.5" x="205.6511" y="192.5659"/><line style="stroke:#64748B;stroke-width:0.7813;stroke-dasharray:7.8125,7.8125;" x1="211.4716" x2="211.4716" y1="192.5659" y2="2074.4385"/></g></g><g class="participant-lifeline" data-entity-uid="part3" data-qualified-name="Base" data-source-line="6" id="part3-lifeline"><g><title>.. .. save</title><rect fill="#000000" fill-opacity="0.00000" height="1881.8726" width="12.5" x="416.629" y="192.5659"/><line style="stroke:#64748B;stroke-width:0.7813;stroke-dasharray:7.8125,7.8125;" x1="421.7056" x2="421.7056" y1="192.5659" y2="2074.4385"/></g></g><g class="participant-lifeline" data-entity-uid="part4" data-qualified-name="Sync" data-source-line="7" id="part4-lifeline"><g><title>Normalized Sync</title><rect fill="#000000" fill-opacity="0.00000" height="1881.8726" width="12.5" x="738.2957" y="192.5659"/><line style="stroke:#64748B;stroke-width:0.7813;stroke-dasharray:7.8125,7.8125;" x1="743.7195" x2="743.7195" y1="192.5659" y2="2074.4385"/></g></g><g class="participant-lifeline" data-entity-uid="part5" data-qualified-name="Flush" data-source-line="8" id="part5-lifeline"><g><title>v17 frame flush</title><rect fill="#000000" fill-opacity="0.00000" height="1881.8726" width="12.5" x="966.7671" y="192.5659"/><line style="stroke:#64748B;stroke-width:0.7813;stroke-dasharray:7.8125,7.8125;" x1="972.4777" x2="972.4777" y1="192.5659" y2="2074.4385"/></g></g><g class="participant-lifeline" data-entity-uid="part6" data-qualified-name="LS" data-source-line="9" id="part6-lifeline"><g><title>localStorage</title><rect fill="#000000" fill-opacity="0.00000" height="1881.8726" width="12.5" x="1202.7802" y="192.5659"/><line style="stroke:#64748B;stroke-width:0.7813;stroke-dasharray:7.8125,7.8125;" x1="1208.9195" x2="1208.9195" y1="192.5659" y2="2074.4385"/></g></g><g class="participant-lifeline" data-entity-uid="part7" data-qualified-name="RPC" data-source-line="10" id="part7-lifeline"><g><title>Supabase RPC</title><rect fill="#000000" fill-opacity="0.00000" height="1881.8726" width="12.5" x="1366.1453" y="192.5659"/><line style="stroke:#64748B;stroke-width:0.7813;stroke-dasharray:7.8125,7.8125;" x1="1371.6408" x2="1371.6408" y1="192.5659" y2="2074.4385"/></g></g><g class="participant-lifeline" data-entity-uid="part8" data-qualified-name="DB" data-source-line="11" id="part8-lifeline"><g><title>PostgreSQL</title><rect fill="#000000" fill-opacity="0.00000" height="1881.8726" width="12.5" x="1669.6419" y="192.5659"/><line style="stroke:#64748B;stroke-width:0.7813;stroke-dasharray:7.8125,7.8125;" x1="1674.8856" x2="1674.8856" y1="192.5659" y2="2074.4385"/></g></g><g class="participant-lifeline" data-entity-uid="part9" data-qualified-name="UI" data-source-line="12" id="part9-lifeline"><g><title>.. .. UI</title><rect fill="#000000" fill-opacity="0.00000" height="1881.8726" width="12.5" x="1820.2271" y="192.5659"/><line style="stroke:#64748B;stroke-width:0.7813;stroke-dasharray:7.8125,7.8125;" x1="1825.3357" x2="1825.3357" y1="192.5659" y2="2074.4385"/></g></g><g class="participant participant-head" data-entity-uid="part1" data-qualified-name="User" data-source-line="4" id="part1-head"><text fill="#111827" font-family="'Malgun Gothic'" font-size="21.875" lengthAdjust="spacing" textLength="44.2841" x="31.25" y="187.2787">User</text><ellipse cx="58.0795" cy="83.0017" fill="#E2E2F0" rx="12.5" ry="12.5" style="stroke:#181818;stroke-width:0.7813;"/><path d="M58.0795,95.5017 L58.0795,137.6892 M37.767,108.0017 L78.392,108.0017 M58.0795,137.6892 L37.767,161.1267 M58.0795,137.6892 L78.392,161.1267" fill="none" style="stroke:#181818;stroke-width:0.7813;"/></g><g class="participant participant-tail" data-entity-uid="part1" data-qualified-name="User" data-source-line="4" id="part1-tail"><text fill="#111827" font-family="'Malgun Gothic'" font-size="21.875" lengthAdjust="spacing" textLength="44.2841" x="31.25" y="2096.6843">User</text><ellipse cx="58.0795" cy="2115.2527" fill="#E2E2F0" rx="12.5" ry="12.5" style="stroke:#181818;stroke-width:0.7813;"/><path d="M58.0795,2127.7527 L58.0795,2169.9402 M37.767,2140.2527 L78.392,2140.2527 M58.0795,2169.9402 L37.767,2193.3777 M58.0795,2169.9402 L78.392,2193.3777" fill="none" style="stroke:#181818;stroke-width:0.7813;"/></g><g class="participant participant-head" data-entity-uid="part2" data-qualified-name="Editor" data-source-line="5" id="part2-head"><rect fill="#E2E2F0" height="50.9705" rx="6.25" ry="6.25" style="stroke:#181818;stroke-width:0.7813;" width="222.7341" x="100.5341" y="140.033"/><text fill="#111827" font-family="'Malgun Gothic'" font-size="21.875" lengthAdjust="spacing" textLength="200.8591" x="111.4716" y="174.7787">App / Atlas / Bridge</text></g><g class="participant participant-tail" data-entity-uid="part2" data-qualified-name="Editor" data-source-line="5" id="part2-tail"><rect fill="#E2E2F0" height="50.9705" rx="6.25" ry="6.25" style="stroke:#181818;stroke-width:0.7813;" width="222.7341" x="100.5341" y="2072.876"/><text fill="#111827" font-family="'Malgun Gothic'" font-size="21.875" lengthAdjust="spacing" textLength="200.8591" x="111.4716" y="2107.6218">App / Atlas / Bridge</text></g><g class="participant participant-head" data-entity-uid="part3" data-qualified-name="Base" data-source-line="6" id="part3-head"><rect fill="#E2E2F0" height="50.9705" rx="6.25" ry="6.25" style="stroke:#181818;stroke-width:0.7813;" width="167.9718" x="338.8931" y="140.033"/><text fill="#111827" font-family="'Malgun Gothic'" font-size="21.875" lengthAdjust="spacing" textLength="146.0968" x="349.8306" y="174.7787">&#44592;&#51316; &#47196;&#52972; save</text></g><g class="participant participant-tail" data-entity-uid="part3" data-qualified-name="Base" data-source-line="6" id="part3-tail"><rect fill="#E2E2F0" height="50.9705" rx="6.25" ry="6.25" style="stroke:#181818;stroke-width:0.7813;" width="167.9718" x="338.8931" y="2072.876"/><text fill="#111827" font-family="'Malgun Gothic'" font-size="21.875" lengthAdjust="spacing" textLength="146.0968" x="349.8306" y="2107.6218">&#44592;&#51316; &#47196;&#52972; save</text></g><g class="participant participant-head" data-entity-uid="part4" data-qualified-name="Sync" data-source-line="7" id="part4-head"><rect fill="#E2E2F0" height="50.9705" rx="6.25" ry="6.25" style="stroke:#181818;stroke-width:0.7813;" width="189.1525" x="649.9695" y="140.033"/><text fill="#111827" font-family="'Malgun Gothic'" font-size="21.875" lengthAdjust="spacing" textLength="167.2775" x="660.907" y="174.7787">Normalized Sync</text></g><g class="participant participant-tail" data-entity-uid="part4" data-qualified-name="Sync" data-source-line="7" id="part4-tail"><rect fill="#E2E2F0" height="50.9705" rx="6.25" ry="6.25" style="stroke:#181818;stroke-width:0.7813;" width="189.1525" x="649.9695" y="2072.876"/><text fill="#111827" font-family="'Malgun Gothic'" font-size="21.875" lengthAdjust="spacing" textLength="167.2775" x="660.907" y="2107.6218">Normalized Sync</text></g><g class="participant participant-head" data-entity-uid="part5" data-qualified-name="Flush" data-source-line="8" id="part5-head"><rect fill="#E2E2F0" height="50.9705" rx="6.25" ry="6.25" style="stroke:#181818;stroke-width:0.7813;" width="176.0788" x="884.9777" y="140.033"/><text fill="#111827" font-family="'Malgun Gothic'" font-size="21.875" lengthAdjust="spacing" textLength="154.2038" x="895.9152" y="174.7787">v17 frame flush</text></g><g class="participant participant-tail" data-entity-uid="part5" data-qualified-name="Flush" data-source-line="8" id="part5-tail"><rect fill="#E2E2F0" height="50.9705" rx="6.25" ry="6.25" style="stroke:#181818;stroke-width:0.7813;" width="176.0788" x="884.9777" y="2072.876"/><text fill="#111827" font-family="'Malgun Gothic'" font-size="21.875" lengthAdjust="spacing" textLength="154.2038" x="895.9152" y="2107.6218">v17 frame flush</text></g><g class="participant participant-head" data-entity-uid="part6" data-qualified-name="LS" data-source-line="9" id="part6-head"><text fill="#111827" font-family="'Malgun Gothic'" font-size="21.875" lengthAdjust="spacing" textLength="122.0963" x="1143.2945" y="187.2787">localStorage</text><path d="M1180.9052,107.2205 C1180.9052,91.5955 1209.0302,91.5955 1209.0302,91.5955 C1209.0302,91.5955 1237.1552,91.5955 1237.1552,107.2205 L1237.1552,147.8455 C1237.1552,163.4705 1209.0302,163.4705 1209.0302,163.4705 C1209.0302,163.4705 1180.9052,163.4705 1180.9052,147.8455 L1180.9052,107.2205" fill="#E2E2F0" style="stroke:#181818;stroke-width:0.7813;"/><path d="M1180.9052,107.2205 C1180.9052,122.8455 1209.0302,122.8455 1209.0302,122.8455 C1209.0302,122.8455 1237.1552,122.8455 1237.1552,107.2205" fill="none" style="stroke:#181818;stroke-width:0.7813;"/></g><g class="participant participant-tail" data-entity-uid="part6" data-qualified-name="LS" data-source-line="9" id="part6-tail"><text fill="#111827" font-family="'Malgun Gothic'" font-size="21.875" lengthAdjust="spacing" textLength="122.0963" x="1143.2945" y="2096.6843">localStorage</text><path d="M1180.9052,2117.5964 C1180.9052,2101.9714 1209.0302,2101.9714 1209.0302,2101.9714 C1209.0302,2101.9714 1237.1552,2101.9714 1237.1552,2117.5964 L1237.1552,2158.2214 C1237.1552,2173.8464 1209.0302,2173.8464 1209.0302,2173.8464 C1209.0302,2173.8464 1180.9052,2173.8464 1180.9052,2158.2214 L1180.9052,2117.5964" fill="#E2E2F0" style="stroke:#181818;stroke-width:0.7813;"/><path d="M1180.9052,2117.5964 C1180.9052,2133.2214 1209.0302,2133.2214 1209.0302,2133.2214 C1209.0302,2133.2214 1237.1552,2133.2214 1237.1552,2117.5964" fill="none" style="stroke:#181818;stroke-width:0.7813;"/></g><g class="participant participant-head" data-entity-uid="part7" data-qualified-name="RPC" data-source-line="10" id="part7-head"><rect fill="#E2E2F0" height="50.9705" rx="6.25" ry="6.25" style="stroke:#181818;stroke-width:0.7813;" width="164.0091" x="1290.3908" y="140.033"/><text fill="#111827" font-family="'Malgun Gothic'" font-size="21.875" lengthAdjust="spacing" textLength="142.1341" x="1301.3283" y="174.7787">Supabase RPC</text></g><g class="participant participant-tail" data-entity-uid="part7" data-qualified-name="RPC" data-source-line="10" id="part7-tail"><rect fill="#E2E2F0" height="50.9705" rx="6.25" ry="6.25" style="stroke:#181818;stroke-width:0.7813;" width="164.0091" x="1290.3908" y="2072.876"/><text fill="#111827" font-family="'Malgun Gothic'" font-size="21.875" lengthAdjust="spacing" textLength="142.1341" x="1301.3283" y="2107.6218">Supabase RPC</text></g><g class="participant participant-head" data-entity-uid="part8" data-qualified-name="DB" data-source-line="11" id="part8-head"><text fill="#111827" font-family="'Malgun Gothic'" font-size="21.875" lengthAdjust="spacing" textLength="114.5126" x="1613.9481" y="187.2787">PostgreSQL</text><path d="M1647.7669,107.2205 C1647.7669,91.5955 1675.8919,91.5955 1675.8919,91.5955 C1675.8919,91.5955 1704.0169,91.5955 1704.0169,107.2205 L1704.0169,147.8455 C1704.0169,163.4705 1675.8919,163.4705 1675.8919,163.4705 C1675.8919,163.4705 1647.7669,163.4705 1647.7669,147.8455 L1647.7669,107.2205" fill="#E2E2F0" style="stroke:#181818;stroke-width:0.7813;"/><path d="M1647.7669,107.2205 C1647.7669,122.8455 1675.8919,122.8455 1675.8919,122.8455 C1675.8919,122.8455 1704.0169,122.8455 1704.0169,107.2205" fill="none" style="stroke:#181818;stroke-width:0.7813;"/></g><g class="participant participant-tail" data-entity-uid="part8" data-qualified-name="DB" data-source-line="11" id="part8-tail"><text fill="#111827" font-family="'Malgun Gothic'" font-size="21.875" lengthAdjust="spacing" textLength="114.5126" x="1613.9481" y="2096.6843">PostgreSQL</text><path d="M1647.7669,2117.5964 C1647.7669,2101.9714 1675.8919,2101.9714 1675.8919,2101.9714 C1675.8919,2101.9714 1704.0169,2101.9714 1704.0169,2117.5964 L1704.0169,2158.2214 C1704.0169,2173.8464 1675.8919,2173.8464 1675.8919,2173.8464 C1675.8919,2173.8464 1647.7669,2173.8464 1647.7669,2158.2214 L1647.7669,2117.5964" fill="#E2E2F0" style="stroke:#181818;stroke-width:0.7813;"/><path d="M1647.7669,2117.5964 C1647.7669,2133.2214 1675.8919,2133.2214 1675.8919,2133.2214 C1675.8919,2133.2214 1704.0169,2133.2214 1704.0169,2117.5964" fill="none" style="stroke:#181818;stroke-width:0.7813;"/></g><g class="participant participant-head" data-entity-uid="part9" data-qualified-name="UI" data-source-line="12" id="part9-head"><rect fill="#E2E2F0" height="50.9705" rx="6.25" ry="6.25" style="stroke:#181818;stroke-width:0.7813;" width="146.0327" x="1753.4607" y="140.033"/><text fill="#111827" font-family="'Malgun Gothic'" font-size="21.875" lengthAdjust="spacing" textLength="124.1577" x="1764.3982" y="174.7787">&#49345;&#45800; &#49345;&#53468; UI</text></g><g class="participant participant-tail" data-entity-uid="part9" data-qualified-name="UI" data-source-line="12" id="part9-tail"><rect fill="#E2E2F0" height="50.9705" rx="6.25" ry="6.25" style="stroke:#181818;stroke-width:0.7813;" width="146.0327" x="1753.4607" y="2072.876"/><text fill="#111827" font-family="'Malgun Gothic'" font-size="21.875" lengthAdjust="spacing" textLength="124.1577" x="1764.3982" y="2107.6218">&#49345;&#45800; &#49345;&#53468; UI</text></g><g class="message" data-entity-1="part1" data-entity-2="part2" data-source-line="14" id="msg1"><polygon fill="#4B5563" points="193.1511,238.3331,208.7761,244.5831,193.1511,250.8331,199.4011,244.5831" style="stroke:#4B5563;stroke-width:1.5625;stroke-linejoin:miter;stroke-miterlimit:10;"/><line style="stroke:#4B5563;stroke-width:1.5625;" x1="58.0795" x2="202.5261" y1="244.5831" y2="244.5831"/><text fill="#111827" font-family="'Malgun Gothic'" font-size="20.3125" lengthAdjust="spacing" textLength="108.7036" x="69.017" y="236.5486">&#45936;&#51060;&#53552; &#54200;&#51665;</text></g><g class="message" data-entity-1="part2" data-entity-2="part3" data-source-line="15" id="msg2"><polygon fill="#4B5563" points="404.129,287.2253,419.754,293.4753,404.129,299.7253,410.379,293.4753" style="stroke:#4B5563;stroke-width:1.5625;stroke-linejoin:miter;stroke-miterlimit:10;"/><line style="stroke:#4B5563;stroke-width:1.5625;" x1="211.9011" x2="413.504" y1="293.4753" y2="293.4753"/><text fill="#111827" font-family="'Malgun Gothic'" font-size="20.3125" lengthAdjust="spacing" textLength="52.507" x="222.8386" y="285.4408">save()</text></g><g class="message" data-entity-1="part3" data-entity-2="part6" data-source-line="16" id="msg3"><polygon fill="#4B5563" points="1190.2802,336.1176,1205.9052,342.3676,1190.2802,348.6176,1196.5302,342.3676" style="stroke:#4B5563;stroke-width:1.5625;stroke-linejoin:miter;stroke-miterlimit:10;"/><line style="stroke:#4B5563;stroke-width:1.5625;" x1="422.879" x2="1199.6552" y1="342.3676" y2="342.3676"/><text fill="#111827" font-family="'Malgun Gothic'" font-size="20.3125" lengthAdjust="spacing" textLength="183.9233" x="433.8165" y="334.333">&#54644;&#45817; &#47784;&#46280; &#47196;&#52972; &#51200;&#51109;</text></g><g class="message" data-entity-1="part3" data-entity-2="part2" data-source-line="17" id="msg4"><polygon fill="#4B5563" points="229.0886,385.0098,213.4636,391.2598,229.0886,397.5098,222.8386,391.2598" style="stroke:#4B5563;stroke-width:1.5625;stroke-linejoin:miter;stroke-miterlimit:10;"/><line style="stroke:#4B5563;stroke-width:1.5625;stroke-dasharray:3.125,3.125;" x1="219.7136" x2="421.3165" y1="391.2598" y2="391.2598"/><text fill="#111827" font-family="'Malgun Gothic'" font-size="20.3125" lengthAdjust="spacing" textLength="88.3911" x="238.4636" y="383.2253">&#51200;&#51109; &#50756;&#47308;</text></g><g class="message" data-entity-1="part3" data-entity-2="part4" data-source-line="18" id="msg5"><polygon fill="#4B5563" points="725.7957,433.902,741.4207,440.152,725.7957,446.402,732.0457,440.152" style="stroke:#4B5563;stroke-width:1.5625;stroke-linejoin:miter;stroke-miterlimit:10;"/><line style="stroke:#4B5563;stroke-width:1.5625;" x1="422.879" x2="735.1707" y1="440.152" y2="440.152"/><text fill="#111827" font-family="'Malgun Gothic'" font-size="20.3125" lengthAdjust="spacing" textLength="284.1667" x="433.8165" y="432.1175">wrapper markChanged(reason)</text></g><g class="message" data-entity-1="part4" data-entity-2="part6" data-source-line="19" id="msg6"><polygon fill="#4B5563" points="1190.2802,509.8114,1205.9052,516.0614,1190.2802,522.3114,1196.5302,516.0614" style="stroke:#4B5563;stroke-width:1.5625;stroke-linejoin:miter;stroke-miterlimit:10;"/><line style="stroke:#4B5563;stroke-width:1.5625;" x1="744.5457" x2="1199.6552" y1="516.0614" y2="516.0614"/><text fill="#111827" font-family="'Malgun Gothic'" font-size="20.3125" lengthAdjust="spacing" textLength="145.8969" x="755.4832" y="481.0097">meta dirty=true</text><text fill="#111827" font-family="'Malgun Gothic'" font-size="20.3125" lengthAdjust="spacing" textLength="127.8358" x="755.4832" y="508.0269">generation++</text></g><g class="message" data-entity-1="part4" data-entity-2="part9" data-source-line="20" id="msg7"><polygon fill="#4B5563" points="1807.7271,558.7036,1823.3521,564.9536,1807.7271,571.2036,1813.9771,564.9536" style="stroke:#4B5563;stroke-width:1.5625;stroke-linejoin:miter;stroke-miterlimit:10;"/><line style="stroke:#4B5563;stroke-width:1.5625;" x1="744.5457" x2="1817.1021" y1="564.9536" y2="564.9536"/><text fill="#111827" font-family="'Malgun Gothic'" font-size="20.3125" lengthAdjust="spacing" textLength="259.2224" x="755.4832" y="556.9191">local=saved, server=queued</text></g><path d="M21.875,588.3911 L110.3462,588.3911 L110.3462,602.9083 L94.7212,618.5333 L15.625,618.5333 L15.625,594.6411 A6.25,6.25 0 0 1 21.875,588.3911" fill="#F8FAFC" style="stroke:#64748B;stroke-width:2.3438;"/><rect fill="none" height="174.2249" rx="6.25" ry="6.25" style="stroke:#64748B;stroke-width:2.3438;" width="965.2046" x="15.625" y="588.3911"/><text fill="#111827" font-family="'Malgun Gothic'" font-size="20.3125" font-weight="700" lengthAdjust="spacing" textLength="24.4087" x="39.0625" y="612.0613">alt</text><text fill="#111827" font-family="'Malgun Gothic'" font-size="17.1875" font-weight="700" lengthAdjust="spacing" textLength="87.0956" x="133.7837" y="610.2226">[&#51088;&#46041; &#51200;&#51109;]</text><g class="message" data-entity-1="part4" data-entity-2="part4" data-source-line="23" id="msg8"><line style="stroke:#4B5563;stroke-width:1.5625;" x1="744.5457" x2="810.1707" y1="654.9255" y2="654.9255"/><line style="stroke:#4B5563;stroke-width:1.5625;" x1="810.1707" x2="810.1707" y1="654.9255" y2="675.238"/><line style="stroke:#4B5563;stroke-width:1.5625;" x1="746.1082" x2="810.1707" y1="675.238" y2="675.238"/><polygon fill="#4B5563" points="761.7332,668.988,746.1082,675.238,761.7332,681.488,755.4832,675.238" style="stroke:#4B5563;stroke-width:1.5625;stroke-linejoin:miter;stroke-miterlimit:10;"/><text fill="#111827" font-family="'Malgun Gothic'" font-size="20.3125" lengthAdjust="spacing" textLength="206.5964" x="755.4832" y="646.891">debounce 550~800ms</text></g><line style="stroke:#64748B;stroke-width:1.5625;stroke-dasharray:3.125,3.125;" x1="15.625" x2="980.8296" y1="689.3005" y2="689.3005"/><text fill="#111827" font-family="'Malgun Gothic'" font-size="17.1875" font-weight="700" lengthAdjust="spacing" textLength="214.6591" x="23.4375" y="708.007">[&#49688;&#46041; "&#51648;&#44552; &#51200;&#51109;" / Ctrl+S]</text><g class="message" data-entity-1="part1" data-entity-2="part4" data-source-line="25" id="msg9"><polygon fill="#4B5563" points="725.7957,743.866,741.4207,750.116,725.7957,756.366,732.0457,750.116" style="stroke:#4B5563;stroke-width:1.5625;stroke-linejoin:miter;stroke-miterlimit:10;"/><line style="stroke:#4B5563;stroke-width:1.5625;" x1="58.0795" x2="735.1707" y1="750.116" y2="750.116"/><text fill="#111827" font-family="'Malgun Gothic'" font-size="20.3125" lengthAdjust="spacing" textLength="166.2491" x="69.017" y="742.0815">flushNow(manual)</text></g><g class="message" data-entity-1="part4" data-entity-2="part9" data-source-line="28" id="msg10"><polygon fill="#4B5563" points="1807.7271,803.6957,1823.3521,809.9457,1807.7271,816.1957,1813.9771,809.9457" style="stroke:#4B5563;stroke-width:1.5625;stroke-linejoin:miter;stroke-miterlimit:10;"/><line style="stroke:#4B5563;stroke-width:1.5625;" x1="744.5457" x2="1817.1021" y1="809.9457" y2="809.9457"/><text fill="#111827" font-family="'Malgun Gothic'" font-size="20.3125" lengthAdjust="spacing" textLength="177.6352" x="755.4832" y="801.9112">local/server=saving</text></g><g class="message" data-entity-1="part4" data-entity-2="part5" data-source-line="29" id="msg11"><polygon fill="#4B5563" points="954.2671,852.5879,969.8921,858.8379,954.2671,865.0879,960.5171,858.8379" style="stroke:#4B5563;stroke-width:1.5625;stroke-linejoin:miter;stroke-miterlimit:10;"/><line style="stroke:#4B5563;stroke-width:1.5625;" x1="744.5457" x2="963.6421" y1="858.8379" y2="858.8379"/><text fill="#111827" font-family="'Malgun Gothic'" font-size="20.3125" lengthAdjust="spacing" textLength="172.4876" x="755.4832" y="850.8034">v17FlushAllStores()</text></g><g class="message" data-entity-1="part5" data-entity-2="part2" data-source-line="30" id="msg12"><polygon fill="#4B5563" points="229.0886,901.4801,213.4636,907.7301,229.0886,913.9801,222.8386,907.7301" style="stroke:#4B5563;stroke-width:1.5625;stroke-linejoin:miter;stroke-miterlimit:10;"/><line style="stroke:#4B5563;stroke-width:1.5625;" x1="219.7136" x2="971.4546" y1="907.7301" y2="907.7301"/><text fill="#111827" font-family="'Malgun Gothic'" font-size="20.3125" lengthAdjust="spacing" textLength="199.7528" x="238.4636" y="899.6956">iframe export request</text></g><g class="message" data-entity-1="part2" data-entity-2="part5" data-source-line="31" id="msg13"><polygon fill="#4B5563" points="954.2671,950.3723,969.8921,956.6223,954.2671,962.8723,960.5171,956.6223" style="stroke:#4B5563;stroke-width:1.5625;stroke-linejoin:miter;stroke-miterlimit:10;"/><line style="stroke:#4B5563;stroke-width:1.5625;stroke-dasharray:3.125,3.125;" x1="211.9011" x2="963.6421" y1="956.6223" y2="956.6223"/><text fill="#111827" font-family="'Malgun Gothic'" font-size="20.3125" lengthAdjust="spacing" textLength="293.6783" x="222.8386" y="948.5878">first valid Atlas/Bridge snapshot</text></g><g class="message" data-entity-1="part5" data-entity-2="part6" data-source-line="32" id="msg14"><polygon fill="#4B5563" points="1190.2802,999.2645,1205.9052,1005.5145,1190.2802,1011.7645,1196.5302,1005.5145" style="stroke:#4B5563;stroke-width:1.5625;stroke-linejoin:miter;stroke-miterlimit:10;"/><line style="stroke:#4B5563;stroke-width:1.5625;" x1="973.0171" x2="1199.6552" y1="1005.5145" y2="1005.5145"/><text fill="#111827" font-family="'Malgun Gothic'" font-size="20.3125" lengthAdjust="spacing" textLength="198.513" x="983.9546" y="997.48">App&#183;Atlas&#183;Bridge &#51200;&#51109;</text></g><g class="message" data-entity-1="part5" data-entity-2="part4" data-source-line="33" id="msg15"><polygon fill="#4B5563" points="761.7332,1048.1567,746.1082,1054.4067,761.7332,1060.6567,755.4832,1054.4067" style="stroke:#4B5563;stroke-width:1.5625;stroke-linejoin:miter;stroke-miterlimit:10;"/><line style="stroke:#4B5563;stroke-width:1.5625;stroke-dasharray:3.125,3.125;" x1="752.3582" x2="971.4546" y1="1054.4067" y2="1054.4067"/><text fill="#111827" font-family="'Malgun Gothic'" font-size="20.3125" lengthAdjust="spacing" textLength="142.8818" x="771.1082" y="1046.3722">unified payload</text></g><g class="message" data-entity-1="part4" data-entity-2="part4" data-source-line="34" id="msg16"><line style="stroke:#4B5563;stroke-width:1.5625;" x1="744.5457" x2="810.1707" y1="1103.299" y2="1103.299"/><line style="stroke:#4B5563;stroke-width:1.5625;" x1="810.1707" x2="810.1707" y1="1103.299" y2="1123.6115"/><line style="stroke:#4B5563;stroke-width:1.5625;" x1="746.1082" x2="810.1707" y1="1123.6115" y2="1123.6115"/><polygon fill="#4B5563" points="761.7332,1117.3615,746.1082,1123.6115,761.7332,1129.8615,755.4832,1123.6115" style="stroke:#4B5563;stroke-width:1.5625;stroke-linejoin:miter;stroke-miterlimit:10;"/><text fill="#111827" font-family="'Malgun Gothic'" font-size="20.3125" lengthAdjust="spacing" textLength="156.2317" x="755.4832" y="1095.2644">validate(payload)</text></g><g class="message" data-entity-1="part4" data-entity-2="part4" data-source-line="35" id="msg17"><line style="stroke:#4B5563;stroke-width:1.5625;" x1="744.5457" x2="810.1707" y1="1172.5037" y2="1172.5037"/><line style="stroke:#4B5563;stroke-width:1.5625;" x1="810.1707" x2="810.1707" y1="1172.5037" y2="1192.8162"/><line style="stroke:#4B5563;stroke-width:1.5625;" x1="746.1082" x2="810.1707" y1="1192.8162" y2="1192.8162"/><polygon fill="#4B5563" points="761.7332,1186.5662,746.1082,1192.8162,761.7332,1199.0662,755.4832,1192.8162" style="stroke:#4B5563;stroke-width:1.5625;stroke-linejoin:miter;stroke-miterlimit:10;"/><text fill="#111827" font-family="'Malgun Gothic'" font-size="20.3125" lengthAdjust="spacing" textLength="104.4388" x="755.4832" y="1164.4691">stable hash</text></g><g class="message" data-entity-1="part4" data-entity-2="part4" data-source-line="36" id="msg18"><line style="stroke:#4B5563;stroke-width:1.5625;" x1="744.5457" x2="810.1707" y1="1241.7084" y2="1241.7084"/><line style="stroke:#4B5563;stroke-width:1.5625;" x1="810.1707" x2="810.1707" y1="1241.7084" y2="1262.0209"/><line style="stroke:#4B5563;stroke-width:1.5625;" x1="746.1082" x2="810.1707" y1="1262.0209" y2="1262.0209"/><polygon fill="#4B5563" points="761.7332,1255.7709,746.1082,1262.0209,761.7332,1268.2709,755.4832,1262.0209" style="stroke:#4B5563;stroke-width:1.5625;stroke-linejoin:miter;stroke-miterlimit:10;"/><text fill="#111827" font-family="'Malgun Gothic'" font-size="20.3125" lengthAdjust="spacing" textLength="173.9357" x="755.4832" y="1233.6739">operationId=uuid()</text></g><g class="message" data-entity-1="part4" data-entity-2="part7" data-source-line="37" id="msg19"><polygon fill="#4B5563" points="1353.6453,1331.6803,1369.2703,1337.9303,1353.6453,1344.1803,1359.8953,1337.9303" style="stroke:#4B5563;stroke-width:1.5625;stroke-linejoin:miter;stroke-miterlimit:10;"/><line style="stroke:#4B5563;stroke-width:1.5625;" x1="744.5457" x2="1363.0203" y1="1337.9303" y2="1337.9303"/><text fill="#111827" font-family="'Malgun Gothic'" font-size="20.3125" lengthAdjust="spacing" textLength="165.3069" x="755.4832" y="1302.8786">ipe_commit_state(</text><text fill="#111827" font-family="'Malgun Gothic'" font-size="20.3125" lengthAdjust="spacing" textLength="422.0993" x="755.4832" y="1329.8958">expectedRevision, operationId, hash, payload)</text></g><g class="message" data-entity-1="part7" data-entity-2="part8" data-source-line="38" id="msg20"><polygon fill="#4B5563" points="1657.1419,1380.5725,1672.7669,1386.8225,1657.1419,1393.0725,1663.3919,1386.8225" style="stroke:#4B5563;stroke-width:1.5625;stroke-linejoin:miter;stroke-miterlimit:10;"/><line style="stroke:#4B5563;stroke-width:1.5625;" x1="1372.3953" x2="1666.5169" y1="1386.8225" y2="1386.8225"/><text fill="#111827" font-family="'Malgun Gothic'" font-size="20.3125" lengthAdjust="spacing" textLength="182.2472" x="1383.3328" y="1378.788">workspace row lock</text></g><g class="message" data-entity-1="part7" data-entity-2="part8" data-source-line="39" id="msg21"><polygon fill="#4B5563" points="1657.1419,1429.4647,1672.7669,1435.7147,1657.1419,1441.9647,1663.3919,1435.7147" style="stroke:#4B5563;stroke-width:1.5625;stroke-linejoin:miter;stroke-miterlimit:10;"/><line style="stroke:#4B5563;stroke-width:1.5625;" x1="1372.3953" x2="1666.5169" y1="1435.7147" y2="1435.7147"/><text fill="#111827" font-family="'Malgun Gothic'" font-size="20.3125" lengthAdjust="spacing" textLength="265.9966" x="1383.3328" y="1427.6802">validate + projection replace</text></g><g class="message" data-entity-1="part7" data-entity-2="part8" data-source-line="40" id="msg22"><polygon fill="#4B5563" points="1657.1419,1478.3569,1672.7669,1484.6069,1657.1419,1490.8569,1663.3919,1484.6069" style="stroke:#4B5563;stroke-width:1.5625;stroke-linejoin:miter;stroke-miterlimit:10;"/><line style="stroke:#4B5563;stroke-width:1.5625;" x1="1372.3953" x2="1666.5169" y1="1484.6069" y2="1484.6069"/><text fill="#111827" font-family="'Malgun Gothic'" font-size="20.3125" lengthAdjust="spacing" textLength="147.6028" x="1383.3328" y="1476.5724">append revision</text></g><g class="message" data-entity-1="part8" data-entity-2="part7" data-source-line="41" id="msg23"><polygon fill="#4B5563" points="1389.5828,1527.2491,1373.9578,1533.4991,1389.5828,1539.7491,1383.3328,1533.4991" style="stroke:#4B5563;stroke-width:1.5625;stroke-linejoin:miter;stroke-miterlimit:10;"/><line style="stroke:#4B5563;stroke-width:1.5625;stroke-dasharray:3.125,3.125;" x1="1380.2078" x2="1674.3294" y1="1533.4991" y2="1533.4991"/><text fill="#111827" font-family="'Malgun Gothic'" font-size="20.3125" lengthAdjust="spacing" textLength="70.6573" x="1398.9578" y="1525.4646">revision</text></g><g class="message" data-entity-1="part7" data-entity-2="part4" data-source-line="42" id="msg24"><polygon fill="#4B5563" points="761.7332,1576.1414,746.1082,1582.3914,761.7332,1588.6414,755.4832,1582.3914" style="stroke:#4B5563;stroke-width:1.5625;stroke-linejoin:miter;stroke-miterlimit:10;"/><line style="stroke:#4B5563;stroke-width:1.5625;stroke-dasharray:3.125,3.125;" x1="752.3582" x2="1370.8328" y1="1582.3914" y2="1582.3914"/><text fill="#111827" font-family="'Malgun Gothic'" font-size="20.3125" lengthAdjust="spacing" textLength="161.161" x="771.1082" y="1574.3568">revision, replayed</text></g><g class="message" data-entity-1="part4" data-entity-2="part7" data-source-line="43" id="msg25"><polygon fill="#4B5563" points="1353.6453,1625.0336,1369.2703,1631.2836,1353.6453,1637.5336,1359.8953,1631.2836" style="stroke:#4B5563;stroke-width:1.5625;stroke-linejoin:miter;stroke-miterlimit:10;"/><line style="stroke:#4B5563;stroke-width:1.5625;" x1="744.5457" x2="1363.0203" y1="1631.2836" y2="1631.2836"/><text fill="#111827" font-family="'Malgun Gothic'" font-size="20.3125" lengthAdjust="spacing" textLength="143.1198" x="755.4832" y="1623.2491">ipe_load_head()</text></g><g class="message" data-entity-1="part7" data-entity-2="part8" data-source-line="44" id="msg26"><polygon fill="#4B5563" points="1657.1419,1673.9258,1672.7669,1680.1758,1657.1419,1686.4258,1663.3919,1680.1758" style="stroke:#4B5563;stroke-width:1.5625;stroke-linejoin:miter;stroke-miterlimit:10;"/><line style="stroke:#4B5563;stroke-width:1.5625;" x1="1372.3953" x2="1666.5169" y1="1680.1758" y2="1680.1758"/><text fill="#111827" font-family="'Malgun Gothic'" font-size="20.3125" lengthAdjust="spacing" textLength="230.8662" x="1383.3328" y="1672.1413">load latest revision JSON</text></g><g class="message" data-entity-1="part8" data-entity-2="part7" data-source-line="45" id="msg27"><polygon fill="#4B5563" points="1389.5828,1722.818,1373.9578,1729.068,1389.5828,1735.318,1383.3328,1729.068" style="stroke:#4B5563;stroke-width:1.5625;stroke-linejoin:miter;stroke-miterlimit:10;"/><line style="stroke:#4B5563;stroke-width:1.5625;stroke-dasharray:3.125,3.125;" x1="1380.2078" x2="1674.3294" y1="1729.068" y2="1729.068"/><text fill="#111827" font-family="'Malgun Gothic'" font-size="20.3125" lengthAdjust="spacing" textLength="217.7345" x="1398.9578" y="1721.0335">revision + payloadHash</text></g><g class="message" data-entity-1="part7" data-entity-2="part4" data-source-line="46" id="msg28"><polygon fill="#4B5563" points="761.7332,1771.7102,746.1082,1777.9602,761.7332,1784.2102,755.4832,1777.9602" style="stroke:#4B5563;stroke-width:1.5625;stroke-linejoin:miter;stroke-miterlimit:10;"/><line style="stroke:#4B5563;stroke-width:1.5625;stroke-dasharray:3.125,3.125;" x1="752.3582" x2="1370.8328" y1="1777.9602" y2="1777.9602"/><text fill="#111827" font-family="'Malgun Gothic'" font-size="20.3125" lengthAdjust="spacing" textLength="45.4155" x="771.1082" y="1769.9257">head</text></g><g class="message" data-entity-1="part4" data-entity-2="part6" data-source-line="47" id="msg29"><polygon fill="#4B5563" points="1190.2802,1820.6024,1205.9052,1826.8524,1190.2802,1833.1024,1196.5302,1826.8524" style="stroke:#4B5563;stroke-width:1.5625;stroke-linejoin:miter;stroke-miterlimit:10;"/><line style="stroke:#4B5563;stroke-width:1.5625;" x1="744.5457" x2="1199.6552" y1="1826.8524" y2="1826.8524"/><text fill="#111827" font-family="'Malgun Gothic'" font-size="20.3125" lengthAdjust="spacing" textLength="286.924" x="755.4832" y="1818.8179">serverRevision/hash/dirty=false</text></g><g class="message" data-entity-1="part4" data-entity-2="part9" data-source-line="48" id="msg30"><polygon fill="#4B5563" points="1807.7271,1869.4946,1823.3521,1875.7446,1807.7271,1881.9946,1813.9771,1875.7446" style="stroke:#4B5563;stroke-width:1.5625;stroke-linejoin:miter;stroke-miterlimit:10;"/><line style="stroke:#4B5563;stroke-width:1.5625;" x1="744.5457" x2="1817.1021" y1="1875.7446" y2="1875.7446"/><text fill="#111827" font-family="'Malgun Gothic'" font-size="20.3125" lengthAdjust="spacing" textLength="241.8953" x="755.4832" y="1867.7101">local=saved, server=saved</text></g><path d="M510.9375,1902.3071 L510.9375,1958.5571 A6.25,6.25 0 0 0 517.1875,1964.8071 L970.3125,1964.8071 A6.25,6.25 0 0 0 976.5625,1958.5571 L976.5625,1911.6821 L960.9375,1896.0571 L517.1875,1896.0571 A6.25,6.25 0 0 0 510.9375,1902.3071" fill="#FFF8DC" style="stroke:#8B7355;stroke-width:0.7813;"/><path d="M960.9375,1896.0571 L960.9375,1908.5571 A3.125,3.125 0 0 0 964.0625,1911.6821 L976.5625,1911.6821 L960.9375,1896.0571" fill="#FFF8DC" style="stroke:#8B7355;stroke-width:0.7813;"/><text fill="#111827" font-family="'Malgun Gothic'" font-size="20.3125" lengthAdjust="spacing" textLength="433.5449" x="520.3125" y="1925.9773">[S] &#51221;&#49345; &#44221;&#47196;&#50640;&#45716; collect &#8594; validate &#8594; hash &#8594;</text><text fill="#111827" font-family="'Malgun Gothic'" font-size="20.3125" lengthAdjust="spacing" textLength="414.9681" x="520.3125" y="1952.9945">optimistic commit &#8594; head verify&#44032; &#51316;&#51116;&#54620;&#45796;.</text><path d="M751.5625,1987.5916 L751.5625,2043.8416 A6.25,6.25 0 0 0 757.8125,2050.0916 L1215.625,2050.0916 A6.25,6.25 0 0 0 1221.875,2043.8416 L1221.875,1996.9666 L1206.25,1981.3416 L757.8125,1981.3416 A6.25,6.25 0 0 0 751.5625,1987.5916" fill="#FFF8DC" style="stroke:#8B7355;stroke-width:0.7813;"/><path d="M1206.25,1981.3416 L1206.25,1993.8416 A3.125,3.125 0 0 0 1209.375,1996.9666 L1221.875,1996.9666 L1206.25,1981.3416" fill="#FFF8DC" style="stroke:#8B7355;stroke-width:0.7813;"/><text fill="#111827" font-family="'Malgun Gothic'" font-size="20.3125" lengthAdjust="spacing" textLength="438.5239" x="760.9375" y="2011.2617">[S] operationId&#45716; commitOnce &#50504;&#50640;&#49436; &#49373;&#49457;&#46104;&#50612;</text><text fill="#111827" font-family="'Malgun Gothic'" font-size="20.3125" lengthAdjust="spacing" textLength="337.6953" x="760.9375" y="2038.279">&#51060; &#54840;&#52636;&#51032; &#47700;&#47784;&#47532; &#49688;&#47749;&#50640;&#47564; &#51316;&#51116;&#54620;&#45796;.</text><g class="caption" data-source-line="60"><text fill="#111827" font-family="'Malgun Gothic'" font-size="21.875" lengthAdjust="spacing" textLength="908.902" x="498.4207" y="2222.6547">&#51221;&#49345; &#44221;&#47196;&#45716; &#51068;&#44288;&#46104;&#51648;&#47564; &#51077;&#47141; snapshot&#51032; &#44428;&#50948;&#50752; &#49892;&#54056; &#54980; operation &#49688;&#47749;&#51008; &#48372;&#51109;&#54616;&#51648; &#50506;&#45716;&#45796;.</text></g><?plantuml-src XLHHRnj547w_Np7uoL6IEZn4e4f1Ib8GHY4jFVc9ecXxjxQNd6-FlRsavW4PrKLH721038cmerOa95Hv262rGS1BVqeVVNl_WTczyzaEHJpTtiutCzzyEpElCT_n8fV2HYYR7hqHH0tFaanw59Rj-R8D2ulmidK0bVVNG7LwIQkbTazkWdhSLGy_1tMy7tzzL58xX_Z1ovOwFhKiuaWke19IOGL4IEQmWFWI2ij102LObXu9yRiYc5kZ1S2Vjrs67jFWuTMbUZA0-4bF_Na18TbAeIiafDF0TIuQn6EVKXVifkyOb3vCexPUVmEgWZGeLBqeh1lKE_fakKII-nWL2XvtY6SZ4vBnMhEdWzXHa4Bltbar0FnE-D_XeQm9Qd-mPeotLgQzKR2uSmxuIHxse58se4hPihHICFzM9WFSXFZBIzKV9ErBIBwwKcVVM9a5CRf-H6WzYZEM-SFRDHllakuWxlm1yTFp-BkTaN3PcwJ0oHof0THHE_vfBm-aXKFZjY11WAGQH6okrebVesvHK19oVyOoa57E1fK4N2PaSqcAYDv3f4y5aOpxixCvj596g55tIHDtvm0htg9YwPE8HjJ5Zl5araiZmW0ZvuoII-_po7SeB2ukVFRcma8ZjAY7fBFUAwYprl1g9tClO7-jIk7DsXXe96yMoBp_EjykDeWV4M_6eZuo-3VLKiOH6JE_bWDCqo066yeSbptJCZJ4vqXjaogpjEVeWu0B2O9YmQ7CdtCYN9M9KC8MDhARJaWfdGy8VHA4TIx7mOtmE4ildXlWY-SPCbCkmuqBZdnMPJWT0MbwdBZMDM5DJY9fCRFFN0U4sD-u3ke4X-MQYGVPOvVTfIXYRd7iZAEXwm_eXiCR3IPnl-WaztpKWZgIkdVf5WlHTMuoofn9CmSv5nq6ezrQqLt9nMOO4Em1mRVr8srEcKU5m2m4Wd-CIJ0aQXvuw3A5rCtjksXA6LXuEPzJpc-DnxXMaVCr8PlKVKMjclH6dHAjn6H6VGyUaWjb7WZUis-llpgtBY5Lu5sj-ZKcElxq6AQjEbAqf3KifLDP9JWa_p-8vi-oV8xoSRn8DoZ0X_P7erq__ErllLD-s8zt3y3XdeS2myillXthhdzqQdr0Nnv8rc0XBa18Mo0587d03ApQ75ws07UyEhv8khsuSt93Zo9e3XaJmMfr2RmwoMQYML8YEl9jlHXKTmVPgNOFLsnVjN-Dzm_LzmDqmrqAoU6LUjPJ_KE8VpdGA_Bd2xCwdZxI5Ptj_ISHXmIcZwPKq9bL_w_XeAMJdBLCWED7yUFJV5vrgk6pFTLhgoCiitEIx9r3ycDxNC0eVxy5yU-O_3JfwbXOnox6rpJ-0G00?></g></svg>