<svg xmlns="http://www.w3.org/2000/svg" xmlns:xlink="http://www.w3.org/1999/xlink" contentStyleType="text/css" data-diagram-type="SEQUENCE" height="1290.625px" preserveAspectRatio="none" style="width:1473px;height:1290px;background:#FFFFFF;" version="1.1" viewBox="0 0 1473 1290" width="1473.4375px" zoomAndPan="magnify"><?plantuml 1.2026.6?><defs/><g><g class="title" data-source-line="2"><text fill="#111827" font-family="'Malgun Gothic'" font-size="21.875" font-weight="700" lengthAdjust="spacing" textLength="541.2888" x="461.1172" y="47.2458">AS-IS 06 &#8212; UML &#49884;&#53248;&#49828;: &#46160; Atlas&#51032; &#50724;&#47000;&#46108; &#49345;&#53468; &#49440;&#53469;</text></g><g class="participant-lifeline" data-entity-uid="part1" data-qualified-name="User" data-source-line="4" id="part1-lifeline"><g><title>User</title><rect fill="#000000" fill-opacity="0.00000" height="933.1848" width="12.5" x="28.392" y="192.5659"/><line style="stroke:#64748B;stroke-width:0.7813;stroke-dasharray:7.8125,7.8125;" x1="34.375" x2="34.375" y1="192.5659" y2="1125.7507"/></g></g><g class="participant-lifeline" data-entity-uid="part2" data-qualified-name="Parent" data-source-line="5" id="part2-lifeline"><g><title>Parent v17 flush</title><rect fill="#000000" fill-opacity="0.00000" height="933.1848" width="12.5" x="162.1384" y="192.5659"/><line style="stroke:#64748B;stroke-width:0.7813;stroke-dasharray:7.8125,7.8125;" x1="167.7216" x2="167.7216" y1="192.5659" y2="1125.7507"/></g></g><g class="participant-lifeline" data-entity-uid="part3" data-qualified-name="Study" data-source-line="6" id="part3-lifeline"><g><title>studyAtlas iframe</title><rect fill="#000000" fill-opacity="0.00000" height="933.1848" width="12.5" x="456.8733" y="192.5659"/><line style="stroke:#64748B;stroke-width:0.7813;stroke-dasharray:7.8125,7.8125;" x1="461.5791" x2="461.5791" y1="192.5659" y2="1125.7507"/></g></g><g class="participant-lifeline" data-entity-uid="part4" data-qualified-name="Global" data-source-line="7" id="part4-lifeline"><g><title>globalAtlas iframe</title><rect fill="#000000" fill-opacity="0.00000" height="933.1848" width="12.5" x="670.1851" y="192.5659"/><line style="stroke:#64748B;stroke-width:0.7813;stroke-dasharray:7.8125,7.8125;" x1="675.605" x2="675.605" y1="192.5659" y2="1125.7507"/></g></g><g class="participant-lifeline" data-entity-uid="part5" data-qualified-name="LS" data-source-line="8" id="part5-lifeline"><g><title>parent localStorage</title><rect fill="#000000" fill-opacity="0.00000" height="933.1848" width="12.5" x="888.2912" y="192.5659"/><line style="stroke:#64748B;stroke-width:0.7813;stroke-dasharray:7.8125,7.8125;" x1="894.4527" x2="894.4527" y1="192.5659" y2="1125.7507"/></g></g><g class="participant-lifeline" data-entity-uid="part6" data-qualified-name="Sync" data-source-line="9" id="part6-lifeline"><g><title>Normalized Sync</title><rect fill="#000000" fill-opacity="0.00000" height="933.1848" width="12.5" x="1132.8041" y="192.5659"/><line style="stroke:#64748B;stroke-width:0.7813;stroke-dasharray:7.8125,7.8125;" x1="1138.2278" x2="1138.2278" y1="192.5659" y2="1125.7507"/></g></g><g class="participant-lifeline" data-entity-uid="part7" data-qualified-name="Server" data-source-line="10" id="part7-lifeline"><g><title>Supabase</title><rect fill="#000000" fill-opacity="0.00000" height="933.1848" width="12.5" x="1379.3602" y="192.5659"/><line style="stroke:#64748B;stroke-width:0.7813;stroke-dasharray:7.8125,7.8125;" x1="1385.1196" x2="1385.1196" y1="192.5659" y2="1125.7507"/></g></g><g class="participant participant-head" data-entity-uid="part1" data-qualified-name="User" data-source-line="4" id="part1-head"><text fill="#111827" font-family="'Malgun Gothic'" font-size="21.875" lengthAdjust="spacing" textLength="44.2841" x="7.8125" y="187.2787">User</text><ellipse cx="34.642" cy="83.0017" fill="#E2E2F0" rx="12.5" ry="12.5" style="stroke:#181818;stroke-width:0.7813;"/><path d="M34.642,95.5017 L34.642,137.6892 M14.3295,108.0017 L54.9545,108.0017 M34.642,137.6892 L14.3295,161.1267 M34.642,137.6892 L54.9545,161.1267" fill="none" style="stroke:#181818;stroke-width:0.7813;"/></g><g class="participant participant-tail" data-entity-uid="part1" data-qualified-name="User" data-source-line="4" id="part1-tail"><text fill="#111827" font-family="'Malgun Gothic'" font-size="21.875" lengthAdjust="spacing" textLength="44.2841" x="7.8125" y="1147.9965">User</text><ellipse cx="34.642" cy="1166.5649" fill="#E2E2F0" rx="12.5" ry="12.5" style="stroke:#181818;stroke-width:0.7813;"/><path d="M34.642,1179.0649 L34.642,1221.2524 M14.3295,1191.5649 L54.9545,1191.5649 M34.642,1221.2524 L14.3295,1244.6899 M34.642,1221.2524 L54.9545,1244.6899" fill="none" style="stroke:#181818;stroke-width:0.7813;"/></g><g class="participant participant-head" data-entity-uid="part2" data-qualified-name="Parent" data-source-line="5" id="part2-head"><rect fill="#E2E2F0" height="50.9705" rx="6.25" ry="6.25" style="stroke:#181818;stroke-width:0.7813;" width="182.5836" x="77.0966" y="140.033"/><text fill="#111827" font-family="'Malgun Gothic'" font-size="21.875" lengthAdjust="spacing" textLength="160.7086" x="88.0341" y="174.7787">Parent v17 flush</text></g><g class="participant participant-tail" data-entity-uid="part2" data-qualified-name="Parent" data-source-line="5" id="part2-tail"><rect fill="#E2E2F0" height="50.9705" rx="6.25" ry="6.25" style="stroke:#181818;stroke-width:0.7813;" width="182.5836" x="77.0966" y="1124.1882"/><text fill="#111827" font-family="'Malgun Gothic'" font-size="21.875" lengthAdjust="spacing" textLength="160.7086" x="88.0341" y="1158.934">Parent v17 flush</text></g><g class="participant participant-head" data-entity-uid="part3" data-qualified-name="Study" data-source-line="6" id="part3-head"><rect fill="#E2E2F0" height="50.9705" rx="6.25" ry="6.25" style="stroke:#181818;stroke-width:0.7813;" width="193.7134" x="366.2666" y="140.033"/><text fill="#111827" font-family="'Malgun Gothic'" font-size="21.875" lengthAdjust="spacing" textLength="171.8384" x="377.2041" y="174.7787">studyAtlas iframe</text></g><g class="participant participant-tail" data-entity-uid="part3" data-qualified-name="Study" data-source-line="6" id="part3-tail"><rect fill="#E2E2F0" height="50.9705" rx="6.25" ry="6.25" style="stroke:#181818;stroke-width:0.7813;" width="193.7134" x="366.2666" y="1124.1882"/><text fill="#111827" font-family="'Malgun Gothic'" font-size="21.875" lengthAdjust="spacing" textLength="171.8384" x="377.2041" y="1158.934">studyAtlas iframe</text></g><g class="participant participant-head" data-entity-uid="part4" data-qualified-name="Global" data-source-line="7" id="part4-head"><rect fill="#E2E2F0" height="50.9705" rx="6.25" ry="6.25" style="stroke:#181818;stroke-width:0.7813;" width="201.6602" x="575.605" y="140.033"/><text fill="#111827" font-family="'Malgun Gothic'" font-size="21.875" lengthAdjust="spacing" textLength="179.7852" x="586.5425" y="174.7787">globalAtlas iframe</text></g><g class="participant participant-tail" data-entity-uid="part4" data-qualified-name="Global" data-source-line="7" id="part4-tail"><rect fill="#E2E2F0" height="50.9705" rx="6.25" ry="6.25" style="stroke:#181818;stroke-width:0.7813;" width="201.6602" x="575.605" y="1124.1882"/><text fill="#111827" font-family="'Malgun Gothic'" font-size="21.875" lengthAdjust="spacing" textLength="179.7852" x="586.5425" y="1158.934">globalAtlas iframe</text></g><g class="participant participant-head" data-entity-uid="part5" data-qualified-name="LS" data-source-line="8" id="part5-head"><text fill="#111827" font-family="'Malgun Gothic'" font-size="21.875" lengthAdjust="spacing" textLength="193.927" x="792.8902" y="187.2787">parent localStorage</text><path d="M866.4162,107.2205 C866.4162,91.5955 894.5412,91.5955 894.5412,91.5955 C894.5412,91.5955 922.6662,91.5955 922.6662,107.2205 L922.6662,147.8455 C922.6662,163.4705 894.5412,163.4705 894.5412,163.4705 C894.5412,163.4705 866.4162,163.4705 866.4162,147.8455 L866.4162,107.2205" fill="#E2E2F0" style="stroke:#181818;stroke-width:0.7813;"/><path d="M866.4162,107.2205 C866.4162,122.8455 894.5412,122.8455 894.5412,122.8455 C894.5412,122.8455 922.6662,122.8455 922.6662,107.2205" fill="none" style="stroke:#181818;stroke-width:0.7813;"/></g><g class="participant participant-tail" data-entity-uid="part5" data-qualified-name="LS" data-source-line="8" id="part5-tail"><text fill="#111827" font-family="'Malgun Gothic'" font-size="21.875" lengthAdjust="spacing" textLength="193.927" x="792.8902" y="1147.9965">parent localStorage</text><path d="M866.4162,1168.9087 C866.4162,1153.2837 894.5412,1153.2837 894.5412,1153.2837 C894.5412,1153.2837 922.6662,1153.2837 922.6662,1168.9087 L922.6662,1209.5337 C922.6662,1225.1587 894.5412,1225.1587 894.5412,1225.1587 C894.5412,1225.1587 866.4162,1225.1587 866.4162,1209.5337 L866.4162,1168.9087" fill="#E2E2F0" style="stroke:#181818;stroke-width:0.7813;"/><path d="M866.4162,1168.9087 C866.4162,1184.5337 894.5412,1184.5337 894.5412,1184.5337 C894.5412,1184.5337 922.6662,1184.5337 922.6662,1168.9087" fill="none" style="stroke:#181818;stroke-width:0.7813;"/></g><g class="participant participant-head" data-entity-uid="part6" data-qualified-name="Sync" data-source-line="9" id="part6-head"><rect fill="#E2E2F0" height="50.9705" rx="6.25" ry="6.25" style="stroke:#181818;stroke-width:0.7813;" width="189.1525" x="1044.4778" y="140.033"/><text fill="#111827" font-family="'Malgun Gothic'" font-size="21.875" lengthAdjust="spacing" textLength="167.2775" x="1055.4153" y="174.7787">Normalized Sync</text></g><g class="participant participant-tail" data-entity-uid="part6" data-qualified-name="Sync" data-source-line="9" id="part6-tail"><rect fill="#E2E2F0" height="50.9705" rx="6.25" ry="6.25" style="stroke:#181818;stroke-width:0.7813;" width="189.1525" x="1044.4778" y="1124.1882"/><text fill="#111827" font-family="'Malgun Gothic'" font-size="21.875" lengthAdjust="spacing" textLength="167.2775" x="1055.4153" y="1158.934">Normalized Sync</text></g><g class="participant participant-head" data-entity-uid="part7" data-qualified-name="Server" data-source-line="10" id="part7-head"><text fill="#111827" font-family="'Malgun Gothic'" font-size="21.875" lengthAdjust="spacing" textLength="94.7311" x="1333.5571" y="187.2787">Supabase</text><path d="M1357.4852,107.2205 C1357.4852,91.5955 1385.6102,91.5955 1385.6102,91.5955 C1385.6102,91.5955 1413.7352,91.5955 1413.7352,107.2205 L1413.7352,147.8455 C1413.7352,163.4705 1385.6102,163.4705 1385.6102,163.4705 C1385.6102,163.4705 1357.4852,163.4705 1357.4852,147.8455 L1357.4852,107.2205" fill="#E2E2F0" style="stroke:#181818;stroke-width:0.7813;"/><path d="M1357.4852,107.2205 C1357.4852,122.8455 1385.6102,122.8455 1385.6102,122.8455 C1385.6102,122.8455 1413.7352,122.8455 1413.7352,107.2205" fill="none" style="stroke:#181818;stroke-width:0.7813;"/></g><g class="participant participant-tail" data-entity-uid="part7" data-qualified-name="Server" data-source-line="10" id="part7-tail"><text fill="#111827" font-family="'Malgun Gothic'" font-size="21.875" lengthAdjust="spacing" textLength="94.7311" x="1333.5571" y="1147.9965">Supabase</text><path d="M1357.4852,1168.9087 C1357.4852,1153.2837 1385.6102,1153.2837 1385.6102,1153.2837 C1385.6102,1153.2837 1413.7352,1153.2837 1413.7352,1168.9087 L1413.7352,1209.5337 C1413.7352,1225.1587 1385.6102,1225.1587 1385.6102,1225.1587 C1385.6102,1225.1587 1357.4852,1225.1587 1357.4852,1209.5337 L1357.4852,1168.9087" fill="#E2E2F0" style="stroke:#181818;stroke-width:0.7813;"/><path d="M1357.4852,1168.9087 C1357.4852,1184.5337 1385.6102,1184.5337 1385.6102,1184.5337 C1385.6102,1184.5337 1413.7352,1184.5337 1413.7352,1168.9087" fill="none" style="stroke:#181818;stroke-width:0.7813;"/></g><path d="M348.4375,222.2534 L348.4375,251.9409 A6.25,6.25 0 0 0 354.6875,258.1909 L568.75,258.1909 A6.25,6.25 0 0 0 575,251.9409 L575,231.6284 L559.375,216.0034 L354.6875,216.0034 A6.25,6.25 0 0 0 348.4375,222.2534" fill="#FFF8DC" style="stroke:#8B7355;stroke-width:0.7813;"/><path d="M559.375,216.0034 L559.375,228.5034 A3.125,3.125 0 0 0 562.5,231.6284 L575,231.6284 L559.375,216.0034" fill="#FFF8DC" style="stroke:#8B7355;stroke-width:0.7813;"/><text fill="#111827" font-family="'Malgun Gothic'" font-size="20.3125" lengthAdjust="spacing" textLength="194.0697" x="357.8125" y="245.9236">state.title = "INITIAL"</text><path d="M520.3125,280.5206 L520.3125,310.2081 A6.25,6.25 0 0 0 526.5625,316.4581 L823.4375,316.4581 A6.25,6.25 0 0 0 829.6875,310.2081 L829.6875,289.8956 L814.0625,274.2706 L526.5625,274.2706 A6.25,6.25 0 0 0 520.3125,280.5206" fill="#FFF8DC" style="stroke:#8B7355;stroke-width:0.7813;"/><path d="M814.0625,274.2706 L814.0625,286.7706 A3.125,3.125 0 0 0 817.1875,289.8956 L829.6875,289.8956 L814.0625,274.2706" fill="#FFF8DC" style="stroke:#8B7355;stroke-width:0.7813;"/><text fill="#111827" font-family="'Malgun Gothic'" font-size="20.3125" lengthAdjust="spacing" textLength="277.7794" x="529.6875" y="304.1908">state.title = "LATEST_GLOBAL"</text><path d="M762.5,338.7878 L762.5,368.4753 A6.25,6.25 0 0 0 768.75,374.7253 L1017.1875,374.7253 A6.25,6.25 0 0 0 1023.4375,368.4753 L1023.4375,348.1628 L1007.8125,332.5378 L768.75,332.5378 A6.25,6.25 0 0 0 762.5,338.7878" fill="#FFF8DC" style="stroke:#8B7355;stroke-width:0.7813;"/><path d="M1007.8125,332.5378 L1007.8125,345.0378 A3.125,3.125 0 0 0 1010.9375,348.1628 L1023.4375,348.1628 L1007.8125,332.5378" fill="#FFF8DC" style="stroke:#8B7355;stroke-width:0.7813;"/><text fill="#111827" font-family="'Malgun Gothic'" font-size="20.3125" lengthAdjust="spacing" textLength="229.1008" x="771.875" y="362.458">title = "LATEST_GLOBAL"</text><g class="message" data-entity-1="part1" data-entity-2="part2" data-source-line="22" id="msg1"><polygon fill="#4B5563" points="149.6384,413.1348,165.2634,419.3848,149.6384,425.6348,155.8884,419.3848" style="stroke:#4B5563;stroke-width:1.5625;stroke-linejoin:miter;stroke-miterlimit:10;"/><line style="stroke:#4B5563;stroke-width:1.5625;" x1="34.642" x2="159.0134" y1="419.3848" y2="419.3848"/><text fill="#111827" font-family="'Malgun Gothic'" font-size="20.3125" lengthAdjust="spacing" textLength="88.3911" x="45.5795" y="411.3503">&#51648;&#44552; &#51200;&#51109;</text></g><g class="message" data-entity-1="part2" data-entity-2="part2" data-source-line="23" id="msg2"><line style="stroke:#4B5563;stroke-width:1.5625;" x1="168.3884" x2="234.0134" y1="495.2942" y2="495.2942"/><line style="stroke:#4B5563;stroke-width:1.5625;" x1="234.0134" x2="234.0134" y1="495.2942" y2="515.6067"/><line style="stroke:#4B5563;stroke-width:1.5625;" x1="169.9509" x2="234.0134" y1="515.6067" y2="515.6067"/><polygon fill="#4B5563" points="185.5759,509.3567,169.9509,515.6067,185.5759,521.8567,179.3259,515.6067" style="stroke:#4B5563;stroke-width:1.5625;stroke-linejoin:miter;stroke-miterlimit:10;"/><text fill="#111827" font-family="'Malgun Gothic'" font-size="20.3125" lengthAdjust="spacing" textLength="210.5339" x="179.3259" y="460.2425">v17ActiveAtlasFrames()</text><text fill="#111827" font-family="'Malgun Gothic'" font-size="20.3125" lengthAdjust="spacing" textLength="220.3629" x="179.3259" y="487.2597">[studyAtlas, globalAtlas]</text></g><g class="message" data-entity-1="part2" data-entity-2="part3" data-source-line="24" id="msg3"><polygon fill="#4B5563" points="444.3733,558.2489,459.9983,564.4989,444.3733,570.7489,450.6233,564.4989" style="stroke:#4B5563;stroke-width:1.5625;stroke-linejoin:miter;stroke-miterlimit:10;"/><line style="stroke:#4B5563;stroke-width:1.5625;" x1="168.3884" x2="453.7483" y1="564.4989" y2="564.4989"/><text fill="#111827" font-family="'Malgun Gothic'" font-size="20.3125" lengthAdjust="spacing" textLength="222.5449" x="179.3259" y="556.4644">ipe-atlas-export-request</text></g><g class="message" data-entity-1="part3" data-entity-2="part2" data-source-line="25" id="msg4"><polygon fill="#4B5563" points="185.5759,607.1411,169.9509,613.3911,185.5759,619.6411,179.3259,613.3911" style="stroke:#4B5563;stroke-width:1.5625;stroke-linejoin:miter;stroke-miterlimit:10;"/><line style="stroke:#4B5563;stroke-width:1.5625;stroke-dasharray:3.125,3.125;" x1="176.2009" x2="461.5608" y1="613.3911" y2="613.3911"/><text fill="#111827" font-family="'Malgun Gothic'" font-size="20.3125" lengthAdjust="spacing" textLength="235.4782" x="194.9509" y="605.3566">response(state="INITIAL")</text></g><g class="message" data-entity-1="part2" data-entity-2="part2" data-source-line="26" id="msg5"><line style="stroke:#4B5563;stroke-width:1.5625;" x1="168.3884" x2="234.0134" y1="662.2833" y2="662.2833"/><line style="stroke:#4B5563;stroke-width:1.5625;" x1="234.0134" x2="234.0134" y1="662.2833" y2="682.5958"/><line style="stroke:#4B5563;stroke-width:1.5625;" x1="169.9509" x2="234.0134" y1="682.5958" y2="682.5958"/><polygon fill="#4B5563" points="185.5759,676.3458,169.9509,682.5958,185.5759,688.8458,179.3259,682.5958" style="stroke:#4B5563;stroke-width:1.5625;stroke-linejoin:miter;stroke-miterlimit:10;"/><text fill="#111827" font-family="'Malgun Gothic'" font-size="20.3125" lengthAdjust="spacing" textLength="272.86" x="179.3259" y="654.2488">first valid response&#50640;&#49436; break</text></g><path d="M175,709.1583 L175,765.4083 A6.25,6.25 0 0 0 181.25,771.6583 L500,771.6583 A6.25,6.25 0 0 0 506.25,765.4083 L506.25,718.5333 L490.625,702.9083 L181.25,702.9083 A6.25,6.25 0 0 0 175,709.1583" fill="#FFF8DC" style="stroke:#8B7355;stroke-width:0.7813;"/><path d="M490.625,702.9083 L490.625,715.4083 A3.125,3.125 0 0 0 493.75,718.5333 L506.25,718.5333 L490.625,702.9083" fill="#FFF8DC" style="stroke:#8B7355;stroke-width:0.7813;"/><text fill="#111827" font-family="'Malgun Gothic'" font-size="20.3125" lengthAdjust="spacing" textLength="298.9845" x="184.375" y="732.8285">globalAtlas&#50640;&#45716; &#50836;&#52397;&#54616;&#51648; &#50506;&#44144;&#45208;</text><text fill="#111827" font-family="'Malgun Gothic'" font-size="20.3125" lengthAdjust="spacing" textLength="252.3987" x="184.375" y="759.8457">&#51025;&#45813;&#51012; &#48708;&#44368;&#54616;&#51648; &#50506;&#45716;&#45796;. [S]</text><g class="message" data-entity-1="part2" data-entity-2="part5" data-source-line="33" id="msg6"><polygon fill="#4B5563" points="875.7912,810.5225,891.4162,816.7725,875.7912,823.0225,882.0412,816.7725" style="stroke:#4B5563;stroke-width:1.5625;stroke-linejoin:miter;stroke-miterlimit:10;"/><line style="stroke:#4B5563;stroke-width:1.5625;" x1="168.3884" x2="885.1662" y1="816.7725" y2="816.7725"/><text fill="#111827" font-family="'Malgun Gothic'" font-size="20.3125" lengthAdjust="spacing" textLength="155.2498" x="179.3259" y="808.7379">Atlas = "INITIAL"</text></g><g class="message" data-entity-1="part2" data-entity-2="part6" data-source-line="34" id="msg7"><polygon fill="#4B5563" points="1120.3041,859.4147,1135.9291,865.6647,1120.3041,871.9147,1126.5541,865.6647" style="stroke:#4B5563;stroke-width:1.5625;stroke-linejoin:miter;stroke-miterlimit:10;"/><line style="stroke:#4B5563;stroke-width:1.5625;stroke-dasharray:3.125,3.125;" x1="168.3884" x2="1129.6791" y1="865.6647" y2="865.6647"/><text fill="#111827" font-family="'Malgun Gothic'" font-size="20.3125" lengthAdjust="spacing" textLength="229.6165" x="179.3259" y="857.6302">payload.atlas = "INITIAL"</text></g><g class="message" data-entity-1="part6" data-entity-2="part7" data-source-line="35" id="msg8"><polygon fill="#4B5563" points="1366.8602,908.3069,1382.4852,914.5569,1366.8602,920.8069,1373.1102,914.5569" style="stroke:#4B5563;stroke-width:1.5625;stroke-linejoin:miter;stroke-miterlimit:10;"/><line style="stroke:#4B5563;stroke-width:1.5625;" x1="1139.0541" x2="1376.2352" y1="914.5569" y2="914.5569"/><text fill="#111827" font-family="'Malgun Gothic'" font-size="20.3125" lengthAdjust="spacing" textLength="209.0561" x="1149.9916" y="906.5224">commit stale snapshot</text></g><g class="message" data-entity-1="part7" data-entity-2="part6" data-source-line="36" id="msg9"><polygon fill="#4B5563" points="1156.2416,957.1991,1140.6166,963.4491,1156.2416,969.6991,1149.9916,963.4491" style="stroke:#4B5563;stroke-width:1.5625;stroke-linejoin:miter;stroke-miterlimit:10;"/><line style="stroke:#4B5563;stroke-width:1.5625;stroke-dasharray:3.125,3.125;" x1="1146.8666" x2="1384.0477" y1="963.4491" y2="963.4491"/><text fill="#111827" font-family="'Malgun Gothic'" font-size="20.3125" lengthAdjust="spacing" textLength="130.1567" x="1165.6166" y="955.4146">revision saved</text></g><g class="message" data-entity-1="part6" data-entity-2="part5" data-source-line="37" id="msg10"><polygon fill="#4B5563" points="911.7287,1006.0913,896.1037,1012.3413,911.7287,1018.5913,905.4787,1012.3413" style="stroke:#4B5563;stroke-width:1.5625;stroke-linejoin:miter;stroke-miterlimit:10;"/><line style="stroke:#4B5563;stroke-width:1.5625;" x1="902.3537" x2="1137.4916" y1="1012.3413" y2="1012.3413"/><text fill="#111827" font-family="'Malgun Gothic'" font-size="20.3125" lengthAdjust="spacing" textLength="207.0129" x="921.1037" y="1004.3068">verified stale snapshot</text></g><path d="M820.3125,1038.9038 L820.3125,1095.1538 A6.25,6.25 0 0 0 826.5625,1101.4038 L1450,1101.4038 A6.25,6.25 0 0 0 1456.25,1095.1538 L1456.25,1048.2788 L1440.625,1032.6538 L826.5625,1032.6538 A6.25,6.25 0 0 0 820.3125,1038.9038" fill="#FFF8DC" style="stroke:#8B7355;stroke-width:0.7813;"/><path d="M1440.625,1032.6538 L1440.625,1045.1538 A3.125,3.125 0 0 0 1443.75,1048.2788 L1456.25,1048.2788 L1440.625,1032.6538" fill="#FFF8DC" style="stroke:#8B7355;stroke-width:0.7813;"/><text fill="#111827" font-family="'Malgun Gothic'" font-size="20.3125" lengthAdjust="spacing" textLength="413.8077" x="924.8577" y="1062.574">&#44208;&#44284;: &#52572;&#49888; global &#49345;&#53468;&#50752; &#44592;&#51316; localStorage&#44032;</text><text fill="#111827" font-family="'Malgun Gothic'" font-size="20.3125" lengthAdjust="spacing" textLength="310.6781" x="924.8577" y="1089.5912">&#50724;&#47000;&#46108; study &#49345;&#53468;&#47196; &#50669;&#54665;&#54620;&#45796;. [R]</text><g class="caption" data-source-line="44"><text fill="#111827" font-family="'Malgun Gothic'" font-size="21.875" lengthAdjust="spacing" textLength="825.4181" x="319.0525" y="1273.967">&#44208;&#54632; 1 &#8212; &#48373;&#49324;&#48376;&#50640; &#44277;&#53685; revision/freshness&#44032; &#50630;&#50612; &#48176;&#50676; &#49692;&#49436;&#44032; &#49324;&#49892;&#49345; &#44428;&#50948;&#44032; &#46108;&#45796;.</text></g><?plantuml-src XLJFJnD15BxlN_7i2H9QvQ892IOrKTAaed7XX8GCkrCwSRkxxamRwwdIXY3rK18ArMm993LwWAHIQZ3nh_6uE_i_-FO7PIiQJpDvyxttlldUDtE7cPfHrIbiS54tQCwkLWn5C65GoAlPWWhtxiElnW6iFYs2RBj1eo7t1WlWxtSWBmp2PRy7iZVmZtj-nmNPV1SqSMcT1Cs-eX1DM0wiSkeeDd44qvXDJ06PvyIXkDRc7q39gF9o1WY7E3WDvAAgrwC-m4eEgT08gORHQU2MOMqIunPoAGehEX5aat0A6JlkR5WQCLGaHxPYO56ThhTiEHLYiBTK1xLkQd5RtAHAgLKxsiLdrAdXBHNJ4XGit2Oa0RWWWkPYHHSXKrWkh1JonOn2JHr2T2ebONihfvXVUQokR2mLdptwHoRI1_WlNWad0Tc7YTIm0F9BmxlQ1NdIaCUVbIIS1k28yffWDHf9-oGKbi_ClZJNRYOp1odnrrD58WMm1hDfbeI7MVh6jXoHTUZhAkL2YG7PT3-7SjioEPs995YSo3NxDt8bvd1q4Sv9doJAeuvikR3fKF8g6OV3jie2hDArmo1D6F7-tW78JmVouZpezb0HaDqzxzlGt-uXLFRt_VPOzblW_sXvuyuD1DFyzY07Q-fwIk8RcaKLASQEJC_z6X0AX8P2Z4tgXaNq7Bc5ZG0XC78NGZMhKc4Yz0TEcfl4vcKBTOoFKoKTMcESMIPmKgFwf4v42Q6inD3OVrIPijDSOcW0xsBeZNwYLSQkR9yaqYKFNNviW7SrbAUNKo_A6pP2vIQ_GkIL9CK_nU_Xw3muV1zqtLY_5sdzD6ABa3Ys3RfVOJxwVFpHM6wV-QChd1Puet6mCvvSyMu9HrysAUVO5alloCDBy8T3UNG9SjT5CqJnxJFP7Y05yBv_a6uhZ26raC1l?></g></svg>