<svg xmlns="http://www.w3.org/2000/svg" xmlns:xlink="http://www.w3.org/1999/xlink" contentStyleType="text/css" data-diagram-type="SEQUENCE" height="1548.4375px" preserveAspectRatio="none" style="width:1048px;height:1548px;background:#FFFFFF;" version="1.1" viewBox="0 0 1048 1548" width="1048.4375px" zoomAndPan="magnify"><?plantuml 1.2026.6?><defs/><g><g class="title" data-source-line="2"><text fill="#111827" font-family="'Malgun Gothic'" font-size="21.875" font-weight="700" lengthAdjust="spacing" textLength="489.5065" x="274.3164" y="47.2458">AS-IS 07 &#8212; UML &#49884;&#53248;&#49828;: &#49436;&#48260; &#49457;&#44277; &#54980; &#51025;&#45813; &#50976;&#49892;</text></g><g class="participant-lifeline" data-entity-uid="part1" data-qualified-name="User" data-source-line="4" id="part1-lifeline"><g><title>User</title><rect fill="#000000" fill-opacity="0.00000" height="586.7065" width="12.5" x="118.8839" y="192.5659"/><line style="stroke:#64748B;stroke-width:0.7813;stroke-dasharray:7.8125,7.8125;" x1="124.8669" x2="124.8669" y1="192.5659" y2="779.2725"/></g><line style="stroke:#64748B;stroke-width:0.7813;stroke-dasharray:1.5625,6.25;" x1="124.8669" x2="124.8669" y1="779.2725" y2="845.8832"/><g><title>User</title><rect fill="#000000" fill-opacity="0.00000" height="537.8143" width="12.5" x="118.8839" y="845.8832"/><line style="stroke:#64748B;stroke-width:0.7813;stroke-dasharray:7.8125,7.8125;" x1="124.8669" x2="124.8669" y1="845.8832" y2="1383.6975"/></g></g><g class="participant-lifeline" data-entity-uid="part2" data-qualified-name="Sync" data-source-line="5" id="part2-lifeline"><g><title>Normalized Sync</title><rect fill="#000000" fill-opacity="0.00000" height="586.7065" width="12.5" x="255.9147" y="192.5659"/><line style="stroke:#64748B;stroke-width:0.7813;stroke-dasharray:7.8125,7.8125;" x1="261.3384" x2="261.3384" y1="192.5659" y2="779.2725"/></g><line style="stroke:#64748B;stroke-width:0.7813;stroke-dasharray:1.5625,6.25;" x1="261.3384" x2="261.3384" y1="779.2725" y2="845.8832"/><g><title>Normalized Sync</title><rect fill="#000000" fill-opacity="0.00000" height="537.8143" width="12.5" x="255.9147" y="845.8832"/><line style="stroke:#64748B;stroke-width:0.7813;stroke-dasharray:7.8125,7.8125;" x1="261.3384" x2="261.3384" y1="845.8832" y2="1383.6975"/></g></g><g class="participant-lifeline" data-entity-uid="part3" data-qualified-name="Meta" data-source-line="6" id="part3-lifeline"><g><title>local meta</title><rect fill="#000000" fill-opacity="0.00000" height="586.7065" width="12.5" x="475.6878" y="192.5659"/><line style="stroke:#64748B;stroke-width:0.7813;stroke-dasharray:7.8125,7.8125;" x1="481.9263" x2="481.9263" y1="192.5659" y2="779.2725"/></g><line style="stroke:#64748B;stroke-width:0.7813;stroke-dasharray:1.5625,6.25;" x1="481.9263" x2="481.9263" y1="779.2725" y2="845.8832"/><g><title>local meta</title><rect fill="#000000" fill-opacity="0.00000" height="537.8143" width="12.5" x="475.6878" y="845.8832"/><line style="stroke:#64748B;stroke-width:0.7813;stroke-dasharray:7.8125,7.8125;" x1="481.9263" x2="481.9263" y1="845.8832" y2="1383.6975"/></g></g><g class="participant-lifeline" data-entity-uid="part4" data-qualified-name="RPC" data-source-line="7" id="part4-lifeline"><g><title>Supabase RPC</title><rect fill="#000000" fill-opacity="0.00000" height="586.7065" width="12.5" x="629.5788" y="192.5659"/><line style="stroke:#64748B;stroke-width:0.7813;stroke-dasharray:7.8125,7.8125;" x1="635.0742" x2="635.0742" y1="192.5659" y2="779.2725"/></g><line style="stroke:#64748B;stroke-width:0.7813;stroke-dasharray:1.5625,6.25;" x1="635.0742" x2="635.0742" y1="779.2725" y2="845.8832"/><g><title>Supabase RPC</title><rect fill="#000000" fill-opacity="0.00000" height="537.8143" width="12.5" x="629.5788" y="845.8832"/><line style="stroke:#64748B;stroke-width:0.7813;stroke-dasharray:7.8125,7.8125;" x1="635.0742" x2="635.0742" y1="845.8832" y2="1383.6975"/></g></g><g class="participant-lifeline" data-entity-uid="part5" data-qualified-name="DB" data-source-line="8" id="part5-lifeline"><g><title>PostgreSQL</title><rect fill="#000000" fill-opacity="0.00000" height="586.7065" width="12.5" x="861.2377" y="192.5659"/><line style="stroke:#64748B;stroke-width:0.7813;stroke-dasharray:7.8125,7.8125;" x1="866.4814" x2="866.4814" y1="192.5659" y2="779.2725"/></g><line style="stroke:#64748B;stroke-width:0.7813;stroke-dasharray:1.5625,6.25;" x1="866.4814" x2="866.4814" y1="779.2725" y2="845.8832"/><g><title>PostgreSQL</title><rect fill="#000000" fill-opacity="0.00000" height="537.8143" width="12.5" x="861.2377" y="845.8832"/><line style="stroke:#64748B;stroke-width:0.7813;stroke-dasharray:7.8125,7.8125;" x1="866.4814" x2="866.4814" y1="845.8832" y2="1383.6975"/></g></g><g class="participant participant-head" data-entity-uid="part1" data-qualified-name="User" data-source-line="4" id="part1-head"><text fill="#111827" font-family="'Malgun Gothic'" font-size="21.875" lengthAdjust="spacing" textLength="44.2841" x="98.3044" y="187.2787">User</text><ellipse cx="125.1339" cy="83.0017" fill="#E2E2F0" rx="12.5" ry="12.5" style="stroke:#181818;stroke-width:0.7813;"/><path d="M125.1339,95.5017 L125.1339,137.6892 M104.8214,108.0017 L145.4464,108.0017 M125.1339,137.6892 L104.8214,161.1267 M125.1339,137.6892 L145.4464,161.1267" fill="none" style="stroke:#181818;stroke-width:0.7813;"/></g><g class="participant participant-tail" data-entity-uid="part1" data-qualified-name="User" data-source-line="4" id="part1-tail"><text fill="#111827" font-family="'Malgun Gothic'" font-size="21.875" lengthAdjust="spacing" textLength="44.2841" x="98.3044" y="1405.9433">User</text><ellipse cx="125.1339" cy="1424.5117" fill="#E2E2F0" rx="12.5" ry="12.5" style="stroke:#181818;stroke-width:0.7813;"/><path d="M125.1339,1437.0117 L125.1339,1479.1992 M104.8214,1449.5117 L145.4464,1449.5117 M125.1339,1479.1992 L104.8214,1502.6367 M125.1339,1479.1992 L145.4464,1502.6367" fill="none" style="stroke:#181818;stroke-width:0.7813;"/></g><g class="participant participant-head" data-entity-uid="part2" data-qualified-name="Sync" data-source-line="5" id="part2-head"><rect fill="#E2E2F0" height="50.9705" rx="6.25" ry="6.25" style="stroke:#181818;stroke-width:0.7813;" width="189.1525" x="167.5884" y="140.033"/><text fill="#111827" font-family="'Malgun Gothic'" font-size="21.875" lengthAdjust="spacing" textLength="167.2775" x="178.5259" y="174.7787">Normalized Sync</text></g><g class="participant participant-tail" data-entity-uid="part2" data-qualified-name="Sync" data-source-line="5" id="part2-tail"><rect fill="#E2E2F0" height="50.9705" rx="6.25" ry="6.25" style="stroke:#181818;stroke-width:0.7813;" width="189.1525" x="167.5884" y="1382.135"/><text fill="#111827" font-family="'Malgun Gothic'" font-size="21.875" lengthAdjust="spacing" textLength="167.2775" x="178.5259" y="1416.8808">Normalized Sync</text></g><g class="participant participant-head" data-entity-uid="part3" data-qualified-name="Meta" data-source-line="6" id="part3-head"><text fill="#111827" font-family="'Malgun Gothic'" font-size="21.875" lengthAdjust="spacing" textLength="103.1479" x="425.6763" y="187.2787">local meta</text><path d="M453.8128,107.2205 C453.8128,91.5955 481.9378,91.5955 481.9378,91.5955 C481.9378,91.5955 510.0628,91.5955 510.0628,107.2205 L510.0628,147.8455 C510.0628,163.4705 481.9378,163.4705 481.9378,163.4705 C481.9378,163.4705 453.8128,163.4705 453.8128,147.8455 L453.8128,107.2205" fill="#E2E2F0" style="stroke:#181818;stroke-width:0.7813;"/><path d="M453.8128,107.2205 C453.8128,122.8455 481.9378,122.8455 481.9378,122.8455 C481.9378,122.8455 510.0628,122.8455 510.0628,107.2205" fill="none" style="stroke:#181818;stroke-width:0.7813;"/></g><g class="participant participant-tail" data-entity-uid="part3" data-qualified-name="Meta" data-source-line="6" id="part3-tail"><text fill="#111827" font-family="'Malgun Gothic'" font-size="21.875" lengthAdjust="spacing" textLength="103.1479" x="425.6763" y="1405.9433">local meta</text><path d="M453.8128,1426.8555 C453.8128,1411.2305 481.9378,1411.2305 481.9378,1411.2305 C481.9378,1411.2305 510.0628,1411.2305 510.0628,1426.8555 L510.0628,1467.4805 C510.0628,1483.1055 481.9378,1483.1055 481.9378,1483.1055 C481.9378,1483.1055 453.8128,1483.1055 453.8128,1467.4805 L453.8128,1426.8555" fill="#E2E2F0" style="stroke:#181818;stroke-width:0.7813;"/><path d="M453.8128,1426.8555 C453.8128,1442.4805 481.9378,1442.4805 481.9378,1442.4805 C481.9378,1442.4805 510.0628,1442.4805 510.0628,1426.8555" fill="none" style="stroke:#181818;stroke-width:0.7813;"/></g><g class="participant participant-head" data-entity-uid="part4" data-qualified-name="RPC" data-source-line="7" id="part4-head"><rect fill="#E2E2F0" height="50.9705" rx="6.25" ry="6.25" style="stroke:#181818;stroke-width:0.7813;" width="164.0091" x="553.8242" y="140.033"/><text fill="#111827" font-family="'Malgun Gothic'" font-size="21.875" lengthAdjust="spacing" textLength="142.1341" x="564.7617" y="174.7787">Supabase RPC</text></g><g class="participant participant-tail" data-entity-uid="part4" data-qualified-name="RPC" data-source-line="7" id="part4-tail"><rect fill="#E2E2F0" height="50.9705" rx="6.25" ry="6.25" style="stroke:#181818;stroke-width:0.7813;" width="164.0091" x="553.8242" y="1382.135"/><text fill="#111827" font-family="'Malgun Gothic'" font-size="21.875" lengthAdjust="spacing" textLength="142.1341" x="564.7617" y="1416.8808">Supabase RPC</text></g><g class="participant participant-head" data-entity-uid="part5" data-qualified-name="DB" data-source-line="8" id="part5-head"><text fill="#111827" font-family="'Malgun Gothic'" font-size="21.875" lengthAdjust="spacing" textLength="114.5126" x="805.5439" y="187.2787">PostgreSQL</text><path d="M839.3627,107.2205 C839.3627,91.5955 867.4877,91.5955 867.4877,91.5955 C867.4877,91.5955 895.6127,91.5955 895.6127,107.2205 L895.6127,147.8455 C895.6127,163.4705 867.4877,163.4705 867.4877,163.4705 C867.4877,163.4705 839.3627,163.4705 839.3627,147.8455 L839.3627,107.2205" fill="#E2E2F0" style="stroke:#181818;stroke-width:0.7813;"/><path d="M839.3627,107.2205 C839.3627,122.8455 867.4877,122.8455 867.4877,122.8455 C867.4877,122.8455 895.6127,122.8455 895.6127,107.2205" fill="none" style="stroke:#181818;stroke-width:0.7813;"/></g><g class="participant participant-tail" data-entity-uid="part5" data-qualified-name="DB" data-source-line="8" id="part5-tail"><text fill="#111827" font-family="'Malgun Gothic'" font-size="21.875" lengthAdjust="spacing" textLength="114.5126" x="805.5439" y="1405.9433">PostgreSQL</text><path d="M839.3627,1426.8555 C839.3627,1411.2305 867.4877,1411.2305 867.4877,1411.2305 C867.4877,1411.2305 895.6127,1411.2305 895.6127,1426.8555 L895.6127,1467.4805 C895.6127,1483.1055 867.4877,1483.1055 867.4877,1483.1055 C867.4877,1483.1055 839.3627,1483.1055 839.3627,1467.4805 L839.3627,1426.8555" fill="#E2E2F0" style="stroke:#181818;stroke-width:0.7813;"/><path d="M839.3627,1426.8555 C839.3627,1442.4805 867.4877,1442.4805 867.4877,1442.4805 C867.4877,1442.4805 895.6127,1442.4805 895.6127,1426.8555" fill="none" style="stroke:#181818;stroke-width:0.7813;"/></g><path d="M379.5544,222.2534 L379.5544,278.5034 A6.25,6.25 0 0 0 385.8044,284.7534 L576.4294,284.7534 A6.25,6.25 0 0 0 582.6794,278.5034 L582.6794,231.6284 L567.0544,216.0034 L385.8044,216.0034 A6.25,6.25 0 0 0 379.5544,222.2534" fill="#FFF8DC" style="stroke:#8B7355;stroke-width:0.7813;"/><path d="M567.0544,216.0034 L567.0544,228.5034 A3.125,3.125 0 0 0 570.1794,231.6284 L582.6794,231.6284 L567.0544,216.0034" fill="#FFF8DC" style="stroke:#8B7355;stroke-width:0.7813;"/><text fill="#111827" font-family="'Malgun Gothic'" font-size="20.3125" lengthAdjust="spacing" textLength="170.3651" x="388.9294" y="245.9236">serverRevision = 5</text><text fill="#111827" font-family="'Malgun Gothic'" font-size="20.3125" lengthAdjust="spacing" textLength="106.7299" x="388.9294" y="272.9408">dirty = true</text><g class="message" data-entity-1="part1" data-entity-2="part2" data-source-line="15" id="msg1"><polygon fill="#4B5563" points="243.4147,323.6176,259.0397,329.8676,243.4147,336.1176,249.6647,329.8676" style="stroke:#4B5563;stroke-width:1.5625;stroke-linejoin:miter;stroke-miterlimit:10;"/><line style="stroke:#4B5563;stroke-width:1.5625;" x1="125.1339" x2="252.7897" y1="329.8676" y2="329.8676"/><text fill="#111827" font-family="'Malgun Gothic'" font-size="20.3125" lengthAdjust="spacing" textLength="88.3911" x="136.0714" y="321.833">&#51648;&#44552; &#51200;&#51109;</text></g><g class="message" data-entity-1="part2" data-entity-2="part2" data-source-line="16" id="msg2"><line style="stroke:#4B5563;stroke-width:1.5625;" x1="262.1647" x2="327.7897" y1="378.7598" y2="378.7598"/><line style="stroke:#4B5563;stroke-width:1.5625;" x1="327.7897" x2="327.7897" y1="378.7598" y2="399.0723"/><line style="stroke:#4B5563;stroke-width:1.5625;" x1="263.7272" x2="327.7897" y1="399.0723" y2="399.0723"/><polygon fill="#4B5563" points="279.3522,392.8223,263.7272,399.0723,279.3522,405.3223,273.1022,399.0723" style="stroke:#4B5563;stroke-width:1.5625;stroke-linejoin:miter;stroke-miterlimit:10;"/><text fill="#111827" font-family="'Malgun Gothic'" font-size="20.3125" lengthAdjust="spacing" textLength="184.1316" x="273.1022" y="370.7253">operationId = OP-A</text></g><g class="message" data-entity-1="part2" data-entity-2="part4" data-source-line="17" id="msg3"><polygon fill="#4B5563" points="617.0788,441.7145,632.7038,447.9645,617.0788,454.2145,623.3288,447.9645" style="stroke:#4B5563;stroke-width:1.5625;stroke-linejoin:miter;stroke-miterlimit:10;"/><line style="stroke:#4B5563;stroke-width:1.5625;" x1="262.1647" x2="626.4538" y1="447.9645" y2="447.9645"/><text fill="#111827" font-family="'Malgun Gothic'" font-size="20.3125" lengthAdjust="spacing" textLength="250.9903" x="273.1022" y="439.93">commit(expected=5, OP-A)</text></g><g class="message" data-entity-1="part4" data-entity-2="part5" data-source-line="18" id="msg4"><polygon fill="#4B5563" points="848.7377,517.6239,864.3627,523.8739,848.7377,530.1239,854.9877,523.8739" style="stroke:#4B5563;stroke-width:1.5625;stroke-linejoin:miter;stroke-miterlimit:10;"/><line style="stroke:#4B5563;stroke-width:1.5625;" x1="635.8288" x2="858.1127" y1="523.8739" y2="523.8739"/><text fill="#111827" font-family="'Malgun Gothic'" font-size="20.3125" lengthAdjust="spacing" textLength="165.9317" x="646.7663" y="488.8222">append revision 6</text><text fill="#111827" font-family="'Malgun Gothic'" font-size="20.3125" lengthAdjust="spacing" textLength="194.1589" x="646.7663" y="515.8394">unique(syncId, OP-A)</text></g><g class="message" data-entity-1="part5" data-entity-2="part4" data-source-line="19" id="msg5"><polygon fill="#4B5563" points="653.0163,566.5161,637.3913,572.7661,653.0163,579.0161,646.7663,572.7661" style="stroke:#4B5563;stroke-width:1.5625;stroke-linejoin:miter;stroke-miterlimit:10;"/><line style="stroke:#4B5563;stroke-width:1.5625;stroke-dasharray:3.125,3.125;" x1="643.6413" x2="865.9252" y1="572.7661" y2="572.7661"/><text fill="#111827" font-family="'Malgun Gothic'" font-size="20.3125" lengthAdjust="spacing" textLength="93.7172" x="662.3913" y="564.7316">success r6</text></g><g class="message" data-entity-1="part4" data-entity-2="part2" data-source-line="20" id="msg6"><line style="stroke:#4B5563;stroke-width:3.125;" x1="273.1022" x2="288.7272" y1="613.8458" y2="629.4708"/><line style="stroke:#4B5563;stroke-width:3.125;" x1="273.1022" x2="288.7272" y1="629.4708" y2="613.8458"/><line style="stroke:#4B5563;stroke-width:1.5625;" x1="280.9147" x2="634.2663" y1="621.6583" y2="621.6583"/><text fill="#111827" font-family="'Malgun Gothic'" font-size="20.3125" lengthAdjust="spacing" textLength="143.5265" x="288.7272" y="613.6238">HTTP &#51025;&#45813; &#50976;&#49892;</text></g><g class="message" data-entity-1="part2" data-entity-2="part3" data-source-line="21" id="msg7"><polygon fill="#4B5563" points="463.1878,691.3177,478.8128,697.5677,463.1878,703.8177,469.4378,697.5677" style="stroke:#4B5563;stroke-width:1.5625;stroke-linejoin:miter;stroke-miterlimit:10;"/><line style="stroke:#4B5563;stroke-width:1.5625;" x1="262.1647" x2="472.5628" y1="697.5677" y2="697.5677"/><text fill="#111827" font-family="'Malgun Gothic'" font-size="20.3125" lengthAdjust="spacing" textLength="165.5846" x="273.1022" y="662.516">serverState=failed</text><text fill="#111827" font-family="'Malgun Gothic'" font-size="20.3125" lengthAdjust="spacing" textLength="92.4477" x="273.1022" y="689.5332">dirty=true</text></g><g class="message" data-entity-1="part2" data-entity-2="part2" data-source-line="22" id="msg8"><line style="stroke:#4B5563;stroke-width:1.5625;" x1="262.1647" x2="327.7897" y1="746.46" y2="746.46"/><line style="stroke:#4B5563;stroke-width:1.5625;" x1="327.7897" x2="327.7897" y1="746.46" y2="766.7725"/><line style="stroke:#4B5563;stroke-width:1.5625;" x1="263.7272" x2="327.7897" y1="766.7725" y2="766.7725"/><polygon fill="#4B5563" points="279.3522,760.5225,263.7272,766.7725,279.3522,773.0225,273.1022,766.7725" style="stroke:#4B5563;stroke-width:1.5625;stroke-linejoin:miter;stroke-miterlimit:10;"/><text fill="#111827" font-family="'Malgun Gothic'" font-size="20.3125" lengthAdjust="spacing" textLength="99.9855" x="273.1022" y="738.4254">retryLater()</text></g><text fill="#111827" font-family="'Malgun Gothic'" font-size="17.1875" lengthAdjust="spacing" textLength="57.2525" x="467.6846" y="819.854">backoff</text><g class="message" data-entity-1="part2" data-entity-2="part2" data-source-line="26" id="msg9"><line style="stroke:#4B5563;stroke-width:1.5625;" x1="262.1647" x2="327.7897" y1="882.2754" y2="882.2754"/><line style="stroke:#4B5563;stroke-width:1.5625;" x1="327.7897" x2="327.7897" y1="882.2754" y2="902.5879"/><line style="stroke:#4B5563;stroke-width:1.5625;" x1="263.7272" x2="327.7897" y1="902.5879" y2="902.5879"/><polygon fill="#4B5563" points="279.3522,896.3379,263.7272,902.5879,279.3522,908.8379,273.1022,902.5879" style="stroke:#4B5563;stroke-width:1.5625;stroke-linejoin:miter;stroke-miterlimit:10;"/><text fill="#111827" font-family="'Malgun Gothic'" font-size="20.3125" lengthAdjust="spacing" textLength="197.8981" x="273.1022" y="874.2409">commitOnce() &#51116;&#54840;&#52636;</text></g><g class="message" data-entity-1="part2" data-entity-2="part2" data-source-line="27" id="msg10"><line style="stroke:#4B5563;stroke-width:1.5625;" x1="262.1647" x2="327.7897" y1="951.4801" y2="951.4801"/><line style="stroke:#4B5563;stroke-width:1.5625;" x1="327.7897" x2="327.7897" y1="951.4801" y2="971.7926"/><line style="stroke:#4B5563;stroke-width:1.5625;" x1="263.7272" x2="327.7897" y1="971.7926" y2="971.7926"/><polygon fill="#4B5563" points="279.3522,965.5426,263.7272,971.7926,279.3522,978.0426,273.1022,971.7926" style="stroke:#4B5563;stroke-width:1.5625;stroke-linejoin:miter;stroke-miterlimit:10;"/><text fill="#111827" font-family="'Malgun Gothic'" font-size="20.3125" lengthAdjust="spacing" textLength="182.6141" x="273.1022" y="943.4456">operationId = OP-B</text></g><g class="message" data-entity-1="part2" data-entity-2="part4" data-source-line="28" id="msg11"><polygon fill="#4B5563" points="617.0788,1014.4348,632.7038,1020.6848,617.0788,1026.9348,623.3288,1020.6848" style="stroke:#4B5563;stroke-width:1.5625;stroke-linejoin:miter;stroke-miterlimit:10;"/><line style="stroke:#4B5563;stroke-width:1.5625;" x1="262.1647" x2="626.4538" y1="1020.6848" y2="1020.6848"/><text fill="#111827" font-family="'Malgun Gothic'" font-size="20.3125" lengthAdjust="spacing" textLength="249.4728" x="273.1022" y="1012.6503">commit(expected=5, OP-B)</text></g><g class="message" data-entity-1="part4" data-entity-2="part5" data-source-line="29" id="msg12"><polygon fill="#4B5563" points="848.7377,1090.3442,864.3627,1096.5942,848.7377,1102.8442,854.9877,1096.5942" style="stroke:#4B5563;stroke-width:1.5625;stroke-linejoin:miter;stroke-miterlimit:10;"/><line style="stroke:#4B5563;stroke-width:1.5625;" x1="635.8288" x2="858.1127" y1="1096.5942" y2="1096.5942"/><text fill="#111827" font-family="'Malgun Gothic'" font-size="20.3125" lengthAdjust="spacing" textLength="143.0206" x="646.7663" y="1061.5425">OP-B&#45716; &#49352; &#51089;&#50629;</text><text fill="#111827" font-family="'Malgun Gothic'" font-size="20.3125" lengthAdjust="spacing" textLength="146.7003" x="646.7663" y="1088.5597">headRevision=6</text></g><g class="message" data-entity-1="part5" data-entity-2="part4" data-source-line="30" id="msg13"><polygon fill="#4B5563" points="653.0163,1166.2537,637.3913,1172.5037,653.0163,1178.7537,646.7663,1172.5037" style="stroke:#4B5563;stroke-width:1.5625;stroke-linejoin:miter;stroke-miterlimit:10;"/><line style="stroke:#4B5563;stroke-width:1.5625;stroke-dasharray:3.125,3.125;" x1="643.6413" x2="865.9252" y1="1172.5037" y2="1172.5037"/><text fill="#111827" font-family="'Malgun Gothic'" font-size="20.3125" lengthAdjust="spacing" textLength="144.3398" x="662.3913" y="1137.4519">revision conflict</text><text fill="#111827" font-family="'Malgun Gothic'" font-size="20.3125" lengthAdjust="spacing" textLength="185.7979" x="662.3913" y="1164.4691">expected 5, actual 6</text></g><g class="message" data-entity-1="part4" data-entity-2="part2" data-source-line="31" id="msg14"><polygon fill="#4B5563" points="279.3522,1215.1459,263.7272,1221.3959,279.3522,1227.6459,273.1022,1221.3959" style="stroke:#4B5563;stroke-width:1.5625;stroke-linejoin:miter;stroke-miterlimit:10;"/><line style="stroke:#4B5563;stroke-width:1.5625;stroke-dasharray:3.125,3.125;" x1="269.9772" x2="634.2663" y1="1221.3959" y2="1221.3959"/><text fill="#111827" font-family="'Malgun Gothic'" font-size="20.3125" lengthAdjust="spacing" textLength="129.6211" x="288.7272" y="1213.3614">40001 conflict</text></g><g class="message" data-entity-1="part2" data-entity-2="part3" data-source-line="32" id="msg15"><polygon fill="#4B5563" points="463.1878,1264.0381,478.8128,1270.2881,463.1878,1276.5381,469.4378,1270.2881" style="stroke:#4B5563;stroke-width:1.5625;stroke-linejoin:miter;stroke-miterlimit:10;"/><line style="stroke:#4B5563;stroke-width:1.5625;" x1="262.1647" x2="472.5628" y1="1270.2881" y2="1270.2881"/><text fill="#111827" font-family="'Malgun Gothic'" font-size="20.3125" lengthAdjust="spacing" textLength="182.0389" x="273.1022" y="1262.2536">serverState=conflict</text></g><path d="M187.3669,1296.8506 L187.3669,1353.1006 A6.25,6.25 0 0 0 193.6169,1359.3506 L934.2419,1359.3506 A6.25,6.25 0 0 0 940.4919,1353.1006 L940.4919,1306.2256 L924.8669,1290.6006 L193.6169,1290.6006 A6.25,6.25 0 0 0 187.3669,1296.8506" fill="#FFF8DC" style="stroke:#8B7355;stroke-width:0.7813;"/><path d="M924.8669,1290.6006 L924.8669,1303.1006 A3.125,3.125 0 0 0 927.9919,1306.2256 L940.4919,1306.2256 L924.8669,1290.6006" fill="#FFF8DC" style="stroke:#8B7355;stroke-width:0.7813;"/><text fill="#111827" font-family="'Malgun Gothic'" font-size="20.3125" lengthAdjust="spacing" textLength="536.9125" x="238.5548" y="1320.5208">&#49436;&#48260;&#51032; idempotent replay&#45716; OP-A &#51116;&#49324;&#50857; &#49884; &#46041;&#51089;&#54620;&#45796;. [D]</text><text fill="#111827" font-family="'Malgun Gothic'" font-size="20.3125" lengthAdjust="spacing" textLength="637.5923" x="238.5548" y="1347.538">&#53364;&#46972;&#51060;&#50616;&#53944;&#44032; &#51116;&#49884;&#46020;&#50640;&#49436; OP-B&#47484; &#49373;&#49457;&#54644; &#51060;&#47484; &#49324;&#50857;&#54616;&#51648; &#47803;&#54620;&#45796;. [S][R]</text><g class="caption" data-source-line="39"><text fill="#111827" font-family="'Malgun Gothic'" font-size="21.875" lengthAdjust="spacing" textLength="1035.0143" x="1.5625" y="1531.9138">&#44208;&#54632; 4 &#8212; idempotency&#44032; &#49436;&#48260;&#50640;&#45716; &#51080;&#51004;&#45208; operation identity&#44032; &#53364;&#46972;&#51060;&#50616;&#53944; &#49373;&#47749;&#51452;&#44592;&#50640; &#48372;&#51316;&#46104;&#51648; &#50506;&#45716;&#45796;.</text></g><?plantuml-src ZLH1JnD15BxFhtXoAWbjQWAOcDI4oa4Ia4hXH8aPPgUwSRkxxiuIwgbYIKXx018gLTi68qGb712AQM9_ZSVkx7_mpPGMw44zxTkPxttplU-zcNkcpQp0uF3S5qMB9zoWO15X2el3J3O-buNa0_XTEe2LXNcGrKPKAidAyKEGvKPuKSRFZzxb5KIVC6pkXzKha8qZMJqcX3BXUB3YSu-ur1CcCrrg2nXxwdW5Qfblk07Peit6WFew80OLT9tw7COiXr4B2bnGlRk0mLsERE3seKkPnng2trlv6SSNBpoUVJQlDsVJXDYEuE1iSA_F1e2wy6-9RvY-wTYGWYbSD4nF534MNi09jmrGQOIe8Y3-ICi4BFrhgTVP0NbKagqJeXTlDXsNUrGWvPo1H8kP-CmGWI8Hm9n2mHGnlkbo9hYHcfhGg76YjX4rcqOGTLrrl3UGDvsp0zjy7V2OZsHpnY07mV4XinymndqVlEa-r-P0qvFbvSn8UmQQb1igLRkH5LJmL9wQ5ZTojZOZfQqOgT7ZmYlE8zQBZHEII2HWdR9NJZuF69DHTB_WHPlns3Z8rbbKxyYVZN_wblultz9tVLChOUK0v3liJsjV7cxdx9US6eC-fwRlMZOqc3bstZAPoDc30m0Fm1aES1Al_RmHEvbC9kyFS_vcvX1pQm8LV0A74gulaMpMmJHumKK4JhV7NOiMLHMgnyenkNKcFtvNjm_2tGzOLrHhXDNZ1ApEhY5BzBOTDhkosPRlEr6bqpilwQHg8zmjoyCzFAJloqaNVMdYZOrgRHo7jbxGr56jZaCDuUcl8NDsRNLfxTOTODHLtO7UnNbK-mQJ-aqOgcP5VMg_dCCztOBMZcnqmwtwJMiLtiQdHOD7L2jfuUcs_DBjTSwH0iBBjlpS3lUqCbch8ATIzWS0?></g></svg>