<svg xmlns="http://www.w3.org/2000/svg" xmlns:xlink="http://www.w3.org/1999/xlink" contentStyleType="text/css" data-diagram-type="SEQUENCE" height="1760.9375px" preserveAspectRatio="none" style="width:1503px;height:1760px;background:#FFFFFF;" version="1.1" viewBox="0 0 1503 1760" width="1503.125px" zoomAndPan="magnify"><?plantuml 1.2026.6?><defs/><g><g class="title" data-source-line="2"><text fill="#111827" font-family="'Malgun Gothic'" font-size="21.875" font-weight="700" lengthAdjust="spacing" textLength="542.5278" x="475.2541" y="47.2458">AS-IS 08 &#8212; UML &#49884;&#53248;&#49828;: Atlas iframe &#50630;&#45716; &#48177;&#50629; &#48373;&#44396;</text></g><rect fill="none" height="330.2765" rx="6.25" ry="6.25" style="stroke:#64748B;stroke-width:2.3438;" width="804.7104" x="320.4117" y="561.3739"/><g class="participant-lifeline" data-entity-uid="part1" data-qualified-name="User" data-source-line="4" id="part1-lifeline"><g><title>User</title><rect fill="#000000" fill-opacity="0.00000" height="1403.8879" width="12.5" x="28.392" y="192.5659"/><line style="stroke:#64748B;stroke-width:0.7813;stroke-dasharray:7.8125,7.8125;" x1="34.375" x2="34.375" y1="192.5659" y2="1596.4539"/></g></g><g class="participant-lifeline" data-entity-uid="part2" data-qualified-name="Importer" data-source-line="5" id="part2-lifeline"><g><title>Backup Importer</title><rect fill="#000000" fill-opacity="0.00000" height="1403.8879" width="12.5" x="202.0493" y="192.5659"/><line style="stroke:#64748B;stroke-width:0.7813;stroke-dasharray:7.8125,7.8125;" x1="206.9839" x2="206.9839" y1="192.5659" y2="1596.4539"/></g></g><g class="participant-lifeline" data-entity-uid="part3" data-qualified-name="Apply" data-source-line="6" id="part3-lifeline"><g><title>applySnapshotPayload</title><rect fill="#000000" fill-opacity="0.00000" height="1403.8879" width="12.5" x="452.3743" y="192.5659"/><line style="stroke:#64748B;stroke-width:0.7813;stroke-dasharray:7.8125,7.8125;" x1="457.9117" x2="457.9117" y1="192.5659" y2="1596.4539"/></g></g><g class="participant-lifeline" data-entity-uid="part4" data-qualified-name="LS" data-source-line="7" id="part4-lifeline"><g><title>localStorage</title><rect fill="#000000" fill-opacity="0.00000" height="1403.8879" width="12.5" x="708.4221" y="192.5659"/><line style="stroke:#64748B;stroke-width:0.7813;stroke-dasharray:7.8125,7.8125;" x1="714.5615" x2="714.5615" y1="192.5659" y2="1596.4539"/></g></g><g class="participant-lifeline" data-entity-uid="part5" data-qualified-name="Frame" data-source-line="8" id="part5-lifeline"><g><title>Atlas iframe</title><rect fill="#000000" fill-opacity="0.00000" height="1403.8879" width="12.5" x="859.8351" y="192.5659"/><line style="stroke:#64748B;stroke-width:0.7813;stroke-dasharray:7.8125,7.8125;" x1="864.7827" x2="864.7827" y1="192.5659" y2="1596.4539"/></g></g><g class="participant-lifeline" data-entity-uid="part6" data-qualified-name="Sync" data-source-line="9" id="part6-lifeline"><g><title>Normalized Sync</title><rect fill="#000000" fill-opacity="0.00000" height="1403.8879" width="12.5" x="1040.0887" y="192.5659"/><line style="stroke:#64748B;stroke-width:0.7813;stroke-dasharray:7.8125,7.8125;" x1="1045.5124" x2="1045.5124" y1="192.5659" y2="1596.4539"/></g></g><g class="participant-lifeline" data-entity-uid="part7" data-qualified-name="App" data-source-line="10" id="part7-lifeline"><g><title>App UI</title><rect fill="#000000" fill-opacity="0.00000" height="1403.8879" width="12.5" x="1414.6652" y="192.5659"/><line style="stroke:#64748B;stroke-width:0.7813;stroke-dasharray:7.8125,7.8125;" x1="1420.4697" x2="1420.4697" y1="192.5659" y2="1596.4539"/></g></g><g class="participant participant-head" data-entity-uid="part1" data-qualified-name="User" data-source-line="4" id="part1-head"><text fill="#111827" font-family="'Malgun Gothic'" font-size="21.875" lengthAdjust="spacing" textLength="44.2841" x="7.8125" y="187.2787">User</text><ellipse cx="34.642" cy="83.0017" fill="#E2E2F0" rx="12.5" ry="12.5" style="stroke:#181818;stroke-width:0.7813;"/><path d="M34.642,95.5017 L34.642,137.6892 M14.3295,108.0017 L54.9545,108.0017 M34.642,137.6892 L14.3295,161.1267 M34.642,137.6892 L54.9545,161.1267" fill="none" style="stroke:#181818;stroke-width:0.7813;"/></g><g class="participant participant-tail" data-entity-uid="part1" data-qualified-name="User" data-source-line="4" id="part1-tail"><text fill="#111827" font-family="'Malgun Gothic'" font-size="21.875" lengthAdjust="spacing" textLength="44.2841" x="7.8125" y="1618.6996">User</text><ellipse cx="34.642" cy="1637.2681" fill="#E2E2F0" rx="12.5" ry="12.5" style="stroke:#181818;stroke-width:0.7813;"/><path d="M34.642,1649.7681 L34.642,1691.9556 M14.3295,1662.2681 L54.9545,1662.2681 M34.642,1691.9556 L14.3295,1715.3931 M34.642,1691.9556 L54.9545,1715.3931" fill="none" style="stroke:#181818;stroke-width:0.7813;"/></g><g class="participant participant-head" data-entity-uid="part2" data-qualified-name="Importer" data-source-line="5" id="part2-head"><rect fill="#E2E2F0" height="50.9705" rx="6.25" ry="6.25" style="stroke:#181818;stroke-width:0.7813;" width="187.0056" x="114.7964" y="140.033"/><text fill="#111827" font-family="'Malgun Gothic'" font-size="21.875" lengthAdjust="spacing" textLength="165.1306" x="125.7339" y="174.7787">Backup Importer</text></g><g class="participant participant-tail" data-entity-uid="part2" data-qualified-name="Importer" data-source-line="5" id="part2-tail"><rect fill="#E2E2F0" height="50.9705" rx="6.25" ry="6.25" style="stroke:#181818;stroke-width:0.7813;" width="187.0056" x="114.7964" y="1594.8914"/><text fill="#111827" font-family="'Malgun Gothic'" font-size="21.875" lengthAdjust="spacing" textLength="165.1306" x="125.7339" y="1629.6371">Backup Importer</text></g><g class="participant participant-head" data-entity-uid="part3" data-qualified-name="Apply" data-source-line="6" id="part3-head"><rect fill="#E2E2F0" height="50.9705" rx="6.25" ry="6.25" style="stroke:#181818;stroke-width:0.7813;" width="245.1752" x="336.0367" y="140.033"/><text fill="#111827" font-family="'Malgun Gothic'" font-size="21.875" lengthAdjust="spacing" textLength="223.3002" x="346.9742" y="174.7787">applySnapshotPayload</text></g><g class="participant participant-tail" data-entity-uid="part3" data-qualified-name="Apply" data-source-line="6" id="part3-tail"><rect fill="#E2E2F0" height="50.9705" rx="6.25" ry="6.25" style="stroke:#181818;stroke-width:0.7813;" width="245.1752" x="336.0367" y="1594.8914"/><text fill="#111827" font-family="'Malgun Gothic'" font-size="21.875" lengthAdjust="spacing" textLength="223.3002" x="346.9742" y="1629.6371">applySnapshotPayload</text></g><g class="participant participant-head" data-entity-uid="part4" data-qualified-name="LS" data-source-line="7" id="part4-head"><text fill="#111827" font-family="'Malgun Gothic'" font-size="21.875" lengthAdjust="spacing" textLength="122.0963" x="648.9365" y="187.2787">localStorage</text><path d="M686.5471,107.2205 C686.5471,91.5955 714.6721,91.5955 714.6721,91.5955 C714.6721,91.5955 742.7971,91.5955 742.7971,107.2205 L742.7971,147.8455 C742.7971,163.4705 714.6721,163.4705 714.6721,163.4705 C714.6721,163.4705 686.5471,163.4705 686.5471,147.8455 L686.5471,107.2205" fill="#E2E2F0" style="stroke:#181818;stroke-width:0.7813;"/><path d="M686.5471,107.2205 C686.5471,122.8455 714.6721,122.8455 714.6721,122.8455 C714.6721,122.8455 742.7971,122.8455 742.7971,107.2205" fill="none" style="stroke:#181818;stroke-width:0.7813;"/></g><g class="participant participant-tail" data-entity-uid="part4" data-qualified-name="LS" data-source-line="7" id="part4-tail"><text fill="#111827" font-family="'Malgun Gothic'" font-size="21.875" lengthAdjust="spacing" textLength="122.0963" x="648.9365" y="1618.6996">localStorage</text><path d="M686.5471,1639.6118 C686.5471,1623.9868 714.6721,1623.9868 714.6721,1623.9868 C714.6721,1623.9868 742.7971,1623.9868 742.7971,1639.6118 L742.7971,1680.2368 C742.7971,1695.8618 714.6721,1695.8618 714.6721,1695.8618 C714.6721,1695.8618 686.5471,1695.8618 686.5471,1680.2368 L686.5471,1639.6118" fill="#E2E2F0" style="stroke:#181818;stroke-width:0.7813;"/><path d="M686.5471,1639.6118 C686.5471,1655.2368 714.6721,1655.2368 714.6721,1655.2368 C714.6721,1655.2368 742.7971,1655.2368 742.7971,1639.6118" fill="none" style="stroke:#181818;stroke-width:0.7813;"/></g><g class="participant participant-head" data-entity-uid="part5" data-qualified-name="Frame" data-source-line="8" id="part5-head"><rect fill="#E2E2F0" height="50.9705" rx="6.25" ry="6.25" style="stroke:#181818;stroke-width:0.7813;" width="140.1047" x="796.0327" y="140.033"/><text fill="#111827" font-family="'Malgun Gothic'" font-size="21.875" lengthAdjust="spacing" textLength="118.2297" x="806.9702" y="174.7787">Atlas iframe</text></g><g class="participant participant-tail" data-entity-uid="part5" data-qualified-name="Frame" data-source-line="8" id="part5-tail"><rect fill="#E2E2F0" height="50.9705" rx="6.25" ry="6.25" style="stroke:#181818;stroke-width:0.7813;" width="140.1047" x="796.0327" y="1594.8914"/><text fill="#111827" font-family="'Malgun Gothic'" font-size="21.875" lengthAdjust="spacing" textLength="118.2297" x="806.9702" y="1629.6371">Atlas iframe</text></g><g class="participant participant-head" data-entity-uid="part6" data-qualified-name="Sync" data-source-line="9" id="part6-head"><rect fill="#E2E2F0" height="50.9705" rx="6.25" ry="6.25" style="stroke:#181818;stroke-width:0.7813;" width="189.1525" x="951.7624" y="140.033"/><text fill="#111827" font-family="'Malgun Gothic'" font-size="21.875" lengthAdjust="spacing" textLength="167.2775" x="962.6999" y="174.7787">Normalized Sync</text></g><g class="participant participant-tail" data-entity-uid="part6" data-qualified-name="Sync" data-source-line="9" id="part6-tail"><rect fill="#E2E2F0" height="50.9705" rx="6.25" ry="6.25" style="stroke:#181818;stroke-width:0.7813;" width="189.1525" x="951.7624" y="1594.8914"/><text fill="#111827" font-family="'Malgun Gothic'" font-size="21.875" lengthAdjust="spacing" textLength="167.2775" x="962.6999" y="1629.6371">Normalized Sync</text></g><g class="participant participant-head" data-entity-uid="part7" data-qualified-name="App" data-source-line="10" id="part7-head"><rect fill="#E2E2F0" height="50.9705" rx="6.25" ry="6.25" style="stroke:#181818;stroke-width:0.7813;" width="91.5161" x="1375.1572" y="140.033"/><text fill="#111827" font-family="'Malgun Gothic'" font-size="21.875" lengthAdjust="spacing" textLength="69.6411" x="1386.0947" y="174.7787">App UI</text></g><g class="participant participant-tail" data-entity-uid="part7" data-qualified-name="App" data-source-line="10" id="part7-tail"><rect fill="#E2E2F0" height="50.9705" rx="6.25" ry="6.25" style="stroke:#181818;stroke-width:0.7813;" width="91.5161" x="1375.1572" y="1594.8914"/><text fill="#111827" font-family="'Malgun Gothic'" font-size="21.875" lengthAdjust="spacing" textLength="69.6411" x="1386.0947" y="1629.6371">App UI</text></g><g class="message" data-entity-1="part1" data-entity-2="part2" data-source-line="12" id="msg1"><polygon fill="#4B5563" points="189.5493,238.3331,205.1743,244.5831,189.5493,250.8331,195.7993,244.5831" style="stroke:#4B5563;stroke-width:1.5625;stroke-linejoin:miter;stroke-miterlimit:10;"/><line style="stroke:#4B5563;stroke-width:1.5625;" x1="34.642" x2="198.9243" y1="244.5831" y2="244.5831"/><text fill="#111827" font-family="'Malgun Gothic'" font-size="20.3125" lengthAdjust="spacing" textLength="136.1572" x="45.5795" y="236.5486">&#48177;&#50629; &#54028;&#51068; &#49440;&#53469;</text></g><g class="message" data-entity-1="part2" data-entity-2="part6" data-source-line="13" id="msg2"><polygon fill="#4B5563" points="1027.5887,287.2253,1043.2137,293.4753,1027.5887,299.7253,1033.8387,293.4753" style="stroke:#4B5563;stroke-width:1.5625;stroke-linejoin:miter;stroke-miterlimit:10;"/><line style="stroke:#4B5563;stroke-width:1.5625;" x1="208.2993" x2="1036.9637" y1="293.4753" y2="293.4753"/><text fill="#111827" font-family="'Malgun Gothic'" font-size="20.3125" lengthAdjust="spacing" textLength="211.5753" x="219.2368" y="285.4408">collect current payload</text></g><g class="message" data-entity-1="part6" data-entity-2="part2" data-source-line="14" id="msg3"><polygon fill="#4B5563" points="225.4868,336.1176,209.8618,342.3676,225.4868,348.6176,219.2368,342.3676" style="stroke:#4B5563;stroke-width:1.5625;stroke-linejoin:miter;stroke-miterlimit:10;"/><line style="stroke:#4B5563;stroke-width:1.5625;stroke-dasharray:3.125,3.125;" x1="216.1118" x2="1044.7762" y1="342.3676" y2="342.3676"/><text fill="#111827" font-family="'Malgun Gothic'" font-size="20.3125" lengthAdjust="spacing" textLength="65.3214" x="234.8618" y="334.333">current</text></g><g class="message" data-entity-1="part2" data-entity-2="part4" data-source-line="15" id="msg4"><polygon fill="#4B5563" points="695.9221,385.0098,711.5471,391.2598,695.9221,397.5098,702.1721,391.2598" style="stroke:#4B5563;stroke-width:1.5625;stroke-linejoin:miter;stroke-miterlimit:10;"/><line style="stroke:#4B5563;stroke-width:1.5625;" x1="208.2993" x2="705.2971" y1="391.2598" y2="391.2598"/><text fill="#111827" font-family="'Malgun Gothic'" font-size="20.3125" lengthAdjust="spacing" textLength="188.6841" x="219.2368" y="383.2253">PREIMPORT=current</text></g><g class="message" data-entity-1="part2" data-entity-2="part4" data-source-line="16" id="msg5"><polygon fill="#4B5563" points="695.9221,433.902,711.5471,440.152,695.9221,446.402,702.1721,440.152" style="stroke:#4B5563;stroke-width:1.5625;stroke-linejoin:miter;stroke-miterlimit:10;"/><line style="stroke:#4B5563;stroke-width:1.5625;" x1="208.2993" x2="705.2971" y1="440.152" y2="440.152"/><text fill="#111827" font-family="'Malgun Gothic'" font-size="20.3125" lengthAdjust="spacing" textLength="274.8138" x="219.2368" y="432.1175">PENDING_IMPORT=candidate</text></g><g class="message" data-entity-1="part2" data-entity-2="part3" data-source-line="17" id="msg6"><polygon fill="#4B5563" points="439.8743,482.7942,455.4993,489.0442,439.8743,495.2942,446.1243,489.0442" style="stroke:#4B5563;stroke-width:1.5625;stroke-linejoin:miter;stroke-miterlimit:10;"/><line style="stroke:#4B5563;stroke-width:1.5625;" x1="208.2993" x2="449.2493" y1="489.0442" y2="489.0442"/><text fill="#111827" font-family="'Malgun Gothic'" font-size="20.3125" lengthAdjust="spacing" textLength="212.825" x="219.2368" y="481.0097">app+atlas+bridge &#51201;&#50857;</text></g><g class="message" data-entity-1="part3" data-entity-2="part4" data-source-line="18" id="msg7"><polygon fill="#4B5563" points="695.9221,531.6864,711.5471,537.9364,695.9221,544.1864,702.1721,537.9364" style="stroke:#4B5563;stroke-width:1.5625;stroke-linejoin:miter;stroke-miterlimit:10;"/><line style="stroke:#4B5563;stroke-width:1.5625;" x1="458.6243" x2="705.2971" y1="537.9364" y2="537.9364"/><text fill="#111827" font-family="'Malgun Gothic'" font-size="20.3125" lengthAdjust="spacing" textLength="198.513" x="469.5618" y="529.9019">App&#183;Atlas&#183;Bridge &#51200;&#51109;</text></g><path d="M326.6617,561.3739 L415.1329,561.3739 L415.1329,575.8911 L399.5079,591.5161 L320.4117,591.5161 L320.4117,567.6239 A6.25,6.25 0 0 1 326.6617,561.3739" fill="#F8FAFC" style="stroke:#64748B;stroke-width:2.3438;"/><rect fill="none" height="330.2765" rx="6.25" ry="6.25" style="stroke:#64748B;stroke-width:2.3438;" width="804.7104" x="320.4117" y="561.3739"/><text fill="#111827" font-family="'Malgun Gothic'" font-size="20.3125" font-weight="700" lengthAdjust="spacing" textLength="24.4087" x="343.8492" y="585.0441">alt</text><text fill="#111827" font-family="'Malgun Gothic'" font-size="17.1875" font-weight="700" lengthAdjust="spacing" textLength="192.4026" x="438.5704" y="583.2054">[&#54876;&#49457; Atlas iframe &#51080;&#51020;]</text><g class="message" data-entity-1="part3" data-entity-2="part5" data-source-line="21" id="msg8"><polygon fill="#4B5563" points="847.3351,621.6583,862.9601,627.9083,847.3351,634.1583,853.5851,627.9083" style="stroke:#4B5563;stroke-width:1.5625;stroke-linejoin:miter;stroke-miterlimit:10;"/><line style="stroke:#4B5563;stroke-width:1.5625;" x1="458.6243" x2="856.7101" y1="627.9083" y2="627.9083"/><text fill="#111827" font-family="'Malgun Gothic'" font-size="20.3125" lengthAdjust="spacing" textLength="200.6454" x="469.5618" y="619.8738">ipe-atlas-import-state</text></g><g class="message" data-entity-1="part5" data-entity-2="part3" data-source-line="22" id="msg9"><polygon fill="#4B5563" points="475.8118,670.5505,460.1868,676.8005,475.8118,683.0505,469.5618,676.8005" style="stroke:#4B5563;stroke-width:1.5625;stroke-linejoin:miter;stroke-miterlimit:10;"/><line style="stroke:#4B5563;stroke-width:1.5625;stroke-dasharray:3.125,3.125;" x1="466.4368" x2="864.5226" y1="676.8005" y2="676.8005"/><text fill="#111827" font-family="'Malgun Gothic'" font-size="20.3125" lengthAdjust="spacing" textLength="184.4093" x="485.1868" y="668.766">ipe-atlas-saved ACK</text></g><g class="message" data-entity-1="part3" data-entity-2="part4" data-source-line="23" id="msg10"><polygon fill="#4B5563" points="695.9221,719.4427,711.5471,725.6927,695.9221,731.9427,702.1721,725.6927" style="stroke:#4B5563;stroke-width:1.5625;stroke-linejoin:miter;stroke-miterlimit:10;"/><line style="stroke:#4B5563;stroke-width:1.5625;" x1="458.6243" x2="705.2971" y1="725.6927" y2="725.6927"/><text fill="#111827" font-family="'Malgun Gothic'" font-size="20.3125" lengthAdjust="spacing" textLength="218.5478" x="469.5618" y="717.6582">PENDING_IMPORT &#51228;&#44144;</text></g><line style="stroke:#64748B;stroke-width:1.5625;stroke-dasharray:3.125,3.125;" x1="320.4117" x2="1125.1221" y1="739.7552" y2="739.7552"/><text fill="#111827" font-family="'Malgun Gothic'" font-size="17.1875" font-weight="700" lengthAdjust="spacing" textLength="192.4026" x="328.2242" y="758.4618">[&#54876;&#49457; Atlas iframe &#50630;&#51020;]</text><path d="M621.875,778.241 L621.875,807.9285 A6.25,6.25 0 0 0 628.125,814.1785 L1103.125,814.1785 A6.25,6.25 0 0 0 1109.375,807.9285 L1109.375,787.616 L1093.75,771.991 L628.125,771.991 A6.25,6.25 0 0 0 621.875,778.241" fill="#FFF8DC" style="stroke:#8B7355;stroke-width:0.7813;"/><path d="M1093.75,771.991 L1093.75,784.491 A3.125,3.125 0 0 0 1096.875,787.616 L1109.375,787.616 L1093.75,771.991" fill="#FFF8DC" style="stroke:#8B7355;stroke-width:0.7813;"/><text fill="#111827" font-family="'Malgun Gothic'" font-size="20.3125" lengthAdjust="spacing" textLength="454.8096" x="631.25" y="801.9112">dashboard&#50640;&#49436;&#45716; frame&#51060; &#51316;&#51116;&#54616;&#51648; &#50506;&#51012; &#49688; &#51080;&#45796;.</text><g class="message" data-entity-1="part3" data-entity-2="part3" data-source-line="28" id="msg11"><line style="stroke:#4B5563;stroke-width:1.5625;" x1="458.6243" x2="524.2493" y1="858.8379" y2="858.8379"/><line style="stroke:#4B5563;stroke-width:1.5625;" x1="524.2493" x2="524.2493" y1="858.8379" y2="879.1504"/><line style="stroke:#4B5563;stroke-width:1.5625;" x1="460.1868" x2="524.2493" y1="879.1504" y2="879.1504"/><polygon fill="#4B5563" points="475.8118,872.9004,460.1868,879.1504,475.8118,885.4004,469.5618,879.1504" style="stroke:#4B5563;stroke-width:1.5625;stroke-linejoin:miter;stroke-miterlimit:10;"/><text fill="#111827" font-family="'Malgun Gothic'" font-size="20.3125" lengthAdjust="spacing" textLength="86.0207" x="469.5618" y="850.8034">ACK &#50630;&#51020;</text></g><g class="message" data-entity-1="part2" data-entity-2="part4" data-source-line="31" id="msg12"><polygon fill="#4B5563" points="695.9221,959.7473,711.5471,965.9973,695.9221,972.2473,702.1721,965.9973" style="stroke:#4B5563;stroke-width:1.5625;stroke-linejoin:miter;stroke-miterlimit:10;"/><line style="stroke:#4B5563;stroke-width:1.5625;" x1="208.2993" x2="705.2971" y1="965.9973" y2="965.9973"/><text fill="#111827" font-family="'Malgun Gothic'" font-size="20.3125" lengthAdjust="spacing" textLength="190.509" x="219.2368" y="930.9456">restorePending=true</text><text fill="#111827" font-family="'Malgun Gothic'" font-size="20.3125" lengthAdjust="spacing" textLength="92.4477" x="219.2368" y="957.9628">dirty=true</text></g><g class="message" data-entity-1="part1" data-entity-2="part7" data-source-line="32" id="msg13"><polygon fill="#4B5563" points="1402.1652,1008.6395,1417.7902,1014.8895,1402.1652,1021.1395,1408.4152,1014.8895" style="stroke:#4B5563;stroke-width:1.5625;stroke-linejoin:miter;stroke-miterlimit:10;"/><line style="stroke:#4B5563;stroke-width:1.5625;" x1="34.642" x2="1411.5402" y1="1014.8895" y2="1014.8895"/><text fill="#111827" font-family="'Malgun Gothic'" font-size="20.3125" lengthAdjust="spacing" textLength="163.6108" x="45.5795" y="1006.855">&#48373;&#44396; &#54980; &#47700;&#47784; &#49688;&#51221;</text></g><g class="message" data-entity-1="part7" data-entity-2="part4" data-source-line="33" id="msg14"><polygon fill="#4B5563" points="731.8596,1057.5317,716.2346,1063.7817,731.8596,1070.0317,725.6096,1063.7817" style="stroke:#4B5563;stroke-width:1.5625;stroke-linejoin:miter;stroke-miterlimit:10;"/><line style="stroke:#4B5563;stroke-width:1.5625;" x1="722.4846" x2="1419.3527" y1="1063.7817" y2="1063.7817"/><text fill="#111827" font-family="'Malgun Gothic'" font-size="20.3125" lengthAdjust="spacing" textLength="133.3008" x="741.2346" y="1055.7472">&#52572;&#49888; App &#51200;&#51109;</text></g><g class="message" data-entity-1="part7" data-entity-2="part6" data-source-line="34" id="msg15"><polygon fill="#4B5563" points="1063.5262,1106.424,1047.9012,1112.674,1063.5262,1118.924,1057.2762,1112.674" style="stroke:#4B5563;stroke-width:1.5625;stroke-linejoin:miter;stroke-miterlimit:10;"/><line style="stroke:#4B5563;stroke-width:1.5625;" x1="1054.1512" x2="1419.3527" y1="1112.674" y2="1112.674"/><text fill="#111827" font-family="'Malgun Gothic'" font-size="20.3125" lengthAdjust="spacing" textLength="140.551" x="1072.9012" y="1104.6394">markChanged()</text></g><g class="message" data-entity-1="part6" data-entity-2="part6" data-source-line="35" id="msg16"><line style="stroke:#4B5563;stroke-width:1.5625;" x1="1046.3387" x2="1111.9637" y1="1161.5662" y2="1161.5662"/><line style="stroke:#4B5563;stroke-width:1.5625;" x1="1111.9637" x2="1111.9637" y1="1161.5662" y2="1181.8787"/><line style="stroke:#4B5563;stroke-width:1.5625;" x1="1047.9012" x2="1111.9637" y1="1181.8787" y2="1181.8787"/><polygon fill="#4B5563" points="1063.5262,1175.6287,1047.9012,1181.8787,1063.5262,1188.1287,1057.2762,1181.8787" style="stroke:#4B5563;stroke-width:1.5625;stroke-linejoin:miter;stroke-miterlimit:10;"/><text fill="#111827" font-family="'Malgun Gothic'" font-size="20.3125" lengthAdjust="spacing" textLength="352.7016" x="1057.2762" y="1153.5316">current.restorePending&#51060;&#47732; timer &#51473;&#45800;</text></g><g class="message" data-entity-1="part1" data-entity-2="part6" data-source-line="37" id="msg17"><polygon fill="#4B5563" points="1027.5887,1224.5209,1043.2137,1230.7709,1027.5887,1237.0209,1033.8387,1230.7709" style="stroke:#4B5563;stroke-width:1.5625;stroke-linejoin:miter;stroke-miterlimit:10;"/><line style="stroke:#4B5563;stroke-width:1.5625;" x1="34.642" x2="1036.9637" y1="1230.7709" y2="1230.7709"/><text fill="#111827" font-family="'Malgun Gothic'" font-size="20.3125" lengthAdjust="spacing" textLength="183.9233" x="45.5795" y="1222.7364">&#48177;&#50629; &#46608;&#45716; &#51648;&#44552; &#51200;&#51109;</text></g><g class="message" data-entity-1="part6" data-entity-2="part4" data-source-line="38" id="msg18"><polygon fill="#4B5563" points="731.8596,1273.4131,716.2346,1279.6631,731.8596,1285.9131,725.6096,1279.6631" style="stroke:#4B5563;stroke-width:1.5625;stroke-linejoin:miter;stroke-miterlimit:10;"/><line style="stroke:#4B5563;stroke-width:1.5625;" x1="722.4846" x2="1044.7762" y1="1279.6631" y2="1279.6631"/><text fill="#111827" font-family="'Malgun Gothic'" font-size="20.3125" lengthAdjust="spacing" textLength="208.2825" x="741.2346" y="1271.6286">pendingPayload() &#51312;&#54924;</text></g><g class="message" data-entity-1="part4" data-entity-2="part6" data-source-line="39" id="msg19"><polygon fill="#4B5563" points="1027.5887,1322.3053,1043.2137,1328.5553,1027.5887,1334.8053,1033.8387,1328.5553" style="stroke:#4B5563;stroke-width:1.5625;stroke-linejoin:miter;stroke-miterlimit:10;"/><line style="stroke:#4B5563;stroke-width:1.5625;stroke-dasharray:3.125,3.125;" x1="714.6721" x2="1036.9637" y1="1328.5553" y2="1328.5553"/><text fill="#111827" font-family="'Malgun Gothic'" font-size="20.3125" lengthAdjust="spacing" textLength="185.3317" x="725.6096" y="1320.5208">&#48373;&#44396; &#45817;&#49884; candidate</text></g><g class="message" data-entity-1="part6" data-entity-2="part6" data-source-line="40" id="msg20"><line style="stroke:#4B5563;stroke-width:1.5625;" x1="1046.3387" x2="1111.9637" y1="1377.4475" y2="1377.4475"/><line style="stroke:#4B5563;stroke-width:1.5625;" x1="1111.9637" x2="1111.9637" y1="1377.4475" y2="1397.76"/><line style="stroke:#4B5563;stroke-width:1.5625;" x1="1047.9012" x2="1111.9637" y1="1397.76" y2="1397.76"/><polygon fill="#4B5563" points="1063.5262,1391.51,1047.9012,1397.76,1063.5262,1404.01,1057.2762,1397.76" style="stroke:#4B5563;stroke-width:1.5625;stroke-linejoin:miter;stroke-miterlimit:10;"/><text fill="#111827" font-family="'Malgun Gothic'" font-size="20.3125" lengthAdjust="spacing" textLength="304.8462" x="1057.2762" y="1369.413">&#49892;&#51228; &#52572;&#49888; App&#48372;&#45796; pending &#50864;&#49440;</text></g><path d="M979.6875,1424.3225 L979.6875,1480.5725 A6.25,6.25 0 0 0 985.9375,1486.8225 L1479.6875,1486.8225 A6.25,6.25 0 0 0 1485.9375,1480.5725 L1485.9375,1433.6975 L1470.3125,1418.0725 L985.9375,1418.0725 A6.25,6.25 0 0 0 979.6875,1424.3225" fill="#FFF8DC" style="stroke:#8B7355;stroke-width:0.7813;"/><path d="M1470.3125,1418.0725 L1470.3125,1430.5725 A3.125,3.125 0 0 0 1473.4375,1433.6975 L1485.9375,1433.6975 L1470.3125,1418.0725" fill="#FFF8DC" style="stroke:#8B7355;stroke-width:0.7813;"/><text fill="#111827" font-family="'Malgun Gothic'" font-size="20.3125" lengthAdjust="spacing" textLength="368.6897" x="1039.9265" y="1447.9927">&#48373;&#44396; &#54980; &#54200;&#51665;&#51008; App key&#50640;&#45716; &#51316;&#51116;&#54616;&#51648;&#47564;</text><text fill="#111827" font-family="'Malgun Gothic'" font-size="20.3125" lengthAdjust="spacing" textLength="372.5578" x="1039.9265" y="1475.0099">collect payload&#50640;&#45716; &#54252;&#54632;&#46104;&#51648; &#50506;&#45716;&#45796;. [R]</text><path d="M510.9375,1509.6069 L510.9375,1565.8569 A6.25,6.25 0 0 0 517.1875,1572.1069 L910.9375,1572.1069 A6.25,6.25 0 0 0 917.1875,1565.8569 L917.1875,1518.9819 L901.5625,1503.3569 L517.1875,1503.3569 A6.25,6.25 0 0 0 510.9375,1509.6069" fill="#FFF8DC" style="stroke:#8B7355;stroke-width:0.7813;"/><path d="M901.5625,1503.3569 L901.5625,1515.8569 A3.125,3.125 0 0 0 904.6875,1518.9819 L917.1875,1518.9819 L901.5625,1503.3569" fill="#FFF8DC" style="stroke:#8B7355;stroke-width:0.7813;"/><text fill="#111827" font-family="'Malgun Gothic'" font-size="20.3125" lengthAdjust="spacing" textLength="374.3034" x="520.3125" y="1533.2771">PREIMPORT&#45716; &#51200;&#51109;&#46104;&#51648;&#47564; &#51060;&#47484; &#48373;&#50896;&#54616;&#45716;</text><text fill="#111827" font-family="'Malgun Gothic'" font-size="20.3125" lengthAdjust="spacing" textLength="308.2085" x="520.3125" y="1560.2943">&#49324;&#50857;&#51088; &#46041;&#51089;/&#49345;&#53468; &#51204;&#51060;&#45716; &#50630;&#45796;. [S]</text><g class="caption" data-source-line="52"><text fill="#111827" font-family="'Malgun Gothic'" font-size="21.875" lengthAdjust="spacing" textLength="847.8699" x="322.583" y="1744.6701">&#44208;&#54632; 2&#183;9 &#8212; &#48373;&#44396; &#50756;&#47308;&#44032; &#54868;&#47732; &#44396;&#49457;&#50640; &#51032;&#51316;&#54616;&#44256; pending overlay&#44032; &#54980;&#49549; &#54200;&#51665;&#51012; &#44032;&#47536;&#45796;.</text></g><?plantuml-src TLHDRnD94BtthwZD2GGEQ4zif225JraRib5CJe1GPwP9HXdFZ6RQIDwJ8KCKnGOSAL6-RCk8G1AKWqCIXPKuvQViqLFp7wXkpzZZ03wrfrw_UlMggl-m7CCkcGAU1x9iYr6lLBIPjAGjOAAGonVWvYtulx8Eiuyc0QkDk5B1rRqnc90s3y1wuVEY0DnSZbRN8UeSu-ORY4xEkcT7Z753kZxC1i9d7lUbPLWUToICtE76Oic3VD5pVIdy4I2YzCymadkUNIuut0iMN3dDoxRBJGsVK05cSiddU21Wn7ODRXSe7PyN6Z1P66RAojM01-eqZ9bo_IAthN-52OMoOsYOEbnYyZoOpQSg65FrGUvslm8OIts8QpLiVWSCs_5Ia_NZX5MiX3DSsnQ61AFa-uAulLw5J8Tpmvm9PeXcia21wPdx-KVJ_ymy7lyzvFxKlVpKm-SfZZkcHTw98QIsbC3a-JMktBesvrlcF3Mt_Gft3baldbBIlujpRUh5-PqKLy7M9sgxBI7URc1uV6b8MYlOh360FfFk0P5PdiZfb3bB2ye5Kgc3193Bg1j00_wI6ZLnz-yiuo_A9LsDxd672Pi6vPUwDfTxkXnN2d1VaXszuG3wcJnOc7EvR-9c7SE6cd9z2vkdW1zEiNKKRspXVWLmOnMR8U3AbYeqgkwDqdtXc9erAp6jX9IdgGd6VkwQBm8QQ35DKSkP7vT-IJobeo_B-jmVF3MGOydIGRmRGdIu7dqvK5AmlQ7wrgV4imPMs_f6qgqacWnaaVkBTnUuCo_CArUJCHnCQs-yHeTraH7HuIb8gqXgS6yjgXuCTYAvcRuBMtNb7xdL_RQI2aYJQ7rUZpFPz2jNoU9El5DZ5Cnbw7gbHjN_w3s2mJHVqelLFMfzfkRev9JwaYO1tEdGQZ8sQ3jXhkk5XwoTyRjlkB-6pOhsRL6KQHHq7PdsH_jgWD9zJlOumSNl2NGGrTCneMzgFE39p3FM7v2C2dgwOB3LEfEsgiT0cK1v_kcxqeYxTH906Bg2huzeJx5LX-ZzDhRMRk3IgtY936Y7weBYeMTQPovaCnlSavRhGFThXtJ2dnVdV-a7Fx40jyFeOwtRgT3ohAjMqqVQ8IgET6oH2IIWUzBkswfgi7bPNzWDSVbjty0Gw6FqkQCq_000?></g></svg>