<svg xmlns="http://www.w3.org/2000/svg" xmlns:xlink="http://www.w3.org/1999/xlink" contentStyleType="text/css" data-diagram-type="SEQUENCE" height="1582.8125px" preserveAspectRatio="none" style="width:1150px;height:1582px;background:#FFFFFF;" version="1.1" viewBox="0 0 1150 1582" width="1150px" zoomAndPan="magnify"><?plantuml 1.2026.6?><defs/><g><g class="title" data-source-line="2"><text fill="#111827" font-family="'Malgun Gothic'" font-size="21.875" font-weight="700" lengthAdjust="spacing" textLength="481.8161" x="328.981" y="47.2458">AS-IS 09 &#8212; UML &#49884;&#53248;&#49828;: &#52572;&#52488; &#50672;&#44208;&#44284; &#52649;&#46028; &#51221;&#51648;</text></g><g class="participant-lifeline" data-entity-uid="part1" data-qualified-name="User" data-source-line="4" id="part1-lifeline"><g><title>User</title><rect fill="#000000" fill-opacity="0.00000" height="1225.4303" width="12.5" x="39.3295" y="192.5659"/><line style="stroke:#64748B;stroke-width:0.7813;stroke-dasharray:7.8125,7.8125;" x1="45.3125" x2="45.3125" y1="192.5659" y2="1417.9962"/></g></g><g class="participant-lifeline" data-entity-uid="part2" data-qualified-name="Settings" data-source-line="5" id="part2-lifeline"><g><title>Settings UI</title><rect fill="#000000" fill-opacity="0.00000" height="1225.4303" width="12.5" x="329.1985" y="192.5659"/><line style="stroke:#64748B;stroke-width:0.7813;stroke-dasharray:7.8125,7.8125;" x1="334.42" x2="334.42" y1="192.5659" y2="1417.9962"/></g></g><g class="participant-lifeline" data-entity-uid="part3" data-qualified-name="Sync" data-source-line="6" id="part3-lifeline"><g><title>Normalized Sync</title><rect fill="#000000" fill-opacity="0.00000" height="1225.4303" width="12.5" x="504.4907" y="192.5659"/><line style="stroke:#64748B;stroke-width:0.7813;stroke-dasharray:7.8125,7.8125;" x1="509.9144" x2="509.9144" y1="192.5659" y2="1417.9962"/></g></g><g class="participant-lifeline" data-entity-uid="part4" data-qualified-name="Local" data-source-line="7" id="part4-lifeline"><g><title>local meta.state</title><rect fill="#000000" fill-opacity="0.00000" height="1225.4303" width="12.5" x="883.1772" y="192.5659"/><line style="stroke:#64748B;stroke-width:0.7813;stroke-dasharray:7.8125,7.8125;" x1="889.3906" x2="889.3906" y1="192.5659" y2="1417.9962"/></g></g><g class="participant-lifeline" data-entity-uid="part5" data-qualified-name="Server" data-source-line="8" id="part5-lifeline"><g><title>Supabase</title><rect fill="#000000" fill-opacity="0.00000" height="1225.4303" width="12.5" x="1041.5169" y="192.5659"/><line style="stroke:#64748B;stroke-width:0.7813;stroke-dasharray:7.8125,7.8125;" x1="1047.2763" x2="1047.2763" y1="192.5659" y2="1417.9962"/></g></g><g class="participant participant-head" data-entity-uid="part1" data-qualified-name="User" data-source-line="4" id="part1-head"><text fill="#111827" font-family="'Malgun Gothic'" font-size="21.875" lengthAdjust="spacing" textLength="44.2841" x="18.75" y="187.2787">User</text><ellipse cx="45.5795" cy="83.0017" fill="#E2E2F0" rx="12.5" ry="12.5" style="stroke:#181818;stroke-width:0.7813;"/><path d="M45.5795,95.5017 L45.5795,137.6892 M25.267,108.0017 L65.892,108.0017 M45.5795,137.6892 L25.267,161.1267 M45.5795,137.6892 L65.892,161.1267" fill="none" style="stroke:#181818;stroke-width:0.7813;"/></g><g class="participant participant-tail" data-entity-uid="part1" data-qualified-name="User" data-source-line="4" id="part1-tail"><text fill="#111827" font-family="'Malgun Gothic'" font-size="21.875" lengthAdjust="spacing" textLength="44.2841" x="18.75" y="1440.242">User</text><ellipse cx="45.5795" cy="1458.8104" fill="#E2E2F0" rx="12.5" ry="12.5" style="stroke:#181818;stroke-width:0.7813;"/><path d="M45.5795,1471.3104 L45.5795,1513.4979 M25.267,1483.8104 L65.892,1483.8104 M45.5795,1513.4979 L25.267,1536.9354 M45.5795,1513.4979 L65.892,1536.9354" fill="none" style="stroke:#181818;stroke-width:0.7813;"/></g><g class="participant participant-head" data-entity-uid="part2" data-qualified-name="Settings" data-source-line="5" id="part2-head"><rect fill="#E2E2F0" height="50.9705" rx="6.25" ry="6.25" style="stroke:#181818;stroke-width:0.7813;" width="130.1819" x="270.3575" y="140.033"/><text fill="#111827" font-family="'Malgun Gothic'" font-size="21.875" lengthAdjust="spacing" textLength="108.3069" x="281.295" y="174.7787">Settings UI</text></g><g class="participant participant-tail" data-entity-uid="part2" data-qualified-name="Settings" data-source-line="5" id="part2-tail"><rect fill="#E2E2F0" height="50.9705" rx="6.25" ry="6.25" style="stroke:#181818;stroke-width:0.7813;" width="130.1819" x="270.3575" y="1416.4337"/><text fill="#111827" font-family="'Malgun Gothic'" font-size="21.875" lengthAdjust="spacing" textLength="108.3069" x="281.295" y="1451.1795">Settings UI</text></g><g class="participant participant-head" data-entity-uid="part3" data-qualified-name="Sync" data-source-line="6" id="part3-head"><rect fill="#E2E2F0" height="50.9705" rx="6.25" ry="6.25" style="stroke:#181818;stroke-width:0.7813;" width="189.1525" x="416.1644" y="140.033"/><text fill="#111827" font-family="'Malgun Gothic'" font-size="21.875" lengthAdjust="spacing" textLength="167.2775" x="427.1019" y="174.7787">Normalized Sync</text></g><g class="participant participant-tail" data-entity-uid="part3" data-qualified-name="Sync" data-source-line="6" id="part3-tail"><rect fill="#E2E2F0" height="50.9705" rx="6.25" ry="6.25" style="stroke:#181818;stroke-width:0.7813;" width="189.1525" x="416.1644" y="1416.4337"/><text fill="#111827" font-family="'Malgun Gothic'" font-size="21.875" lengthAdjust="spacing" textLength="167.2775" x="427.1019" y="1451.1795">Normalized Sync</text></g><g class="participant participant-head" data-entity-uid="part4" data-qualified-name="Local" data-source-line="7" id="part4-head"><text fill="#111827" font-family="'Malgun Gothic'" font-size="21.875" lengthAdjust="spacing" textLength="159.4482" x="805.0156" y="187.2787">local meta/state</text><path d="M861.3022,107.2205 C861.3022,91.5955 889.4272,91.5955 889.4272,91.5955 C889.4272,91.5955 917.5522,91.5955 917.5522,107.2205 L917.5522,147.8455 C917.5522,163.4705 889.4272,163.4705 889.4272,163.4705 C889.4272,163.4705 861.3022,163.4705 861.3022,147.8455 L861.3022,107.2205" fill="#E2E2F0" style="stroke:#181818;stroke-width:0.7813;"/><path d="M861.3022,107.2205 C861.3022,122.8455 889.4272,122.8455 889.4272,122.8455 C889.4272,122.8455 917.5522,122.8455 917.5522,107.2205" fill="none" style="stroke:#181818;stroke-width:0.7813;"/></g><g class="participant participant-tail" data-entity-uid="part4" data-qualified-name="Local" data-source-line="7" id="part4-tail"><text fill="#111827" font-family="'Malgun Gothic'" font-size="21.875" lengthAdjust="spacing" textLength="159.4482" x="805.0156" y="1440.242">local meta/state</text><path d="M861.3022,1461.1542 C861.3022,1445.5292 889.4272,1445.5292 889.4272,1445.5292 C889.4272,1445.5292 917.5522,1445.5292 917.5522,1461.1542 L917.5522,1501.7792 C917.5522,1517.4042 889.4272,1517.4042 889.4272,1517.4042 C889.4272,1517.4042 861.3022,1517.4042 861.3022,1501.7792 L861.3022,1461.1542" fill="#E2E2F0" style="stroke:#181818;stroke-width:0.7813;"/><path d="M861.3022,1461.1542 C861.3022,1476.7792 889.4272,1476.7792 889.4272,1476.7792 C889.4272,1476.7792 917.5522,1476.7792 917.5522,1461.1542" fill="none" style="stroke:#181818;stroke-width:0.7813;"/></g><g class="participant participant-head" data-entity-uid="part5" data-qualified-name="Server" data-source-line="8" id="part5-head"><rect fill="#E2E2F0" height="50.9705" rx="6.25" ry="6.25" style="stroke:#181818;stroke-width:0.7813;" width="116.6061" x="989.4638" y="140.033"/><text fill="#111827" font-family="'Malgun Gothic'" font-size="21.875" lengthAdjust="spacing" textLength="94.7311" x="1000.4013" y="174.7787">Supabase</text></g><g class="participant participant-tail" data-entity-uid="part5" data-qualified-name="Server" data-source-line="8" id="part5-tail"><rect fill="#E2E2F0" height="50.9705" rx="6.25" ry="6.25" style="stroke:#181818;stroke-width:0.7813;" width="116.6061" x="989.4638" y="1416.4337"/><text fill="#111827" font-family="'Malgun Gothic'" font-size="21.875" lengthAdjust="spacing" textLength="94.7311" x="1000.4013" y="1451.1795">Supabase</text></g><rect fill="#EEEEEE" height="4.6875" rx="6.25" ry="6.25" style="stroke:#EEEEEE;stroke-width:1.5625;" width="1141.3406" x="0" y="242.012"/><line style="stroke:#000000;stroke-width:1.5625;" x1="0" x2="1141.3406" y1="242.012" y2="242.012"/><line style="stroke:#000000;stroke-width:1.5625;" x1="0" x2="1141.3406" y1="246.6995" y2="246.6995"/><rect fill="#EEEEEE" height="39.5172" rx="6.25" ry="6.25" style="stroke:#000000;stroke-width:3.125;" width="392.8757" x="374.2325" y="223.8159"/><text fill="#111827" font-family="'Malgun Gothic'" font-size="20.3125" font-weight="700" lengthAdjust="spacing" textLength="363.8596" x="383.6075" y="252.1736">Scenario A &#8212; &#49352; workspace &#52572;&#52488; &#50672;&#44208;</text><path d="M734.375,293.0206 L734.375,349.2706 A6.25,6.25 0 0 0 740.625,355.5206 L1035.9375,355.5206 A6.25,6.25 0 0 0 1042.1875,349.2706 L1042.1875,302.3956 L1026.5625,286.7706 L740.625,286.7706 A6.25,6.25 0 0 0 734.375,293.0206" fill="#FFF8DC" style="stroke:#8B7355;stroke-width:0.7813;"/><path d="M1026.5625,286.7706 L1026.5625,299.2706 A3.125,3.125 0 0 0 1029.6875,302.3956 L1042.1875,302.3956 L1026.5625,286.7706" fill="#FFF8DC" style="stroke:#8B7355;stroke-width:0.7813;"/><text fill="#111827" font-family="'Malgun Gothic'" font-size="20.3125" lengthAdjust="spacing" textLength="275.4982" x="743.75" y="316.6908">&#44592;&#51316; &#47196;&#52972; progress/Atlas &#51316;&#51116;</text><text fill="#111827" font-family="'Malgun Gothic'" font-size="20.3125" lengthAdjust="spacing" textLength="156.0829" x="743.75" y="343.708">serverRevision=0</text><g class="message" data-entity-1="part1" data-entity-2="part2" data-source-line="15" id="msg1"><polygon fill="#4B5563" points="316.6985,394.3848,332.3235,400.6348,316.6985,406.8848,322.9485,400.6348" style="stroke:#4B5563;stroke-width:1.5625;stroke-linejoin:miter;stroke-miterlimit:10;"/><line style="stroke:#4B5563;stroke-width:1.5625;" x1="45.5795" x2="326.0735" y1="400.6348" y2="400.6348"/><text fill="#111827" font-family="'Malgun Gothic'" font-size="20.3125" lengthAdjust="spacing" textLength="252.3689" x="56.517" y="392.6003">URL/anonKey/syncKey &#51200;&#51109;</text></g><g class="message" data-entity-1="part2" data-entity-2="part4" data-source-line="16" id="msg2"><polygon fill="#4B5563" points="870.6772,470.2942,886.3022,476.5442,870.6772,482.7942,876.9272,476.5442" style="stroke:#4B5563;stroke-width:1.5625;stroke-linejoin:miter;stroke-miterlimit:10;"/><line style="stroke:#4B5563;stroke-width:1.5625;" x1="335.4485" x2="880.0522" y1="476.5442" y2="476.5442"/><text fill="#111827" font-family="'Malgun Gothic'" font-size="20.3125" lengthAdjust="spacing" textLength="104.9347" x="346.386" y="441.4925">config &#51200;&#51109;</text><text fill="#111827" font-family="'Malgun Gothic'" font-size="20.3125" lengthAdjust="spacing" textLength="185.183" x="346.386" y="468.5097">serverState=queued</text></g><g class="message" data-entity-1="part2" data-entity-2="part3" data-source-line="17" id="msg3"><polygon fill="#4B5563" points="491.9907,519.1864,507.6157,525.4364,491.9907,531.6864,498.2407,525.4364" style="stroke:#4B5563;stroke-width:1.5625;stroke-linejoin:miter;stroke-miterlimit:10;"/><line style="stroke:#4B5563;stroke-width:1.5625;" x1="335.4485" x2="501.3657" y1="525.4364" y2="525.4364"/><text fill="#111827" font-family="'Malgun Gothic'" font-size="20.3125" lengthAdjust="spacing" textLength="132.2594" x="346.386" y="517.4019">startupCheck()</text></g><g class="message" data-entity-1="part3" data-entity-2="part5" data-source-line="18" id="msg4"><polygon fill="#4B5563" points="1029.0169,568.0786,1044.6419,574.3286,1029.0169,580.5786,1035.2669,574.3286" style="stroke:#4B5563;stroke-width:1.5625;stroke-linejoin:miter;stroke-miterlimit:10;"/><line style="stroke:#4B5563;stroke-width:1.5625;" x1="510.7407" x2="1038.3919" y1="574.3286" y2="574.3286"/><text fill="#111827" font-family="'Malgun Gothic'" font-size="20.3125" lengthAdjust="spacing" textLength="143.1198" x="521.6782" y="566.2941">ipe_load_head()</text></g><g class="message" data-entity-1="part5" data-entity-2="part3" data-source-line="19" id="msg5"><polygon fill="#4B5563" points="527.9282,616.9708,512.3032,623.2208,527.9282,629.4708,521.6782,623.2208" style="stroke:#4B5563;stroke-width:1.5625;stroke-linejoin:miter;stroke-miterlimit:10;"/><line style="stroke:#4B5563;stroke-width:1.5625;stroke-dasharray:3.125,3.125;" x1="518.5532" x2="1046.2044" y1="623.2208" y2="623.2208"/><text fill="#111827" font-family="'Malgun Gothic'" font-size="20.3125" lengthAdjust="spacing" textLength="166.2888" x="537.3032" y="615.1863">remote head &#50630;&#51020;</text></g><g class="message" data-entity-1="part3" data-entity-2="part4" data-source-line="20" id="msg6"><polygon fill="#4B5563" points="870.6772,665.863,886.3022,672.113,870.6772,678.363,876.9272,672.113" style="stroke:#4B5563;stroke-width:1.5625;stroke-linejoin:miter;stroke-miterlimit:10;"/><line style="stroke:#4B5563;stroke-width:1.5625;" x1="510.7407" x2="880.0522" y1="672.113" y2="672.113"/><text fill="#111827" font-family="'Malgun Gothic'" font-size="20.3125" lengthAdjust="spacing" textLength="341.1865" x="521.6782" y="664.0785">serverState = dirty ? queued : empty</text></g><g class="message" data-entity-1="part3" data-entity-2="part2" data-source-line="21" id="msg7"><polygon fill="#4B5563" points="352.636,714.7552,337.011,721.0052,352.636,727.2552,346.386,721.0052" style="stroke:#4B5563;stroke-width:1.5625;stroke-linejoin:miter;stroke-miterlimit:10;"/><line style="stroke:#4B5563;stroke-width:1.5625;stroke-dasharray:3.125,3.125;" x1="343.261" x2="509.1782" y1="721.0052" y2="721.0052"/><text fill="#111827" font-family="'Malgun Gothic'" font-size="20.3125" lengthAdjust="spacing" textLength="55.7205" x="362.011" y="712.9707">return</text></g><path d="M276.5625,747.5677 L276.5625,803.8177 A6.25,6.25 0 0 0 282.8125,810.0677 L735.9375,810.0677 A6.25,6.25 0 0 0 742.1875,803.8177 L742.1875,756.9427 L726.5625,741.3177 L282.8125,741.3177 A6.25,6.25 0 0 0 276.5625,747.5677" fill="#FFF8DC" style="stroke:#8B7355;stroke-width:0.7813;"/><path d="M726.5625,741.3177 L726.5625,753.8177 A3.125,3.125 0 0 0 729.6875,756.9427 L742.1875,756.9427 L726.5625,741.3177" fill="#FFF8DC" style="stroke:#8B7355;stroke-width:0.7813;"/><text fill="#111827" font-family="'Malgun Gothic'" font-size="20.3125" lengthAdjust="spacing" textLength="340.8096" x="285.9375" y="771.2379">commit timer&#47484; &#47564;&#46308;&#51648; &#50506;&#45716;&#45796;. [S][R]</text><text fill="#111827" font-family="'Malgun Gothic'" font-size="20.3125" lengthAdjust="spacing" textLength="434.1202" x="285.9375" y="798.2552">&#44592;&#51316; &#47196;&#52972; &#45936;&#51060;&#53552;&#45716; &#51088;&#46041; bootstrap&#46104;&#51648; &#50506;&#45716;&#45796;.</text><rect fill="#EEEEEE" height="4.6875" rx="6.25" ry="6.25" style="stroke:#EEEEEE;stroke-width:1.5625;" width="1141.3406" x="0" y="852.6108"/><line style="stroke:#000000;stroke-width:1.5625;" x1="0" x2="1141.3406" y1="852.6108" y2="852.6108"/><line style="stroke:#000000;stroke-width:1.5625;" x1="0" x2="1141.3406" y1="857.2983" y2="857.2983"/><rect fill="#EEEEEE" height="39.5172" rx="6.25" ry="6.25" style="stroke:#000000;stroke-width:3.125;" width="431.4972" x="354.9217" y="834.4147"/><text fill="#111827" font-family="'Malgun Gothic'" font-size="20.3125" font-weight="700" lengthAdjust="spacing" textLength="402.4811" x="364.2967" y="862.7724">Scenario B &#8212; &#49436;&#48260;&#44032; &#50526;&#49436;&#44256; &#47196;&#52972;&#46020; &#48320;&#44221;&#46120;</text><path d="M801.5625,903.6194 L801.5625,959.8694 A6.25,6.25 0 0 0 807.8125,966.1194 L1126.5625,966.1194 A6.25,6.25 0 0 0 1132.8125,959.8694 L1132.8125,912.9944 L1117.1875,897.3694 L807.8125,897.3694 A6.25,6.25 0 0 0 801.5625,903.6194" fill="#FFF8DC" style="stroke:#8B7355;stroke-width:0.7813;"/><path d="M1117.1875,897.3694 L1117.1875,909.8694 A3.125,3.125 0 0 0 1120.3125,912.9944 L1132.8125,912.9944 L1117.1875,897.3694" fill="#FFF8DC" style="stroke:#8B7355;stroke-width:0.7813;"/><text fill="#111827" font-family="'Malgun Gothic'" font-size="20.3125" lengthAdjust="spacing" textLength="299.1531" x="810.9375" y="927.2896">local base revision=5, dirty=true</text><text fill="#111827" font-family="'Malgun Gothic'" font-size="20.3125" lengthAdjust="spacing" textLength="210.5736" x="810.9375" y="954.3068">server head revision=6</text><g class="message" data-entity-1="part1" data-entity-2="part3" data-source-line="33" id="msg8"><polygon fill="#4B5563" points="491.9907,1004.9835,507.6157,1011.2335,491.9907,1017.4835,498.2407,1011.2335" style="stroke:#4B5563;stroke-width:1.5625;stroke-linejoin:miter;stroke-miterlimit:10;"/><line style="stroke:#4B5563;stroke-width:1.5625;" x1="45.5795" x2="501.3657" y1="1011.2335" y2="1011.2335"/><text fill="#111827" font-family="'Malgun Gothic'" font-size="20.3125" lengthAdjust="spacing" textLength="129.0161" x="56.517" y="1003.199">&#50896;&#44201; &#48520;&#47084;&#50724;&#44592;</text></g><g class="message" data-entity-1="part3" data-entity-2="part4" data-source-line="34" id="msg9"><polygon fill="#4B5563" points="870.6772,1053.8757,886.3022,1060.1257,870.6772,1066.3757,876.9272,1060.1257" style="stroke:#4B5563;stroke-width:1.5625;stroke-linejoin:miter;stroke-miterlimit:10;"/><line style="stroke:#4B5563;stroke-width:1.5625;" x1="510.7407" x2="880.0522" y1="1060.1257" y2="1060.1257"/><text fill="#111827" font-family="'Malgun Gothic'" font-size="20.3125" lengthAdjust="spacing" textLength="89.1846" x="521.6782" y="1052.0912">dirty &#54869;&#51064;</text></g><g class="message" data-entity-1="part3" data-entity-2="part1" data-source-line="35" id="msg10"><polygon fill="#4B5563" points="62.767,1102.7679,47.142,1109.0179,62.767,1115.2679,56.517,1109.0179" style="stroke:#4B5563;stroke-width:1.5625;stroke-linejoin:miter;stroke-miterlimit:10;"/><line style="stroke:#4B5563;stroke-width:1.5625;stroke-dasharray:3.125,3.125;" x1="53.392" x2="509.1782" y1="1109.0179" y2="1109.0179"/><text fill="#111827" font-family="'Malgun Gothic'" font-size="20.3125" lengthAdjust="spacing" textLength="276.7578" x="72.142" y="1100.9834">&#52264;&#45800;: &#51200;&#51109;&#46104;&#51648; &#50506;&#51008; &#47196;&#52972; &#48320;&#44221;</text></g><g class="message" data-entity-1="part1" data-entity-2="part3" data-source-line="36" id="msg11"><polygon fill="#4B5563" points="491.9907,1151.6602,507.6157,1157.9102,491.9907,1164.1602,498.2407,1157.9102" style="stroke:#4B5563;stroke-width:1.5625;stroke-linejoin:miter;stroke-miterlimit:10;"/><line style="stroke:#4B5563;stroke-width:1.5625;" x1="45.5795" x2="501.3657" y1="1157.9102" y2="1157.9102"/><text fill="#111827" font-family="'Malgun Gothic'" font-size="20.3125" lengthAdjust="spacing" textLength="88.3911" x="56.517" y="1149.8756">&#51648;&#44552; &#51200;&#51109;</text></g><g class="message" data-entity-1="part3" data-entity-2="part5" data-source-line="37" id="msg12"><polygon fill="#4B5563" points="1029.0169,1200.5524,1044.6419,1206.8024,1029.0169,1213.0524,1035.2669,1206.8024" style="stroke:#4B5563;stroke-width:1.5625;stroke-linejoin:miter;stroke-miterlimit:10;"/><line style="stroke:#4B5563;stroke-width:1.5625;" x1="510.7407" x2="1038.3919" y1="1206.8024" y2="1206.8024"/><text fill="#111827" font-family="'Malgun Gothic'" font-size="20.3125" lengthAdjust="spacing" textLength="190.3999" x="521.6782" y="1198.7679">commit(expected=5)</text></g><g class="message" data-entity-1="part5" data-entity-2="part3" data-source-line="38" id="msg13"><polygon fill="#4B5563" points="527.9282,1249.4446,512.3032,1255.6946,527.9282,1261.9446,521.6782,1255.6946" style="stroke:#4B5563;stroke-width:1.5625;stroke-linejoin:miter;stroke-miterlimit:10;"/><line style="stroke:#4B5563;stroke-width:1.5625;stroke-dasharray:3.125,3.125;" x1="518.5532" x2="1046.2044" y1="1255.6946" y2="1255.6946"/><text fill="#111827" font-family="'Malgun Gothic'" font-size="20.3125" lengthAdjust="spacing" textLength="158.8104" x="537.3032" y="1247.6601">conflict(actual=6)</text></g><g class="message" data-entity-1="part3" data-entity-2="part1" data-source-line="39" id="msg14"><polygon fill="#4B5563" points="62.767,1298.3368,47.142,1304.5868,62.767,1310.8368,56.517,1304.5868" style="stroke:#4B5563;stroke-width:1.5625;stroke-linejoin:miter;stroke-miterlimit:10;"/><line style="stroke:#4B5563;stroke-width:1.5625;stroke-dasharray:3.125,3.125;" x1="53.392" x2="509.1782" y1="1304.5868" y2="1304.5868"/><text fill="#111827" font-family="'Malgun Gothic'" font-size="20.3125" lengthAdjust="spacing" textLength="265.1733" x="72.142" y="1296.5523">&#45796;&#47480; &#46356;&#48148;&#51060;&#49828;&#44032; &#47676;&#51200; &#51200;&#51109;&#54632;</text></g><path d="M7.8125,1331.1493 L7.8125,1387.3993 A6.25,6.25 0 0 0 14.0625,1393.6493 L1079.6875,1393.6493 A6.25,6.25 0 0 0 1085.9375,1387.3993 L1085.9375,1340.5243 L1070.3125,1324.8993 L14.0625,1324.8993 A6.25,6.25 0 0 0 7.8125,1331.1493" fill="#FFF8DC" style="stroke:#8B7355;stroke-width:0.7813;"/><path d="M1070.3125,1324.8993 L1070.3125,1337.3993 A3.125,3.125 0 0 0 1073.4375,1340.5243 L1085.9375,1340.5243 L1070.3125,1324.8993" fill="#FFF8DC" style="stroke:#8B7355;stroke-width:0.7813;"/><text fill="#111827" font-family="'Malgun Gothic'" font-size="20.3125" lengthAdjust="spacing" textLength="281.2012" x="399.9344" y="1354.8195">&#49436;&#48260; &#48260;&#51204; &#49688;&#50857;, &#47196;&#52972; &#51116;&#44592;&#51456;&#54868;,</text><text fill="#111827" font-family="'Malgun Gothic'" font-size="20.3125" lengthAdjust="spacing" textLength="240.1299" x="399.9344" y="1381.8367">&#48708;&#44368;/&#48337;&#54633; &#46041;&#51089;&#51060; &#50630;&#45796;. [S]</text><g class="caption" data-source-line="46"><text fill="#111827" font-family="'Malgun Gothic'" font-size="21.875" lengthAdjust="spacing" textLength="939.9307" x="99.9237" y="1566.2125">&#44208;&#54632; 5&#183;6 &#8212; bootstrap&#44284; conflict resolution&#51060; &#49345;&#53468; &#47928;&#51088;&#50676;&#50640;&#49436; &#45149;&#45208;&#44256; &#49892;&#54665; &#44032;&#45733;&#54620; &#51204;&#51060;&#44032; &#50630;&#45796;.</text></g><?plantuml-src RPHDJnD16CVl-oaUEK42b0iaagm6FH7H0mqd96JO7M73TdUTdKNhQP76LC1GOYkWROMaX99mQ7YpHhpuKJpkJB-3p-psXGg7fjsTv_N__tKUM8vX1oQ5HPzdRJhg1HbRunQtAKobHwRJCFOG_eP5c7i-0tAht0f3kLcR17bLbfTva7kDwBmHNTo0l3uLEziW3qlo9DGqOd2NmPnFcUOHnYt3yeZ3OI1DERUSPH_cfWU0-D1vxezwuR8CiQrtr8HqrZ6IIFoXcOIJ9U9J6B1TWzYGePoaV4uuZMDcrCl_6WPUdD7knjPm8atN8MrGXp3BXQbuFRcHXpSkM_KzOj3-xK3NDSVb55pCRRS0Y9eDUNG9ugWiVvs1nznbHdq_DSLjx8Cdidg6KNxSS9QkMRxbElgOHXqJL35DIGCZZxe2m2JCpSwaYECwpsWsvUEs-8rwXh9wh7MZC2EU0CCDrtbbBRSZNZf9gxJIGdyTq82QVLbAFan2hHWFlAShr5WT7DBYj_4KAXdFBOyksYun5rSeCLL0SZ3Igy1eHecXpb6W3xAotQtIcUpMAA23QJ6UXSUG38N7DEFnR3kfNm56US0SxPRSiUk0ksOo5WTkPIWJnpSWJhR5vngI1hAqAJQBOgis2lFfXVdPXJlUY4yDMRbivHeO1x9Q43i7iEIwtEUCUAAmtr-bvr0V9KyIId9bSPwB6YgXYW_HnM6xYzZ9WRW8e_FVeb2_XvZXDde02RWnnAp3nVXmefBEMK2xs2GQTuCcxe4diKH-AqJdfo2ky-BxcToluVvtF4bSQ1sKPANPqpukX0KQTR5LdsoprDD4LiAkYl5oTpgVX54ptwNqVveIsmRfMuyQd9hw-7r0AOvjo-23U6S4nDOdXkxCXyQ8uoQ8Ob4qYcWcNa7A156_mSxjxgrI_JOuAhCdUc8Su4SUva3cz-NNq-7EQlXNLSJKmjP1SHY3nSzST5L8YOlTLWbLtJcGrLrigcZlS7QB4eDu7Eq1l2bm11Z_ysCYPgMBcBeTEpkYcxvh1oeXhhYntjeeWpXh8fToxrBk5N1I4EiLyNvVmIMtQgql7m6N5PkuOHbtpM5YJ60opJy0?></g></svg>