<svg xmlns="http://www.w3.org/2000/svg" xmlns:xlink="http://www.w3.org/1999/xlink" contentStyleType="text/css" data-diagram-type="SEQUENCE" height="1645.3125px" preserveAspectRatio="none" style="width:1198px;height:1645px;background:#FFFFFF;" version="1.1" viewBox="0 0 1198 1645" width="1198.4375px" zoomAndPan="magnify"><?plantuml 1.2026.6?><defs/><g><g class="title" data-source-line="2"><text fill="#111827" font-family="'Malgun Gothic'" font-size="21.875" font-weight="700" lengthAdjust="spacing" textLength="531.2912" x="328.7991" y="47.2458">AS-IS 10 &#8212; UML &#49884;&#53248;&#49828;: &#45796;&#51473; &#53485;&#44284; &#51333;&#47308;&#183;&#51116;&#49892;&#54665; &#44277;&#48177;</text></g><g class="participant-lifeline" data-entity-uid="part1" data-qualified-name="User" data-source-line="4" id="part1-lifeline"><g><title>User</title><rect fill="#000000" fill-opacity="0.00000" height="1286.8225" width="12.5" x="28.392" y="192.5659"/><line style="stroke:#64748B;stroke-width:0.7813;stroke-dasharray:7.8125,7.8125;" x1="34.375" x2="34.375" y1="192.5659" y2="1479.3884"/></g></g><g class="participant-lifeline" data-entity-uid="part2" data-qualified-name="A" data-source-line="5" id="part2-lifeline"><g><title>. A</title><rect fill="#000000" fill-opacity="0.00000" height="1286.8225" width="12.5" x="174.5956" y="192.5659"/><line style="stroke:#64748B;stroke-width:0.7813;stroke-dasharray:7.8125,7.8125;" x1="180.7388" x2="180.7388" y1="192.5659" y2="1479.3884"/></g></g><g class="participant-lifeline" data-entity-uid="part3" data-qualified-name="B" data-source-line="6" id="part3-lifeline"><g><title>. B</title><rect fill="#000000" fill-opacity="0.00000" height="1286.8225" width="12.5" x="256.9565" y="192.5659"/><line style="stroke:#64748B;stroke-width:0.7813;stroke-dasharray:7.8125,7.8125;" x1="262.3543" x2="262.3543" y1="192.5659" y2="1479.3884"/></g></g><g class="participant-lifeline" data-entity-uid="part4" data-qualified-name="LS" data-source-line="7" id="part4-lifeline"><g><title>.. localStorage</title><rect fill="#000000" fill-opacity="0.00000" height="1286.8225" width="12.5" x="566.2354" y="192.5659"/><line style="stroke:#64748B;stroke-width:0.7813;stroke-dasharray:7.8125,7.8125;" x1="571.6545" x2="571.6545" y1="192.5659" y2="1479.3884"/></g></g><g class="participant-lifeline" data-entity-uid="part5" data-qualified-name="Server" data-source-line="8" id="part5-lifeline"><g><title>Supabase</title><rect fill="#000000" fill-opacity="0.00000" height="1286.8225" width="12.5" x="731.6193" y="192.5659"/><line style="stroke:#64748B;stroke-width:0.7813;stroke-dasharray:7.8125,7.8125;" x1="737.3787" x2="737.3787" y1="192.5659" y2="1479.3884"/></g></g><g class="participant-lifeline" data-entity-uid="part6" data-qualified-name="C" data-source-line="9" id="part6-lifeline"><g><title>... . C</title><rect fill="#000000" fill-opacity="0.00000" height="1286.8225" width="12.5" x="1064.1068" y="192.5659"/><line style="stroke:#64748B;stroke-width:0.7813;stroke-dasharray:7.8125,7.8125;" x1="1069.7861" x2="1069.7861" y1="192.5659" y2="1479.3884"/></g></g><g class="participant participant-head" data-entity-uid="part1" data-qualified-name="User" data-source-line="4" id="part1-head"><text fill="#111827" font-family="'Malgun Gothic'" font-size="21.875" lengthAdjust="spacing" textLength="44.2841" x="7.8125" y="187.2787">User</text><ellipse cx="34.642" cy="83.0017" fill="#E2E2F0" rx="12.5" ry="12.5" style="stroke:#181818;stroke-width:0.7813;"/><path d="M34.642,95.5017 L34.642,137.6892 M14.3295,108.0017 L54.9545,108.0017 M34.642,137.6892 L14.3295,161.1267 M34.642,137.6892 L54.9545,161.1267" fill="none" style="stroke:#181818;stroke-width:0.7813;"/></g><g class="participant participant-tail" data-entity-uid="part1" data-qualified-name="User" data-source-line="4" id="part1-tail"><text fill="#111827" font-family="'Malgun Gothic'" font-size="21.875" lengthAdjust="spacing" textLength="44.2841" x="7.8125" y="1501.6342">User</text><ellipse cx="34.642" cy="1520.2026" fill="#E2E2F0" rx="12.5" ry="12.5" style="stroke:#181818;stroke-width:0.7813;"/><path d="M34.642,1532.7026 L34.642,1574.8901 M14.3295,1545.2026 L54.9545,1545.2026 M34.642,1574.8901 L14.3295,1598.3276 M34.642,1574.8901 L54.9545,1598.3276" fill="none" style="stroke:#181818;stroke-width:0.7813;"/></g><g class="participant participant-head" data-entity-uid="part2" data-qualified-name="A" data-source-line="5" id="part2-head"><rect fill="#E2E2F0" height="50.9705" rx="6.25" ry="6.25" style="stroke:#181818;stroke-width:0.7813;" width="65.8386" x="147.9263" y="140.033"/><text fill="#111827" font-family="'Malgun Gothic'" font-size="21.875" lengthAdjust="spacing" textLength="43.9636" x="158.8638" y="174.7787">&#53485; A</text></g><g class="participant participant-tail" data-entity-uid="part2" data-qualified-name="A" data-source-line="5" id="part2-tail"><rect fill="#E2E2F0" height="50.9705" rx="6.25" ry="6.25" style="stroke:#181818;stroke-width:0.7813;" width="65.8386" x="147.9263" y="1477.8259"/><text fill="#111827" font-family="'Malgun Gothic'" font-size="21.875" lengthAdjust="spacing" textLength="43.9636" x="158.8638" y="1512.5717">&#53485; A</text></g><g class="participant participant-head" data-entity-uid="part3" data-qualified-name="B" data-source-line="6" id="part3-head"><rect fill="#E2E2F0" height="50.9705" rx="6.25" ry="6.25" style="stroke:#181818;stroke-width:0.7813;" width="64.2044" x="231.1043" y="140.033"/><text fill="#111827" font-family="'Malgun Gothic'" font-size="21.875" lengthAdjust="spacing" textLength="42.3294" x="242.0418" y="174.7787">&#53485; B</text></g><g class="participant participant-tail" data-entity-uid="part3" data-qualified-name="B" data-source-line="6" id="part3-tail"><rect fill="#E2E2F0" height="50.9705" rx="6.25" ry="6.25" style="stroke:#181818;stroke-width:0.7813;" width="64.2044" x="231.1043" y="1477.8259"/><text fill="#111827" font-family="'Malgun Gothic'" font-size="21.875" lengthAdjust="spacing" textLength="42.3294" x="242.0418" y="1512.5717">&#53485; B</text></g><g class="participant participant-head" data-entity-uid="part4" data-qualified-name="LS" data-source-line="7" id="part4-head"><text fill="#111827" font-family="'Malgun Gothic'" font-size="21.875" lengthAdjust="spacing" textLength="173.5367" x="481.0295" y="187.2787">&#44277;&#50976; localStorage</text><path d="M544.3604,107.2205 C544.3604,91.5955 572.4854,91.5955 572.4854,91.5955 C572.4854,91.5955 600.6104,91.5955 600.6104,107.2205 L600.6104,147.8455 C600.6104,163.4705 572.4854,163.4705 572.4854,163.4705 C572.4854,163.4705 544.3604,163.4705 544.3604,147.8455 L544.3604,107.2205" fill="#E2E2F0" style="stroke:#181818;stroke-width:0.7813;"/><path d="M544.3604,107.2205 C544.3604,122.8455 572.4854,122.8455 572.4854,122.8455 C572.4854,122.8455 600.6104,122.8455 600.6104,107.2205" fill="none" style="stroke:#181818;stroke-width:0.7813;"/></g><g class="participant participant-tail" data-entity-uid="part4" data-qualified-name="LS" data-source-line="7" id="part4-tail"><text fill="#111827" font-family="'Malgun Gothic'" font-size="21.875" lengthAdjust="spacing" textLength="173.5367" x="481.0295" y="1501.6342">&#44277;&#50976; localStorage</text><path d="M544.3604,1522.5464 C544.3604,1506.9214 572.4854,1506.9214 572.4854,1506.9214 C572.4854,1506.9214 600.6104,1506.9214 600.6104,1522.5464 L600.6104,1563.1714 C600.6104,1578.7964 572.4854,1578.7964 572.4854,1578.7964 C572.4854,1578.7964 544.3604,1578.7964 544.3604,1563.1714 L544.3604,1522.5464" fill="#E2E2F0" style="stroke:#181818;stroke-width:0.7813;"/><path d="M544.3604,1522.5464 C544.3604,1538.1714 572.4854,1538.1714 572.4854,1538.1714 C572.4854,1538.1714 600.6104,1538.1714 600.6104,1522.5464" fill="none" style="stroke:#181818;stroke-width:0.7813;"/></g><g class="participant participant-head" data-entity-uid="part5" data-qualified-name="Server" data-source-line="8" id="part5-head"><rect fill="#E2E2F0" height="50.9705" rx="6.25" ry="6.25" style="stroke:#181818;stroke-width:0.7813;" width="116.6061" x="679.5662" y="140.033"/><text fill="#111827" font-family="'Malgun Gothic'" font-size="21.875" lengthAdjust="spacing" textLength="94.7311" x="690.5037" y="174.7787">Supabase</text></g><g class="participant participant-tail" data-entity-uid="part5" data-qualified-name="Server" data-source-line="8" id="part5-tail"><rect fill="#E2E2F0" height="50.9705" rx="6.25" ry="6.25" style="stroke:#181818;stroke-width:0.7813;" width="116.6061" x="679.5662" y="1477.8259"/><text fill="#111827" font-family="'Malgun Gothic'" font-size="21.875" lengthAdjust="spacing" textLength="94.7311" x="690.5037" y="1512.5717">Supabase</text></g><g class="participant participant-head" data-entity-uid="part6" data-qualified-name="C" data-source-line="9" id="part6-head"><rect fill="#E2E2F0" height="50.9705" rx="6.25" ry="6.25" style="stroke:#181818;stroke-width:0.7813;" width="138.6414" x="1001.0361" y="140.033"/><text fill="#111827" font-family="'Malgun Gothic'" font-size="21.875" lengthAdjust="spacing" textLength="116.7664" x="1011.9736" y="174.7787">&#51116;&#49892;&#54665; &#53485; C</text></g><g class="participant participant-tail" data-entity-uid="part6" data-qualified-name="C" data-source-line="9" id="part6-tail"><rect fill="#E2E2F0" height="50.9705" rx="6.25" ry="6.25" style="stroke:#181818;stroke-width:0.7813;" width="138.6414" x="1001.0361" y="1477.8259"/><text fill="#111827" font-family="'Malgun Gothic'" font-size="21.875" lengthAdjust="spacing" textLength="116.7664" x="1011.9736" y="1512.5717">&#51116;&#49892;&#54665; &#53485; C</text></g><rect fill="#EEEEEE" height="4.6875" rx="6.25" ry="6.25" style="stroke:#EEEEEE;stroke-width:1.5625;" width="1190.4518" x="0" y="242.012"/><line style="stroke:#000000;stroke-width:1.5625;" x1="0" x2="1190.4518" y1="242.012" y2="242.012"/><line style="stroke:#000000;stroke-width:1.5625;" x1="0" x2="1190.4518" y1="246.6995" y2="246.6995"/><rect fill="#EEEEEE" height="39.5172" rx="6.25" ry="6.25" style="stroke:#000000;stroke-width:3.125;" width="208.8036" x="490.8241" y="223.8159"/><text fill="#111827" font-family="'Malgun Gothic'" font-size="20.3125" font-weight="700" lengthAdjust="spacing" textLength="179.7874" x="500.1991" y="252.1736">&#44057;&#51008; origin&#51032; &#46160; &#53485;</text><g class="message" data-entity-1="part2" data-entity-2="part4" data-source-line="12" id="msg1"><polygon fill="#4B5563" points="553.7354,309.1003,569.3604,315.3503,553.7354,321.6003,559.9854,315.3503" style="stroke:#4B5563;stroke-width:1.5625;stroke-linejoin:miter;stroke-miterlimit:10;"/><line style="stroke:#4B5563;stroke-width:1.5625;" x1="180.8456" x2="563.1104" y1="315.3503" y2="315.3503"/><text fill="#111827" font-family="'Malgun Gothic'" font-size="20.3125" lengthAdjust="spacing" textLength="146.3531" x="191.7831" y="307.3158">state/meta &#51069;&#44592;</text></g><g class="message" data-entity-1="part3" data-entity-2="part4" data-source-line="13" id="msg2"><polygon fill="#4B5563" points="553.7354,357.9926,569.3604,364.2426,553.7354,370.4926,559.9854,364.2426" style="stroke:#4B5563;stroke-width:1.5625;stroke-linejoin:miter;stroke-miterlimit:10;"/><line style="stroke:#4B5563;stroke-width:1.5625;" x1="263.2065" x2="563.1104" y1="364.2426" y2="364.2426"/><text fill="#111827" font-family="'Malgun Gothic'" font-size="20.3125" lengthAdjust="spacing" textLength="194.1193" x="274.144" y="356.208">&#44057;&#51008; state/meta &#51069;&#44592;</text></g><g class="message" data-entity-1="part1" data-entity-2="part2" data-source-line="14" id="msg3"><polygon fill="#4B5563" points="162.0956,406.8848,177.7206,413.1348,162.0956,419.3848,168.3456,413.1348" style="stroke:#4B5563;stroke-width:1.5625;stroke-linejoin:miter;stroke-miterlimit:10;"/><line style="stroke:#4B5563;stroke-width:1.5625;" x1="34.642" x2="171.4706" y1="413.1348" y2="413.1348"/><text fill="#111827" font-family="'Malgun Gothic'" font-size="20.3125" lengthAdjust="spacing" textLength="108.7036" x="45.5795" y="405.1003">&#45936;&#51060;&#53552; &#54200;&#51665;</text></g><g class="message" data-entity-1="part2" data-entity-2="part4" data-source-line="15" id="msg4"><polygon fill="#4B5563" points="553.7354,455.777,569.3604,462.027,553.7354,468.277,559.9854,462.027" style="stroke:#4B5563;stroke-width:1.5625;stroke-linejoin:miter;stroke-miterlimit:10;"/><line style="stroke:#4B5563;stroke-width:1.5625;" x1="180.8456" x2="563.1104" y1="462.027" y2="462.027"/><text fill="#111827" font-family="'Malgun Gothic'" font-size="20.3125" lengthAdjust="spacing" textLength="163.6406" x="191.7831" y="453.9925">local state + dirty</text></g><g class="message" data-entity-1="part2" data-entity-2="part5" data-source-line="16" id="msg5"><polygon fill="#4B5563" points="719.1193,504.6692,734.7443,510.9192,719.1193,517.1692,725.3693,510.9192" style="stroke:#4B5563;stroke-width:1.5625;stroke-linejoin:miter;stroke-miterlimit:10;"/><line style="stroke:#4B5563;stroke-width:1.5625;" x1="180.8456" x2="728.4943" y1="510.9192" y2="510.9192"/><text fill="#111827" font-family="'Malgun Gothic'" font-size="20.3125" lengthAdjust="spacing" textLength="165.6441" x="191.7831" y="502.8847">commit revision 6</text></g><g class="message" data-entity-1="part5" data-entity-2="part2" data-source-line="17" id="msg6"><polygon fill="#4B5563" points="198.0331,553.5614,182.4081,559.8114,198.0331,566.0614,191.7831,559.8114" style="stroke:#4B5563;stroke-width:1.5625;stroke-linejoin:miter;stroke-miterlimit:10;"/><line style="stroke:#4B5563;stroke-width:1.5625;stroke-dasharray:3.125,3.125;" x1="188.6581" x2="736.3068" y1="559.8114" y2="559.8114"/><text fill="#111827" font-family="'Malgun Gothic'" font-size="20.3125" lengthAdjust="spacing" textLength="68.2076" x="207.4081" y="551.7769">success</text></g><g class="message" data-entity-1="part2" data-entity-2="part4" data-source-line="18" id="msg7"><polygon fill="#4B5563" points="553.7354,602.4536,569.3604,608.7036,553.7354,614.9536,559.9854,608.7036" style="stroke:#4B5563;stroke-width:1.5625;stroke-linejoin:miter;stroke-miterlimit:10;"/><line style="stroke:#4B5563;stroke-width:1.5625;" x1="180.8456" x2="563.1104" y1="608.7036" y2="608.7036"/><text fill="#111827" font-family="'Malgun Gothic'" font-size="20.3125" lengthAdjust="spacing" textLength="156.0829" x="191.7831" y="600.6691">serverRevision=6</text></g><path d="M54.6875,635.2661 L54.6875,718.0786 A6.25,6.25 0 0 0 60.9375,724.3286 L464.0625,724.3286 A6.25,6.25 0 0 0 470.3125,718.0786 L470.3125,644.6411 L454.6875,629.0161 L60.9375,629.0161 A6.25,6.25 0 0 0 54.6875,635.2661" fill="#FFF8DC" style="stroke:#8B7355;stroke-width:0.7813;"/><path d="M454.6875,629.0161 L454.6875,641.5161 A3.125,3.125 0 0 0 457.8125,644.6411 L470.3125,644.6411 L454.6875,629.0161" fill="#FFF8DC" style="stroke:#8B7355;stroke-width:0.7813;"/><text fill="#111827" font-family="'Malgun Gothic'" font-size="20.3125" lengthAdjust="spacing" textLength="271.9276" x="64.0625" y="658.9363">BroadcastChannel, Web Lock,</text><text fill="#111827" font-family="'Malgun Gothic'" font-size="20.3125" lengthAdjust="spacing" textLength="256.8619" x="64.0625" y="685.9535">storage event &#52376;&#47532; &#50630;&#51020;. [S]</text><text fill="#111827" font-family="'Malgun Gothic'" font-size="20.3125" lengthAdjust="spacing" textLength="383.4679" x="64.0625" y="712.9707">B&#51032; &#47700;&#47784;&#47532;&#45716; &#51060;&#51204; snapshot&#51068; &#49688; &#51080;&#45796;. [I]</text><g class="message" data-entity-1="part1" data-entity-2="part3" data-source-line="26" id="msg8"><polygon fill="#4B5563" points="244.4565,763.6475,260.0815,769.8975,244.4565,776.1475,250.7065,769.8975" style="stroke:#4B5563;stroke-width:1.5625;stroke-linejoin:miter;stroke-miterlimit:10;"/><line style="stroke:#4B5563;stroke-width:1.5625;" x1="34.642" x2="253.8315" y1="769.8975" y2="769.8975"/><text fill="#111827" font-family="'Malgun Gothic'" font-size="20.3125" lengthAdjust="spacing" textLength="156.4697" x="45.5795" y="761.8629">&#45796;&#47480; &#45936;&#51060;&#53552; &#54200;&#51665;</text></g><g class="message" data-entity-1="part3" data-entity-2="part4" data-source-line="27" id="msg9"><polygon fill="#4B5563" points="553.7354,812.5397,569.3604,818.7897,553.7354,825.0397,559.9854,818.7897" style="stroke:#4B5563;stroke-width:1.5625;stroke-linejoin:miter;stroke-miterlimit:10;"/><line style="stroke:#4B5563;stroke-width:1.5625;" x1="263.2065" x2="563.1104" y1="818.7897" y2="818.7897"/><text fill="#111827" font-family="'Malgun Gothic'" font-size="20.3125" lengthAdjust="spacing" textLength="226.8394" x="274.144" y="810.7552">B &#47700;&#47784;&#47532; &#44592;&#48152; state &#51200;&#51109;</text></g><g class="message" data-entity-1="part3" data-entity-2="part5" data-source-line="28" id="msg10"><polygon fill="#4B5563" points="719.1193,861.4319,734.7443,867.6819,719.1193,873.9319,725.3693,867.6819" style="stroke:#4B5563;stroke-width:1.5625;stroke-linejoin:miter;stroke-miterlimit:10;"/><line style="stroke:#4B5563;stroke-width:1.5625;" x1="263.2065" x2="728.4943" y1="867.6819" y2="867.6819"/><text fill="#111827" font-family="'Malgun Gothic'" font-size="20.3125" lengthAdjust="spacing" textLength="285.2776" x="274.144" y="859.6474">&#51060;&#51204; base revision&#51004;&#47196; commit</text></g><g class="message" data-entity-1="part5" data-entity-2="part3" data-source-line="29" id="msg11"><polygon fill="#4B5563" points="280.394,910.3241,264.769,916.5741,280.394,922.8241,274.144,916.5741" style="stroke:#4B5563;stroke-width:1.5625;stroke-linejoin:miter;stroke-miterlimit:10;"/><line style="stroke:#4B5563;stroke-width:1.5625;stroke-dasharray:3.125,3.125;" x1="271.019" x2="736.3068" y1="916.5741" y2="916.5741"/><text fill="#111827" font-family="'Malgun Gothic'" font-size="20.3125" lengthAdjust="spacing" textLength="299.8375" x="289.769" y="908.5396">conflict &#46608;&#45716; stale &#51204;&#52404;&#49345;&#53468; &#49884;&#46020;</text></g><rect fill="#EEEEEE" height="4.6875" rx="6.25" ry="6.25" style="stroke:#EEEEEE;stroke-width:1.5625;" width="1190.4518" x="0" y="962.8952"/><line style="stroke:#000000;stroke-width:1.5625;" x1="0" x2="1190.4518" y1="962.8952" y2="962.8952"/><line style="stroke:#000000;stroke-width:1.5625;" x1="0" x2="1190.4518" y1="967.5827" y2="967.5827"/><rect fill="#EEEEEE" height="39.5172" rx="6.25" ry="6.25" style="stroke:#000000;stroke-width:3.125;" width="117.4072" x="536.5223" y="944.6991"/><text fill="#111827" font-family="'Malgun Gothic'" font-size="20.3125" font-weight="700" lengthAdjust="spacing" textLength="88.3911" x="545.8973" y="973.0568">&#51333;&#47308; &#51649;&#51204;</text><g class="message" data-entity-1="part1" data-entity-2="part3" data-source-line="32" id="msg12"><polygon fill="#4B5563" points="244.4565,1029.9835,260.0815,1036.2335,244.4565,1042.4835,250.7065,1036.2335" style="stroke:#4B5563;stroke-width:1.5625;stroke-linejoin:miter;stroke-miterlimit:10;"/><line style="stroke:#4B5563;stroke-width:1.5625;" x1="34.642" x2="253.8315" y1="1036.2335" y2="1036.2335"/><text fill="#111827" font-family="'Malgun Gothic'" font-size="20.3125" lengthAdjust="spacing" textLength="191.0645" x="45.5795" y="1028.199">&#54200;&#51665; &#54980; &#51593;&#49884; &#52285; &#45803;&#44592;</text></g><g class="message" data-entity-1="part3" data-entity-2="part4" data-source-line="33" id="msg13"><polygon fill="#4B5563" points="553.7354,1078.8757,569.3604,1085.1257,553.7354,1091.3757,559.9854,1085.1257" style="stroke:#4B5563;stroke-width:1.5625;stroke-linejoin:miter;stroke-miterlimit:10;"/><line style="stroke:#4B5563;stroke-width:1.5625;" x1="263.2065" x2="563.1104" y1="1085.1257" y2="1085.1257"/><text fill="#111827" font-family="'Malgun Gothic'" font-size="20.3125" lengthAdjust="spacing" textLength="271.7789" x="274.144" y="1077.0912">Atlas beforeunload local save</text></g><g class="message" data-entity-1="part3" data-entity-2="part5" data-source-line="34" id="msg14"><line style="stroke:#4B5563;stroke-width:3.125;" x1="709.7443" x2="725.3693" y1="1126.2054" y2="1141.8304"/><line style="stroke:#4B5563;stroke-width:3.125;" x1="709.7443" x2="725.3693" y1="1141.8304" y2="1126.2054"/><line style="stroke:#4B5563;stroke-width:1.5625;" x1="263.2065" x2="717.5568" y1="1134.0179" y2="1134.0179"/><text fill="#111827" font-family="'Malgun Gothic'" font-size="20.3125" lengthAdjust="spacing" textLength="255.394" x="274.144" y="1125.9834">&#45824;&#44592; &#51473; RPC &#50756;&#47308; &#48372;&#51109; &#50630;&#51020;</text></g><path d="M89.0625,1160.5804 L89.0625,1216.8304 A6.25,6.25 0 0 0 95.3125,1223.0804 L428.125,1223.0804 A6.25,6.25 0 0 0 434.375,1216.8304 L434.375,1169.9554 L418.75,1154.3304 L95.3125,1154.3304 A6.25,6.25 0 0 0 89.0625,1160.5804" fill="#FFF8DC" style="stroke:#8B7355;stroke-width:0.7813;"/><path d="M418.75,1154.3304 L418.75,1166.8304 A3.125,3.125 0 0 0 421.875,1169.9554 L434.375,1169.9554 L418.75,1154.3304" fill="#FFF8DC" style="stroke:#8B7355;stroke-width:0.7813;"/><text fill="#111827" font-family="'Malgun Gothic'" font-size="20.3125" lengthAdjust="spacing" textLength="265.2626" x="98.4375" y="1184.2506">top-level &#49436;&#48260; &#48120;&#51200;&#51109; &#44221;&#44256;&#50752;</text><text fill="#111827" font-family="'Malgun Gothic'" font-size="20.3125" lengthAdjust="spacing" textLength="312.5031" x="98.4375" y="1211.2679">&#50689;&#49549; operation/outbox&#44032; &#50630;&#45796;. [S]</text><g class="message" data-entity-1="part1" data-entity-2="part6" data-source-line="41" id="msg15"><polygon fill="#4B5563" points="1051.6068,1261.9446,1067.2318,1268.1946,1051.6068,1274.4446,1057.8568,1268.1946" style="stroke:#4B5563;stroke-width:1.5625;stroke-linejoin:miter;stroke-miterlimit:10;"/><line style="stroke:#4B5563;stroke-width:1.5625;" x1="34.642" x2="1060.9818" y1="1268.1946" y2="1268.1946"/><text fill="#111827" font-family="'Malgun Gothic'" font-size="20.3125" lengthAdjust="spacing" textLength="115.8447" x="45.5795" y="1260.1601">&#50545; &#45796;&#49884; &#50676;&#44592;</text></g><g class="message" data-entity-1="part6" data-entity-2="part4" data-source-line="42" id="msg16"><polygon fill="#4B5563" points="589.6729,1310.8368,574.0479,1317.0868,589.6729,1323.3368,583.4229,1317.0868" style="stroke:#4B5563;stroke-width:1.5625;stroke-linejoin:miter;stroke-miterlimit:10;"/><line style="stroke:#4B5563;stroke-width:1.5625;" x1="580.2979" x2="1068.7943" y1="1317.0868" y2="1317.0868"/><text fill="#111827" font-family="'Malgun Gothic'" font-size="20.3125" lengthAdjust="spacing" textLength="143.5364" x="599.0479" y="1309.0523">dirty/meta &#51069;&#44592;</text></g><g class="message" data-entity-1="part6" data-entity-2="part5" data-source-line="43" id="msg17"><polygon fill="#4B5563" points="755.0568,1359.729,739.4318,1365.979,755.0568,1372.229,748.8068,1365.979" style="stroke:#4B5563;stroke-width:1.5625;stroke-linejoin:miter;stroke-miterlimit:10;"/><line style="stroke:#4B5563;stroke-width:1.5625;" x1="745.6818" x2="1068.7943" y1="1365.979" y2="1365.979"/><text fill="#111827" font-family="'Malgun Gothic'" font-size="20.3125" lengthAdjust="spacing" textLength="294.9875" x="764.4318" y="1357.9445">startup check &#46608;&#45716; &#49352; operation</text></g><path d="M623.4375,1392.5415 L623.4375,1448.7915 A6.25,6.25 0 0 0 629.6875,1455.0415 L1175,1455.0415 A6.25,6.25 0 0 0 1181.25,1448.7915 L1181.25,1401.9165 L1165.625,1386.2915 L629.6875,1386.2915 A6.25,6.25 0 0 0 623.4375,1392.5415" fill="#FFF8DC" style="stroke:#8B7355;stroke-width:0.7813;"/><path d="M1165.625,1386.2915 L1165.625,1398.7915 A3.125,3.125 0 0 0 1168.75,1401.9165 L1181.25,1401.9165 L1165.625,1386.2915" fill="#FFF8DC" style="stroke:#8B7355;stroke-width:0.7813;"/><text fill="#111827" font-family="'Malgun Gothic'" font-size="20.3125" lengthAdjust="spacing" textLength="526.3893" x="632.8125" y="1416.2117">&#49436;&#48260;&#44032; &#51060;&#51204; &#50836;&#52397;&#51012; &#49688;&#46973;&#54664;&#51004;&#45208; ACK &#44592;&#47197; &#51204; &#51333;&#47308;&#46108; &#44221;&#50864;,</text><text fill="#111827" font-family="'Malgun Gothic'" font-size="20.3125" lengthAdjust="spacing" textLength="408.3725" x="632.8125" y="1443.2289">&#44057;&#51008; operationId&#47484; &#51116;&#49324;&#50857;&#54624; &#51221;&#48372;&#44032; &#50630;&#45796;. [I]</text><g class="caption" data-source-line="50"><text fill="#111827" font-family="'Malgun Gothic'" font-size="21.875" lengthAdjust="spacing" textLength="895.5933" x="146.648" y="1627.6047">&#44208;&#54632; 12 &#48143; &#52628;&#44032; &#47532;&#49828;&#53356; &#8212; &#48652;&#46972;&#50864;&#51200; &#53485;&#44284; &#54532;&#47196;&#49464;&#49828; &#49373;&#47749;&#51452;&#44592;&#44032; &#46041;&#44592;&#54868; operation&#48372;&#45796; &#51687;&#45796;.</text></g><?plantuml-src RLHDRzD04BtxLmozql9ru80KfCIdYY8X8iG18RHr5chXsfQzgU2MKeCARMahfP2Kk0hGKZwAC6c07DeBFuLZTlmVc5qxJKAvMPhtPkQzUUipjcivrGg7Uw5uxF1pVdNUCOGj70x5yjHq6IvUW3-rEjowFWEuqafhDNonUmNaoYxkRaAwzBL_U0Juxgbyl_hx5-uSuCfk-kevz0z_oEIxOJ1BU07S2dbW-2mGjcNxp1KmGKGeJW0BeNYwKDA5ab5XWisoaCC4jSDM6npFOawPEh87N6DcokFiSjNN35qiys3Xtxd33TKWK-DCmoWKe9yqCQw15zWFR1VZ1iZD3Gqg58mYJ5sbMN05Gi44Fp_F1GECZ_kzn2YTrF8Efo5Ala8L2IJN4eoxQPH0-hA7-viZlRMwZ0vdeM87ud5MpOGGmlBcvsq10L-mGzjpuRAHbwRoxc7LidWOZYwi0JTpHk6oORWUzVSKgsG0b0AFLImM2dEEkIvt9k4sduKPpteuITKmynhu0YVtiDEG7mu0Np_3UFKSt2dVLGsqLv_gylD7AieNTLBTnNO4eSlySCuJ65D0bXk0EykK6g9DtpMuMm6rXt7YJGbqgEHUxxH5GujBmqb0pigaaVk5xHhkx6N84xloHNI41fvXwqY-RULEZjfNqlwwzntR4Y0R6qe9zNPKxmWxNLnQJ9TQwWt8zKWd9aizuFwYca8n6TMIhGxfcmZmmtDY0IR7fF3BU6QAmg44plBxNi2hhaEt6CI0BN25UpIK8rThH0RrxcxUC06RaHel3xkaF3_AlzSLdZ_bqF4SmAWbEn78RxtCAkXtZlk7RMpM28QDHNos1fxF0oR8fFDULSnwZ_f9JVNDhbR-tzLCvVBMT_qxK19VTvKyyqIU3l7OMp37BaG61wBgWpN7hOS3rt5fURZAg29pCd_IaClH2sP7nkqwThvY7AcioVWuVRMiJlsa0KNpcixAsnWqK5zDRhIK0xYTg9WFtlvWw7H5xb5ewL_nv02tFwLRRQ9kaTDZZepbs6A-ObBJ9Dtw21SlWKpM0N_M5ONYId_DTF50_qfbRrN6HpIQBZ7uWwRrY6A9KOzmP40iFp_5zqUqjgQlD-ahRTQ76z8kj0HbRr_jyXS0?></g></svg>