<svg xmlns="http://www.w3.org/2000/svg" xmlns:xlink="http://www.w3.org/1999/xlink" contentStyleType="text/css" data-diagram-type="CLASS" height="667.1875px" preserveAspectRatio="none" style="width:1925px;height:667px;background:#FFFFFF;" version="1.1" viewBox="0 0 1925 667" width="1925px" zoomAndPan="magnify"><?plantuml 1.2026.6?><defs/><g><g class="title" data-source-line="2"><text fill="#111827" font-family="'Malgun Gothic'" font-size="21.875" font-weight="700" lengthAdjust="spacing" textLength="466.4673" x="724.5205" y="39.4333">AS-IS 11 &#8212; UML &#44061;&#52404;: &#51228;&#44277;&#46108; revision 4 &#48177;&#50629;</text></g><g class="entity" data-qualified-name="R4" data-source-line="5" id="ent0001"><rect fill="#F1F1F1" height="193.3228" rx="6.25" ry="6.25" style="stroke:#181818;stroke-width:0.7813;" width="294.7189" x="10.9375" y="228.3142"/><text fill="#111827" font-family="'Malgun Gothic'" font-size="21.875" lengthAdjust="spacing" textLength="185.9802" x="65.3069" y="255.2475">revision4 : Payload</text><line style="stroke:#181818;stroke-width:0.7813;" x1="12.5" x2="304.0939" y1="263.6597" y2="263.6597"/><text fill="#111827" font-family="'Malgun Gothic'" font-size="21.875" lengthAdjust="spacing" textLength="113.4659" x="20.3125" y="293.718">version = 2</text><text fill="#111827" font-family="'Malgun Gothic'" font-size="21.875" lengthAdjust="spacing" textLength="193.1686" x="20.3125" y="322.8134">format = &lt;absent&gt;</text><text fill="#111827" font-family="'Malgun Gothic'" font-size="21.875" lengthAdjust="spacing" textLength="275.9689" x="20.3125" y="351.9089">schemaVersion = &lt;absent&gt;</text><text fill="#111827" font-family="'Malgun Gothic'" font-size="21.875" lengthAdjust="spacing" textLength="254.9271" x="20.3125" y="381.0043">payloadHash = &lt;absent&gt;</text><text fill="#111827" font-family="'Malgun Gothic'" font-size="21.875" lengthAdjust="spacing" textLength="172.6074" x="20.3125" y="410.0998">fileBytes = 66601</text></g><g class="entity" data-qualified-name="App" data-source-line="13" id="ent0002"><rect fill="#F1F1F1" height="135.1318" rx="6.25" ry="6.25" style="stroke:#181818;stroke-width:0.7813;" width="290.1154" x="464.8438" y="162.6892"/><text fill="#111827" font-family="'Malgun Gothic'" font-size="21.875" lengthAdjust="spacing" textLength="148.5321" x="535.6354" y="189.6225">app : AppState</text><line style="stroke:#181818;stroke-width:0.7813;" x1="466.4063" x2="753.3966" y1="198.0347" y2="198.0347"/><text fill="#111827" font-family="'Malgun Gothic'" font-size="21.875" lengthAdjust="spacing" textLength="194.2154" x="474.2188" y="228.093">progressItems = 27</text><text fill="#111827" font-family="'Malgun Gothic'" font-size="21.875" lengthAdjust="spacing" textLength="141.6321" x="474.2188" y="257.1884">noteItems = 0</text><text fill="#111827" font-family="'Malgun Gothic'" font-size="21.875" lengthAdjust="spacing" textLength="271.3654" x="474.2188" y="286.2839">settings.targetV2 = present</text></g><g class="entity" data-qualified-name="Atlas" data-source-line="19" id="ent0003"><rect fill="#F1F1F1" height="164.2273" rx="6.25" ry="6.25" style="stroke:#181818;stroke-width:0.7813;" width="185.4034" x="1564.8438" y="72.8455"/><text fill="#111827" font-family="'Malgun Gothic'" font-size="21.875" lengthAdjust="spacing" textLength="163.5284" x="1575.7813" y="99.7787">atlas : AtlasState</text><line style="stroke:#181818;stroke-width:0.7813;" x1="1566.4063" x2="1748.6847" y1="108.1909" y2="108.1909"/><text fill="#111827" font-family="'Malgun Gothic'" font-size="21.875" lengthAdjust="spacing" textLength="131.0471" x="1574.2188" y="138.2492">concepts = 0</text><text fill="#111827" font-family="'Malgun Gothic'" font-size="21.875" lengthAdjust="spacing" textLength="109.2148" x="1574.2188" y="167.3447">frames = 0</text><text fill="#111827" font-family="'Malgun Gothic'" font-size="21.875" lengthAdjust="spacing" textLength="113.4445" x="1574.2188" y="196.4401">objects = 0</text><text fill="#111827" font-family="'Malgun Gothic'" font-size="21.875" lengthAdjust="spacing" textLength="135.8963" x="1574.2188" y="225.5356">keywords = 0</text></g><g class="entity" data-qualified-name="Bridge" data-source-line="26" id="ent0004"><rect fill="#F1F1F1" height="135.1318" rx="6.25" ry="6.25" style="stroke:#181818;stroke-width:0.7813;" width="220.3094" x="500" y="351.7517"/><text fill="#111827" font-family="'Malgun Gothic'" font-size="21.875" lengthAdjust="spacing" textLength="198.4344" x="510.9375" y="378.685">bridge : BridgeState</text><line style="stroke:#181818;stroke-width:0.7813;" x1="501.5625" x2="718.7469" y1="387.0972" y2="387.0972"/><text fill="#111827" font-family="'Malgun Gothic'" font-size="21.875" lengthAdjust="spacing" textLength="172.9279" x="509.375" y="417.1555">activeLinks = 148</text><text fill="#111827" font-family="'Malgun Gothic'" font-size="21.875" lengthAdjust="spacing" textLength="199.4064" x="509.375" y="446.2509">orphanedLinks = 47</text><text fill="#111827" font-family="'Malgun Gothic'" font-size="21.875" lengthAdjust="spacing" textLength="193.0191" x="509.375" y="475.3464">catalogItems = 157</text></g><g class="entity" data-qualified-name="Active" data-source-line="32" id="ent0005"><rect fill="#F1F1F1" height="135.1318" rx="6.25" ry="6.25" style="stroke:#181818;stroke-width:0.7813;" width="237.7243" x="997.6563" y="162.6892"/><text fill="#111827" font-family="'Malgun Gothic'" font-size="21.875" lengthAdjust="spacing" textLength="128.6972" x="1052.1698" y="189.6225">activeLinks[*]</text><line style="stroke:#181818;stroke-width:0.7813;" x1="999.2188" x2="1233.8181" y1="198.0347" y2="198.0347"/><text fill="#111827" font-family="'Malgun Gothic'" font-size="21.875" lengthAdjust="spacing" textLength="191.3635" x="1007.0313" y="228.093">role = "&#54645;&#49900;" x 148</text><text fill="#111827" font-family="'Malgun Gothic'" font-size="21.875" lengthAdjust="spacing" textLength="181.0135" x="1007.0313" y="257.1884">missingItemId = 0</text><text fill="#111827" font-family="'Malgun Gothic'" font-size="21.875" lengthAdjust="spacing" textLength="218.9743" x="1007.0313" y="286.2839">missingConceptId = 0</text></g><g class="entity" data-qualified-name="Orphans" data-source-line="38" id="ent0006"><rect fill="#F1F1F1" height="76.9409" rx="6.25" ry="6.25" style="stroke:#181818;stroke-width:0.7813;" width="404.8416" x="914.0625" y="477.533"/><text fill="#111827" font-family="'Malgun Gothic'" font-size="21.875" lengthAdjust="spacing" textLength="167.2241" x="1032.8712" y="504.4662">orphanedLinks[*]</text><line style="stroke:#181818;stroke-width:0.7813;" x1="915.625" x2="1317.3416" y1="512.8784" y2="512.8784"/><text fill="#111827" font-family="'Malgun Gothic'" font-size="21.875" lengthAdjust="spacing" textLength="386.0916" x="923.4375" y="542.9367">reason = "missing_concept_body" x 47</text></g><g class="entity" data-qualified-name="GMN13" data-source-line="50" id="ent0014"><path d="M400,547.8455 L400,605.0049 A6.25,6.25 0 0 0 406.25,611.2549 L813.8588,611.2549 A6.25,6.25 0 0 0 820.1088,605.0049 L820.1088,557.2205 L804.4838,541.5955 L406.25,541.5955 A6.25,6.25 0 0 0 400,547.8455" fill="#FFF8DC" style="stroke:#8B7355;stroke-width:0.7813;"/><path d="M804.4838,541.5955 L804.4838,554.0955 A3.125,3.125 0 0 0 807.6088,557.2205 L820.1088,557.2205 L804.4838,541.5955" fill="#FFF8DC" style="stroke:#8B7355;stroke-width:1.5625;"/><text fill="#111827" font-family="'Malgun Gothic'" font-size="20.3125" lengthAdjust="spacing" textLength="326.7952" x="409.375" y="571.5157">[F] schema v3 envelope&#44032; &#50500;&#45768;&#48064;&#47196;</text><text fill="#111827" font-family="'Malgun Gothic'" font-size="20.3125" lengthAdjust="spacing" textLength="387.2963" x="409.375" y="598.5329">&#54028;&#51068; &#45236;&#48512; hash/version &#44160;&#51613;&#51012; &#54624; &#49688; &#50630;&#45796;.</text></g><g class="entity" data-qualified-name="GMN16" data-source-line="55" id="ent0017"><path d="M1412.5,297.8455 L1412.5,355.0049 A6.25,6.25 0 0 0 1418.75,361.2549 L1896.7583,361.2549 A6.25,6.25 0 0 0 1903.0083,355.0049 L1903.0083,307.2205 L1887.3833,291.5955 L1664.0625,291.5955 L1657.8125,237.283 L1651.5625,291.5955 L1418.75,291.5955 A6.25,6.25 0 0 0 1412.5,297.8455" fill="#FFF8DC" style="stroke:#8B7355;stroke-width:0.7813;"/><path d="M1887.3833,291.5955 L1887.3833,304.0955 A3.125,3.125 0 0 0 1890.5083,307.2205 L1903.0083,307.2205 L1887.3833,291.5955" fill="#FFF8DC" style="stroke:#8B7355;stroke-width:0.7813;"/><text fill="#111827" font-family="'Malgun Gothic'" font-size="20.3125" lengthAdjust="spacing" textLength="205.8525" x="1421.875" y="321.5157">[F] Atlas &#48376;&#47928;&#51060; 0&#44060;&#45796;.</text><text fill="#111827" font-family="'Malgun Gothic'" font-size="20.3125" lengthAdjust="spacing" textLength="457.6958" x="1421.875" y="348.5329">&#51060; &#54028;&#51068;&#51008; &#51204;&#52404; &#53080;&#53584;&#52768; canonical source&#44032; &#50500;&#45768;&#45796;.</text></g><g class="entity" data-qualified-name="GMN19" data-source-line="60" id="ent0020"><path d="M932.0313,358.783 L932.0313,415.9424 A6.25,6.25 0 0 0 938.2813,422.1924 L1294.0475,422.1924 A6.25,6.25 0 0 0 1300.2975,415.9424 L1300.2975,368.158 L1284.6725,352.533 L1123.4375,352.533 L1117.1875,297.2673 L1110.9375,352.533 L938.2813,352.533 A6.25,6.25 0 0 0 932.0313,358.783" fill="#FFF8DC" style="stroke:#8B7355;stroke-width:0.7813;"/><path d="M1284.6725,352.533 L1284.6725,365.033 A3.125,3.125 0 0 0 1287.7975,368.158 L1300.2975,368.158 L1284.6725,352.533" fill="#FFF8DC" style="stroke:#8B7355;stroke-width:0.7813;"/><text fill="#111827" font-family="'Malgun Gothic'" font-size="20.3125" lengthAdjust="spacing" textLength="256.0089" x="941.4063" y="382.4532">[D] &#54788; RPC&#45716; empty Atlas&#50752;</text><text fill="#111827" font-family="'Malgun Gothic'" font-size="20.3125" lengthAdjust="spacing" textLength="335.4538" x="941.4063" y="409.4704">active/orphan links &#51312;&#54633;&#51012; &#44144;&#48512;&#54620;&#45796;.</text></g><!--reverse link R4 to App--><g class="link" data-entity-1="ent0001" data-entity-2="ent0002" data-link-type="composition" data-source-line="42" id="lnk7"><path codeLine="42" d="M325.2031,262.6892 C375.875,262.6892 413.7656,262.6892 464.2813,262.6892" fill="none" id="R4-backto-App" style="stroke:#4B5563;stroke-width:1.5625;"/><polygon fill="#4B5563" points="306.4531,262.6892,315.8281,268.9392,325.2031,262.6892,315.8281,256.4392,306.4531,262.6892" style="stroke:#4B5563;stroke-width:1.5625;stroke-linejoin:miter;stroke-miterlimit:10;"/></g><!--reverse link R4 to Atlas--><g class="link" data-entity-1="ent0001" data-entity-2="ent0003" data-link-type="composition" data-source-line="43" id="lnk8"><path codeLine="43" d="M159.375,209.408 C159.375,155.4236 159.375,117.7673 159.375,117.7673 C159.375,117.7673 1237.2813,117.7673 1564.6406,117.7673" fill="none" id="R4-backto-Atlas" style="stroke:#4B5563;stroke-width:1.5625;"/><polygon fill="#4B5563" points="159.375,228.158,165.625,218.783,159.375,209.408,153.125,218.783,159.375,228.158" style="stroke:#4B5563;stroke-width:1.5625;stroke-linejoin:miter;stroke-miterlimit:10;"/></g><!--reverse link R4 to Bridge--><g class="link" data-entity-1="ent0001" data-entity-2="ent0004" data-link-type="composition" data-source-line="44" id="lnk9"><path codeLine="44" d="M325.2031,375.1892 C388.2188,375.1892 441.7188,375.1892 499.9375,375.1892" fill="none" id="R4-backto-Bridge" style="stroke:#4B5563;stroke-width:1.5625;"/><polygon fill="#4B5563" points="306.4531,375.1892,315.8281,381.4392,325.2031,375.1892,315.8281,368.9392,306.4531,375.1892" style="stroke:#4B5563;stroke-width:1.5625;stroke-linejoin:miter;stroke-miterlimit:10;"/></g><!--reverse link Bridge to Active--><g class="link" data-entity-1="ent0004" data-entity-2="ent0005" data-link-type="composition" data-source-line="45" id="lnk10"><path codeLine="45" d="M739.1563,387.6892 C775.9688,387.6892 789.0625,387.6892 789.0625,387.6892 C789.0625,387.6892 789.0625,229.8767 789.0625,229.8767 C789.0625,229.8767 903.7031,229.8767 997.2969,229.8767" fill="none" id="Bridge-backto-Active" style="stroke:#4B5563;stroke-width:1.5625;"/><polygon fill="#4B5563" points="720.4063,387.6892,729.7813,393.9392,739.1563,387.6892,729.7813,381.4392,720.4063,387.6892" style="stroke:#4B5563;stroke-width:1.5625;stroke-linejoin:miter;stroke-miterlimit:10;"/></g><!--reverse link Bridge to Orphans--><g class="link" data-entity-1="ent0004" data-entity-2="ent0006" data-link-type="composition" data-source-line="46" id="lnk11"><path codeLine="46" d="M739.3594,450.1892 C829.5469,450.1892 923.4375,450.1892 923.4375,450.1892 C923.4375,450.1892 923.4375,462.7517 923.4375,476.8767" fill="none" id="Bridge-backto-Orphans" style="stroke:#4B5563;stroke-width:1.5625;"/><polygon fill="#4B5563" points="720.6094,450.1892,729.9844,456.4392,739.3594,450.1892,729.9844,443.9392,720.6094,450.1892" style="stroke:#4B5563;stroke-width:1.5625;stroke-linejoin:miter;stroke-miterlimit:10;"/></g><!--link Active to Atlas--><g class="link" data-entity-1="ent0005" data-entity-2="ent0003" data-link-type="dependency" data-source-line="47" id="lnk12"><path codeLine="47" d="M1235.2188,199.7986 C1334.3594,199.7986 1465.875,199.7986 1557.0313,199.7986" fill="none" id="Active-to-Atlas" style="stroke:#FF0000;stroke-width:1.5625;stroke-dasharray:10.9375,10.9375;"/><polygon fill="#FF0000" points="1564.8438,199.7986,1550.7813,193.5486,1557.0313,199.7986,1550.7813,206.0486,1564.8438,199.7986" style="stroke:#FF0000;stroke-width:1.5625;stroke-linejoin:miter;stroke-miterlimit:10;"/><text fill="#111827" font-family="'Malgun Gothic'" font-size="20.3125" lengthAdjust="spacing" textLength="200.6554" x="1198.4688" y="223.4688">conceptId target &#50630;&#51020;</text></g><!--link R4 to GMN13--><g class="link" data-entity-1="ent0001" data-entity-2="ent0014" data-link-type="association" data-source-line="50" id="lnk15"><path d="M306.5313,398.6267 C371.2969,398.6267 432.8125,398.6267 432.8125,398.6267 C432.8125,398.6267 432.8125,489.6423 432.8125,541.5642" fill="none" id="R4-GMN13" style="stroke:#4B5563;stroke-width:1.5625;stroke-dasharray:10.9375,10.9375;"/></g><g class="caption" data-source-line="64"><text fill="#111827" font-family="'Malgun Gothic'" font-size="21.875" lengthAdjust="spacing" textLength="912.5763" x="501.466" y="650.6882">&#49892;&#51228; &#54028;&#51068; &#44288;&#52272;&#44050;&#51060;&#47728; &#52628;&#51221;&#52824;&#44032; &#50500;&#45768;&#45796;. App &#45936;&#51060;&#53552;&#50752; &#50672;&#44208; &#47785;&#47197;&#51008; &#51080;&#51004;&#45208; Atlas &#48376;&#47928;&#51060; &#50630;&#45796;.</text></g><?plantuml-src VLHlIzj067-VJ_6iUoUhMjVfa2ceOqnmJ9JvHefSaskRcUP2SdOhOr2a3baToB3OGJigoC0XB6eL1-xBx6Lo_Gvxxf9eky5U9S-Jk-VtvtwvUwQjMri6XGsFLoqwwcoLBOsRtA8mjvfUN8LC1dxN3k3LYoK8_8uuxqs3wBQ3YyjmlmqkhPYUoMp8GkYVYSCTpQ853fo1QnPB70pJfJh71Ph6yg_n5LB9bYnCmpAfMemOAI0Uh6JXdGPGeQuQE0CJM1MOMoOSYoSaxr6RpsBFqqkqJDPkrmrySg9vpubN6lvGC2qwN-NKm_RavEHuHdj_nuWu3dAPSvnLJZXLPB1GR1oN5LtgUOkSbkNUYIbisepJf34k2L7EJRleZNBY5YbVcy2-WxiGUmY6MpWPWUHp04gr9PZER9qwF1bRS4cP9aKq9AasQVKDSuse7838kwPHf8WnhrxkGA9QeH0yZmfTCkrDkJsJVIodkqw9sDH8kbafKoUSMAoOACqycXfISpTcVIGNAL4j1U8opCyCfFhDIz4uJS7R6AXiUXvQ9MSk6h6OkBSGgO_R0qX3v1AibweP-UPIugaafE9H6x6J6tbcL2LuLb77X8saq_9iRr-bzqaHUQJ5LgdFIj1W9uRLOgdfzVikDHuOc3TgvDApyM5E9qU9Og9CW3Zy83fxcYQp4_yRh82PH_hhpt9nfg7o4AXTeHPpQE3NG3JhOMCt_54BZzguiB-t9pet46xtmgiQb11qBFbRWlEQ-DOHdJhqcrqGkoq963QEHpLg6ogmCNIUSSxA4ZlI7i57jCEBw_3qMdHwC1xuRRKRG9OHiEWWesuTRm0GlrhzdNrntSMGsCmsTMA1nxPSVP3s_z4ZQn7-QGxwhJgiB2-47m-0bXrUZVY8BxNRk8v58G1B1LGS-VtcYLGRdFdeHR_P_WjD9uwyTK0qZl6oIfmBUZNX-u7_6KM59pw8gmFHROgVhM7MwkyFF_cugb_taGQQwGVdFeJVJyAZZlBXwwvetuJRhN-iYtt_0m00?></g></svg>