<svg xmlns="http://www.w3.org/2000/svg" xmlns:xlink="http://www.w3.org/1999/xlink" contentStyleType="text/css" data-diagram-type="ACTIVITY" height="2540.625px" preserveAspectRatio="none" style="width:1257px;height:2540px;background:#FFFFFF;" version="1.1" viewBox="0 0 1257 2540" width="1257.8125px" zoomAndPan="magnify"><?plantuml 1.2026.6?><defs/><g><g class="title" data-source-line="2"><text fill="#111827" font-family="'Malgun Gothic'" font-size="21.875" font-weight="700" lengthAdjust="spacing" textLength="647.3953" x="304.0993" y="55.0583">AS-IS 12 &#8212; UML &#54876;&#46041;: &#54788;&#51116; &#47928;&#49436;&#54868;&#46108; v2 migration&#44284; &#45572;&#46973; gate</text></g><ellipse cx="501.442" cy="100.9705" fill="#222222" rx="15.625" ry="15.625" style="stroke:#222222;stroke-width:1.5625;"/><rect fill="#F8FAFC" height="56.189" rx="6.25" ry="6.25" style="stroke:#475569;stroke-width:0.7813;" width="301.3672" x="350.7584" y="147.8455"/><text fill="#111827" font-family="'Malgun Gothic'" font-size="18.75" lengthAdjust="spacing" textLength="270.1172" x="366.3834" y="183.8776">&#54788;&#51116; &#48652;&#46972;&#50864;&#51200;&#50752; &#50808;&#48512; &#54028;&#51068; &#48177;&#50629;</text><rect fill="#F8FAFC" height="56.189" rx="6.25" ry="6.25" style="stroke:#475569;stroke-width:0.7813;" width="361.1237" x="320.8801" y="235.2844"/><text fill="#111827" font-family="'Malgun Gothic'" font-size="18.75" lengthAdjust="spacing" textLength="329.8737" x="336.5051" y="271.3165">Supabase&#50640;&#49436; normalized v2 SQL &#49892;&#54665;</text><rect fill="#F8FAFC" height="56.189" rx="6.25" ry="6.25" style="stroke:#475569;stroke-width:0.7813;" width="449.527" x="276.6785" y="322.7234"/><text fill="#111827" font-family="'Malgun Gothic'" font-size="18.75" lengthAdjust="spacing" textLength="418.277" x="292.3035" y="358.7555">index.html + normalized-sync.js + SQL &#54632;&#44760; &#48176;&#54252;</text><rect fill="#F8FAFC" height="56.189" rx="6.25" ry="6.25" style="stroke:#475569;stroke-width:0.7813;" width="254.8309" x="374.0265" y="410.1624"/><text fill="#111827" font-family="'Malgun Gothic'" font-size="18.75" lengthAdjust="spacing" textLength="223.5809" x="389.6515" y="446.1945">&#50868;&#50689; &#49444;&#51221;&#51032; v2 panel &#50676;&#44592;</text><rect fill="#F8FAFC" height="56.189" rx="6.25" ry="6.25" style="stroke:#475569;stroke-width:0.7813;" width="366.8823" x="318.0008" y="497.6013"/><text fill="#111827" font-family="'Malgun Gothic'" font-size="18.75" lengthAdjust="spacing" textLength="335.6323" x="333.6258" y="533.6334">v17 &#53685;&#54633; &#48177;&#50629; &#46608;&#45716; Atlas &#48177;&#50629; &#44032;&#51256;&#50724;&#44592;</text><rect fill="#F8FAFC" height="56.189" rx="6.25" ry="6.25" style="stroke:#475569;stroke-width:0.7813;" width="218.0359" x="392.424" y="662.0956"/><text fill="#111827" font-family="'Malgun Gothic'" font-size="18.75" lengthAdjust="spacing" textLength="186.7859" x="408.049" y="698.1277">orphanedLinks&#47196; &#48516;&#47532;</text><polygon fill="#F8FAFC" points="415.3912,585.0403,587.4928,585.0403,606.2428,603.7903,587.4928,622.5403,415.3912,622.5403,396.6412,603.7903,415.3912,585.0403" style="stroke:#475569;stroke-width:0.7813;stroke-linejoin:miter;stroke-miterlimit:10;"/><text fill="#111827" font-family="'Malgun Gothic'" font-size="17.1875" lengthAdjust="spacing" textLength="25.1099" x="507.692" y="641.2468">yes</text><text fill="#111827" font-family="'Malgun Gothic'" font-size="17.1875" lengthAdjust="spacing" textLength="172.1016" x="415.3912" y="611.0664">&#48376;&#47928; &#50630;&#45716; Bridge link?</text><polygon fill="#F8FAFC" points="501.442,749.5346,520.192,768.2846,501.442,787.0346,482.692,768.2846,501.442,749.5346" style="stroke:#475569;stroke-width:0.7813;stroke-linejoin:miter;stroke-miterlimit:10;"/><rect fill="#F8FAFC" height="56.189" rx="6.25" ry="6.25" style="stroke:#475569;stroke-width:0.7813;" width="231.9336" x="385.4752" y="818.2846"/><text fill="#111827" font-family="'Malgun Gothic'" font-size="18.75" lengthAdjust="spacing" textLength="200.6836" x="401.1002" y="854.3167">&#53364;&#46972;&#51060;&#50616;&#53944; &#47924;&#44208;&#49457; &#51216;&#44160;</text><polygon fill="#F8FAFC" points="460.0929,905.7236,542.791,905.7236,561.541,924.4736,542.791,943.2236,460.0929,943.2236,441.3429,924.4736,460.0929,905.7236" style="stroke:#475569;stroke-width:0.7813;stroke-linejoin:miter;stroke-miterlimit:10;"/><text fill="#111827" font-family="'Malgun Gothic'" font-size="17.1875" lengthAdjust="spacing" textLength="82.6981" x="460.0929" y="931.7497">&#51216;&#44160; &#51221;&#49345;?</text><text fill="#111827" font-family="'Malgun Gothic'" font-size="17.1875" lengthAdjust="spacing" textLength="25.1099" x="416.2331" y="920.3194">yes</text><text fill="#111827" font-family="'Malgun Gothic'" font-size="17.1875" lengthAdjust="spacing" textLength="20.2339" x="561.541" y="920.3194">no</text><rect fill="#F8FAFC" height="56.189" rx="6.25" ry="6.25" style="stroke:#475569;stroke-width:0.7813;" width="202.3529" x="280.5161" y="958.8486"/><text fill="#111827" font-family="'Malgun Gothic'" font-size="18.75" lengthAdjust="spacing" textLength="171.1029" x="296.1411" y="994.8807">&#54788;&#51116; &#45936;&#51060;&#53552; commit</text><rect fill="#F8FAFC" height="56.189" rx="6.25" ry="6.25" style="stroke:#475569;stroke-width:0.7813;" width="276.9867" x="243.1992" y="1046.2875"/><text fill="#111827" font-family="'Malgun Gothic'" font-size="18.75" lengthAdjust="spacing" textLength="245.7367" x="258.8242" y="1082.3196">revision &#51060;&#47141;&#50640;&#49436; count &#54869;&#51064;</text><rect fill="#F8FAFC" height="56.189" rx="6.25" ry="6.25" style="stroke:#475569;stroke-width:0.7813;" width="139.5111" x="551.4359" y="958.8486"/><text fill="#111827" font-family="'Malgun Gothic'" font-size="18.75" lengthAdjust="spacing" textLength="108.2611" x="567.0609" y="994.8807">commit &#51473;&#45800;</text><ellipse cx="621.1914" cy="1063.475" fill="none" rx="17.1875" ry="17.1875" style="stroke:#222222;stroke-width:1.5625;"/><ellipse cx="621.1914" cy="1063.475" fill="#222222" rx="9.375" ry="9.375" style="stroke:#222222;stroke-width:1.5625;"/><rect fill="none" height="1243.7164" rx="6.25" ry="6.25" style="stroke:#000000;stroke-width:2.3438;" width="450.8545" x="269.6747" y="1118.1015"/><path d="M583.6563,1118.1015 L583.6563,1136.2595 L568.0313,1151.8845 L269.6747,1151.8845" fill="none" style="stroke:#000000;stroke-width:2.3438;"/><text fill="#111827" font-family="'Malgun Gothic'" font-size="21.875" lengthAdjust="spacing" textLength="298.3566" x="274.3622" y="1143.4723">&#54788;&#51116; &#51208;&#52264;&#50640; &#50630;&#45716; &#44160;&#51613; gate [I]</text><rect fill="#F8FAFC" height="56.189" rx="6.25" ry="6.25" style="stroke:#475569;stroke-width:0.7813;" width="261.1115" x="370.8862" y="1178.447"/><text fill="#111827" font-family="'Malgun Gothic'" font-size="18.75" lengthAdjust="spacing" textLength="229.8615" x="386.5112" y="1214.4791">canonical source &#49440;&#53469; &#54869;&#51064;</text><rect fill="#F8FAFC" height="56.189" rx="6.25" ry="6.25" style="stroke:#475569;stroke-width:0.7813;" width="157.2723" x="422.8058" y="1342.9413"/><text fill="#111827" font-family="'Malgun Gothic'" font-size="18.75" lengthAdjust="spacing" textLength="126.0223" x="438.4308" y="1378.9734">migration &#51473;&#45800;</text><ellipse cx="501.442" cy="1459.317" fill="none" rx="17.1875" ry="17.1875" style="stroke:#222222;stroke-width:1.5625;"/><ellipse cx="501.442" cy="1459.317" fill="#222222" rx="9.375" ry="9.375" style="stroke:#222222;stroke-width:1.5625;"/><polygon fill="#F8FAFC" points="409.3445,1265.8859,593.5394,1265.8859,612.2894,1284.6359,593.5394,1303.3859,409.3445,1303.3859,390.5945,1284.6359,409.3445,1265.8859" style="stroke:#475569;stroke-width:0.7813;stroke-linejoin:miter;stroke-miterlimit:10;"/><text fill="#111827" font-family="'Malgun Gothic'" font-size="17.1875" lengthAdjust="spacing" textLength="20.2339" x="507.692" y="1322.0924">no</text><text fill="#111827" font-family="'Malgun Gothic'" font-size="17.1875" lengthAdjust="spacing" textLength="184.1949" x="409.3445" y="1291.9121">&#50756;&#51204;&#54620; Atlas &#48376;&#47928; &#51316;&#51116;?</text><text fill="#111827" font-family="'Malgun Gothic'" font-size="17.1875" lengthAdjust="spacing" textLength="25.1099" x="612.2894" y="1280.4817">yes</text><rect fill="#F8FAFC" height="56.189" rx="6.25" ry="6.25" style="stroke:#475569;stroke-width:0.7813;" width="282.132" x="360.376" y="1542.1295"/><text fill="#111827" font-family="'Malgun Gothic'" font-size="18.75" lengthAdjust="spacing" textLength="250.882" x="376.001" y="1578.1616">&#50896;&#48376; hash/count/ID inventory</text><rect fill="#F8FAFC" height="56.189" rx="6.25" ry="6.25" style="stroke:#475569;stroke-width:0.7813;" width="234.5428" x="384.1705" y="1629.5685"/><text fill="#111827" font-family="'Malgun Gothic'" font-size="18.75" lengthAdjust="spacing" textLength="203.2928" x="399.7955" y="1665.6006">&#49352; schema dry-run &#48320;&#54872;</text><rect fill="#F8FAFC" height="56.189" rx="6.25" ry="6.25" style="stroke:#475569;stroke-width:0.7813;" width="157.2723" x="422.8058" y="1794.0628"/><text fill="#111827" font-family="'Malgun Gothic'" font-size="18.75" lengthAdjust="spacing" textLength="126.0223" x="438.4308" y="1830.0949">migration &#51473;&#45800;</text><ellipse cx="501.442" cy="1910.4385" fill="none" rx="17.1875" ry="17.1875" style="stroke:#222222;stroke-width:1.5625;"/><ellipse cx="501.442" cy="1910.4385" fill="#222222" rx="9.375" ry="9.375" style="stroke:#222222;stroke-width:1.5625;"/><polygon fill="#F8FAFC" points="431.2904,1717.0074,571.5935,1717.0074,590.3435,1735.7574,571.5935,1754.5074,431.2904,1754.5074,412.5404,1735.7574,431.2904,1717.0074" style="stroke:#475569;stroke-width:0.7813;stroke-linejoin:miter;stroke-miterlimit:10;"/><text fill="#111827" font-family="'Malgun Gothic'" font-size="17.1875" lengthAdjust="spacing" textLength="20.2339" x="507.692" y="1773.214">no</text><text fill="#111827" font-family="'Malgun Gothic'" font-size="17.1875" lengthAdjust="spacing" textLength="140.303" x="431.2904" y="1743.0336">&#50773;&#48373; &#48373;&#44396; &#47924;&#49552;&#49892;?</text><text fill="#111827" font-family="'Malgun Gothic'" font-size="17.1875" lengthAdjust="spacing" textLength="25.1099" x="590.3435" y="1731.6032">yes</text><rect fill="#F8FAFC" height="56.189" rx="6.25" ry="6.25" style="stroke:#475569;stroke-width:0.7813;" width="271.7957" x="365.5441" y="1993.251"/><text fill="#111827" font-family="'Malgun Gothic'" font-size="18.75" lengthAdjust="spacing" textLength="240.5457" x="381.1691" y="2029.2831">&#44396;&#48260;&#51204; client &#50416;&#44592; &#52264;&#45800; &#54869;&#51064;</text><rect fill="#F8FAFC" height="56.189" rx="6.25" ry="6.25" style="stroke:#475569;stroke-width:0.7813;" width="265.4785" x="368.7027" y="2080.69"/><text fill="#111827" font-family="'Malgun Gothic'" font-size="18.75" lengthAdjust="spacing" textLength="234.2285" x="384.3277" y="2116.7221">&#52649;&#46028;&#183;&#51025;&#45813; &#50976;&#49892;&#183;&#45796;&#51473; &#53485; &#49884;&#54744;</text><polygon fill="#F8FAFC" points="426.6159,2168.129,576.268,2168.129,595.018,2186.879,576.268,2205.629,426.6159,2205.629,407.8659,2186.879,426.6159,2168.129" style="stroke:#475569;stroke-width:0.7813;stroke-linejoin:miter;stroke-miterlimit:10;"/><text fill="#111827" font-family="'Malgun Gothic'" font-size="17.1875" lengthAdjust="spacing" textLength="149.6521" x="426.6159" y="2194.1551">rollback &#51088;&#47308; &#44160;&#51613;?</text><text fill="#111827" font-family="'Malgun Gothic'" font-size="17.1875" lengthAdjust="spacing" textLength="25.1099" x="382.756" y="2182.7248">yes</text><text fill="#111827" font-family="'Malgun Gothic'" font-size="17.1875" lengthAdjust="spacing" textLength="20.2339" x="595.018" y="2182.7248">no</text><rect fill="#F8FAFC" height="56.189" rx="6.25" ry="6.25" style="stroke:#475569;stroke-width:0.7813;" width="182.6324" x="300.9247" y="2221.254"/><text fill="#111827" font-family="'Malgun Gothic'" font-size="18.75" lengthAdjust="spacing" textLength="151.3824" x="316.5497" y="2257.2861">cutover &#49849;&#51064; &#44032;&#45733;</text><rect fill="#F8FAFC" height="56.189" rx="6.25" ry="6.25" style="stroke:#475569;stroke-width:0.7813;" width="157.2723" x="532.0068" y="2221.254"/><text fill="#111827" font-family="'Malgun Gothic'" font-size="18.75" lengthAdjust="spacing" textLength="126.0223" x="547.6318" y="2257.2861">migration &#51473;&#45800;</text><ellipse cx="610.643" cy="2325.8804" fill="none" rx="17.1875" ry="17.1875" style="stroke:#222222;stroke-width:1.5625;"/><ellipse cx="610.643" cy="2325.8804" fill="#222222" rx="9.375" ry="9.375" style="stroke:#222222;stroke-width:1.5625;"/><path d="M549.8795,2377.4429 L549.8795,2419.5313 L518.6295,2425.7813 L549.8795,2432.0313 L549.8795,2474.1196 A0,0 0 0 0 549.8795,2474.1196 L1007.7072,2474.1196 A0,0 0 0 0 1007.7072,2474.1196 L1007.7072,2393.0679 L992.0822,2377.4429 L549.8795,2377.4429 A0,0 0 0 0 549.8795,2377.4429" fill="#FFF8DC" style="stroke:#8B7355;stroke-width:0.7813;"/><path d="M992.0822,2377.4429 L992.0822,2393.0679 L1007.7072,2393.0679 L992.0822,2377.4429" fill="#FFF8DC" style="stroke:#8B7355;stroke-width:0.7813;"/><text fill="#111827" font-family="'Malgun Gothic'" font-size="20.3125" lengthAdjust="spacing" textLength="425.0153" x="559.2545" y="2407.3631">[S] &#52395; &#48512;&#48516;&#51008; MIGRATION-V2.md&#51032; &#54788;&#51116; &#51208;&#52264;.</text><text fill="#111827" font-family="'Malgun Gothic'" font-size="20.3125" lengthAdjust="spacing" textLength="422.506" x="559.2545" y="2434.3803">[F] &#51228;&#44277;&#46108; revision 4 &#54028;&#51068;&#51008; Atlas&#44032; &#48708;&#50612; &#51080;&#50612;</text><text fill="#111827" font-family="'Malgun Gothic'" font-size="20.3125" lengthAdjust="spacing" textLength="382.5157" x="559.2545" y="2461.3976">canonical source gate&#47484; &#53685;&#44284;&#54616;&#51648; &#47803;&#54620;&#45796;.</text><ellipse cx="501.442" cy="2425.7813" fill="none" rx="17.1875" ry="17.1875" style="stroke:#222222;stroke-width:1.5625;"/><ellipse cx="501.442" cy="2425.7813" fill="#222222" rx="9.375" ry="9.375" style="stroke:#222222;stroke-width:1.5625;"/><line style="stroke:#4B5563;stroke-width:1.5625;" x1="501.442" x2="501.442" y1="116.5955" y2="147.8455"/><polygon fill="#4B5563" points="495.192,132.2205,501.442,147.8455,507.692,132.2205,501.442,138.4705" style="stroke:#4B5563;stroke-width:1.5625;stroke-linejoin:miter;stroke-miterlimit:10;"/><line style="stroke:#4B5563;stroke-width:1.5625;" x1="501.442" x2="501.442" y1="204.0344" y2="235.2844"/><polygon fill="#4B5563" points="495.192,219.6594,501.442,235.2844,507.692,219.6594,501.442,225.9094" style="stroke:#4B5563;stroke-width:1.5625;stroke-linejoin:miter;stroke-miterlimit:10;"/><line style="stroke:#4B5563;stroke-width:1.5625;" x1="501.442" x2="501.442" y1="291.4734" y2="322.7234"/><polygon fill="#4B5563" points="495.192,307.0984,501.442,322.7234,507.692,307.0984,501.442,313.3484" style="stroke:#4B5563;stroke-width:1.5625;stroke-linejoin:miter;stroke-miterlimit:10;"/><line style="stroke:#4B5563;stroke-width:1.5625;" x1="501.442" x2="501.442" y1="378.9124" y2="410.1624"/><polygon fill="#4B5563" points="495.192,394.5374,501.442,410.1624,507.692,394.5374,501.442,400.7874" style="stroke:#4B5563;stroke-width:1.5625;stroke-linejoin:miter;stroke-miterlimit:10;"/><line style="stroke:#4B5563;stroke-width:1.5625;" x1="501.442" x2="501.442" y1="466.3513" y2="497.6013"/><polygon fill="#4B5563" points="495.192,481.9763,501.442,497.6013,507.692,481.9763,501.442,488.2263" style="stroke:#4B5563;stroke-width:1.5625;stroke-linejoin:miter;stroke-miterlimit:10;"/><line style="stroke:#4B5563;stroke-width:1.5625;" x1="501.442" x2="501.442" y1="622.5403" y2="662.0956"/><polygon fill="#4B5563" points="495.192,646.4706,501.442,662.0956,507.692,646.4706,501.442,652.7206" style="stroke:#4B5563;stroke-width:1.5625;stroke-linejoin:miter;stroke-miterlimit:10;"/><line style="stroke:#4B5563;stroke-width:1.5625;" x1="606.2428" x2="626.0849" y1="603.7903" y2="603.7903"/><polygon fill="#4B5563" points="619.8349,674.5651,626.0849,690.1901,632.3349,674.5651,626.0849,680.8151" style="stroke:#4B5563;stroke-width:1.5625;stroke-linejoin:miter;stroke-miterlimit:10;"/><line style="stroke:#4B5563;stroke-width:1.5625;" x1="626.0849" x2="626.0849" y1="603.7903" y2="768.2846"/><line style="stroke:#4B5563;stroke-width:1.5625;" x1="626.0849" x2="520.192" y1="768.2846" y2="768.2846"/><polygon fill="#4B5563" points="535.817,762.0346,520.192,768.2846,535.817,774.5346,529.567,768.2846" style="stroke:#4B5563;stroke-width:1.5625;stroke-linejoin:miter;stroke-miterlimit:10;"/><line style="stroke:#4B5563;stroke-width:1.5625;" x1="501.442" x2="501.442" y1="718.2846" y2="749.5346"/><polygon fill="#4B5563" points="495.192,733.9096,501.442,749.5346,507.692,733.9096,501.442,740.1596" style="stroke:#4B5563;stroke-width:1.5625;stroke-linejoin:miter;stroke-miterlimit:10;"/><line style="stroke:#4B5563;stroke-width:1.5625;" x1="501.442" x2="501.442" y1="553.7903" y2="585.0403"/><polygon fill="#4B5563" points="495.192,569.4153,501.442,585.0403,507.692,569.4153,501.442,575.6653" style="stroke:#4B5563;stroke-width:1.5625;stroke-linejoin:miter;stroke-miterlimit:10;"/><line style="stroke:#4B5563;stroke-width:1.5625;" x1="501.442" x2="501.442" y1="787.0346" y2="818.2846"/><polygon fill="#4B5563" points="495.192,802.6596,501.442,818.2846,507.692,802.6596,501.442,808.9096" style="stroke:#4B5563;stroke-width:1.5625;stroke-linejoin:miter;stroke-miterlimit:10;"/><line style="stroke:#4B5563;stroke-width:1.5625;" x1="381.6925" x2="381.6925" y1="1015.0375" y2="1046.2875"/><polygon fill="#4B5563" points="375.4425,1030.6625,381.6925,1046.2875,387.9425,1030.6625,381.6925,1036.9125" style="stroke:#4B5563;stroke-width:1.5625;stroke-linejoin:miter;stroke-miterlimit:10;"/><line style="stroke:#4B5563;stroke-width:1.5625;" x1="621.1914" x2="621.1914" y1="1015.0375" y2="1046.2875"/><polygon fill="#4B5563" points="614.9414,1030.6625,621.1914,1046.2875,627.4414,1030.6625,621.1914,1036.9125" style="stroke:#4B5563;stroke-width:1.5625;stroke-linejoin:miter;stroke-miterlimit:10;"/><line style="stroke:#4B5563;stroke-width:1.5625;" x1="441.3429" x2="381.6925" y1="924.4736" y2="924.4736"/><line style="stroke:#4B5563;stroke-width:1.5625;" x1="381.6925" x2="381.6925" y1="924.4736" y2="958.8486"/><polygon fill="#4B5563" points="375.4425,943.2236,381.6925,958.8486,387.9425,943.2236,381.6925,949.4736" style="stroke:#4B5563;stroke-width:1.5625;stroke-linejoin:miter;stroke-miterlimit:10;"/><line style="stroke:#4B5563;stroke-width:1.5625;" x1="561.541" x2="621.1914" y1="924.4736" y2="924.4736"/><line style="stroke:#4B5563;stroke-width:1.5625;" x1="621.1914" x2="621.1914" y1="924.4736" y2="958.8486"/><polygon fill="#4B5563" points="614.9414,943.2236,621.1914,958.8486,627.4414,943.2236,621.1914,949.4736" style="stroke:#4B5563;stroke-width:1.5625;stroke-linejoin:miter;stroke-miterlimit:10;"/><line style="stroke:#4B5563;stroke-width:1.5625;" x1="381.6925" x2="381.6925" y1="1102.4765" y2="1110.289"/><line style="stroke:#4B5563;stroke-width:1.5625;" x1="381.6925" x2="501.442" y1="1110.289" y2="1110.289"/><line style="stroke:#4B5563;stroke-width:1.5625;" x1="501.442" x2="501.442" y1="1110.289" y2="1178.447"/><polygon fill="#4B5563" points="495.192,1162.822,501.442,1178.447,507.692,1162.822,501.442,1169.072" style="stroke:#4B5563;stroke-width:1.5625;stroke-linejoin:miter;stroke-miterlimit:10;"/><line style="stroke:#4B5563;stroke-width:1.5625;" x1="501.442" x2="501.442" y1="874.4736" y2="905.7236"/><polygon fill="#4B5563" points="495.192,890.0986,501.442,905.7236,507.692,890.0986,501.442,896.3486" style="stroke:#4B5563;stroke-width:1.5625;stroke-linejoin:miter;stroke-miterlimit:10;"/><line style="stroke:#4B5563;stroke-width:1.5625;" x1="501.442" x2="501.442" y1="1399.1302" y2="1442.1295"/><polygon fill="#4B5563" points="495.192,1426.5045,501.442,1442.1295,507.692,1426.5045,501.442,1432.7545" style="stroke:#4B5563;stroke-width:1.5625;stroke-linejoin:miter;stroke-miterlimit:10;"/><line style="stroke:#4B5563;stroke-width:1.5625;" x1="501.442" x2="501.442" y1="1303.3859" y2="1342.9413"/><polygon fill="#4B5563" points="495.192,1327.3163,501.442,1342.9413,507.692,1327.3163,501.442,1333.5663" style="stroke:#4B5563;stroke-width:1.5625;stroke-linejoin:miter;stroke-miterlimit:10;"/><line style="stroke:#4B5563;stroke-width:1.5625;" x1="612.2894" x2="631.0394" y1="1284.6359" y2="1284.6359"/><polygon fill="#4B5563" points="624.7894,1395.2545,631.0394,1410.8795,637.2894,1395.2545,631.0394,1401.5045" style="stroke:#4B5563;stroke-width:1.5625;stroke-linejoin:miter;stroke-miterlimit:10;"/><line style="stroke:#4B5563;stroke-width:1.5625;" x1="631.0394" x2="631.0394" y1="1284.6359" y2="1510.8795"/><line style="stroke:#4B5563;stroke-width:1.5625;" x1="631.0394" x2="501.442" y1="1510.8795" y2="1510.8795"/><line style="stroke:#4B5563;stroke-width:1.5625;" x1="501.442" x2="501.442" y1="1510.8795" y2="1542.1295"/><polygon fill="#4B5563" points="495.192,1526.5045,501.442,1542.1295,507.692,1526.5045,501.442,1532.7545" style="stroke:#4B5563;stroke-width:1.5625;stroke-linejoin:miter;stroke-miterlimit:10;"/><line style="stroke:#4B5563;stroke-width:1.5625;" x1="501.442" x2="501.442" y1="1234.6359" y2="1265.8859"/><polygon fill="#4B5563" points="495.192,1250.2609,501.442,1265.8859,507.692,1250.2609,501.442,1256.5109" style="stroke:#4B5563;stroke-width:1.5625;stroke-linejoin:miter;stroke-miterlimit:10;"/><line style="stroke:#4B5563;stroke-width:1.5625;" x1="501.442" x2="501.442" y1="1598.3185" y2="1629.5685"/><polygon fill="#4B5563" points="495.192,1613.9435,501.442,1629.5685,507.692,1613.9435,501.442,1620.1935" style="stroke:#4B5563;stroke-width:1.5625;stroke-linejoin:miter;stroke-miterlimit:10;"/><line style="stroke:#4B5563;stroke-width:1.5625;" x1="501.442" x2="501.442" y1="1850.2518" y2="1893.251"/><polygon fill="#4B5563" points="495.192,1877.626,501.442,1893.251,507.692,1877.626,501.442,1883.876" style="stroke:#4B5563;stroke-width:1.5625;stroke-linejoin:miter;stroke-miterlimit:10;"/><line style="stroke:#4B5563;stroke-width:1.5625;" x1="501.442" x2="501.442" y1="1754.5074" y2="1794.0628"/><polygon fill="#4B5563" points="495.192,1778.4378,501.442,1794.0628,507.692,1778.4378,501.442,1784.6878" style="stroke:#4B5563;stroke-width:1.5625;stroke-linejoin:miter;stroke-miterlimit:10;"/><line style="stroke:#4B5563;stroke-width:1.5625;" x1="590.3435" x2="609.0935" y1="1735.7574" y2="1735.7574"/><polygon fill="#4B5563" points="602.8435,1846.376,609.0935,1862.001,615.3435,1846.376,609.0935,1852.626" style="stroke:#4B5563;stroke-width:1.5625;stroke-linejoin:miter;stroke-miterlimit:10;"/><line style="stroke:#4B5563;stroke-width:1.5625;" x1="609.0935" x2="609.0935" y1="1735.7574" y2="1962.001"/><line style="stroke:#4B5563;stroke-width:1.5625;" x1="609.0935" x2="501.442" y1="1962.001" y2="1962.001"/><line style="stroke:#4B5563;stroke-width:1.5625;" x1="501.442" x2="501.442" y1="1962.001" y2="1993.251"/><polygon fill="#4B5563" points="495.192,1977.626,501.442,1993.251,507.692,1977.626,501.442,1983.876" style="stroke:#4B5563;stroke-width:1.5625;stroke-linejoin:miter;stroke-miterlimit:10;"/><line style="stroke:#4B5563;stroke-width:1.5625;" x1="501.442" x2="501.442" y1="1685.7574" y2="1717.0074"/><polygon fill="#4B5563" points="495.192,1701.3824,501.442,1717.0074,507.692,1701.3824,501.442,1707.6324" style="stroke:#4B5563;stroke-width:1.5625;stroke-linejoin:miter;stroke-miterlimit:10;"/><line style="stroke:#4B5563;stroke-width:1.5625;" x1="501.442" x2="501.442" y1="2049.44" y2="2080.69"/><polygon fill="#4B5563" points="495.192,2065.065,501.442,2080.69,507.692,2065.065,501.442,2071.315" style="stroke:#4B5563;stroke-width:1.5625;stroke-linejoin:miter;stroke-miterlimit:10;"/><line style="stroke:#4B5563;stroke-width:1.5625;" x1="610.643" x2="610.643" y1="2277.4429" y2="2308.6929"/><polygon fill="#4B5563" points="604.393,2293.0679,610.643,2308.6929,616.893,2293.0679,610.643,2299.3179" style="stroke:#4B5563;stroke-width:1.5625;stroke-linejoin:miter;stroke-miterlimit:10;"/><line style="stroke:#4B5563;stroke-width:1.5625;" x1="407.8659" x2="392.2409" y1="2186.879" y2="2186.879"/><line style="stroke:#4B5563;stroke-width:1.5625;" x1="392.2409" x2="392.2409" y1="2186.879" y2="2221.254"/><polygon fill="#4B5563" points="385.9909,2205.629,392.2409,2221.254,398.4909,2205.629,392.2409,2211.879" style="stroke:#4B5563;stroke-width:1.5625;stroke-linejoin:miter;stroke-miterlimit:10;"/><line style="stroke:#4B5563;stroke-width:1.5625;" x1="595.018" x2="610.643" y1="2186.879" y2="2186.879"/><line style="stroke:#4B5563;stroke-width:1.5625;" x1="610.643" x2="610.643" y1="2186.879" y2="2221.254"/><polygon fill="#4B5563" points="604.393,2205.629,610.643,2221.254,616.893,2205.629,610.643,2211.879" style="stroke:#4B5563;stroke-width:1.5625;stroke-linejoin:miter;stroke-miterlimit:10;"/><line style="stroke:#4B5563;stroke-width:1.5625;" x1="392.2409" x2="392.2409" y1="2277.4429" y2="2350.8804"/><line style="stroke:#4B5563;stroke-width:1.5625;" x1="392.2409" x2="501.442" y1="2350.8804" y2="2350.8804"/><line style="stroke:#4B5563;stroke-width:1.5625;" x1="501.442" x2="501.442" y1="2350.8804" y2="2408.5938"/><polygon fill="#4B5563" points="495.192,2392.9688,501.442,2408.5938,507.692,2392.9688,501.442,2399.2188" style="stroke:#4B5563;stroke-width:1.5625;stroke-linejoin:miter;stroke-miterlimit:10;"/><line style="stroke:#4B5563;stroke-width:1.5625;" x1="501.442" x2="501.442" y1="2136.879" y2="2168.129"/><polygon fill="#4B5563" points="495.192,2152.504,501.442,2168.129,507.692,2152.504,501.442,2158.754" style="stroke:#4B5563;stroke-width:1.5625;stroke-linejoin:miter;stroke-miterlimit:10;"/><g class="caption" data-source-line="56"><text fill="#111827" font-family="'Malgun Gothic'" font-size="21.875" lengthAdjust="spacing" textLength="1221.2189" x="17.1875" y="2515.1154">&#54788;&#51116; migration &#47928;&#49436;&#45716; &#49444;&#52824;&#183;count &#54869;&#51064;&#51012; &#45796;&#47336;&#51648;&#47564; source &#49440;&#53469;, &#50773;&#48373; &#47924;&#49552;&#49892;, &#44396;&#48260;&#51204; &#52264;&#45800;, rollback gate&#47484; &#47749;&#49884;&#54616;&#51648; &#50506;&#45716;&#45796;.</text></g><?plantuml-src hLHHQzjM57xNhpZhKyeIbuR1m7aOAMN3a6vitlfIob3bsrYhB1b9DlF6G25gI1sFU3HEvDOgAdNQjCj0JUn4eTbBVieUVS_z3pjNbXstVHjxidplET_vpdU-Sp_HJSsebHZywBWDW-MgjOgXkBfhC5WkBXIAS7qH_l5su8TRAo2wFRxTpOC8V7ns2FmmGRydkZkytOFw8bJqLLjrTSiS7Py3t_Hv-3UigYvJ5CTLRLV9J_AI5W_FyKcCaOTT3x2Ry1CFHAk58IN6Rt7luPAIBzQgwZtLORZNfZ9WMdP5DVHVM4dMAdwx0hZL5xkFA58tI-pdNDcj6F3fJDo2qp2rt4yE7SfmqJaOlGi8FnRRXvI5JmOOh07wVOmw60OIjggQp03S6uoIc4Bgrpy7iJ4KdTSPBU11cpTtODarL6ToDeezZ18C-ccIVX_c-752uX3EXWo-OUkbLGQ6RZxuuYguPMR2N8CvLnM0l6LNorIpj4AN3d_U0txYyvT4Zvab_Jv9jZQGMeK3t4r4Co7D1wEZ6FstW55xTEIDwus_GVQnllPHZOdilyU48_mODAjIqTqbUMUpkkxGo82kUBIVQQrPDTEbSPCi2L4n70PpffM2ZNC1-t_mhGC9uRXMDMEhL6dCkdG0NCcAOhI9yG71JiGWdlWoJ7q1Tmfthy2lAQfgMgQkgGOuLitM64qb4klXb090scRNnyWNdTv4_qpcvmCgzM7RiwofmjISCzGpyXGxfazX-BHDg51MdVArL8LhXPkWctLckfRTI2N3zKrmj3Ahg52o6mjspIGYdkW6bpGx_7X8XyFHK6x903VQvDN_Xo11yYCf0sY6Jgm07yVaEo2LAMb6i3oUlERRhOjJ30bk2DYBYCJ5AT_gKm4Gwt_H0lN4tfIsRHd6FLLx0FYipL-qiabzo5eEg-PQTMO3Di-ebhG_R-ul_QUEVfDl0_rNJ8lyOEkhPPVkxXJl0XxzIRlWqJfWwC6jmbVVBNzV-ERhXTkBkKf9Rkjx1il9h2yfA-gDZeVoFPeQ-xFiOP4mgMs8B_0p7tS7rEac_L3kH_wJ_kJxvtBxwJKJdG1VKTQRTsG-4Z0d3G-Iiw9eQZNjCUDpsVJuUPIUbq_CMN1nEhjM6Ff0IFp50I7pLwttZJyF4nDDt3CFbvCVpteUfXERiELl7igPZjbYfqd59Tj_0G00?></g></svg>