<svg xmlns="http://www.w3.org/2000/svg" xmlns:xlink="http://www.w3.org/1999/xlink" contentStyleType="text/css" data-diagram-type="DESCRIPTION" height="1003.125px" preserveAspectRatio="none" style="width:2123px;height:1003px;background:#FFFFFF;" version="1.1" viewBox="0 0 2123 1003" width="2123.4375px" zoomAndPan="magnify"><?plantuml 1.2026.3?><defs/><g><g class="title" data-source-line="2"><text fill="#111827" font-family="'Malgun Gothic'" font-size="21.875" font-weight="700" lengthAdjust="spacing" textLength="404.335" x="854.0825" y="39.4333">TO-BE 00 &#183; Persistence Kernel &#52980;&#54252;&#45324;&#53944;</text></g><!--cluster ???? UI--><g class="cluster" data-qualified-name=".... UI" data-source-line="7" id="ent0002"><rect fill="none" height="217.1875" rx="6.25" ry="6.25" style="stroke:#64748B;stroke-width:1.5625;" width="1189.0625" x="10.9375" y="221.283"/><text fill="#111827" font-family="'Malgun Gothic'" font-size="21.875" font-weight="700" lengthAdjust="spacing" textLength="117.9626" x="546.4874" y="248.2162">&#48652;&#46972;&#50864;&#51200; UI</text></g><!--cluster ?? Persistence ??--><g class="cluster" data-qualified-name=".. Persistence .." data-source-line="16" id="ent0008"><rect fill="none" height="217.1875" rx="6.25" ry="6.25" style="stroke:#64748B;stroke-width:1.5625;" width="1171.0938" x="485.1563" y="475.9705"/><text fill="#111827" font-family="'Malgun Gothic'" font-size="21.875" font-weight="700" lengthAdjust="spacing" textLength="219.6045" x="960.9009" y="502.9037">&#45800;&#51068; Persistence &#44228;&#52789;</text></g><!--cluster ???? ?? ??--><g class="cluster" data-qualified-name=".... .. .." data-source-line="25" id="ent0014"><rect fill="none" height="217.1875" rx="6.25" ry="6.25" style="stroke:#64748B;stroke-width:1.5625;" width="760.9375" x="1330.4688" y="730.658"/><text fill="#111827" font-family="'Malgun Gothic'" font-size="21.875" font-weight="700" lengthAdjust="spacing" textLength="190.3809" x="1615.7471" y="757.5912">&#48652;&#46972;&#50864;&#51200; &#50689;&#49549; &#51200;&#51109;</text></g><!--cluster ?? ??--><g class="cluster" data-qualified-name=".. .." data-source-line="32" id="ent0018"><rect fill="none" height="245.3125" rx="6.25" ry="6.25" style="stroke:#64748B;stroke-width:1.5625;" width="711.7188" x="1389.8438" y="193.158"/><text fill="#111827" font-family="'Malgun Gothic'" font-size="21.875" font-weight="700" lengthAdjust="spacing" textLength="95.1904" x="1698.1079" y="220.0912">&#50896;&#44201; &#51200;&#51109;</text></g><!--entity App--><g class="entity" data-qualified-name=".... UI.App" data-source-line="8" id="ent0003"><rect fill="#F1F1F1" height="105.0659" rx="6.25" ry="6.25" style="stroke:#181818;stroke-width:0.7813;" width="319.7769" x="35.9375" y="301.7517"/><rect fill="#F1F1F1" height="15.625" style="stroke:#181818;stroke-width:0.7813;" width="23.4375" x="324.4644" y="309.5642"/><rect fill="#F1F1F1" height="3.125" style="stroke:#181818;stroke-width:0.7813;" width="6.25" x="321.3394" y="312.6892"/><rect fill="#F1F1F1" height="3.125" style="stroke:#181818;stroke-width:0.7813;" width="6.25" x="321.3394" y="318.9392"/><text fill="#111827" font-family="'Malgun Gothic'" font-size="21.875" lengthAdjust="spacing" textLength="69.6411" x="59.375" y="356.81">App UI</text><text fill="#111827" font-family="'Malgun Gothic'" font-size="21.875" lengthAdjust="spacing" textLength="257.2769" x="59.375" y="385.9055">progress &#183; notes &#183; settings</text></g><!--entity Atlas--><g class="entity" data-qualified-name=".... UI.Atlas" data-source-line="9" id="ent0004"><rect fill="#F1F1F1" height="134.1614" rx="6.25" ry="6.25" style="stroke:#181818;stroke-width:0.7813;" width="336.4716" x="473.4375" y="279.0955"/><rect fill="#F1F1F1" height="15.625" style="stroke:#181818;stroke-width:0.7813;" width="23.4375" x="778.6591" y="286.908"/><rect fill="#F1F1F1" height="3.125" style="stroke:#181818;stroke-width:0.7813;" width="6.25" x="775.5341" y="290.033"/><rect fill="#F1F1F1" height="3.125" style="stroke:#181818;stroke-width:0.7813;" width="6.25" x="775.5341" y="296.283"/><text fill="#111827" font-family="'Malgun Gothic'" font-size="21.875" lengthAdjust="spacing" textLength="245.8267" x="496.875" y="334.1537">Atlas Parent Coordinator</text><text fill="#111827" font-family="'Malgun Gothic'" font-size="21.875" lengthAdjust="spacing" textLength="220.5124" x="496.875" y="363.2492">Study + Global iframe</text><text fill="#111827" font-family="'Malgun Gothic'" font-size="21.875" lengthAdjust="spacing" textLength="273.9716" x="496.875" y="392.3447">&#49464;&#45824; &#44160;&#51613; &#183; ACK &#183; broadcast</text></g><!--entity Backup--><g class="entity" data-qualified-name=".... UI.Backup" data-source-line="10" id="ent0005"><rect fill="#F1F1F1" height="105.0659" rx="6.25" ry="6.25" style="stroke:#181818;stroke-width:0.7813;" width="232.4799" x="942.1875" y="308.0017"/><rect fill="#F1F1F1" height="15.625" style="stroke:#181818;stroke-width:0.7813;" width="23.4375" x="1143.4174" y="315.8142"/><rect fill="#F1F1F1" height="3.125" style="stroke:#181818;stroke-width:0.7813;" width="6.25" x="1140.2924" y="318.9392"/><rect fill="#F1F1F1" height="3.125" style="stroke:#181818;stroke-width:0.7813;" width="6.25" x="1140.2924" y="325.1892"/><text fill="#111827" font-family="'Malgun Gothic'" font-size="21.875" lengthAdjust="spacing" textLength="169.9799" x="965.625" y="363.06">Backup / Restore</text><text fill="#111827" font-family="'Malgun Gothic'" font-size="21.875" lengthAdjust="spacing" textLength="166.2949" x="965.625" y="392.1555">JSON schema v3</text></g><!--entity Adapter--><g class="entity" data-qualified-name=".. Persistence ...Adapter" data-source-line="17" id="ent0009"><rect fill="#F1F1F1" height="134.1614" rx="6.25" ry="6.25" style="stroke:#181818;stroke-width:0.7813;" width="263.1989" x="510.1563" y="533.783"/><rect fill="#F1F1F1" height="15.625" style="stroke:#181818;stroke-width:0.7813;" width="23.4375" x="742.1051" y="541.5955"/><rect fill="#F1F1F1" height="3.125" style="stroke:#181818;stroke-width:0.7813;" width="6.25" x="738.9801" y="544.7205"/><rect fill="#F1F1F1" height="3.125" style="stroke:#181818;stroke-width:0.7813;" width="6.25" x="738.9801" y="550.9705"/><text fill="#111827" font-family="'Malgun Gothic'" font-size="21.875" lengthAdjust="spacing" textLength="200.6989" x="533.5938" y="588.8412">Normalized Adapter</text><text fill="#111827" font-family="'Malgun Gothic'" font-size="21.875" lengthAdjust="spacing" textLength="171.2402" x="533.5938" y="617.9367">capture &#183; validate</text><text fill="#111827" font-family="'Malgun Gothic'" font-size="21.875" lengthAdjust="spacing" textLength="165.8249" x="533.5938" y="647.0322">status projection</text></g><!--entity Kernel--><g class="entity" data-qualified-name=".. Persistence ...Kernel" data-source-line="18" id="ent0010"><rect fill="#F1F1F1" height="134.1614" rx="6.25" ry="6.25" style="stroke:#181818;stroke-width:0.7813;" width="264.7369" x="926.5625" y="533.783"/><rect fill="#F1F1F1" height="15.625" style="stroke:#181818;stroke-width:0.7813;" width="23.4375" x="1160.0494" y="541.5955"/><rect fill="#F1F1F1" height="3.125" style="stroke:#181818;stroke-width:0.7813;" width="6.25" x="1156.9244" y="544.7205"/><rect fill="#F1F1F1" height="3.125" style="stroke:#181818;stroke-width:0.7813;" width="6.25" x="1156.9244" y="550.9705"/><text fill="#111827" font-family="'Malgun Gothic'" font-size="21.875" lengthAdjust="spacing" textLength="179.9774" x="950" y="588.8412">Persistence Kernel</text><text fill="#111827" font-family="'Malgun Gothic'" font-size="21.875" lengthAdjust="spacing" textLength="202.2369" x="950" y="617.9367">canonical ownership</text><text fill="#111827" font-family="'Malgun Gothic'" font-size="21.875" lengthAdjust="spacing" textLength="189.0244" x="950" y="647.0322">checkpoint &#183; mirror</text></g><!--entity Worker--><g class="entity" data-qualified-name=".. Persistence ...Worker" data-source-line="19" id="ent0011"><rect fill="#F1F1F1" height="134.1614" rx="6.25" ry="6.25" style="stroke:#181818;stroke-width:0.7813;" width="243.6203" x="1387.5" y="533.783"/><rect fill="#F1F1F1" height="15.625" style="stroke:#181818;stroke-width:0.7813;" width="23.4375" x="1599.8703" y="541.5955"/><rect fill="#F1F1F1" height="3.125" style="stroke:#181818;stroke-width:0.7813;" width="6.25" x="1596.7453" y="544.7205"/><rect fill="#F1F1F1" height="3.125" style="stroke:#181818;stroke-width:0.7813;" width="6.25" x="1596.7453" y="550.9705"/><text fill="#111827" font-family="'Malgun Gothic'" font-size="21.875" lengthAdjust="spacing" textLength="153.4134" x="1410.9375" y="588.8412">Outbox Worker</text><text fill="#111827" font-family="'Malgun Gothic'" font-size="21.875" lengthAdjust="spacing" textLength="181.1203" x="1410.9375" y="617.9367">stable operationId</text><text fill="#111827" font-family="'Malgun Gothic'" font-size="21.875" lengthAdjust="spacing" textLength="168.2175" x="1410.9375" y="647.0322">Web Lock &#183; lease</text></g><!--entity IDB--><g class="entity" data-qualified-name=".... .. ...IDB" data-source-line="26" id="ent0015"><path d="M1355.4688,804.8767 C1355.4688,789.2517 1509.7458,789.2517 1509.7458,789.2517 C1509.7458,789.2517 1664.0228,789.2517 1664.0228,804.8767 L1664.0228,906.2256 C1664.0228,921.8506 1509.7458,921.8506 1509.7458,921.8506 C1509.7458,921.8506 1355.4688,921.8506 1355.4688,906.2256 L1355.4688,804.8767" fill="#F1F1F1" style="stroke:#181818;stroke-width:0.7813;"/><path d="M1355.4688,804.8767 C1355.4688,820.5017 1509.7458,820.5017 1509.7458,820.5017 C1509.7458,820.5017 1664.0228,820.5017 1664.0228,804.8767" fill="none" style="stroke:#181818;stroke-width:0.7813;"/><text fill="#111827" font-family="'Malgun Gothic'" font-size="21.875" lengthAdjust="spacing" textLength="106.929" x="1371.0938" y="850.56">IndexedDB</text><text fill="#111827" font-family="'Malgun Gothic'" font-size="21.875" lengthAdjust="spacing" textLength="176.3138" x="1371.0938" y="879.6555">working snapshot</text><text fill="#111827" font-family="'Malgun Gothic'" font-size="21.875" lengthAdjust="spacing" textLength="277.3041" x="1371.0938" y="908.7509">outbox &#183; meta &#183; checkpoints</text></g><!--entity LS--><g class="entity" data-qualified-name=".... .. ...LS" data-source-line="27" id="ent0016"><path d="M1838.2813,804.8767 C1838.2813,789.2517 1952.0874,789.2517 1952.0874,789.2517 C1952.0874,789.2517 2065.8936,789.2517 2065.8936,804.8767 L2065.8936,906.2256 C2065.8936,921.8506 1952.0874,921.8506 1952.0874,921.8506 C1952.0874,921.8506 1838.2813,921.8506 1838.2813,906.2256 L1838.2813,804.8767" fill="#F1F1F1" style="stroke:#181818;stroke-width:0.7813;"/><path d="M1838.2813,804.8767 C1838.2813,820.5017 1952.0874,820.5017 1952.0874,820.5017 C1952.0874,820.5017 2065.8936,820.5017 2065.8936,804.8767" fill="none" style="stroke:#181818;stroke-width:0.7813;"/><text fill="#111827" font-family="'Malgun Gothic'" font-size="21.875" lengthAdjust="spacing" textLength="122.0963" x="1853.9063" y="850.56">localStorage</text><text fill="#111827" font-family="'Malgun Gothic'" font-size="21.875" lengthAdjust="spacing" textLength="196.3623" x="1853.9063" y="879.6555">compatibility mirror</text><text fill="#111827" font-family="'Malgun Gothic'" font-size="21.875" lengthAdjust="spacing" textLength="121.1563" x="1853.9063" y="908.7509">dirty marker</text></g><!--entity RPC--><g class="entity" data-qualified-name=".. ...RPC" data-source-line="33" id="ent0019"><path d="M1429.6185,328.357 C1434.8116,318.483 1443.224,317.9844 1450.2457,326.2812 C1454.5065,316.0828 1461.7629,315.3634 1468.6111,323.7202 C1474.1466,313.0005 1483.3572,308.751 1492.2122,320.1836 C1497.8085,309.5862 1503.9985,309.0383 1512.3868,317.1772 C1519.089,310.722 1527.2941,311.9477 1530.8972,320.9005 C1537.9719,312.338 1547.2094,311.2691 1552.6711,322.6605 C1562.647,313.7131 1568.8825,315.9134 1573.8299,327.7738 C1580.3774,318.846 1587.8874,319.2702 1592.8743,329.3383 C1608.2158,333.9765 1610.7894,343.0518 1603.3916,356.4961 C1613.4678,367.8445 1607.9791,378.4449 1593.6929,379.5394 C1589.6444,391.3081 1582.1559,394.8955 1572.4436,385.1275 C1567.5634,394.4528 1560.8479,396.4468 1552.7319,388.9101 C1547.1239,401.7052 1537.4588,399.7872 1529.9405,390.9199 C1525.1145,402.399 1517.8624,400.9218 1510.5017,393.5312 C1503.1682,402.3629 1497.5273,400.4282 1491.5183,392.0687 C1483.1365,400.2756 1472.4338,396.762 1469.125,386.0607 C1460.8201,394.6367 1454.3978,394.7578 1447.9911,383.9872 C1441.8228,393.8341 1432.3026,392.2379 1428.5701,381.67 C1413.1205,378.0014 1409.2761,366.0615 1420.6847,354.5761 C1409.1272,342.244 1415.8961,332.0754 1429.6185,328.357" fill="#F1F1F1" style="stroke:#181818;stroke-width:0.7813;"/><text fill="#111827" font-family="'Malgun Gothic'" font-size="21.875" lengthAdjust="spacing" textLength="142.1341" x="1438.2813" y="363.06">Supabase RPC</text></g><!--entity DB--><g class="entity" data-qualified-name=".. ...DB" data-source-line="34" id="ent0020"><path d="M1828.125,267.3767 C1828.125,251.7517 1952.5642,251.7517 1952.5642,251.7517 C1952.5642,251.7517 2077.0035,251.7517 2077.0035,267.3767 L2077.0035,397.821 C2077.0035,413.446 1952.5642,413.446 1952.5642,413.446 C1952.5642,413.446 1828.125,413.446 1828.125,397.821 L1828.125,267.3767" fill="#F1F1F1" style="stroke:#181818;stroke-width:0.7813;"/><path d="M1828.125,267.3767 C1828.125,283.0017 1952.5642,283.0017 1952.5642,283.0017 C1952.5642,283.0017 2077.0035,283.0017 2077.0035,267.3767" fill="none" style="stroke:#181818;stroke-width:0.7813;"/><text fill="#111827" font-family="'Malgun Gothic'" font-size="21.875" lengthAdjust="spacing" textLength="114.5126" x="1843.75" y="313.06">PostgreSQL</text><text fill="#111827" font-family="'Malgun Gothic'" font-size="21.875" lengthAdjust="spacing" textLength="123.9441" x="1843.75" y="342.1555">revision CAS</text><text fill="#111827" font-family="'Malgun Gothic'" font-size="21.875" lengthAdjust="spacing" textLength="200.4211" x="1843.75" y="371.2509">append-only history</text><text fill="#111827" font-family="'Malgun Gothic'" font-size="21.875" lengthAdjust="spacing" textLength="217.6285" x="1843.75" y="400.3464">normalized projection</text></g><g class="entity" data-qualified-name="GMN31" data-source-line="49" id="ent0032"><path d="M1307.8125,77.533 L1307.8125,161.7096 A6.25,6.25 0 0 0 1314.0625,167.9596 L1371.875,167.9596 L1378.125,789.0486 L1384.375,167.9596 L1705.1476,167.9596 A6.25,6.25 0 0 0 1711.3976,161.7096 L1711.3976,86.908 L1695.7726,71.283 L1314.0625,71.283 A6.25,6.25 0 0 0 1307.8125,77.533" fill="#FFF8DC" style="stroke:#8B7355;stroke-width:0.7813;"/><path d="M1695.7726,71.283 L1695.7726,83.783 A3.125,3.125 0 0 0 1698.8976,86.908 L1711.3976,86.908 L1695.7726,71.283" fill="#FFF8DC" style="stroke:#8B7355;stroke-width:0.7813;"/><text fill="#111827" font-family="'Malgun Gothic'" font-size="20.3125" lengthAdjust="spacing" textLength="324.633" x="1317.1875" y="101.2032">&#44592;&#51456; &#50896;&#48376;&#51008; working snapshot&#51060;&#45796;.</text><text fill="#111827" font-family="'Malgun Gothic'" font-size="20.3125" lengthAdjust="spacing" textLength="370.7726" x="1317.1875" y="128.2204">pending import&#50752; iframe localStorage&#45716;</text><text fill="#111827" font-family="'Malgun Gothic'" font-size="20.3125" lengthAdjust="spacing" textLength="249.3042" x="1317.1875" y="155.2376">&#51069;&#44592; &#50864;&#49440;&#44428;&#51012; &#44054;&#51648; &#50506;&#45716;&#45796;.</text></g><!--link App to Atlas--><!--link Atlas to Backup--><!--link Adapter to Kernel--><g class="link" data-entity-1="ent0009" data-entity-2="ent0010" data-link-type="dependency" data-source-line="21" id="lnk12"><path d="M772.8281,600.9705 C821.7969,600.9705 867.9844,600.9705 917.0156,600.9705" fill="none" id="Adapter-to-Kernel" style="stroke:#4B5563;stroke-width:1.5625;"/><polygon fill="#4B5563" points="926.3906,600.9705,912.3281,594.7205,918.5781,600.9705,912.3281,607.2205,926.3906,600.9705" style="stroke:#4B5563;stroke-width:1.5625;"/><text fill="#111827" font-family="'Malgun Gothic'" font-size="20.3125" lengthAdjust="spacing" textLength="163.224" x="685.5469" y="624.6407">validated payload</text></g><!--link Kernel to Worker--><g class="link" data-entity-1="ent0010" data-entity-2="ent0011" data-link-type="dependency" data-source-line="22" id="lnk13"><path d="M1190.7969,578.5798 C1252.8906,578.5798 1317.0469,578.5798 1377.8281,578.5798" fill="none" id="Kernel-to-Worker" style="stroke:#4B5563;stroke-width:1.5625;"/><polygon fill="#4B5563" points="1387.2031,578.5798,1373.1406,572.3298,1379.3906,578.5798,1373.1406,584.8298,1387.2031,578.5798" style="stroke:#4B5563;stroke-width:1.5625;"/><text fill="#111827" font-family="'Malgun Gothic'" font-size="20.3125" lengthAdjust="spacing" textLength="122.718" x="1165.5625" y="602.25">outbox ready</text></g><!--link IDB to LS--><!--link RPC to DB--><g class="link" data-entity-1="ent0019" data-entity-2="ent0020" data-link-type="dependency" data-source-line="36" id="lnk21"><path d="M1604.4063,354.0955 C1669.7344,354.0955 1747.7656,354.0955 1818.6406,354.0955" fill="none" id="RPC-to-DB" style="stroke:#4B5563;stroke-width:1.5625;"/><polygon fill="#4B5563" points="1828.0156,354.0955,1813.9531,347.8455,1820.2031,354.0955,1813.9531,360.3455,1828.0156,354.0955" style="stroke:#4B5563;stroke-width:1.5625;"/><text fill="#111827" font-family="'Malgun Gothic'" font-size="20.3125" lengthAdjust="spacing" textLength="101.3641" x="1614.6406" y="377.7657">transaction</text></g><!--link App to Adapter--><g class="link" data-entity-1="ent0003" data-entity-2="ent0009" data-link-type="dependency" data-source-line="39" id="lnk22"><path d="M196.875,406.4548 C196.875,478.9236 196.875,600.9705 196.875,600.9705 C196.875,600.9705 369.375,600.9705 500.4688,600.9705" fill="none" id="App-to-Adapter" style="stroke:#4B5563;stroke-width:1.5625;"/><polygon fill="#4B5563" points="509.8438,600.9705,495.7813,594.7205,502.0313,600.9705,495.7813,607.2205,509.8438,600.9705" style="stroke:#4B5563;stroke-width:1.5625;"/><text fill="#111827" font-family="'Malgun Gothic'" font-size="20.3125" lengthAdjust="spacing" textLength="115.448" x="140.4688" y="624.6407">data-change</text></g><!--link Atlas to Adapter--><g class="link" data-entity-1="ent0004" data-entity-2="ent0009" data-link-type="dependency" data-source-line="40" id="lnk23"><path d="M642.1875,413.8611 C642.1875,450.8611 642.1875,487.1736 642.1875,524.1423" fill="none" id="Atlas-to-Adapter" style="stroke:#4B5563;stroke-width:1.5625;"/><polygon fill="#4B5563" points="642.1875,533.5173,648.4375,519.4548,642.1875,525.7048,635.9375,519.4548,642.1875,533.5173" style="stroke:#4B5563;stroke-width:1.5625;"/><text fill="#111827" font-family="'Malgun Gothic'" font-size="20.3125" lengthAdjust="spacing" textLength="222.6837" x="418.75" y="497.3594">accepted Atlas + Bridge</text></g><!--link Backup to Kernel--><g class="link" data-entity-1="ent0005" data-entity-2="ent0010" data-link-type="dependency" data-source-line="41" id="lnk24"><path d="M1020.3125,413.158 C1020.3125,448.5642 1020.3125,486.1423 1020.3125,524.2517" fill="none" id="Backup-to-Kernel" style="stroke:#4B5563;stroke-width:1.5625;"/><polygon fill="#4B5563" points="1020.3125,533.6267,1026.5625,519.5642,1020.3125,525.8142,1014.0625,519.5642,1020.3125,533.6267" style="stroke:#4B5563;stroke-width:1.5625;"/><text fill="#111827" font-family="'Malgun Gothic'" font-size="20.3125" lengthAdjust="spacing" textLength="161.0123" x="857.8125" y="467.375">restore candidate</text></g><!--reverse link Backup to Kernel--><g class="link" data-entity-1="ent0005" data-entity-2="ent0010" data-link-type="dependency" data-source-line="42" id="lnk26"><path d="M1098.4375,422.533 C1098.4375,457.9392 1098.4375,495.5173 1098.4375,533.6267" fill="none" id="Backup-backto-Kernel" style="stroke:#4B5563;stroke-width:1.5625;"/><polygon fill="#4B5563" points="1098.4375,413.158,1092.1875,427.2205,1098.4375,420.9705,1104.6875,427.2205,1098.4375,413.158" style="stroke:#4B5563;stroke-width:1.5625;"/><text fill="#111827" font-family="'Malgun Gothic'" font-size="20.3125" lengthAdjust="spacing" textLength="159.7031" x="1100" y="467.375">canonical backup</text></g><!--link Kernel to IDB--><g class="link" data-entity-1="ent0010" data-entity-2="ent0015" data-link-type="dependency" data-source-line="43" id="lnk27"><path d="M1190.8125,623.3611 C1274.5625,623.3611 1367.1875,623.3611 1367.1875,623.3611 C1367.1875,623.3611 1367.1875,711.0798 1367.1875,779.7205" fill="none" id="Kernel-to-IDB" style="stroke:#4B5563;stroke-width:1.5625;"/><polygon fill="#4B5563" points="1367.1875,789.0955,1373.4375,775.033,1367.1875,781.283,1360.9375,775.033,1367.1875,789.0955" style="stroke:#4B5563;stroke-width:1.5625;"/><text fill="#111827" font-family="'Malgun Gothic'" font-size="20.3125" lengthAdjust="spacing" textLength="176.2665" x="1185.2969" y="647.0313">snapshot + outbox</text><text fill="#111827" font-family="'Malgun Gothic'" font-size="20.3125" lengthAdjust="spacing" textLength="143.2884" x="1201.7859" y="674.0485">one transaction</text></g><!--link Kernel to LS--><g class="link" data-entity-1="ent0010" data-entity-2="ent0016" data-link-type="dependency" data-source-line="44" id="lnk28"><path d="M1059.375,668.5798 C1059.375,699.2205 1059.375,728.7048 1059.375,728.7048 C1059.375,728.7048 1953.125,728.7048 1953.125,728.7048 C1953.125,728.7048 1953.125,749.1111 1953.125,779.8298" fill="none" id="Kernel-to-LS" style="stroke:#4B5563;stroke-width:1.5625;"/><polygon fill="#4B5563" points="1953.125,789.2048,1959.375,775.1423,1953.125,781.3923,1946.875,775.1423,1953.125,789.2048" style="stroke:#4B5563;stroke-width:1.5625;"/><text fill="#111827" font-family="'Malgun Gothic'" font-size="20.3125" lengthAdjust="spacing" textLength="131.1981" x="1375.1875" y="752.375">verified mirror</text></g><!--link Worker to IDB--><g class="link" data-entity-1="ent0011" data-entity-2="ent0015" data-link-type="dependency" data-source-line="45" id="lnk29"><path d="M1509.375,668.5486 C1509.375,705.8298 1509.375,742.5798 1509.375,779.7048" fill="none" id="Worker-to-IDB" style="stroke:#4B5563;stroke-width:1.5625;"/><polygon fill="#4B5563" points="1509.375,789.0798,1515.625,775.0173,1509.375,781.2673,1503.125,775.0173,1509.375,789.0798" style="stroke:#4B5563;stroke-width:1.5625;"/><text fill="#111827" font-family="'Malgun Gothic'" font-size="20.3125" lengthAdjust="spacing" textLength="100.7988" x="1510.9375" y="752.4844">claim / ack</text></g><!--link Worker to RPC--><g class="link" data-entity-1="ent0011" data-entity-2="ent0019" data-link-type="dependency" data-source-line="46" id="lnk30"><path d="M1509.375,533.5173 C1509.375,488.3923 1509.375,440.0017 1509.375,402.3767" fill="none" id="Worker-to-RPC" style="stroke:#4B5563;stroke-width:1.5625;"/><polygon fill="#4B5563" points="1509.375,393.0017,1503.125,407.0642,1509.375,400.8142,1515.625,407.0642,1509.375,393.0017" style="stroke:#4B5563;stroke-width:1.5625;"/><text fill="#111827" font-family="'Malgun Gothic'" font-size="20.3125" lengthAdjust="spacing" textLength="158.9493" x="1348.328" y="486.9375">expectedRevision</text><text fill="#111827" font-family="'Malgun Gothic'" font-size="20.3125" lengthAdjust="spacing" textLength="161.8553" x="1346.875" y="513.9547">same operationId</text></g><g class="caption" data-source-line="54"><text fill="#111827" font-family="'Malgun Gothic'" font-size="21.875" lengthAdjust="spacing" textLength="884.9976" x="613.7512" y="985.7162">UI writer&#45716; &#47749;&#47161;&#47564; &#51228;&#52636;&#54616;&#44256;, &#44592;&#51456; &#49345;&#53468;&#183;&#51116;&#49884;&#46020;&#183;&#48373;&#44396; &#51060;&#47141;&#51008; Persistence Kernel&#51060; &#49548;&#50976;&#54620;&#45796;.</text></g><?plantuml-src PLJFRnj55BxlN_7mjRX4Ge2K0rAI8cGQDI6cwg56QBpp4WzUpwncnaaCGd9LqqFYgZqGLAXT-T1IG3b4JTCOKIxvSxpZ_u4tksl7FqvhpxptpVU-zxttWP1XrEG8tndRYl1ct6n4WHKsGlXcgxZ-1QoimDKbRACsmbYK8S9jr18ZSF--7JyvJJhTyT4mY73NWbMWnLxD0XSQGokK34nTo9XfrW2fE1gCuTELcKFDPDqVVlP94CGihBCzX48ox2Rzz-xtCpTemzrI0NuC04BLY9L4QQ6m5iTqN96nLdiQZV7yfBAO_Z1ehP1xfW3C04KkfDg8ZhUPzlysbD9SI6QLhiYoRV8Mt80l8rLb4OXTeeSLwJh3fDk6qPks-wFlyTSsRljFLIl6GsPizew7dNzfdQffnl0HxA2X1mZgg_BM7J1X3HiCzZzEyxAWW39zJSNxDS4voc-vEf35pwUe6Ud5spptfrdXZlzq_VTplHgTTzpmOad2EqetM2H-G0vhdCKMIO6GlasDlhfzkkFC4cbZcMqQ8Ac_ppgQrPlbp6CkMyHZIYL5I88IQRglYPWEQnZMOoKeYTvg2AsLJc6ph7dKhQQjgaEuftJTaoG-LRAcYb4pJwV4A_8ULc5JXNMF5Y4pc89b6Qcs6Lievihb_bsTbiaXPgs86ah1-UKaDaEXM9NnqCXuQrxqMRUwPm_SeyT0FzsBLvdgz02h4Yaeb2J7G-ItrYloW639fM0aYqrDsOhCyRqWQ9d_NikKcRbqQtqEBbAaQvcyHJH8L9AC5AcAIDXMBcf5qY3wVymNaO9ibhqY1BNa9xgPBSizVpfwyzTS9M6acXmAvMQSCTZPtaWnwJj7R5iPIuDP_dgp8ZNk2qDzWesrSeMAZL7oef9H2sh2pqMh8kMr5nTiHWKJCC5Fsq6yLy7IrZ0isoz4EHsTTE_ucSbxlPhoAOOr9lSmo2TeEOY58SRU05d43LZNWbD2FhtJZAbbT3RDGCRcgNU2YM7y1foE9KLUMx-QJUeaS89PIekPE83UpYn0Lf0uL-DYucRPUnUrs1N4F6jra1jr0JsCc6ZG4Y86In5UrrN0mvWKHxwJDuf6Z1RVx805WL-kK5NMgWQetTo8e-6PUqcEV_uqEH-wVXiMFUtwRvFZbpSfr3VTtmYQQctTR-rylSAiXPEZNoZKzVyZOF3Zr1cCtdLTlmEZir_TQthfv8XYKaZ2IpT-4FYbvUrrjmG7Mb1JAGIIltzE1lyahxjatvvxrnkVF1kT3pwSKdxuOFomTtNfNfowurxof7DrcPnVZ2vEmLCUlFB5B2ypkWFtgEjwW_59pxFu7m00?></g></svg>