<svg xmlns="http://www.w3.org/2000/svg" xmlns:xlink="http://www.w3.org/1999/xlink" contentStyleType="text/css" data-diagram-type="SEQUENCE" height="2457.8125px" preserveAspectRatio="none" style="width:2631px;height:2457px;background:#FFFFFF;" version="1.1" viewBox="0 0 2631 2457" width="2631.25px" zoomAndPan="magnify"><?plantuml 1.2026.3?><defs/><g><g class="title" data-source-line="2"><text fill="#111827" font-family="'Malgun Gothic'" font-size="21.875" font-weight="700" lengthAdjust="spacing" textLength="463.3484" x="1078.965" y="47.2458">TO-BE 01 &#183; &#47196;&#52972; &#50864;&#49440; &#51200;&#51109;&#44284; &#51025;&#45813; &#50976;&#49892; &#51116;&#49884;&#46020;</text></g><rect fill="none" height="320.9015" rx="6.25" ry="6.25" style="stroke:#64748B;stroke-width:2.3438;" width="781.8588" x="62.8098" y="364.2426"/><rect fill="none" height="496.1578" rx="6.25" ry="6.25" style="stroke:#64748B;stroke-width:2.3438;" width="1249.1112" x="1271.3249" y="1400.2319"/><g class="participant-lifeline" data-entity-uid="part1" data-qualified-name="User" data-source-line="4" id="part1-lifeline"><g><title>User</title><rect fill="#000000" fill-opacity="0.00000" height="2099.649" width="12.5" x="28.392" y="192.5659"/><line style="stroke:#64748B;stroke-width:0.7813;stroke-dasharray:7.8125,7.8125;" x1="34.375" x2="34.375" y1="192.5659" y2="2292.215"/></g></g><g class="participant-lifeline" data-entity-uid="part2" data-qualified-name="Editor" data-source-line="5" id="part2-lifeline"><g><title>App . Atlas iframe</title><rect fill="#000000" fill-opacity="0.00000" height="2099.649" width="12.5" x="174.5956" y="192.5659"/><line style="stroke:#64748B;stroke-width:0.7813;stroke-dasharray:7.8125,7.8125;" x1="179.9973" x2="179.9973" y1="192.5659" y2="2292.215"/></g></g><g class="participant-lifeline" data-entity-uid="part3" data-qualified-name="Parent" data-source-line="6" id="part3-lifeline"><g><title>Parent Coordinator</title><rect fill="#000000" fill-opacity="0.00000" height="2099.649" width="12.5" x="451.3229" y="192.5659"/><line style="stroke:#64748B;stroke-width:0.7813;stroke-dasharray:7.8125,7.8125;" x1="456.3408" x2="456.3408" y1="192.5659" y2="2292.215"/></g></g><g class="participant-lifeline" data-entity-uid="part4" data-qualified-name="Adapter" data-source-line="7" id="part4-lifeline"><g><title>Normalized Adapter</title><rect fill="#000000" fill-opacity="0.00000" height="2099.649" width="12.5" x="711.5067" y="192.5659"/><line style="stroke:#64748B;stroke-width:0.7813;stroke-dasharray:7.8125,7.8125;" x1="717.4072" x2="717.4072" y1="192.5659" y2="2292.215"/></g></g><g class="participant-lifeline" data-entity-uid="part5" data-qualified-name="Kernel" data-source-line="8" id="part5-lifeline"><g><title>Persistence Kernel</title><rect fill="#000000" fill-opacity="0.00000" height="2099.649" width="12.5" x="1041.9312" y="192.5659"/><line style="stroke:#64748B;stroke-width:0.7813;stroke-dasharray:7.8125,7.8125;" x1="1047.2549" x2="1047.2549" y1="192.5659" y2="2292.215"/></g></g><g class="participant-lifeline" data-entity-uid="part6" data-qualified-name="IDB" data-source-line="9" id="part6-lifeline"><g><title>IndexedDB</title><rect fill="#000000" fill-opacity="0.00000" height="2099.649" width="12.5" x="1338.8519" y="192.5659"/><line style="stroke:#64748B;stroke-width:0.7813;stroke-dasharray:7.8125,7.8125;" x1="1344.7624" x2="1344.7624" y1="192.5659" y2="2292.215"/></g></g><g class="participant-lifeline" data-entity-uid="part7" data-qualified-name="Worker" data-source-line="10" id="part7-lifeline"><g><title>Outbox Worker</title><rect fill="#000000" fill-opacity="0.00000" height="2099.649" width="12.5" x="1752.0935" y="192.5659"/><line style="stroke:#64748B;stroke-width:0.7813;stroke-dasharray:7.8125,7.8125;" x1="1758.1993" x2="1758.1993" y1="192.5659" y2="2292.215"/></g></g><g class="participant-lifeline" data-entity-uid="part8" data-qualified-name="Lock" data-source-line="11" id="part8-lifeline"><g><title>Writer Lock</title><rect fill="#000000" fill-opacity="0.00000" height="2099.649" width="12.5" x="1993.3037" y="192.5659"/><line style="stroke:#64748B;stroke-width:0.7813;stroke-dasharray:7.8125,7.8125;" x1="1998.9746" x2="1998.9746" y1="192.5659" y2="2292.215"/></g></g><g class="participant-lifeline" data-entity-uid="part9" data-qualified-name="RPC" data-source-line="12" id="part9-lifeline"><g><title>Supabase RPC</title><rect fill="#000000" fill-opacity="0.00000" height="2099.649" width="12.5" x="2158.6998" y="192.5659"/><line style="stroke:#64748B;stroke-width:0.7813;stroke-dasharray:7.8125,7.8125;" x1="2164.1953" x2="2164.1953" y1="192.5659" y2="2292.215"/></g></g><g class="participant-lifeline" data-entity-uid="part10" data-qualified-name="DB" data-source-line="13" id="part10-lifeline"><g><title>PostgreSQL</title><rect fill="#000000" fill-opacity="0.00000" height="2099.649" width="12.5" x="2436.6173" y="192.5659"/><line style="stroke:#64748B;stroke-width:0.7813;stroke-dasharray:7.8125,7.8125;" x1="2441.861" x2="2441.861" y1="192.5659" y2="2292.215"/></g></g><g class="participant-lifeline" data-entity-uid="part11" data-qualified-name="UI" data-source-line="14" id="part11-lifeline"><g><title>.. UI</title><rect fill="#000000" fill-opacity="0.00000" height="2099.649" width="12.5" x="2561.4822" y="192.5659"/><line style="stroke:#64748B;stroke-width:0.7813;stroke-dasharray:7.8125,7.8125;" x1="2567.3111" x2="2567.3111" y1="192.5659" y2="2292.215"/></g></g><g class="participant participant-head" data-entity-uid="part1" data-qualified-name="User" data-source-line="4" id="part1-head"><text fill="#111827" font-family="'Malgun Gothic'" font-size="21.875" lengthAdjust="spacing" textLength="44.2841" x="7.8125" y="187.2787">User</text><ellipse cx="34.642" cy="83.0017" fill="#E2E2F0" rx="12.5" ry="12.5" style="stroke:#181818;stroke-width:0.7813;"/><path d="M34.642,95.5017 L34.642,137.6892 M14.3295,108.0017 L54.9545,108.0017 M34.642,137.6892 L14.3295,161.1267 M34.642,137.6892 L54.9545,161.1267" fill="none" style="stroke:#181818;stroke-width:0.7813;"/></g><g class="participant participant-tail" data-entity-uid="part1" data-qualified-name="User" data-source-line="4" id="part1-tail"><text fill="#111827" font-family="'Malgun Gothic'" font-size="21.875" lengthAdjust="spacing" textLength="44.2841" x="7.8125" y="2314.4608">User</text><ellipse cx="34.642" cy="2333.0292" fill="#E2E2F0" rx="12.5" ry="12.5" style="stroke:#181818;stroke-width:0.7813;"/><path d="M34.642,2345.5292 L34.642,2387.7167 M14.3295,2358.0292 L54.9545,2358.0292 M34.642,2387.7167 L14.3295,2411.1542 M34.642,2387.7167 L54.9545,2411.1542" fill="none" style="stroke:#181818;stroke-width:0.7813;"/></g><g class="participant participant-head" data-entity-uid="part2" data-qualified-name="Editor" data-source-line="5" id="part2-head"><rect fill="#E2E2F0" height="50.9705" rx="6.25" ry="6.25" style="stroke:#181818;stroke-width:0.7813;" width="204.8218" x="78.4348" y="140.033"/><text fill="#111827" font-family="'Malgun Gothic'" font-size="21.875" lengthAdjust="spacing" textLength="182.9468" x="89.3723" y="174.7787">App / Atlas iframe</text></g><g class="participant participant-tail" data-entity-uid="part2" data-qualified-name="Editor" data-source-line="5" id="part2-tail"><rect fill="#E2E2F0" height="50.9705" rx="6.25" ry="6.25" style="stroke:#181818;stroke-width:0.7813;" width="204.8218" x="78.4348" y="2290.6525"/><text fill="#111827" font-family="'Malgun Gothic'" font-size="21.875" lengthAdjust="spacing" textLength="182.9468" x="89.3723" y="2325.3983">App / Atlas iframe</text></g><g class="participant participant-head" data-entity-uid="part3" data-qualified-name="Parent" data-source-line="6" id="part3-head"><rect fill="#E2E2F0" height="50.9705" rx="6.25" ry="6.25" style="stroke:#181818;stroke-width:0.7813;" width="211.8393" x="351.6533" y="140.033"/><text fill="#111827" font-family="'Malgun Gothic'" font-size="21.875" lengthAdjust="spacing" textLength="189.9643" x="362.5908" y="174.7787">Parent Coordinator</text></g><g class="participant participant-tail" data-entity-uid="part3" data-qualified-name="Parent" data-source-line="6" id="part3-tail"><rect fill="#E2E2F0" height="50.9705" rx="6.25" ry="6.25" style="stroke:#181818;stroke-width:0.7813;" width="211.8393" x="351.6533" y="2290.6525"/><text fill="#111827" font-family="'Malgun Gothic'" font-size="21.875" lengthAdjust="spacing" textLength="189.9643" x="362.5908" y="2325.3983">Parent Coordinator</text></g><g class="participant participant-head" data-entity-uid="part4" data-qualified-name="Adapter" data-source-line="7" id="part4-head"><rect fill="#E2E2F0" height="50.9705" rx="6.25" ry="6.25" style="stroke:#181818;stroke-width:0.7813;" width="222.5739" x="606.4697" y="140.033"/><text fill="#111827" font-family="'Malgun Gothic'" font-size="21.875" lengthAdjust="spacing" textLength="200.6989" x="617.4072" y="174.7787">Normalized Adapter</text></g><g class="participant participant-tail" data-entity-uid="part4" data-qualified-name="Adapter" data-source-line="7" id="part4-tail"><rect fill="#E2E2F0" height="50.9705" rx="6.25" ry="6.25" style="stroke:#181818;stroke-width:0.7813;" width="222.5739" x="606.4697" y="2290.6525"/><text fill="#111827" font-family="'Malgun Gothic'" font-size="21.875" lengthAdjust="spacing" textLength="200.6989" x="617.4072" y="2325.3983">Normalized Adapter</text></g><g class="participant participant-head" data-entity-uid="part5" data-qualified-name="Kernel" data-source-line="8" id="part5-head"><rect fill="#E2E2F0" height="50.9705" rx="6.25" ry="6.25" style="stroke:#181818;stroke-width:0.7813;" width="201.8524" x="947.2549" y="140.033"/><text fill="#111827" font-family="'Malgun Gothic'" font-size="21.875" lengthAdjust="spacing" textLength="179.9774" x="958.1924" y="174.7787">Persistence Kernel</text></g><g class="participant participant-tail" data-entity-uid="part5" data-qualified-name="Kernel" data-source-line="8" id="part5-tail"><rect fill="#E2E2F0" height="50.9705" rx="6.25" ry="6.25" style="stroke:#181818;stroke-width:0.7813;" width="201.8524" x="947.2549" y="2290.6525"/><text fill="#111827" font-family="'Malgun Gothic'" font-size="21.875" lengthAdjust="spacing" textLength="179.9774" x="958.1924" y="2325.3983">Persistence Kernel</text></g><g class="participant participant-head" data-entity-uid="part6" data-qualified-name="IDB" data-source-line="9" id="part6-head"><text fill="#111827" font-family="'Malgun Gothic'" font-size="21.875" lengthAdjust="spacing" textLength="106.929" x="1286.9499" y="187.2787">IndexedDB</text><path d="M1316.9769,107.2205 C1316.9769,91.5955 1345.1019,91.5955 1345.1019,91.5955 C1345.1019,91.5955 1373.2269,91.5955 1373.2269,107.2205 L1373.2269,147.8455 C1373.2269,163.4705 1345.1019,163.4705 1345.1019,163.4705 C1345.1019,163.4705 1316.9769,163.4705 1316.9769,147.8455 L1316.9769,107.2205" fill="#E2E2F0" style="stroke:#181818;stroke-width:0.7813;"/><path d="M1316.9769,107.2205 C1316.9769,122.8455 1345.1019,122.8455 1345.1019,122.8455 C1345.1019,122.8455 1373.2269,122.8455 1373.2269,107.2205" fill="none" style="stroke:#181818;stroke-width:0.7813;"/></g><g class="participant participant-tail" data-entity-uid="part6" data-qualified-name="IDB" data-source-line="9" id="part6-tail"><text fill="#111827" font-family="'Malgun Gothic'" font-size="21.875" lengthAdjust="spacing" textLength="106.929" x="1286.9499" y="2314.4608">IndexedDB</text><path d="M1316.9769,2335.3729 C1316.9769,2319.7479 1345.1019,2319.7479 1345.1019,2319.7479 C1345.1019,2319.7479 1373.2269,2319.7479 1373.2269,2335.3729 L1373.2269,2375.9979 C1373.2269,2391.6229 1345.1019,2391.6229 1345.1019,2391.6229 C1345.1019,2391.6229 1316.9769,2391.6229 1316.9769,2375.9979 L1316.9769,2335.3729" fill="#E2E2F0" style="stroke:#181818;stroke-width:0.7813;"/><path d="M1316.9769,2335.3729 C1316.9769,2350.9979 1345.1019,2350.9979 1345.1019,2350.9979 C1345.1019,2350.9979 1373.2269,2350.9979 1373.2269,2335.3729" fill="none" style="stroke:#181818;stroke-width:0.7813;"/></g><g class="participant participant-head" data-entity-uid="part7" data-qualified-name="Worker" data-source-line="10" id="part7-head"><rect fill="#E2E2F0" height="50.9705" rx="6.25" ry="6.25" style="stroke:#181818;stroke-width:0.7813;" width="175.2884" x="1670.6993" y="140.033"/><text fill="#111827" font-family="'Malgun Gothic'" font-size="21.875" lengthAdjust="spacing" textLength="153.4134" x="1681.6368" y="174.7787">Outbox Worker</text></g><g class="participant participant-tail" data-entity-uid="part7" data-qualified-name="Worker" data-source-line="10" id="part7-tail"><rect fill="#E2E2F0" height="50.9705" rx="6.25" ry="6.25" style="stroke:#181818;stroke-width:0.7813;" width="175.2884" x="1670.6993" y="2290.6525"/><text fill="#111827" font-family="'Malgun Gothic'" font-size="21.875" lengthAdjust="spacing" textLength="153.4134" x="1681.6368" y="2325.3983">Outbox Worker</text></g><g class="participant participant-head" data-entity-uid="part8" data-qualified-name="Lock" data-source-line="11" id="part8-head"><rect fill="#E2E2F0" height="50.9705" rx="6.25" ry="6.25" style="stroke:#181818;stroke-width:0.7813;" width="135.5331" x="1931.7871" y="140.033"/><text fill="#111827" font-family="'Malgun Gothic'" font-size="21.875" lengthAdjust="spacing" textLength="113.6581" x="1942.7246" y="174.7787">Writer Lock</text></g><g class="participant participant-tail" data-entity-uid="part8" data-qualified-name="Lock" data-source-line="11" id="part8-tail"><rect fill="#E2E2F0" height="50.9705" rx="6.25" ry="6.25" style="stroke:#181818;stroke-width:0.7813;" width="135.5331" x="1931.7871" y="2290.6525"/><text fill="#111827" font-family="'Malgun Gothic'" font-size="21.875" lengthAdjust="spacing" textLength="113.6581" x="1942.7246" y="2325.3983">Writer Lock</text></g><g class="participant participant-head" data-entity-uid="part9" data-qualified-name="RPC" data-source-line="12" id="part9-head"><rect fill="#E2E2F0" height="50.9705" rx="6.25" ry="6.25" style="stroke:#181818;stroke-width:0.7813;" width="164.0091" x="2082.9453" y="140.033"/><text fill="#111827" font-family="'Malgun Gothic'" font-size="21.875" lengthAdjust="spacing" textLength="142.1341" x="2093.8828" y="174.7787">Supabase RPC</text></g><g class="participant participant-tail" data-entity-uid="part9" data-qualified-name="RPC" data-source-line="12" id="part9-tail"><rect fill="#E2E2F0" height="50.9705" rx="6.25" ry="6.25" style="stroke:#181818;stroke-width:0.7813;" width="164.0091" x="2082.9453" y="2290.6525"/><text fill="#111827" font-family="'Malgun Gothic'" font-size="21.875" lengthAdjust="spacing" textLength="142.1341" x="2093.8828" y="2325.3983">Supabase RPC</text></g><g class="participant participant-head" data-entity-uid="part10" data-qualified-name="DB" data-source-line="13" id="part10-head"><text fill="#111827" font-family="'Malgun Gothic'" font-size="21.875" lengthAdjust="spacing" textLength="114.5126" x="2380.9235" y="187.2787">PostgreSQL</text><path d="M2414.7423,107.2205 C2414.7423,91.5955 2442.8673,91.5955 2442.8673,91.5955 C2442.8673,91.5955 2470.9923,91.5955 2470.9923,107.2205 L2470.9923,147.8455 C2470.9923,163.4705 2442.8673,163.4705 2442.8673,163.4705 C2442.8673,163.4705 2414.7423,163.4705 2414.7423,147.8455 L2414.7423,107.2205" fill="#E2E2F0" style="stroke:#181818;stroke-width:0.7813;"/><path d="M2414.7423,107.2205 C2414.7423,122.8455 2442.8673,122.8455 2442.8673,122.8455 C2442.8673,122.8455 2470.9923,122.8455 2470.9923,107.2205" fill="none" style="stroke:#181818;stroke-width:0.7813;"/></g><g class="participant participant-tail" data-entity-uid="part10" data-qualified-name="DB" data-source-line="13" id="part10-tail"><text fill="#111827" font-family="'Malgun Gothic'" font-size="21.875" lengthAdjust="spacing" textLength="114.5126" x="2380.9235" y="2314.4608">PostgreSQL</text><path d="M2414.7423,2335.3729 C2414.7423,2319.7479 2442.8673,2319.7479 2442.8673,2319.7479 C2442.8673,2319.7479 2470.9923,2319.7479 2470.9923,2335.3729 L2470.9923,2375.9979 C2470.9923,2391.6229 2442.8673,2391.6229 2442.8673,2391.6229 C2442.8673,2391.6229 2414.7423,2391.6229 2414.7423,2375.9979 L2414.7423,2335.3729" fill="#E2E2F0" style="stroke:#181818;stroke-width:0.7813;"/><path d="M2414.7423,2335.3729 C2414.7423,2350.9979 2442.8673,2350.9979 2442.8673,2350.9979 C2442.8673,2350.9979 2470.9923,2350.9979 2470.9923,2335.3729" fill="none" style="stroke:#181818;stroke-width:0.7813;"/></g><g class="participant participant-head" data-entity-uid="part11" data-qualified-name="UI" data-source-line="14" id="part11-head"><rect fill="#E2E2F0" height="50.9705" rx="6.25" ry="6.25" style="stroke:#181818;stroke-width:0.7813;" width="94.5923" x="2520.4361" y="140.033"/><text fill="#111827" font-family="'Malgun Gothic'" font-size="21.875" lengthAdjust="spacing" textLength="72.7173" x="2531.3736" y="174.7787">&#49345;&#53468; UI</text></g><g class="participant participant-tail" data-entity-uid="part11" data-qualified-name="UI" data-source-line="14" id="part11-tail"><rect fill="#E2E2F0" height="50.9705" rx="6.25" ry="6.25" style="stroke:#181818;stroke-width:0.7813;" width="94.5923" x="2520.4361" y="2290.6525"/><text fill="#111827" font-family="'Malgun Gothic'" font-size="21.875" lengthAdjust="spacing" textLength="72.7173" x="2531.3736" y="2325.3983">&#49345;&#53468; UI</text></g><g class="message" data-entity-1="part1" data-entity-2="part2" data-source-line="16" id="msg1"><polygon fill="#4B5563" points="162.0956,238.3331,177.7206,244.5831,162.0956,250.8331,168.3456,244.5831" style="stroke:#4B5563;stroke-width:1.5625;"/><line style="stroke:#4B5563;stroke-width:1.5625;" x1="34.642" x2="171.4706" y1="244.5831" y2="244.5831"/><text fill="#111827" font-family="'Malgun Gothic'" font-size="20.3125" lengthAdjust="spacing" textLength="108.7036" x="45.5795" y="236.5486">&#45936;&#51060;&#53552; &#48320;&#44221;</text></g><g class="message" data-entity-1="part2" data-entity-2="part2" data-source-line="17" id="msg2"><line style="stroke:#4B5563;stroke-width:1.5625;" x1="180.8456" x2="246.4706" y1="320.4926" y2="320.4926"/><line style="stroke:#4B5563;stroke-width:1.5625;" x1="246.4706" x2="246.4706" y1="320.4926" y2="340.8051"/><line style="stroke:#4B5563;stroke-width:1.5625;" x1="182.4081" x2="246.4706" y1="340.8051" y2="340.8051"/><polygon fill="#4B5563" points="198.0331,334.5551,182.4081,340.8051,198.0331,347.0551,191.7831,340.8051" style="stroke:#4B5563;stroke-width:1.5625;"/><text fill="#111827" font-family="'Malgun Gothic'" font-size="20.3125" lengthAdjust="spacing" textLength="182.3364" x="191.7831" y="285.4408">compatibility mirror</text><text fill="#111827" font-family="'Malgun Gothic'" font-size="20.3125" lengthAdjust="spacing" textLength="133.876" x="191.7831" y="312.458">+ dirty marker</text></g><path d="M69.0598,364.2426 L157.531,364.2426 L157.531,378.7598 L141.906,394.3848 L62.8098,394.3848 L62.8098,370.4926 A6.25,6.25 0 0 1 69.0598,364.2426" fill="#F8FAFC" style="stroke:#64748B;stroke-width:2.3438;"/><rect fill="none" height="320.9015" rx="6.25" ry="6.25" style="stroke:#64748B;stroke-width:2.3438;" width="781.8588" x="62.8098" y="364.2426"/><text fill="#111827" font-family="'Malgun Gothic'" font-size="20.3125" font-weight="700" lengthAdjust="spacing" textLength="24.4087" x="86.2473" y="387.9128">alt</text><text fill="#111827" font-family="'Malgun Gothic'" font-size="17.1875" font-weight="700" lengthAdjust="spacing" textLength="93.4067" x="180.9685" y="386.0741">[Atlas &#48320;&#44221;]</text><g class="message" data-entity-1="part2" data-entity-2="part3" data-source-line="20" id="msg3"><polygon fill="#4B5563" points="438.8229,424.527,454.4479,430.777,438.8229,437.027,445.0729,430.777" style="stroke:#4B5563;stroke-width:1.5625;"/><line style="stroke:#4B5563;stroke-width:1.5625;" x1="180.8456" x2="448.1979" y1="430.777" y2="430.777"/><text fill="#111827" font-family="'Malgun Gothic'" font-size="20.3125" lengthAdjust="spacing" textLength="239.2273" x="191.7831" y="422.7425">snapshot(baseGeneration)</text></g><g class="message" data-entity-1="part3" data-entity-2="part3" data-source-line="21" id="msg4"><line style="stroke:#4B5563;stroke-width:1.5625;" x1="457.5729" x2="523.1979" y1="479.6692" y2="479.6692"/><line style="stroke:#4B5563;stroke-width:1.5625;" x1="523.1979" x2="523.1979" y1="479.6692" y2="499.9817"/><line style="stroke:#4B5563;stroke-width:1.5625;" x1="459.1354" x2="523.1979" y1="499.9817" y2="499.9817"/><polygon fill="#4B5563" points="474.7604,493.7317,459.1354,499.9817,474.7604,506.2317,468.5104,499.9817" style="stroke:#4B5563;stroke-width:1.5625;"/><text fill="#111827" font-family="'Malgun Gothic'" font-size="20.3125" lengthAdjust="spacing" textLength="215.2153" x="468.5104" y="471.6347">&#54788;&#51116; generation&#44284; &#48708;&#44368;</text></g><g class="message" data-entity-1="part3" data-entity-2="part2" data-source-line="22" id="msg5"><polygon fill="#4B5563" points="198.0331,542.6239,182.4081,548.8739,198.0331,555.1239,191.7831,548.8739" style="stroke:#4B5563;stroke-width:1.5625;"/><line style="stroke:#4B5563;stroke-width:1.5625;stroke-dasharray:3.125,3.125;" x1="188.6581" x2="456.0104" y1="548.8739" y2="548.8739"/><text fill="#111827" font-family="'Malgun Gothic'" font-size="20.3125" lengthAdjust="spacing" textLength="175.4234" x="207.4081" y="540.8394">ACK(generation+1)</text></g><g class="message" data-entity-1="part3" data-entity-2="part4" data-source-line="23" id="msg6"><polygon fill="#4B5563" points="699.0067,591.5161,714.6317,597.7661,699.0067,604.0161,705.2567,597.7661" style="stroke:#4B5563;stroke-width:1.5625;"/><line style="stroke:#4B5563;stroke-width:1.5625;" x1="457.5729" x2="708.3817" y1="597.7661" y2="597.7661"/><text fill="#111827" font-family="'Malgun Gothic'" font-size="20.3125" lengthAdjust="spacing" textLength="222.6837" x="468.5104" y="589.7316">accepted Atlas + Bridge</text></g><line style="stroke:#64748B;stroke-width:1.5625;stroke-dasharray:3.125,3.125;" x1="62.8098" x2="844.6686" y1="611.8286" y2="611.8286"/><text fill="#111827" font-family="'Malgun Gothic'" font-size="17.1875" font-weight="700" lengthAdjust="spacing" textLength="86.3487" x="70.6223" y="630.5351">[App &#48320;&#44221;]</text><g class="message" data-entity-1="part2" data-entity-2="part4" data-source-line="25" id="msg7"><polygon fill="#4B5563" points="699.0067,666.394,714.6317,672.644,699.0067,678.894,705.2567,672.644" style="stroke:#4B5563;stroke-width:1.5625;"/><line style="stroke:#4B5563;stroke-width:1.5625;" x1="180.8456" x2="708.3817" y1="672.644" y2="672.644"/><text fill="#111827" font-family="'Malgun Gothic'" font-size="20.3125" lengthAdjust="spacing" textLength="115.448" x="191.7831" y="664.6095">data-change</text></g><g class="message" data-entity-1="part4" data-entity-2="part4" data-source-line="28" id="msg8"><line style="stroke:#4B5563;stroke-width:1.5625;" x1="717.7567" x2="783.3817" y1="732.4738" y2="732.4738"/><line style="stroke:#4B5563;stroke-width:1.5625;" x1="783.3817" x2="783.3817" y1="732.4738" y2="752.7863"/><line style="stroke:#4B5563;stroke-width:1.5625;" x1="719.3192" x2="783.3817" y1="752.7863" y2="752.7863"/><polygon fill="#4B5563" points="734.9442,746.5363,719.3192,752.7863,734.9442,759.0363,728.6942,752.7863" style="stroke:#4B5563;stroke-width:1.5625;"/><text fill="#111827" font-family="'Malgun Gothic'" font-size="20.3125" lengthAdjust="spacing" textLength="229.0115" x="728.6942" y="724.4392">App&#183;Atlas&#183;Bridge validate</text></g><g class="message" data-entity-1="part4" data-entity-2="part5" data-source-line="29" id="msg9"><polygon fill="#4B5563" points="1029.4312,795.4285,1045.0562,801.6785,1029.4312,807.9285,1035.6812,801.6785" style="stroke:#4B5563;stroke-width:1.5625;"/><line style="stroke:#4B5563;stroke-width:1.5625;" x1="717.7567" x2="1038.8062" y1="801.6785" y2="801.6785"/><text fill="#111827" font-family="'Malgun Gothic'" font-size="20.3125" lengthAdjust="spacing" textLength="292.9245" x="728.6942" y="793.644">writeSnapshot(payload, remote)</text></g><g class="message" data-entity-1="part5" data-entity-2="part6" data-source-line="30" id="msg10"><polygon fill="#4B5563" points="1326.3519,871.3379,1341.9769,877.5879,1326.3519,883.8379,1332.6019,877.5879" style="stroke:#4B5563;stroke-width:1.5625;"/><line style="stroke:#4B5563;stroke-width:1.5625;" x1="1048.1812" x2="1335.7269" y1="877.5879" y2="877.5879"/><text fill="#111827" font-family="'Malgun Gothic'" font-size="20.3125" lengthAdjust="spacing" textLength="259.4208" x="1059.1187" y="842.5362">snapshot + pending outbox</text><text fill="#111827" font-family="'Malgun Gothic'" font-size="20.3125" lengthAdjust="spacing" textLength="170.7123" x="1059.1187" y="869.5534">atomic transaction</text></g><g class="message" data-entity-1="part6" data-entity-2="part5" data-source-line="31" id="msg11"><polygon fill="#4B5563" points="1065.3687,920.2301,1049.7437,926.4801,1065.3687,932.7301,1059.1187,926.4801" style="stroke:#4B5563;stroke-width:1.5625;"/><line style="stroke:#4B5563;stroke-width:1.5625;stroke-dasharray:3.125,3.125;" x1="1055.9937" x2="1343.5394" y1="926.4801" y2="926.4801"/><text fill="#111827" font-family="'Malgun Gothic'" font-size="20.3125" lengthAdjust="spacing" textLength="202.1233" x="1074.7437" y="918.4456">read-back hash/count</text></g><g class="message" data-entity-1="part5" data-entity-2="part2" data-source-line="32" id="msg12"><polygon fill="#4B5563" points="198.0331,996.1395,182.4081,1002.3895,198.0331,1008.6395,191.7831,1002.3895" style="stroke:#4B5563;stroke-width:1.5625;"/><line style="stroke:#4B5563;stroke-width:1.5625;" x1="188.6581" x2="1046.6187" y1="1002.3895" y2="1002.3895"/><text fill="#111827" font-family="'Malgun Gothic'" font-size="20.3125" lengthAdjust="spacing" textLength="230.1025" x="207.4081" y="967.3378">compatibility mirror &#44081;&#49888;</text><text fill="#111827" font-family="'Malgun Gothic'" font-size="20.3125" lengthAdjust="spacing" textLength="181.6422" x="207.4081" y="994.355">+ dirty marker &#51228;&#44144;</text></g><g class="message" data-entity-1="part5" data-entity-2="part11" data-source-line="33" id="msg13"><polygon fill="#4B5563" points="2548.9822,1072.049,2564.6072,1078.299,2548.9822,1084.549,2555.2322,1078.299" style="stroke:#4B5563;stroke-width:1.5625;"/><line style="stroke:#4B5563;stroke-width:1.5625;" x1="1048.1812" x2="2558.3572" y1="1078.299" y2="1078.299"/><text fill="#111827" font-family="'Malgun Gothic'" font-size="20.3125" lengthAdjust="spacing" textLength="120.2881" x="1059.1187" y="1043.2472">&#47196;&#52972; &#183; &#51200;&#51109;&#46120;</text><text fill="#111827" font-family="'Malgun Gothic'" font-size="20.3125" lengthAdjust="spacing" textLength="147.7417" x="1059.1187" y="1070.2644">&#49436;&#48260; &#183; &#51200;&#51109; &#45824;&#44592;</text></g><g class="message" data-entity-1="part7" data-entity-2="part8" data-source-line="35" id="msg14"><polygon fill="#4B5563" points="1980.8037,1120.9412,1996.4287,1127.1912,1980.8037,1133.4412,1987.0537,1127.1912" style="stroke:#4B5563;stroke-width:1.5625;"/><line style="stroke:#4B5563;stroke-width:1.5625;" x1="1758.3435" x2="1990.1787" y1="1127.1912" y2="1127.1912"/><text fill="#111827" font-family="'Malgun Gothic'" font-size="20.3125" lengthAdjust="spacing" textLength="203.7102" x="1769.281" y="1119.1566">workspace writer &#54925;&#46301;</text></g><g class="message" data-entity-1="part7" data-entity-2="part6" data-source-line="36" id="msg15"><polygon fill="#4B5563" points="1362.2894,1169.8334,1346.6644,1176.0834,1362.2894,1182.3334,1356.0394,1176.0834" style="stroke:#4B5563;stroke-width:1.5625;"/><line style="stroke:#4B5563;stroke-width:1.5625;" x1="1352.9144" x2="1756.781" y1="1176.0834" y2="1176.0834"/><text fill="#111827" font-family="'Malgun Gothic'" font-size="20.3125" lengthAdjust="spacing" textLength="194.397" x="1371.6644" y="1168.0489">claim oldest pending</text></g><g class="message" data-entity-1="part6" data-entity-2="part7" data-source-line="37" id="msg16"><polygon fill="#4B5563" points="1739.5935,1218.7256,1755.2185,1224.9756,1739.5935,1231.2256,1745.8435,1224.9756" style="stroke:#4B5563;stroke-width:1.5625;"/><line style="stroke:#4B5563;stroke-width:1.5625;stroke-dasharray:3.125,3.125;" x1="1345.1019" x2="1748.9685" y1="1224.9756" y2="1224.9756"/><text fill="#111827" font-family="'Malgun Gothic'" font-size="20.3125" lengthAdjust="spacing" textLength="375.7416" x="1356.0394" y="1216.9411">operationId &#183; expectedRevision &#183; payload</text></g><g class="message" data-entity-1="part7" data-entity-2="part9" data-source-line="38" id="msg17"><polygon fill="#4B5563" points="2146.1998,1267.6178,2161.8248,1273.8678,2146.1998,1280.1178,2152.4498,1273.8678" style="stroke:#4B5563;stroke-width:1.5625;"/><line style="stroke:#4B5563;stroke-width:1.5625;" x1="1758.3435" x2="2155.5748" y1="1273.8678" y2="1273.8678"/><text fill="#111827" font-family="'Malgun Gothic'" font-size="20.3125" lengthAdjust="spacing" textLength="333.3511" x="1769.281" y="1265.8333">ipe_commit_state(same operationId)</text></g><g class="message" data-entity-1="part9" data-entity-2="part10" data-source-line="39" id="msg18"><polygon fill="#4B5563" points="2424.1173,1370.5444,2439.7423,1376.7944,2424.1173,1383.0444,2430.3673,1376.7944" style="stroke:#4B5563;stroke-width:1.5625;"/><line style="stroke:#4B5563;stroke-width:1.5625;" x1="2164.9498" x2="2433.4923" y1="1376.7944" y2="1376.7944"/><text fill="#111827" font-family="'Malgun Gothic'" font-size="20.3125" lengthAdjust="spacing" textLength="199.6239" x="2175.8873" y="1314.7255">operation replay &#54869;&#51064;</text><text fill="#111827" font-family="'Malgun Gothic'" font-size="20.3125" lengthAdjust="spacing" textLength="115.0909" x="2175.8873" y="1341.7427">revision CAS</text><text fill="#111827" font-family="'Malgun Gothic'" font-size="20.3125" lengthAdjust="spacing" textLength="191.2529" x="2175.8873" y="1368.7599">append + projection</text></g><path d="M1277.5749,1400.2319 L1366.0461,1400.2319 L1366.0461,1414.7491 L1350.4211,1430.3741 L1271.3249,1430.3741 L1271.3249,1406.4819 A6.25,6.25 0 0 1 1277.5749,1400.2319" fill="#F8FAFC" style="stroke:#64748B;stroke-width:2.3438;"/><rect fill="none" height="496.1578" rx="6.25" ry="6.25" style="stroke:#64748B;stroke-width:2.3438;" width="1249.1112" x="1271.3249" y="1400.2319"/><text fill="#111827" font-family="'Malgun Gothic'" font-size="20.3125" font-weight="700" lengthAdjust="spacing" textLength="24.4087" x="1294.7624" y="1423.9021">alt</text><text fill="#111827" font-family="'Malgun Gothic'" font-size="17.1875" font-weight="700" lengthAdjust="spacing" textLength="87.0956" x="1389.4836" y="1422.0634">[&#51221;&#49345; &#51025;&#45813;]</text><g class="message" data-entity-1="part10" data-entity-2="part9" data-source-line="42" id="msg19"><polygon fill="#4B5563" points="2182.1373,1460.5164,2166.5123,1466.7664,2182.1373,1473.0164,2175.8873,1466.7664" style="stroke:#4B5563;stroke-width:1.5625;"/><line style="stroke:#4B5563;stroke-width:1.5625;stroke-dasharray:3.125,3.125;" x1="2172.7623" x2="2441.3048" y1="1466.7664" y2="1466.7664"/><text fill="#111827" font-family="'Malgun Gothic'" font-size="20.3125" lengthAdjust="spacing" textLength="93.3403" x="2191.5123" y="1458.7318">revision N</text></g><g class="message" data-entity-1="part9" data-entity-2="part7" data-source-line="43" id="msg20"><polygon fill="#4B5563" points="1775.531,1509.4086,1759.906,1515.6586,1775.531,1521.9086,1769.281,1515.6586" style="stroke:#4B5563;stroke-width:1.5625;"/><line style="stroke:#4B5563;stroke-width:1.5625;stroke-dasharray:3.125,3.125;" x1="1766.156" x2="2163.3873" y1="1515.6586" y2="1515.6586"/><text fill="#111827" font-family="'Malgun Gothic'" font-size="20.3125" lengthAdjust="spacing" textLength="93.3403" x="1784.906" y="1507.6241">revision N</text></g><line style="stroke:#64748B;stroke-width:1.5625;stroke-dasharray:3.125,3.125;" x1="1271.3249" x2="2520.4361" y1="1529.7211" y2="1529.7211"/><text fill="#111827" font-family="'Malgun Gothic'" font-size="17.1875" font-weight="700" lengthAdjust="spacing" textLength="191.1606" x="1279.1374" y="1548.4276">[&#49436;&#48260; &#49457;&#44277; &#54980; &#51025;&#45813; &#50976;&#49892;]</text><g class="message" data-entity-1="part10" data-entity-2="part9" data-source-line="45" id="msg21"><polygon fill="#4B5563" points="2182.1373,1584.2865,2166.5123,1590.5365,2182.1373,1596.7865,2175.8873,1590.5365" style="stroke:#4B5563;stroke-width:1.5625;"/><line style="stroke:#4B5563;stroke-width:1.5625;stroke-dasharray:3.125,3.125;" x1="2172.7623" x2="2441.3048" y1="1590.5365" y2="1590.5365"/><text fill="#111827" font-family="'Malgun Gothic'" font-size="20.3125" lengthAdjust="spacing" textLength="200.0999" x="2191.5123" y="1582.502">revision N committed</text></g><g class="message" data-entity-1="part9" data-entity-2="part7" data-source-line="46" id="msg22"><line style="stroke:#4B5563;stroke-width:3.125;" x1="1769.281" x2="1784.906" y1="1631.6162" y2="1647.2412"/><line style="stroke:#4B5563;stroke-width:3.125;" x1="1769.281" x2="1784.906" y1="1647.2412" y2="1631.6162"/><line style="stroke:#4B5563;stroke-width:1.5625;" x1="1777.0935" x2="2163.3873" y1="1639.4287" y2="1639.4287"/><text fill="#111827" font-family="'Malgun Gothic'" font-size="20.3125" lengthAdjust="spacing" textLength="122.7379" x="1784.906" y="1631.3942">response lost</text></g><g class="message" data-entity-1="part7" data-entity-2="part6" data-source-line="47" id="msg23"><polygon fill="#4B5563" points="1362.2894,1682.0709,1346.6644,1688.3209,1362.2894,1694.5709,1356.0394,1688.3209" style="stroke:#4B5563;stroke-width:1.5625;"/><line style="stroke:#4B5563;stroke-width:1.5625;" x1="1352.9144" x2="1756.781" y1="1688.3209" y2="1688.3209"/><text fill="#111827" font-family="'Malgun Gothic'" font-size="20.3125" lengthAdjust="spacing" textLength="346.2349" x="1371.6644" y="1680.2864">&#44057;&#51008; operationId&#47484; pending&#51004;&#47196; &#48373;&#44480;</text></g><g class="message" data-entity-1="part7" data-entity-2="part9" data-source-line="48" id="msg24"><polygon fill="#4B5563" points="2146.1998,1730.9631,2161.8248,1737.2131,2146.1998,1743.4631,2152.4498,1737.2131" style="stroke:#4B5563;stroke-width:1.5625;"/><line style="stroke:#4B5563;stroke-width:1.5625;" x1="1758.3435" x2="2155.5748" y1="1737.2131" y2="1737.2131"/><text fill="#111827" font-family="'Malgun Gothic'" font-size="20.3125" lengthAdjust="spacing" textLength="216.4749" x="1769.281" y="1729.1786">retry(same operationId)</text></g><g class="message" data-entity-1="part9" data-entity-2="part10" data-source-line="49" id="msg25"><polygon fill="#4B5563" points="2424.1173,1779.8553,2439.7423,1786.1053,2424.1173,1792.3553,2430.3673,1786.1053" style="stroke:#4B5563;stroke-width:1.5625;"/><line style="stroke:#4B5563;stroke-width:1.5625;" x1="2164.9498" x2="2433.4923" y1="1786.1053" y2="1786.1053"/><text fill="#111827" font-family="'Malgun Gothic'" font-size="20.3125" lengthAdjust="spacing" textLength="240.2687" x="2175.8873" y="1778.0708">operationId replay lookup</text></g><g class="message" data-entity-1="part10" data-entity-2="part9" data-source-line="50" id="msg26"><polygon fill="#4B5563" points="2182.1373,1828.7476,2166.5123,1834.9976,2182.1373,1841.2476,2175.8873,1834.9976" style="stroke:#4B5563;stroke-width:1.5625;"/><line style="stroke:#4B5563;stroke-width:1.5625;stroke-dasharray:3.125,3.125;" x1="2172.7623" x2="2441.3048" y1="1834.9976" y2="1834.9976"/><text fill="#111827" font-family="'Malgun Gothic'" font-size="20.3125" lengthAdjust="spacing" textLength="170.5635" x="2191.5123" y="1826.963">existing revision N</text></g><g class="message" data-entity-1="part9" data-entity-2="part7" data-source-line="51" id="msg27"><polygon fill="#4B5563" points="1775.531,1877.6398,1759.906,1883.8898,1775.531,1890.1398,1769.281,1883.8898" style="stroke:#4B5563;stroke-width:1.5625;"/><line style="stroke:#4B5563;stroke-width:1.5625;stroke-dasharray:3.125,3.125;" x1="1766.156" x2="2163.3873" y1="1883.8898" y2="1883.8898"/><text fill="#111827" font-family="'Malgun Gothic'" font-size="20.3125" lengthAdjust="spacing" textLength="190.9851" x="1784.906" y="1875.8553">revision N &#183; replayed</text></g><g class="message" data-entity-1="part7" data-entity-2="part9" data-source-line="54" id="msg28"><polygon fill="#4B5563" points="2146.1998,1937.4695,2161.8248,1943.7195,2146.1998,1949.9695,2152.4498,1943.7195" style="stroke:#4B5563;stroke-width:1.5625;"/><line style="stroke:#4B5563;stroke-width:1.5625;" x1="1758.3435" x2="2155.5748" y1="1943.7195" y2="1943.7195"/><text fill="#111827" font-family="'Malgun Gothic'" font-size="20.3125" lengthAdjust="spacing" textLength="143.1198" x="1769.281" y="1935.685">ipe_load_head()</text></g><g class="message" data-entity-1="part9" data-entity-2="part10" data-source-line="55" id="msg29"><polygon fill="#4B5563" points="2424.1173,1986.3617,2439.7423,1992.6117,2424.1173,1998.8617,2430.3673,1992.6117" style="stroke:#4B5563;stroke-width:1.5625;"/><line style="stroke:#4B5563;stroke-width:1.5625;" x1="2164.9498" x2="2433.4923" y1="1992.6117" y2="1992.6117"/><text fill="#111827" font-family="'Malgun Gothic'" font-size="20.3125" lengthAdjust="spacing" textLength="92.5171" x="2175.8873" y="1984.5772">load head</text></g><g class="message" data-entity-1="part10" data-entity-2="part9" data-source-line="56" id="msg30"><polygon fill="#4B5563" points="2182.1373,2035.2539,2166.5123,2041.5039,2182.1373,2047.7539,2175.8873,2041.5039" style="stroke:#4B5563;stroke-width:1.5625;"/><line style="stroke:#4B5563;stroke-width:1.5625;stroke-dasharray:3.125,3.125;" x1="2172.7623" x2="2441.3048" y1="2041.5039" y2="2041.5039"/><text fill="#111827" font-family="'Malgun Gothic'" font-size="20.3125" lengthAdjust="spacing" textLength="240.4175" x="2191.5123" y="2033.4694">revision N + payloadHash</text></g><g class="message" data-entity-1="part9" data-entity-2="part7" data-source-line="57" id="msg31"><polygon fill="#4B5563" points="1775.531,2084.1461,1759.906,2090.3961,1775.531,2096.6461,1769.281,2090.3961" style="stroke:#4B5563;stroke-width:1.5625;"/><line style="stroke:#4B5563;stroke-width:1.5625;stroke-dasharray:3.125,3.125;" x1="1766.156" x2="2163.3873" y1="2090.3961" y2="2090.3961"/><text fill="#111827" font-family="'Malgun Gothic'" font-size="20.3125" lengthAdjust="spacing" textLength="120.0302" x="1784.906" y="2082.3616">verified head</text></g><g class="message" data-entity-1="part7" data-entity-2="part6" data-source-line="58" id="msg32"><polygon fill="#4B5563" points="1362.2894,2160.0555,1346.6644,2166.3055,1362.2894,2172.5555,1356.0394,2166.3055" style="stroke:#4B5563;stroke-width:1.5625;"/><line style="stroke:#4B5563;stroke-width:1.5625;" x1="1352.9144" x2="1756.781" y1="2166.3055" y2="2166.3055"/><text fill="#111827" font-family="'Malgun Gothic'" font-size="20.3125" lengthAdjust="spacing" textLength="149.5766" x="1371.6644" y="2131.2538">operation acked</text><text fill="#111827" font-family="'Malgun Gothic'" font-size="20.3125" lengthAdjust="spacing" textLength="363.7108" x="1371.6644" y="2158.271">following pending expectedRevision=N</text></g><g class="message" data-entity-1="part7" data-entity-2="part11" data-source-line="59" id="msg33"><polygon fill="#4B5563" points="2548.9822,2208.9478,2564.6072,2215.1978,2548.9822,2221.4478,2555.2322,2215.1978" style="stroke:#4B5563;stroke-width:1.5625;"/><line style="stroke:#4B5563;stroke-width:1.5625;" x1="1758.3435" x2="2558.3572" y1="2215.1978" y2="2215.1978"/><text fill="#111827" font-family="'Malgun Gothic'" font-size="20.3125" lengthAdjust="spacing" textLength="150.1518" x="1769.281" y="2207.1632">&#49436;&#48260; &#183; rN &#51200;&#51109;&#46120;</text></g><g class="message" data-entity-1="part7" data-entity-2="part8" data-source-line="60" id="msg34"><polygon fill="#4B5563" points="1980.8037,2257.84,1996.4287,2264.09,1980.8037,2270.34,1987.0537,2264.09" style="stroke:#4B5563;stroke-width:1.5625;"/><line style="stroke:#4B5563;stroke-width:1.5625;" x1="1758.3435" x2="1990.1787" y1="2264.09" y2="2264.09"/><text fill="#111827" font-family="'Malgun Gothic'" font-size="20.3125" lengthAdjust="spacing" textLength="64.151" x="1769.281" y="2256.0555">release</text></g><g class="caption" data-source-line="62"><text fill="#111827" font-family="'Malgun Gothic'" font-size="21.875" lengthAdjust="spacing" textLength="892.6132" x="864.3326" y="2440.4312">&#47196;&#52972; &#50756;&#47308;&#45716; IndexedDB &#44160;&#51613; &#49884;&#51216;&#51060;&#47728;, &#49436;&#48260; &#50756;&#47308;&#45716; &#44057;&#51008; operation&#51032; head &#44160;&#51613; &#49884;&#51216;&#51060;&#45796;.</text></g><?plantuml-src ZLLDRzis6BxpLxpBAK7gThq6s00dBJQZHPer2ten430I4tEHH86Y4tid5zLfRh4CMu6cimiFQuSDwC595gJ3iaj-ZaJ_XxsKA5joqc4dq-JpVZ_Fgqzuu7Xjby5sfBeUknssVOyehZm6Np-ghTw7J-_2rGMalmpqt-z1lnxhU0HwrDDltYLdbw27FwJzSz23aUw_1VtclUuFqkzZGgYZX8IjY4aIKgcumqCQA5YeXo7SWRhoQ0HyLrAVBG0UxxiSyLNe1fKCVzU4a2uFABvdqFow2bqNqgSU_vQvK7Tfg5WEjUSvjqn6F58iS1WyO39WNeRDZyIbYkxGYC528t1PXxdtLhFdnhtLgfj7RRKZEl14o7qRBJzMKKyanmJWeN3sCumvL16RxJ0F-7XZBOFWRocB3H6fFSasltgOFSvdePyzdJmRm5OZUzrg469Q3hNFRKTX1T8NOptySnAF8Jth9QV_4FjInZZ23wdYEzpZgWi-brB8Ph0CBfVcFyqA8zHJTdBM4y3CbvtM2aG13QEMK8kcW2zOm2Hw5i4IeYscZ9wyYf4ri3V56LQbVyN9-L79e9nhVUt1uWo-VBVgs8uSSTHn61vTc_8oh4hkxZ72FEoheU4DHSoipGHgJei6nY9m2IcUAYXqStMH-R-woDt30V8GZLdP8ESMuWyD7JQB1eMqwmdgtWB9VA7O4h4uj42wbLg9oOUO10_sG6IqQnev-Dm19MaGeTQm4yJOrChH9ADkROSw-z2YKUkE8zgecrcC_vm-9ECJtH_Dam2bFqXEnYKlMmt3iNmzuAB8LqDwz7ipqF4WFOrdbv0-xoKVneJaGZ76HWwcBNWHXHG5UPZhPVBwHVhZi0JC--5ubFiWF9T5gkZ8j6mBNW4HMcuqN1ESTKBc80yUimCUuQsvivql1K3LeIaFsJPsm-SAro4ESJ721LLsk4GC4F5PFjC7R7NeqIvCZb_guOTc88jOQ_LDd5LeSZL3bE8RbWyh4vCUlKG1soMAHBILvBbCVQpZInQrN6JfDIEqRRQEJvApSvZy75TNyyUTGrulDgW8qob7YK8He7iFrn2-pmya6H_hOQ_SeFJTPJ4PFRX4Ng3CpfEBNiMuo479xWqTjcdCznYdQRli2R7V3kTBOXtSwaOY_xTnXWYvHwmzq_XDT30ysMwXaXQhipVtOEx9nngxND3iIrGVkPR80PDybpFhPBwpCsgXVfdR37Q5vub3Kr-n2kQ9_TbwoKicova2vVfCcTVr9vd7S5aJuk3ACZ6Bp_rndFxwFFtk9vX-324vxUdVXe3VUJqwmWzB-iVurfHzK_myCVJmLLRdTVF-szl_0W00?></g></svg>