<svg xmlns="http://www.w3.org/2000/svg" xmlns:xlink="http://www.w3.org/1999/xlink" contentStyleType="text/css" data-diagram-type="ACTIVITY" height="2314.0625px" preserveAspectRatio="none" style="width:1301px;height:2314px;background:#FFFFFF;" version="1.1" viewBox="0 0 1301 2314" width="1301.5625px" zoomAndPan="magnify"><?plantuml 1.2026.3?><defs/><g><g class="title" data-source-line="2"><text fill="#111827" font-family="'Malgun Gothic'" font-size="21.875" font-weight="700" lengthAdjust="spacing" textLength="433.783" x="433.0856" y="55.0583">TO-BE 02 &#183; &#49884;&#51089; &#48373;&#44396;&#50752; &#49436;&#48260; &#52649;&#46028; &#51032;&#49324;&#44208;&#51221;</text></g><ellipse cx="795.6984" cy="100.9705" fill="#222222" rx="15.625" ry="15.625" style="stroke:#222222;stroke-width:1.5625;"/><rect fill="#F8FAFC" height="56.189" rx="6.25" ry="6.25" style="stroke:#475569;stroke-width:0.7813;" width="324.7131" x="633.3418" y="147.8455"/><text fill="#111827" font-family="'Malgun Gothic'" font-size="18.75" lengthAdjust="spacing" textLength="293.4631" x="648.9668" y="183.8776">IndexedDB working snapshot &#51069;&#44592;</text><polygon fill="#F8FAFC" points="696.266,235.2844,895.1307,235.2844,913.8807,254.0344,895.1307,272.7844,696.266,272.7844,677.516,254.0344,696.266,235.2844" style="stroke:#475569;stroke-width:0.7813;"/><text fill="#111827" font-family="'Malgun Gothic'" font-size="17.1875" lengthAdjust="spacing" textLength="198.8647" x="696.266" y="261.3106">legacy dirty marker &#51316;&#51116;?</text><text fill="#111827" font-family="'Malgun Gothic'" font-size="17.1875" lengthAdjust="spacing" textLength="25.1099" x="652.4061" y="249.8802">yes</text><text fill="#111827" font-family="'Malgun Gothic'" font-size="17.1875" lengthAdjust="spacing" textLength="20.2339" x="913.8807" y="249.8802">no</text><rect fill="#F8FAFC" height="56.189" rx="6.25" ry="6.25" style="stroke:#475569;stroke-width:0.7813;" width="333.6945" x="361.134" y="288.4094"/><text fill="#111827" font-family="'Malgun Gothic'" font-size="18.75" lengthAdjust="spacing" textLength="302.4445" x="376.759" y="324.4415">App&#183;Atlas&#183;Bridge legacy mirror &#51069;&#44592;</text><rect fill="#F8FAFC" height="56.189" rx="6.25" ry="6.25" style="stroke:#475569;stroke-width:0.7813;" width="192.0715" x="431.9454" y="399.2859"/><text fill="#111827" font-family="'Malgun Gothic'" font-size="18.75" lengthAdjust="spacing" textLength="160.8215" x="447.5704" y="435.318">&#44277;&#50976; invariant &#44160;&#51613;</text><polygon fill="#F8FAFC" points="489.6534,510.1624,566.309,510.1624,585.059,528.9124,566.309,547.6624,489.6534,547.6624,470.9034,528.9124,489.6534,510.1624" style="stroke:#475569;stroke-width:0.7813;"/><text fill="#111827" font-family="'Malgun Gothic'" font-size="17.1875" lengthAdjust="spacing" textLength="76.6556" x="489.6534" y="536.1885">&#50976;&#54952;&#54620;&#44032;?</text><text fill="#111827" font-family="'Malgun Gothic'" font-size="17.1875" lengthAdjust="spacing" textLength="25.1099" x="445.7935" y="524.7581">yes</text><text fill="#111827" font-family="'Malgun Gothic'" font-size="17.1875" lengthAdjust="spacing" textLength="20.2339" x="585.059" y="524.7581">no</text><rect fill="#F8FAFC" height="56.189" rx="6.25" ry="6.25" style="stroke:#475569;stroke-width:0.7813;" width="253.8055" x="198.008" y="563.2874"/><text fill="#111827" font-family="'Malgun Gothic'" font-size="18.75" lengthAdjust="spacing" textLength="222.5555" x="213.633" y="599.3195">&#54788;&#51116; canonical checkpoint</text><rect fill="#F8FAFC" height="56.189" rx="6.25" ry="6.25" style="stroke:#475569;stroke-width:0.7813;" width="326.3153" x="161.7531" y="650.7263"/><text fill="#111827" font-family="'Malgun Gothic'" font-size="18.75" lengthAdjust="spacing" textLength="295.0653" x="177.3781" y="686.7584">legacy payload&#47484; canonical&#47196; &#44592;&#47197;</text><rect fill="#F8FAFC" height="56.189" rx="6.25" ry="6.25" style="stroke:#475569;stroke-width:0.7813;" width="261.9171" x="193.9522" y="738.1653"/><text fill="#111827" font-family="'Malgun Gothic'" font-size="18.75" lengthAdjust="spacing" textLength="230.6671" x="209.5772" y="774.1974">read-back hash/count &#44160;&#51613;</text><polygon fill="#F8FAFC" points="283.5617,825.6042,366.2598,825.6042,385.0098,844.3542,366.2598,863.1042,283.5617,863.1042,264.8117,844.3542,283.5617,825.6042" style="stroke:#475569;stroke-width:0.7813;"/><text fill="#111827" font-family="'Malgun Gothic'" font-size="17.1875" lengthAdjust="spacing" textLength="82.6981" x="283.5617" y="851.6304">&#44160;&#51613; &#49457;&#44277;?</text><text fill="#111827" font-family="'Malgun Gothic'" font-size="17.1875" lengthAdjust="spacing" textLength="25.1099" x="239.7018" y="840.2">yes</text><text fill="#111827" font-family="'Malgun Gothic'" font-size="17.1875" lengthAdjust="spacing" textLength="20.2339" x="385.0098" y="840.2">no</text><rect fill="#F8FAFC" height="56.189" rx="6.25" ry="6.25" style="stroke:#475569;stroke-width:0.7813;" width="179.1901" x="87.8372" y="878.7292"/><text fill="#111827" font-family="'Malgun Gothic'" font-size="18.75" lengthAdjust="spacing" textLength="147.9401" x="103.4622" y="914.7614">dirty marker &#51228;&#44144;</text><rect fill="#F8FAFC" height="56.189" rx="6.25" ry="6.25" style="stroke:#475569;stroke-width:0.7813;" width="304.8645" x="25" y="966.1682"/><text fill="#111827" font-family="'Malgun Gothic'" font-size="18.75" lengthAdjust="spacing" textLength="273.6145" x="40.625" y="1002.2003">&#49436;&#48260; outbox &#51116;&#44060; &#45824;&#49345;&#51004;&#47196; &#54364;&#49884;</text><rect fill="#F8FAFC" height="56.189" rx="6.25" ry="6.25" style="stroke:#475569;stroke-width:0.7813;" width="222.5494" x="361.1145" y="878.7292"/><text fill="#111827" font-family="'Malgun Gothic'" font-size="18.75" lengthAdjust="spacing" textLength="191.2994" x="376.7395" y="914.7614">marker&#50752; &#44592;&#51316; &#53412; &#50976;&#51648;</text><rect fill="#F8FAFC" height="56.189" rx="6.25" ry="6.25" style="stroke:#475569;stroke-width:0.7813;" width="201.0254" x="371.8765" y="966.1682"/><text fill="#111827" font-family="'Malgun Gothic'" font-size="18.75" lengthAdjust="spacing" textLength="169.7754" x="387.5015" y="1002.2003">&#47196;&#52972; &#51200;&#51109; &#49892;&#54056; &#54364;&#49884;</text><ellipse cx="472.3892" cy="1070.7947" fill="none" rx="17.1875" ry="17.1875" style="stroke:#222222;stroke-width:1.5625;"/><ellipse cx="472.3892" cy="1070.7947" fill="#222222" rx="9.375" ry="9.375" style="stroke:#222222;stroke-width:1.5625;"/><rect fill="#F8FAFC" height="56.189" rx="6.25" ry="6.25" style="stroke:#475569;stroke-width:0.7813;" width="198.8007" x="631.6513" y="563.2874"/><text fill="#111827" font-family="'Malgun Gothic'" font-size="18.75" lengthAdjust="spacing" textLength="167.5507" x="647.2763" y="599.3195">&#44592;&#51316; canonical &#50976;&#51648;</text><rect fill="#F8FAFC" height="56.189" rx="6.25" ry="6.25" style="stroke:#475569;stroke-width:0.7813;" width="201.0254" x="630.5389" y="650.7263"/><text fill="#111827" font-family="'Malgun Gothic'" font-size="18.75" lengthAdjust="spacing" textLength="169.7754" x="646.1639" y="686.7584">&#48373;&#44396; &#52264;&#45800; &#50724;&#47448; &#54364;&#49884;</text><ellipse cx="731.0516" cy="755.3528" fill="none" rx="17.1875" ry="17.1875" style="stroke:#222222;stroke-width:1.5625;"/><ellipse cx="731.0516" cy="755.3528" fill="#222222" rx="9.375" ry="9.375" style="stroke:#222222;stroke-width:1.5625;"/><rect fill="#F8FAFC" height="56.189" rx="6.25" ry="6.25" style="stroke:#475569;stroke-width:0.7813;" width="338.7024" x="894.0643" y="365.4648"/><text fill="#111827" font-family="'Malgun Gothic'" font-size="18.75" lengthAdjust="spacing" textLength="307.4524" x="909.6893" y="401.4969">&#44160;&#51613;&#46108; canonical&#47196; UI&#50752; mirror &#48373;&#44396;</text><polygon fill="#F8FAFC" points="950.1358,288.4094,1176.6953,288.4094,1195.4453,307.1594,1176.6953,325.9094,950.1358,325.9094,931.3858,307.1594,950.1358,288.4094" style="stroke:#475569;stroke-width:0.7813;"/><text fill="#111827" font-family="'Malgun Gothic'" font-size="17.1875" lengthAdjust="spacing" textLength="25.1099" x="1069.6655" y="344.6159">yes</text><text fill="#111827" font-family="'Malgun Gothic'" font-size="17.1875" lengthAdjust="spacing" textLength="226.5594" x="950.1358" y="314.4356">canonical&#44284; mirror&#44032; &#45796;&#47480;&#44032;?</text><polygon fill="#F8FAFC" points="1063.4155,461.2091,1082.1655,479.9591,1063.4155,498.7091,1044.6655,479.9591,1063.4155,461.2091" style="stroke:#475569;stroke-width:0.7813;"/><polygon fill="#F8FAFC" points="795.6984,1103.6072,814.4484,1122.3572,795.6984,1141.1072,776.9484,1122.3572,795.6984,1103.6072" style="stroke:#475569;stroke-width:0.7813;"/><rect fill="#F8FAFC" height="81.1279" rx="6.25" ry="6.25" style="stroke:#475569;stroke-width:0.7813;" width="350.8514" x="620.2726" y="1172.3572"/><text fill="#111827" font-family="'Malgun Gothic'" font-size="18.75" lengthAdjust="spacing" textLength="237.2681" x="635.8976" y="1208.3893">&#51473;&#45800;&#46108; sending operation&#51012;</text><text fill="#111827" font-family="'Malgun Gothic'" font-size="18.75" lengthAdjust="spacing" textLength="319.6014" x="635.8976" y="1233.3282">&#44057;&#51008; operationId&#51032; pending&#51004;&#47196; &#48373;&#44480;</text><rect fill="#F8FAFC" height="56.189" rx="6.25" ry="6.25" style="stroke:#475569;stroke-width:0.7813;" width="205.0537" x="693.1715" y="1284.7351"/><text fill="#111827" font-family="'Malgun Gothic'" font-size="18.75" lengthAdjust="spacing" textLength="173.8037" x="708.7965" y="1320.7672">Supabase head &#51069;&#44592;</text><polygon fill="#F8FAFC" points="691.5495,1372.1741,899.8472,1372.1741,918.5972,1390.9241,899.8472,1409.6741,691.5495,1409.6741,672.7995,1390.9241,691.5495,1372.1741" style="stroke:#475569;stroke-width:0.7813;"/><text fill="#111827" font-family="'Malgun Gothic'" font-size="17.1875" lengthAdjust="spacing" textLength="208.2977" x="691.5495" y="1398.2002">local hash = remote hash?</text><text fill="#111827" font-family="'Malgun Gothic'" font-size="17.1875" lengthAdjust="spacing" textLength="25.1099" x="647.6896" y="1386.7699">yes</text><text fill="#111827" font-family="'Malgun Gothic'" font-size="17.1875" lengthAdjust="spacing" textLength="20.2339" x="918.5972" y="1386.7699">no</text><rect fill="#F8FAFC" height="56.189" rx="6.25" ry="6.25" style="stroke:#475569;stroke-width:0.7813;" width="195.9534" x="481.8316" y="1425.2991"/><text fill="#111827" font-family="'Malgun Gothic'" font-size="18.75" lengthAdjust="spacing" textLength="164.7034" x="497.4566" y="1461.3312">serverRevision &#44081;&#49888;</text><rect fill="#F8FAFC" height="56.189" rx="6.25" ry="6.25" style="stroke:#475569;stroke-width:0.7813;" width="207.2784" x="476.169" y="1536.1755"/><text fill="#111827" font-family="'Malgun Gothic'" font-size="18.75" lengthAdjust="spacing" textLength="176.0284" x="491.794" y="1572.2076">&#51068;&#52824;&#54616;&#45716; outbox ack</text><rect fill="#F8FAFC" height="56.189" rx="6.25" ry="6.25" style="stroke:#475569;stroke-width:0.7813;" width="131.5918" x="514.0123" y="1647.052"/><text fill="#111827" font-family="'Malgun Gothic'" font-size="18.75" lengthAdjust="spacing" textLength="100.3418" x="529.6373" y="1683.0841">&#49436;&#48260; &#51200;&#51109;&#46120;</text><ellipse cx="579.8082" cy="1751.6785" fill="none" rx="17.1875" ry="17.1875" style="stroke:#222222;stroke-width:1.5625;"/><ellipse cx="579.8082" cy="1751.6785" fill="#222222" rx="9.375" ry="9.375" style="stroke:#222222;stroke-width:1.5625;"/><polygon fill="#F8FAFC" points="895.8666,1425.2991,1127.3104,1425.2991,1146.0604,1444.0491,1127.3104,1462.7991,895.8666,1462.7991,877.1166,1444.0491,895.8666,1425.2991" style="stroke:#475569;stroke-width:0.7813;"/><text fill="#111827" font-family="'Malgun Gothic'" font-size="17.1875" lengthAdjust="spacing" textLength="231.4438" x="895.8666" y="1451.3252">local base = remote revision?</text><text fill="#111827" font-family="'Malgun Gothic'" font-size="17.1875" lengthAdjust="spacing" textLength="25.1099" x="852.0067" y="1439.8949">yes</text><text fill="#111827" font-family="'Malgun Gothic'" font-size="17.1875" lengthAdjust="spacing" textLength="20.2339" x="1146.0604" y="1439.8949">no</text><rect fill="#F8FAFC" height="56.189" rx="6.25" ry="6.25" style="stroke:#475569;stroke-width:0.7813;" width="262.3383" x="730.3225" y="1478.4241"/><text fill="#111827" font-family="'Malgun Gothic'" font-size="18.75" lengthAdjust="spacing" textLength="231.0883" x="745.9475" y="1514.4562">outbox worker&#47196; &#51088;&#46041; &#52964;&#48139;</text><ellipse cx="861.4916" cy="1606.488" fill="none" rx="17.1875" ry="17.1875" style="stroke:#222222;stroke-width:1.5625;"/><ellipse cx="861.4916" cy="1606.488" fill="#222222" rx="9.375" ry="9.375" style="stroke:#222222;stroke-width:1.5625;"/><rect fill="#F8FAFC" height="56.189" rx="6.25" ry="6.25" style="stroke:#475569;stroke-width:0.7813;" width="194.4336" x="1064.4686" y="1478.4241"/><text fill="#111827" font-family="'Malgun Gothic'" font-size="18.75" lengthAdjust="spacing" textLength="163.1836" x="1080.0936" y="1514.4562">&#51088;&#46041; &#45934;&#50612;&#50416;&#44592; &#51473;&#45800;</text><rect fill="#F8FAFC" height="56.189" rx="6.25" ry="6.25" style="stroke:#475569;stroke-width:0.7813;" width="156.9336" x="1083.2186" y="1589.3005"/><text fill="#111827" font-family="'Malgun Gothic'" font-size="18.75" lengthAdjust="spacing" textLength="125.6836" x="1098.8436" y="1625.3326">&#52649;&#46028; &#49345;&#53468; &#54364;&#49884;</text><polygon fill="#F8FAFC" points="749.7084,1800.116,841.6883,1800.116,860.4383,1818.866,841.6883,1837.616,749.7084,1837.616,730.9584,1818.866,749.7084,1800.116" style="stroke:#475569;stroke-width:0.7813;"/><text fill="#111827" font-family="'Malgun Gothic'" font-size="17.1875" lengthAdjust="spacing" textLength="91.98" x="749.7084" y="1826.1421">&#49324;&#50857;&#51088; &#49440;&#53469;</text><text fill="#111827" font-family="'Malgun Gothic'" font-size="17.1875" lengthAdjust="spacing" textLength="74.7925" x="656.1659" y="1814.7118">&#49436;&#48260; &#51201;&#50857;</text><text fill="#111827" font-family="'Malgun Gothic'" font-size="17.1875" lengthAdjust="spacing" textLength="74.7925" x="860.4383" y="1814.7118">&#47196;&#52972; &#50976;&#51648;</text><rect fill="#F8FAFC" height="56.189" rx="6.25" ry="6.25" style="stroke:#475569;stroke-width:0.7813;" width="211.9385" x="498.0101" y="1853.241"/><text fill="#111827" font-family="'Malgun Gothic'" font-size="18.75" lengthAdjust="spacing" textLength="180.6885" x="513.6351" y="1889.2731">&#54788;&#51116; &#47196;&#52972; checkpoint</text><rect fill="#F8FAFC" height="56.189" rx="6.25" ry="6.25" style="stroke:#475569;stroke-width:0.7813;" width="308.1146" x="449.922" y="1940.6799"/><text fill="#111827" font-family="'Malgun Gothic'" font-size="18.75" lengthAdjust="spacing" textLength="276.8646" x="465.547" y="1976.712">&#49436;&#48260; revision&#51012; canonical&#47196; &#44592;&#47197;</text><rect fill="#F8FAFC" height="56.189" rx="6.25" ry="6.25" style="stroke:#475569;stroke-width:0.7813;" width="228.0426" x="489.958" y="2028.1189"/><text fill="#111827" font-family="'Malgun Gothic'" font-size="18.75" lengthAdjust="spacing" textLength="196.7926" x="505.583" y="2064.151">&#50676;&#47536; outbox supersede</text><rect fill="#F8FAFC" height="56.189" rx="6.25" ry="6.25" style="stroke:#475569;stroke-width:0.7813;" width="189.9017" x="509.0284" y="2115.5579"/><text fill="#111827" font-family="'Malgun Gothic'" font-size="18.75" lengthAdjust="spacing" textLength="158.6517" x="524.6534" y="2151.59">UI&#50752; mirror&#50640; &#51201;&#50857;</text><rect fill="#F8FAFC" height="56.189" rx="6.25" ry="6.25" style="stroke:#475569;stroke-width:0.7813;" width="211.9385" x="881.4482" y="1853.241"/><text fill="#111827" font-family="'Malgun Gothic'" font-size="18.75" lengthAdjust="spacing" textLength="180.6885" x="897.0732" y="1889.2731">&#54788;&#51116; &#47196;&#52972; checkpoint</text><rect fill="#F8FAFC" height="56.189" rx="6.25" ry="6.25" style="stroke:#475569;stroke-width:0.7813;" width="396.2616" x="789.2866" y="1940.6799"/><text fill="#111827" font-family="'Malgun Gothic'" font-size="18.75" lengthAdjust="spacing" textLength="365.0116" x="804.9116" y="1976.712">&#49436;&#48260; head&#47484; &#49352; expectedRevision&#51004;&#47196; &#52292;&#53469;</text><rect fill="#F8FAFC" height="56.189" rx="6.25" ry="6.25" style="stroke:#475569;stroke-width:0.7813;" width="294.4458" x="840.1945" y="2028.1189"/><text fill="#111827" font-family="'Malgun Gothic'" font-size="18.75" lengthAdjust="spacing" textLength="263.1958" x="855.8195" y="2064.151">&#44592;&#51316; &#52649;&#46028; operation supersede</text><rect fill="#F8FAFC" height="56.189" rx="6.25" ry="6.25" style="stroke:#475569;stroke-width:0.7813;" width="347.8394" x="813.4977" y="2115.5579"/><text fill="#111827" font-family="'Malgun Gothic'" font-size="18.75" lengthAdjust="spacing" textLength="316.5894" x="829.1227" y="2151.59">&#47196;&#52972;&#51012; &#45796;&#51020; revision&#51004;&#47196; &#47749;&#49884;&#51201; &#52964;&#48139;</text><polygon fill="#F8FAFC" points="795.6984,2181.1218,814.4484,2199.8718,795.6984,2218.6218,776.9484,2199.8718,795.6984,2181.1218" style="stroke:#475569;stroke-width:0.7813;"/><ellipse cx="795.6984" cy="2267.0593" fill="none" rx="17.1875" ry="17.1875" style="stroke:#222222;stroke-width:1.5625;"/><ellipse cx="795.6984" cy="2267.0593" fill="#222222" rx="9.375" ry="9.375" style="stroke:#222222;stroke-width:1.5625;"/><line style="stroke:#4B5563;stroke-width:1.5625;" x1="795.6984" x2="795.6984" y1="116.5955" y2="147.8455"/><polygon fill="#4B5563" points="789.4484,132.2205,795.6984,147.8455,801.9484,132.2205,795.6984,138.4705" style="stroke:#4B5563;stroke-width:1.5625;"/><line style="stroke:#4B5563;stroke-width:1.5625;" x1="527.9812" x2="527.9812" y1="344.5984" y2="399.2859"/><polygon fill="#4B5563" points="521.7312,383.6609,527.9812,399.2859,534.2312,383.6609,527.9812,389.9109" style="stroke:#4B5563;stroke-width:1.5625;"/><line style="stroke:#4B5563;stroke-width:1.5625;" x1="324.9107" x2="324.9107" y1="619.4763" y2="650.7263"/><polygon fill="#4B5563" points="318.6607,635.1013,324.9107,650.7263,331.1607,635.1013,324.9107,641.3513" style="stroke:#4B5563;stroke-width:1.5625;"/><line style="stroke:#4B5563;stroke-width:1.5625;" x1="324.9107" x2="324.9107" y1="706.9153" y2="738.1653"/><polygon fill="#4B5563" points="318.6607,722.5403,324.9107,738.1653,331.1607,722.5403,324.9107,728.7903" style="stroke:#4B5563;stroke-width:1.5625;"/><line style="stroke:#4B5563;stroke-width:1.5625;" x1="177.4323" x2="177.4323" y1="934.9182" y2="966.1682"/><polygon fill="#4B5563" points="171.1823,950.5432,177.4323,966.1682,183.6823,950.5432,177.4323,956.7932" style="stroke:#4B5563;stroke-width:1.5625;"/><line style="stroke:#4B5563;stroke-width:1.5625;" x1="472.3892" x2="472.3892" y1="934.9182" y2="966.1682"/><polygon fill="#4B5563" points="466.1392,950.5432,472.3892,966.1682,478.6392,950.5432,472.3892,956.7932" style="stroke:#4B5563;stroke-width:1.5625;"/><line style="stroke:#4B5563;stroke-width:1.5625;" x1="472.3892" x2="472.3892" y1="1022.3572" y2="1053.6072"/><polygon fill="#4B5563" points="466.1392,1037.9822,472.3892,1053.6072,478.6392,1037.9822,472.3892,1044.2322" style="stroke:#4B5563;stroke-width:1.5625;"/><line style="stroke:#4B5563;stroke-width:1.5625;" x1="264.8117" x2="177.4323" y1="844.3542" y2="844.3542"/><line style="stroke:#4B5563;stroke-width:1.5625;" x1="177.4323" x2="177.4323" y1="844.3542" y2="878.7292"/><polygon fill="#4B5563" points="171.1823,863.1042,177.4323,878.7292,183.6823,863.1042,177.4323,869.3542" style="stroke:#4B5563;stroke-width:1.5625;"/><line style="stroke:#4B5563;stroke-width:1.5625;" x1="385.0098" x2="472.3892" y1="844.3542" y2="844.3542"/><line style="stroke:#4B5563;stroke-width:1.5625;" x1="472.3892" x2="472.3892" y1="844.3542" y2="878.7292"/><polygon fill="#4B5563" points="466.1392,863.1042,472.3892,878.7292,478.6392,863.1042,472.3892,869.3542" style="stroke:#4B5563;stroke-width:1.5625;"/><line style="stroke:#4B5563;stroke-width:1.5625;" x1="177.4323" x2="177.4323" y1="1022.3572" y2="1122.3572"/><line style="stroke:#4B5563;stroke-width:1.5625;" x1="177.4323" x2="776.9484" y1="1122.3572" y2="1122.3572"/><polygon fill="#4B5563" points="761.3234,1116.1072,776.9484,1122.3572,761.3234,1128.6072,767.5734,1122.3572" style="stroke:#4B5563;stroke-width:1.5625;"/><line style="stroke:#4B5563;stroke-width:1.5625;" x1="324.9107" x2="324.9107" y1="794.3542" y2="825.6042"/><polygon fill="#4B5563" points="318.6607,809.9792,324.9107,825.6042,331.1607,809.9792,324.9107,816.2292" style="stroke:#4B5563;stroke-width:1.5625;"/><line style="stroke:#4B5563;stroke-width:1.5625;" x1="731.0516" x2="731.0516" y1="619.4763" y2="650.7263"/><polygon fill="#4B5563" points="724.8016,635.1013,731.0516,650.7263,737.3016,635.1013,731.0516,641.3513" style="stroke:#4B5563;stroke-width:1.5625;"/><line style="stroke:#4B5563;stroke-width:1.5625;" x1="731.0516" x2="731.0516" y1="706.9153" y2="738.1653"/><polygon fill="#4B5563" points="724.8016,722.5403,731.0516,738.1653,737.3016,722.5403,731.0516,728.7903" style="stroke:#4B5563;stroke-width:1.5625;"/><line style="stroke:#4B5563;stroke-width:1.5625;" x1="470.9034" x2="324.9107" y1="528.9124" y2="528.9124"/><line style="stroke:#4B5563;stroke-width:1.5625;" x1="324.9107" x2="324.9107" y1="528.9124" y2="563.2874"/><polygon fill="#4B5563" points="318.6607,547.6624,324.9107,563.2874,331.1607,547.6624,324.9107,553.9124" style="stroke:#4B5563;stroke-width:1.5625;"/><line style="stroke:#4B5563;stroke-width:1.5625;" x1="585.059" x2="731.0516" y1="528.9124" y2="528.9124"/><line style="stroke:#4B5563;stroke-width:1.5625;" x1="731.0516" x2="731.0516" y1="528.9124" y2="563.2874"/><polygon fill="#4B5563" points="724.8016,547.6624,731.0516,563.2874,737.3016,547.6624,731.0516,553.9124" style="stroke:#4B5563;stroke-width:1.5625;"/><line style="stroke:#4B5563;stroke-width:1.5625;" x1="527.9812" x2="527.9812" y1="455.4749" y2="510.1624"/><polygon fill="#4B5563" points="521.7312,494.5374,527.9812,510.1624,534.2312,494.5374,527.9812,500.7874" style="stroke:#4B5563;stroke-width:1.5625;"/><line style="stroke:#4B5563;stroke-width:1.5625;" x1="1063.4155" x2="1063.4155" y1="325.9094" y2="365.4648"/><polygon fill="#4B5563" points="1057.1655,349.8398,1063.4155,365.4648,1069.6655,349.8398,1063.4155,356.0898" style="stroke:#4B5563;stroke-width:1.5625;"/><line style="stroke:#4B5563;stroke-width:1.5625;" x1="1195.4453" x2="1248.3917" y1="307.1594" y2="307.1594"/><polygon fill="#4B5563" points="1242.1417,377.9343,1248.3917,393.5593,1254.6417,377.9343,1248.3917,384.1843" style="stroke:#4B5563;stroke-width:1.5625;"/><line style="stroke:#4B5563;stroke-width:1.5625;" x1="1248.3917" x2="1248.3917" y1="307.1594" y2="479.9591"/><line style="stroke:#4B5563;stroke-width:1.5625;" x1="1248.3917" x2="1082.1655" y1="479.9591" y2="479.9591"/><polygon fill="#4B5563" points="1097.7905,473.7091,1082.1655,479.9591,1097.7905,486.2091,1091.5405,479.9591" style="stroke:#4B5563;stroke-width:1.5625;"/><line style="stroke:#4B5563;stroke-width:1.5625;" x1="1063.4155" x2="1063.4155" y1="421.6537" y2="461.2091"/><polygon fill="#4B5563" points="1057.1655,445.5841,1063.4155,461.2091,1069.6655,445.5841,1063.4155,451.8341" style="stroke:#4B5563;stroke-width:1.5625;"/><line style="stroke:#4B5563;stroke-width:1.5625;" x1="677.516" x2="527.9812" y1="254.0344" y2="254.0344"/><line style="stroke:#4B5563;stroke-width:1.5625;" x1="527.9812" x2="527.9812" y1="254.0344" y2="288.4094"/><polygon fill="#4B5563" points="521.7312,272.7844,527.9812,288.4094,534.2312,272.7844,527.9812,279.0344" style="stroke:#4B5563;stroke-width:1.5625;"/><line style="stroke:#4B5563;stroke-width:1.5625;" x1="913.8807" x2="1063.4155" y1="254.0344" y2="254.0344"/><line style="stroke:#4B5563;stroke-width:1.5625;" x1="1063.4155" x2="1063.4155" y1="254.0344" y2="288.4094"/><polygon fill="#4B5563" points="1057.1655,272.7844,1063.4155,288.4094,1069.6655,272.7844,1063.4155,279.0344" style="stroke:#4B5563;stroke-width:1.5625;"/><line style="stroke:#4B5563;stroke-width:1.5625;" x1="1063.4155" x2="1063.4155" y1="498.7091" y2="1122.3572"/><line style="stroke:#4B5563;stroke-width:1.5625;" x1="1063.4155" x2="814.4484" y1="1122.3572" y2="1122.3572"/><polygon fill="#4B5563" points="830.0734,1116.1072,814.4484,1122.3572,830.0734,1128.6072,823.8234,1122.3572" style="stroke:#4B5563;stroke-width:1.5625;"/><line style="stroke:#4B5563;stroke-width:1.5625;" x1="795.6984" x2="795.6984" y1="204.0344" y2="235.2844"/><polygon fill="#4B5563" points="789.4484,219.6594,795.6984,235.2844,801.9484,219.6594,795.6984,225.9094" style="stroke:#4B5563;stroke-width:1.5625;"/><line style="stroke:#4B5563;stroke-width:1.5625;" x1="795.6984" x2="795.6984" y1="1141.1072" y2="1172.3572"/><polygon fill="#4B5563" points="789.4484,1156.7322,795.6984,1172.3572,801.9484,1156.7322,795.6984,1162.9822" style="stroke:#4B5563;stroke-width:1.5625;"/><line style="stroke:#4B5563;stroke-width:1.5625;" x1="795.6984" x2="795.6984" y1="1253.4851" y2="1284.7351"/><polygon fill="#4B5563" points="789.4484,1269.1101,795.6984,1284.7351,801.9484,1269.1101,795.6984,1275.3601" style="stroke:#4B5563;stroke-width:1.5625;"/><line style="stroke:#4B5563;stroke-width:1.5625;" x1="579.8082" x2="579.8082" y1="1481.488" y2="1536.1755"/><polygon fill="#4B5563" points="573.5582,1520.5505,579.8082,1536.1755,586.0582,1520.5505,579.8082,1526.8005" style="stroke:#4B5563;stroke-width:1.5625;"/><line style="stroke:#4B5563;stroke-width:1.5625;" x1="579.8082" x2="579.8082" y1="1592.3645" y2="1647.052"/><polygon fill="#4B5563" points="573.5582,1631.427,579.8082,1647.052,586.0582,1631.427,579.8082,1637.677" style="stroke:#4B5563;stroke-width:1.5625;"/><line style="stroke:#4B5563;stroke-width:1.5625;" x1="579.8082" x2="579.8082" y1="1703.241" y2="1734.491"/><polygon fill="#4B5563" points="573.5582,1718.866,579.8082,1734.491,586.0582,1718.866,579.8082,1725.116" style="stroke:#4B5563;stroke-width:1.5625;"/><line style="stroke:#4B5563;stroke-width:1.5625;" x1="861.4916" x2="861.4916" y1="1534.613" y2="1589.3005"/><polygon fill="#4B5563" points="855.2416,1573.6755,861.4916,1589.3005,867.7416,1573.6755,861.4916,1579.9255" style="stroke:#4B5563;stroke-width:1.5625;"/><line style="stroke:#4B5563;stroke-width:1.5625;" x1="1161.6854" x2="1161.6854" y1="1534.613" y2="1589.3005"/><polygon fill="#4B5563" points="1155.4354,1573.6755,1161.6854,1589.3005,1167.9354,1573.6755,1161.6854,1579.9255" style="stroke:#4B5563;stroke-width:1.5625;"/><line style="stroke:#4B5563;stroke-width:1.5625;" x1="877.1166" x2="861.4916" y1="1444.0491" y2="1444.0491"/><line style="stroke:#4B5563;stroke-width:1.5625;" x1="861.4916" x2="861.4916" y1="1444.0491" y2="1478.4241"/><polygon fill="#4B5563" points="855.2416,1462.7991,861.4916,1478.4241,867.7416,1462.7991,861.4916,1469.0491" style="stroke:#4B5563;stroke-width:1.5625;"/><line style="stroke:#4B5563;stroke-width:1.5625;" x1="1146.0604" x2="1161.6854" y1="1444.0491" y2="1444.0491"/><line style="stroke:#4B5563;stroke-width:1.5625;" x1="1161.6854" x2="1161.6854" y1="1444.0491" y2="1478.4241"/><polygon fill="#4B5563" points="1155.4354,1462.7991,1161.6854,1478.4241,1167.9354,1462.7991,1161.6854,1469.0491" style="stroke:#4B5563;stroke-width:1.5625;"/><line style="stroke:#4B5563;stroke-width:1.5625;" x1="1161.6854" x2="1161.6854" y1="1645.4895" y2="1776.6785"/><line style="stroke:#4B5563;stroke-width:1.5625;" x1="1161.6854" x2="795.6984" y1="1776.6785" y2="1776.6785"/><line style="stroke:#4B5563;stroke-width:1.5625;" x1="795.6984" x2="795.6984" y1="1776.6785" y2="1800.116"/><polygon fill="#4B5563" points="789.4484,1784.491,795.6984,1800.116,801.9484,1784.491,795.6984,1790.741" style="stroke:#4B5563;stroke-width:1.5625;"/><line style="stroke:#4B5563;stroke-width:1.5625;" x1="672.7995" x2="579.8082" y1="1390.9241" y2="1390.9241"/><line style="stroke:#4B5563;stroke-width:1.5625;" x1="579.8082" x2="579.8082" y1="1390.9241" y2="1425.2991"/><polygon fill="#4B5563" points="573.5582,1409.6741,579.8082,1425.2991,586.0582,1409.6741,579.8082,1415.9241" style="stroke:#4B5563;stroke-width:1.5625;"/><line style="stroke:#4B5563;stroke-width:1.5625;" x1="918.5972" x2="1011.5885" y1="1390.9241" y2="1390.9241"/><line style="stroke:#4B5563;stroke-width:1.5625;" x1="1011.5885" x2="1011.5885" y1="1390.9241" y2="1425.2991"/><polygon fill="#4B5563" points="1005.3385,1409.6741,1011.5885,1425.2991,1017.8385,1409.6741,1011.5885,1415.9241" style="stroke:#4B5563;stroke-width:1.5625;"/><line style="stroke:#4B5563;stroke-width:1.5625;" x1="795.6984" x2="795.6984" y1="1340.9241" y2="1372.1741"/><polygon fill="#4B5563" points="789.4484,1356.5491,795.6984,1372.1741,801.9484,1356.5491,795.6984,1362.7991" style="stroke:#4B5563;stroke-width:1.5625;"/><line style="stroke:#4B5563;stroke-width:1.5625;" x1="603.9793" x2="603.9793" y1="1909.4299" y2="1940.6799"/><polygon fill="#4B5563" points="597.7293,1925.0549,603.9793,1940.6799,610.2293,1925.0549,603.9793,1931.3049" style="stroke:#4B5563;stroke-width:1.5625;"/><line style="stroke:#4B5563;stroke-width:1.5625;" x1="603.9793" x2="603.9793" y1="1996.8689" y2="2028.1189"/><polygon fill="#4B5563" points="597.7293,2012.4939,603.9793,2028.1189,610.2293,2012.4939,603.9793,2018.7439" style="stroke:#4B5563;stroke-width:1.5625;"/><line style="stroke:#4B5563;stroke-width:1.5625;" x1="603.9793" x2="603.9793" y1="2084.3079" y2="2115.5579"/><polygon fill="#4B5563" points="597.7293,2099.9329,603.9793,2115.5579,610.2293,2099.9329,603.9793,2106.1829" style="stroke:#4B5563;stroke-width:1.5625;"/><line style="stroke:#4B5563;stroke-width:1.5625;" x1="987.4174" x2="987.4174" y1="1909.4299" y2="1940.6799"/><polygon fill="#4B5563" points="981.1674,1925.0549,987.4174,1940.6799,993.6674,1925.0549,987.4174,1931.3049" style="stroke:#4B5563;stroke-width:1.5625;"/><line style="stroke:#4B5563;stroke-width:1.5625;" x1="987.4174" x2="987.4174" y1="1996.8689" y2="2028.1189"/><polygon fill="#4B5563" points="981.1674,2012.4939,987.4174,2028.1189,993.6674,2012.4939,987.4174,2018.7439" style="stroke:#4B5563;stroke-width:1.5625;"/><line style="stroke:#4B5563;stroke-width:1.5625;" x1="987.4174" x2="987.4174" y1="2084.3079" y2="2115.5579"/><polygon fill="#4B5563" points="981.1674,2099.9329,987.4174,2115.5579,993.6674,2099.9329,987.4174,2106.1829" style="stroke:#4B5563;stroke-width:1.5625;"/><line style="stroke:#4B5563;stroke-width:1.5625;" x1="730.9584" x2="603.9793" y1="1818.866" y2="1818.866"/><line style="stroke:#4B5563;stroke-width:1.5625;" x1="603.9793" x2="603.9793" y1="1818.866" y2="1853.241"/><polygon fill="#4B5563" points="597.7293,1837.616,603.9793,1853.241,610.2293,1837.616,603.9793,1843.866" style="stroke:#4B5563;stroke-width:1.5625;"/><line style="stroke:#4B5563;stroke-width:1.5625;" x1="860.4383" x2="987.4174" y1="1818.866" y2="1818.866"/><line style="stroke:#4B5563;stroke-width:1.5625;" x1="987.4174" x2="987.4174" y1="1818.866" y2="1853.241"/><polygon fill="#4B5563" points="981.1674,1837.616,987.4174,1853.241,993.6674,1837.616,987.4174,1843.866" style="stroke:#4B5563;stroke-width:1.5625;"/><line style="stroke:#4B5563;stroke-width:1.5625;" x1="603.9793" x2="603.9793" y1="2171.7468" y2="2199.8718"/><line style="stroke:#4B5563;stroke-width:1.5625;" x1="603.9793" x2="776.9484" y1="2199.8718" y2="2199.8718"/><polygon fill="#4B5563" points="761.3234,2193.6218,776.9484,2199.8718,761.3234,2206.1218,767.5734,2199.8718" style="stroke:#4B5563;stroke-width:1.5625;"/><line style="stroke:#4B5563;stroke-width:1.5625;" x1="987.4174" x2="987.4174" y1="2171.7468" y2="2199.8718"/><line style="stroke:#4B5563;stroke-width:1.5625;" x1="987.4174" x2="814.4484" y1="2199.8718" y2="2199.8718"/><polygon fill="#4B5563" points="830.0734,2193.6218,814.4484,2199.8718,830.0734,2206.1218,823.8234,2199.8718" style="stroke:#4B5563;stroke-width:1.5625;"/><line style="stroke:#4B5563;stroke-width:1.5625;" x1="795.6984" x2="795.6984" y1="2218.6218" y2="2249.8718"/><polygon fill="#4B5563" points="789.4484,2234.2468,795.6984,2249.8718,801.9484,2234.2468,795.6984,2240.4968" style="stroke:#4B5563;stroke-width:1.5625;"/><?plantuml-src ZLLDRzj64BtpLqnlpY5DaAE4eeYH77mga3Qt0C6Qt5Y4QP9OKevraoqL228NiP6waGFAa04vbGkXeBzg1t4l_ZdSuN_8B7SfcKe2v2A0tDbvRzwyH_tW-hRNT3WyZ-AMntyCcskU5Rknn-6tN-ukFeRx3-3c4h2NuC4koBEBx6A2-st0RY9Fku3_7Sitsu23FcvDijCKXtkM5SLCn5PjoNVu1dSUBSBBGAow_Wf4FWkZHX1J_V_PLLgtBFS5B7XyXTajS5mHjs2DYLKk00_FyM3oyns86zo7XHQFxbW0jOTXU7FvCFPOT7EvA5ndXOEvlUOA4OXfOwhDpYum6OBhhpFXCZ-6xBID7mRgJA7IMVv-dEybMTgUnw7RURzB1C1cVk2xDlF0Rd1xDGnSFwxh2WCSifONC4SUNS-AvM42H4CU3aojuCovkypiLMYmg77F3feLFfgHVYPbJuZwbvIeJLMYOPATfFNop2maQCRBmGOGzonDG6wtiRE9oRLYbEycj4PzWNiHXmK_cBRMJTLcYJYf3_dM24WZ_BizXQ0c-6b2m6qyE29BZFBjSQKhG1G7eGRm7VU5DGzKCyrdijw6g6bx0QPZsHi3zaVog5y1CErryzkjbNxJfjdPjV43xHPaZzfSVNtBMdAvarHtztH92M4ifKdLPx35hrN3qIwnL7SZzOhi7OHSiDWDV1nqd_bPke-3zkpbaaCfWL3NcfMetfSqVUtNPiYM6StJ8AVCnIDGEYdVm4yW-5eGy-BfYt14NAnpyOIlkn71GPQUO6zOH047r_Ynd-_rvUi_IuUG6VMP2NAnLBapLYyBcUVbrJmAabCUme1zHLe3ewBFXPeL3tRactt0JoEPzghhh7h45Ce__iM_pl5jIbA05jlOfFpeT3RppcrRL_PJP7nhWk-FgH-5QfXt1YNBwSoRT5neP-9k75xDUYbHEInjzrjHh-6xS_aXBJMEchJyY3kyEBljAdotO-3hHkWoN4KUlfkJielwz63d5V2DaDinTqe768_XIPT6rvz4dJwZtzIPSpmre9gIeeE3xTdWnhJ__Ax-3eQRqrqQoTKwFmC0?></g></svg>